<?xml version="1.0" encoding="utf-8"?>
<!-- Generator: Adobe Illustrator 19.2.0, SVG Export Plug-In . SVG Version: 6.00 Build 0)  -->
<svg version="1.1" id="Layer_1" xmlns="http://www.w3.org/2000/svg" xmlns:xlink="http://www.w3.org/1999/xlink" x="0px" y="0px"
	 viewBox="0 0 954.2 503.4" style="enable-background:new 0 0 954.2 503.4;" xml:space="preserve">
<style type="text/css">
	.st0{fill:#FDFDFD;}
	.st1{fill:#030303;}
	.st2{fill:#353535;}
</style>
<g>
	<path class="st0" d="M770.2,503.4c-256.4,0,65.5,0,6.4,0c7.6-2.3,11.2-7.2,10.9-14.6c-0.1-2.2,0.1-4.5,0-6.7
		c-0.6-21.1-1.2-42.1-1.9-63.2c-0.1-1.7,0.1-2.8,2.3-2.5c1.7,0.2,3.7-0.7,3.7,2.3c0,7.7,0.4,15.5,0.6,23.2c0,1.6,0.1,3.2,0.6,4.7
		c1.5,5.4,4.9,8.1,10,7.8c5.5-0.3,9.7-3.9,10.5-8.9c0.3-2.1,0.5-4.1,0.4-6.2c-0.4-12.5-2-24.9-1-37.4c0.2-2.5,0.8-3.5,3.3-4.2
		c6.4-1.8,12-4.8,16-10.1c1.2,0,2.3-0.1,3.5-0.1c32,0,64,0,96,0c3.5,0,6.9,0.2,10.4-0.5c0.8-0.2,2.1,0.3,2.1-0.8
		c-0.1-0.8-1.3-0.5-2.1-0.6c-8.7-0.1-17.3-0.5-25.8-1.1c0.4-0.8,1.3-2-1.2-1.8c-7.6,0.5-15.3,0.1-22.9,0.2c-1.2,0-2.2,0-3.3,0.6
		c-5.1,2.5-10.5,2.1-16.4,1.7c2.9-1.4,3.3-2.2,1.8-3.1c-2.9-1.7-6.2-2.2-9.4-1c-1.4,0.5-3,1.5-2.9,3.3c0.1,1.7-0.9,1.5-2,1.4
		c-0.9-0.1-1.8-0.1-2.6-0.2c-1.7-1.3-3.8-1.3-5.9-1.1c-1.2-0.6-2.4-0.9-3.8-0.6c-0.7-0.1-1.4-0.2-2.1-0.3c-0.6-0.6-1.3-0.7-2.1-0.4
		c-1.6-0.3-3.2-0.3-4.8,0c-1.1,0-2.1-0.1-3.2-0.1c0-0.3-0.1-0.7-0.1-1c0.6-0.2,0.7-0.5,0.5-1c0.2-0.5,0.4-1,0.6-1.5
		c3.4-0.4,6.8,0.3,10.1-0.4c0.4,0,0.9,0.1,1.3,0.1c32.6,0,65.2-0.5,97.8,0c0.6,0,1.2-0.1,1.7-0.6c0.9-0.2,1.7-0.5,2.6-1.3
		c-2.6-1-5-0.6-7.4-0.7c-0.6-0.6-2-0.1-1.9-1.3c0.1-0.9,1.1-0.5,1.7-0.7c2.2-0.8,2.9-2.7,1.5-4.2c-0.2-0.6-0.2-1.1,0-1.7h0.2
		l0.1-0.1c0.7,0,1.4,0,2.1-0.1c0.6,0,1.3-0.2,1.5-0.8c0.1-0.8-0.8-0.7-1.3-0.9c-0.4-0.2-0.8-0.2-1.2-0.2c-1.9-0.6-3.9-0.5-5.8-0.6
		c-1.8-0.8-3.6-0.8-5.4,0c-1.1,0-2.2,0.2-3.2,0.5c-1.3-0.1-2.6-0.2-3.8,0.4c-0.7,0-1.4,0-2.1,0c-1.3-0.8-2.5-0.9-3.8,0
		c-0.5,0.1-1,0.2-1.5,0.3c-0.4-0.2-0.8-0.2-1.1,0.3c-1.8,0-3.5,0-5.3-0.1c-1.6-0.6-3.2-0.4-4.9-0.2c-1.7-0.2-3.5-0.3-5.2,0
		c-0.5-0.2-0.9-0.2-1.1,0.3c-0.3,0.1-0.7,0.2-1,0.3c-0.4-0.3-0.8-0.2-1.1,0.2c-1.6,0-3-1.2-4.7-1c-1.4-0.7-2.8-0.5-4.3-0.4
		c-0.3-0.1-0.5-0.1-0.8-0.2c-1.4-1.4-3.2-0.7-4.8-0.7c-0.8,0-1.5,0.3-2.4,0c-5.3-1.7-10.9-1.4-16.4-1.9c-1.4-0.1-2.8-0.8-4.2-0.5
		c-5,1-10.2,0.7-15.3,1.5c-1.4,0-2.8-0.1-4.2-0.1c-3.9-1.8-8.4-1.4-12.5-2.6c-2.1-0.6-4.4-1.1-6.7-0.7c-2.8-0.4-5.6-0.4-8.4,0
		c-2.6-0.2-5.1,0-7.5,0.8c-0.3,0-0.7,0.1-1,0.1c-3.1,0.1-6.1,0.6-9.1,1.5c-0.4,0-0.7,0.1-1.1,0.1c-1.4-0.3-2.8,0.1-4.2,0.3
		c-6.8,0.9-13.6,2-20.5,0.6c-0.3,0-0.6,0-1,0c-4,1.2-8.2,1-11.8-0.4c-2.1-0.9-4-1.5-6.2-1.3c-2.6,0.2-5.2,0.5-7.8-0.8
		c-1-0.5-2.4-0.5-3.6,0c-0.3,0-0.7,0.1-1,0.1c-3,0.5-6,1-9.1,1.5c-0.5,0-1.1,0.1-1.6,0.1c-0.7-0.3-1.4-0.2-2.1,0
		c-5.2,1.5-10.5,1.5-15.8,1.7s-10.6,0.5-15.9,0.8c-0.7,0-1.4-0.1-2.1-0.1c-2.1-0.6-4.4-1.4-6.5-0.6c-3.5,1.4-7.1,2.2-10.9,1.6
		c-4.6-0.7-9.2,1.6-13.9-0.2c-1.5-0.6-3.3-1.4-5.1-0.3c-0.6,0.3-1.1-0.2-1.5-0.7c-1.9-2-3.8-1.1-5.7,0l0,0c-2.6,0.5-5.2,0.8-7.7-0.6
		c-0.7-0.4-1.7-0.1-2.6-0.2c-3.2-0.1-6.5,0.6-9.6-0.9c-4.9-2.3-10.1-1.9-15.3-0.7c-0.4,0-0.7,0.1-1.1,0.1c-4.3,0.3-8.6,1.3-12.9,0.9
		c-0.3,0-0.7-0.1-1-0.1c-2.5-2.3-5.1-2.2-8.3-1c-3.2,1.3-7.6-0.3-10.2-3.3c1.4,0,2.5,0,3.6,0c34.8-0.3,69.6-0.6,104.4-0.8
		c3.1,0,6.2-0.4,9.1,0.8c0.3,0,0.7,0.1,1,0.1c2,0.4,3.9,0.9,5.9,1.2c2.8,0.5,5.7,0.8,8.5-0.3c0.3-0.1,0.7-0.1,1-0.2
		c5.9-0.9,11.6-2.5,17.6-2.3c5.9,0.1,11.7,0.1,17.6-0.1c1.1,0.1,2.1,0.2,3.2,0.2c28.7-0.2,57.3-0.5,86-0.7c4.2,0,8.5,0.2,12.7-0.3
		c3.9,0,7.8,0,11.7-0.1c0.3,0.1,0.7,0.2,1,0.2c22.9-0.1,45.8-0.3,68.7-0.5c1.3,0,2.4-0.4,3.3-1.3c0.4,0,0.7-0.1,1.1-0.1
		c4.7,0.3,9.4,0.5,14.2,0c-0.8-1-1.8-0.8-2.7-0.8c-2.6,0-5.1,0.1-7.7,0.1c-1.8,0-1.4-0.8-0.5-1.6c0.9-0.1,1.8-0.1,2.6-0.2
		c1.8,0,1.4-1.2,1.3-2.2c0.4-1.1-0.1-2-1.2-2.5c-0.9-1.1-1.3-2.1,0.5-2.9c1-0.4,1.5-1.7,1-2.6c-1-1.6-0.6-4-3-4.9
		c1.1-0.9,2-0.4,2.9-0.1c1.3,0.4,2-0.5,2.6-1.3c0.5-0.6,0.9-1.3-0.4-1.7c-0.7-0.9-1.5-1.2-2.6-0.8c-1.8,0-3.6,0-5.4,0
		c-0.9-0.2-1.7-0.3-2.6,0c-1.4-0.3-2.5,0.2-3.7,0.8c-0.5,0-1,0.1-1.6,0.1c-0.4,0-0.9-0.1-1.3-0.1c-26.3,0.3-52.7,0.5-79,0.8
		c-0.4,0-0.9,0.1-1.3,0.2c-0.5,0-1.1,0-1.6,0c-0.5-0.1-1-0.2-1.6-0.2c-16.9,0.2-33.8,0.3-50.7,0.5c-0.5,0-1,0.2-1.5,0.3
		c-6.1,0.1-12.1,0.1-18.2,0.2c-0.6-0.1-1.2-0.2-1.8-0.2c-24.6,0.2-49.3,0.5-73.9,0.7c-0.5,0-1,0.1-1.5,0.2c-5.1,0-10.3,0.1-15.4,0.1
		c-0.9-0.1-1.8-0.2-2.6-0.2c-41.5,0.4-83.1,0.8-124.6,1.2c-1.5,0-3-0.3-4.5-0.5c-4.4-0.6-8.8-1.6-13.3-1.5c-0.4,0-0.8,0-1.2,0
		c-2.7-2.2-5.3-0.6-8,0.1c-0.5-0.2-1-0.2-1.5,0.1c-3.3-0.5-6.4-0.1-8.8,2.4c-6.3,0.1-12.6,0.1-18.9,0.2c-3.6-0.5-7.2-0.2-10.8-0.1
		c-3.5,0-7-0.3-10.5,0.4c-16.5,0.1-33,0.3-49.5,0.4c-3.1-0.3-6.1-0.3-9.2,0.1c-12.1-0.1-24.1,0-36.2,0.4c-1.6-0.5-3.3-0.4-4.9,0
		c-13.5,0.1-27,0.2-40.4,0.3c-6.4-0.2-12.8-0.3-19.3,0.2c-10.8,0.1-21.7,0.1-32.5,0.2c-14.4,0.1-28.8,0.3-43.2,0.5
		c-3.3-0.5-6.5-0.2-9.8-0.1c-3.7,0.1-7.4-0.4-11.1,0.4c-16,0.1-31.9,0.3-47.9,0.4c-3.8-0.3-7.5-0.3-11.3,0.1
		c-11.5,0.1-22.9,0.2-34.4,0.3c-15.2,0.1-30.4,0.3-45.5,0.5c-6.4-0.3-12.8-0.4-19.3,0.2c-17.3,0.2-34.5,0.3-51.8,0.5
		c-2.3-0.1-4.6-0.2-6.8-0.2c-1.2,0-2.3,0.5-2.1,1.7c0.2,1.5,1.4,0.6,2.3,0.5c1.9-0.2,4-0.8,5.8-0.4c1.6,0.4,3.2,0.9,4.9,0.6
		c2.3-0.3,2.1,0.6,1.3,2c-0.1,0-0.2,0.1-0.2,0.2c-1.5,1.6-0.3,2.7,0.7,3.9c0.3,0.2,0.5,0.5,0.8,0.7c0.3,0.5,0.7,0.8,1.4,0.7
		c0.2,0.1,0.5,0.2,0.7,0.3c0.3,0.6,0.8,0.8,1.4,0.8l0,0c0.4,1.4-0.5,3,0.8,4.3c0.1,0.5,0.2,1.1,0.4,1.6c-0.1,1.7-1.4,1.7-2.7,1.6
		c-6.4-0.6-12.9,0.4-19.3-0.2c-0.4,0-1.1-0.2-1.2,0.6c1.7,0.7,3.4,1.2,5.3,1.2c17.5-0.1,35.1-0.2,52.6-0.4c0.7,0,1.4,0.2,2-0.3
		c17.2-0.1,34.5-0.2,51.7-0.4c3.4,0.3,6.8,0.4,10.2-0.1c5.1,0,10.3-0.1,15.4-0.1c0.5,0.1,1,0.2,1.6,0.2c13.2-0.1,26.4-0.2,39.6-0.3
		c0.5,0,1-0.2,1.5-0.3c15.3-0.1,30.5-0.2,45.8-0.3c9.2,0.4,18.4,0,27.6,0c0.6,0,1.3,0.2,1.8-0.3c8,0.2,16,0.1,24-0.2
		c2.3,0.6,4.7,0.3,7.1,0.2c6.9-0.1,13.8,0.2,20.7-0.4c6.2,0,12.4,0,18.5,0c1.6,0,3-0.1,2.9,2c0,0.8,0.9,1.6,1.8,2
		c0.1,0.6,0.5,1,1.2,1c0.7,0.5,1.3,1,2,1.5c0.4,0.8,1.1,1.3,1.8,1.9c0,0.7,0,1.3,0,2c-1,0.4-2.1,0.3-3.1,0.3
		c-25.6,0.2-51.2,0.3-76.9,0.5c-0.9,0-1.8-0.2-2.6,0.3c-12.3,0.1-24.5,0.1-36.8,0.2c-1-0.1-1.9-0.2-2.9-0.2
		c-26.1,0.2-52.2,0.3-78.3,0.6c-8.2,0.1-16.3,0.3-24.5,0.4c-7.1,0-14.2,0.1-21.3,0.1c-0.3-0.1-0.5-0.2-0.8-0.2
		c-15.5-0.1-31,0.7-46.5-0.6c-2.4-0.2-4.7-0.3-7-1.3c-2.2-1-4.6-1-6.9,0.2c-0.3,0-0.5,0.1-0.8,0.1c-3.2-0.3-6.5,1.1-9.7,0
		c-0.4-0.1-1.1,0.2-1.4,0.4c-1.9,1.4-4.1,1.3-6.3,1.5c-2.9,0.2-5.8,0.4-8.7,0c-0.6-0.1-1.6,0-1.5,1c0.1,0.8,0.9,0.8,1.5,0.7
		c2-0.2,4.1,0.3,6.1-0.3c0.5,0.1,1,0.1,1.6,0.2c0.5,0.5,1,0.5,1.6,0c5.1-0.1,10.2-0.2,15.2-0.3c0.3,0.7,0.1,1-0.7,1.1
		c-0.7,0.1-1.5-0.2-2.2,0.3c-1.3-0.1-2.6-0.3-3.7,0.5c-1.5,1.4-0.7,2.3,0.8,2.9c0.9,0.4,2,0.5,2.8,2.2c-5.6-1.2-10.7,0.3-15.9-0.2
		c-0.7-0.1-1.8-0.4-2,0.7c-0.1,1.1,1.1,0.8,1.8,0.9c2.6,0.5,5.1-0.4,7.7-0.3c4.4,0,9,1.6,13.2-0.8c0.2-0.1,0.8,0,1,0.2
		c1.1,1,2.5,0.7,3.8,0.7c8.2,0,16.3,0.1,24.5,0c48-0.2,96.1-0.3,144.1-0.5c0.8,0,1.6,0.2,2.3-0.3c1.2,0,2.3,0,3.5,0
		c3.1,0.6,6.2,0.3,9.2,0.2c4.9,0,9.9,0.4,14.8-0.2c0.5,0,1,0,1.5,0c2.1,0.2,4.1,0.7,6.2,0.7c8,0,16-0.2,24-0.4
		c1.5-0.1,2.9,0.5,4.5,0.4c3.6-0.3,7.2-0.6,10.8-0.7c22.5-0.1,44.9-0.1,67.4-0.2c0.9,0,1.8,0,2.6,0.3c3.2,0.9,6.3,1.8,9.7,2
		c6.5,0.4,12.9,0.6,19.4,1.1c1.4,0,2.8,0.1,4.2,0.1c0.6,0.2,1.1,0.4,1.7,0.7c0.8,0.4,2.1,0.7,1.8,1.8c-0.3,1-1.5,0.5-2.3,0.5
		c-4.9,0.1-9.7,0-14.6,0.1c-4.7,0.1-9.5-0.3-14.2,0.3c-11.4,0-22.8,0-34.2,0c-10.4,0-20.9,0.1-31.3,0.2c-0.7-0.4-1.6-0.2-2.3-0.2
		c-42.7,0.1-85.4,0.2-128,0.4c-0.7,0-1.4-0.2-2,0.4c-0.9,0-1.7,0-2.6,0c-0.8-0.1-1.6-0.2-2.4-0.2c-30.2,0-60.4,0.1-90.6,0.1
		c-12.5,0-24.9,0.4-37.4,0c-4.4-0.1-8.8,0.4-13.3,0.2c-1.7-0.1-3.4,0-5.1,0.1c-1.1,0-2.1,0.2-2.9,1.3c2,0.4,3.9,0.6,5.8,0.5
		c10-0.7,20.1-0.4,30.1-0.5c7.3-0.1,14.7,0,22,0c20.6,0.1,41.2-0.3,61.8-0.1c30,0.3,59.9-1.8,89.9,1.1c1.8,0.3,3.6,0.2,5.4,0
		c2.2,0.2,4.3,0.4,6.5,0.6c0.3,0,0.6,0,0.9,0c1.4-0.4,2.7-0.5,4.2,0c1.3,0.4,3.1,0.6,4.5-0.4c0.8,0,1.6,0,2.4,0
		c0.7,0.6,1.4,0.8,2.3,0.5c0.3,0,0.6,0,0.9,0c2.3-0.3,4.3,0.5,6.5,1c0.3,0,0.5,0.1,0.8,0.1c0.7,0.6,1.4,0.6,2.1,0
		c0.8,0,1.4-0.3,1.8-0.9c1.1-0.2,1.6-2.9,3.3-0.8l0,0c1.7,1.7,3.8,1,5.8,0.9c1.2-0.1,3.2-1,2.3,1.6c-0.2,0.4,0.3,0.9,1,0.7
		c0.5,0.2,1,0.2,1.5-0.1c0.7,0.3,1.5,0.2,2-0.1c2-1.2,3.7-0.2,5.4,0.7c1.2,0.7,2.7,3,3.1,4.3c0.1,0.3,0.4,0.5,0.6,0.8
		c0,0.1,0.1,0.2,0.2,0.2c0.8,1.3,2.2,1.3,3.5,1.2c3.1-0.3,6.1-0.4,9.2-0.6c2.6-0.2,4.7-1.4,5.2-4.2c0.3-0.2,0.5-0.4,0.8-0.6
		c1.1-0.3,2.2-0.7,2.8-1.8c0.3-0.3,0.7-0.6,1-1c1.7-0.7,3.7-0.2,5.2-1.3c0.4,0,0.7-0.1,1.1-0.1c3,0.4,6.2-0.8,9.1,0.9
		c0.5,0.3,1,0.2,1.6,0c2.1-0.3,2.9,1.5,4.3,2.4l0,0c0,0.6,0.4,1,1,1.1c0.1,0.4,0.4,0.5,0.8,0.6c2.9,1.6,6.1,2.1,9.4,2.4
		c0.3,0.1,0.7,0.1,1,0.2c2.5,1.1,5.3,1.2,8,1.7c3.4,0.6,6.1-0.3,8.6-2.7c3.5-3.5,7.8-5.8,12.8-7c2.4-0.6,3.4,1,4.6,2.2
		c1.4,1.4-0.8,1.1-1.2,1.7c-0.5,0.8-0.5,1.4,0.1,2c0.5,0.6,1.2,1.2,2,0.7c0.7-0.5,1.5-1.3,0.7-2.1c-1.8-1.7,0.5-2,1-2.8
		c0.7-1.1,1.8-0.8,2.7-0.1c1,0.7,1.9,0.8,2.9,0.1c2.8-2.1,6.1-2.4,9.5-2.4c3.2,0,6.3-0.3,9.5-0.5c0.2,0,0.5,0,0.7,0
		c1,0.6,2.1,0.7,3.3,0.8c4.1,0.5,8.5,0.4,10.2,5.2c0.1,0.2,0.4,0.2,0.6,0.4l0,0c0.3,0.3,0.4,0.7,0.8,0.9c2.1,1.1,3.3,2.2,2.4,4.9
		c-0.4,1.2-0.9,3.7,1.8,4.4c0.3,0,0.6,0,0.9,0c0.9,0.2,1.5-0.1,1.9-0.9c1.2-2.9,3.5-3.9,6.6-3.6c1.5,0.1,3,0.4,4.3-0.4
		c0.6,0,1.1,0,1.7,0c2.1,0.9,3.4,2.6,4.8,4.1c0.7,0.7,1.3,1.9,2.5,1.5c1.4-0.4,1.3-1.8,1.2-2.8c-0.4-3.7,1-7.2,0.7-10.9
		c-0.2-1.9,0.7-2.6,3-2.9c2.2-0.3,4.9,0.1,6.7-1.3c1.4-1.1,2.9-1.4,4.6-1.4c11.8,0,23.6,0,35.4-0.1c2.3,0,4.4,0.4,6.4,1.4
		c3.8,1.9,7.9,2.3,12.1,2.3c0.3,0,0.7,0,1,0.1c3.1,0.7,6.2,0.7,9.1-0.3c2.2-0.7,4.1-0.8,5.8,0.9c0.7,0.7,1.6,1.1,2.6,1.1
		c4.7,0,8.7,1.9,12.5,4.3c1.5,0.9,3.1,1.5,4.7,2.4c1.6,0.9,2.9,1,4.3-0.3c0.6-0.6,1.6-1.1,2.4-0.7c5.1,2.3,8.5-3.2,13.2-2.4
		c0.3,0.1,0.9-0.7,1.2-1.2c0.4-0.5,0.8-0.8,1.4-1.1c2.7-1.3,5.4-2.7,7.1-5.2c1.3,0,2.5,0,3.8,0c0.6,0.5,1.2,1,1.8,1.5
		c0,0.1-0.1,0.2-0.1,0.2c0,0.1,0.1,0.3,0.1,0.4c1.2,1.5,2.6,0.5,3.9,0.3c0.5,0,1.1-0.1,1.6-0.1c1.9,0.1,3.8,0.1,4.4,2.3
		c0.7,2.7,2.4,3.2,5,2.2c0.8-0.3,2.2-1,2.6,0.1c1,2.6,2.2,1.6,3.7,0.6c0.8-0.5,1.7-0.8,2.7-0.9c1.3-0.1,2.6-0.5,2.8,1.6
		c0.1,1.2,1.5,1.1,2.4,0.8c1.5-0.5,2.9-1.3,4.3-1.9c2.8-1.2,6.4-0.5,6.9,1.6c0.5,1.9,1.8,3.6,1.8,5.7c0,0.8,0.3,1.5,1.4,1.4
		c1.1-0.1,1.9-0.5,1.8-1.7c-0.1-1.5-0.1-3,0.2-4.5c0.2-0.7,0.4-1.5,1.1-1.9c3-1.6,9.6,1.4,9.9,4.6c0.6,6.7,1.4,13.4,5.4,19.3
		c1.7,2.5,3.1,5.3,5.9,6.9c-1.9-4.1-4.9-7.7-6.1-12.2c-1.6-5.6-2.8-11.2-3.1-16.9c-0.1-1.6,0.3-2.7,2.2-1.2c1,0.8,1.7,0.3,2.6-0.3
		c3.2-1.8,6.4-2.3,9.8-0.4c2.4,1.3,4.8,2.5,7.3,3.6c1.2,0.5,2.5,0.7,3.3-0.6c0.9-1.3,2.2-2.4,2.7-4l0.1-0.1c3.3-1.2,6.8-1,10.2-1
		c1.4,0,1.5,0.8,1.5,1.8c0.3,3.4,1.3,6.6,4.1,8.9c4.3,3.5,9.5,5,15.2,5.1c0.4,0.1,0.8,0.1,1.1,0.2c1.2,6.7,7,12.3,14.9,12.2
		c1.4,0.3,2.7,0.3,4.1,0c4,0.1,7-1.7,9.1-4.6c3.2-4.3,4.1-9.3,3.7-14.5c-0.2-2.1,0.5-3.1,2.7-3.2c0.7,0,1.5,0,2.2,0
		c4.6,0.6,9,1.9,12.8,4.4c0,0.2,0.2,0.3,0.4,0.3c3.6,4.1,7.1,8.2,9.1,13.3c4.2,10.7,5.6,22,6.1,33.3s0.5,22.6,0.9,33.9
		c0.2,4.3,1.3,8.5,5.3,11.5l0,0C766.6,501.8,769.1,501.8,770.2,503.4z M946.2,316.8c-1.6-1.9,0.8-3.6,0.4-5.4c0.2,0,0.3-0.1,0.5-0.1
		c1.3,0.2,2.5,0.4,3.6-0.5c1.1-0.2,1.9-0.7,2.5-1.6c0.8,0,1-0.5,0.9-1.1s-0.6-0.7-1.2-0.5c-3.7-0.3-7.4-0.1-11.1,0
		c-9.6-0.4-19.1,0-28.7,0.1c-0.2,0-0.5,0.2-0.7,0.3c-13,0.1-25.9,0.2-38.9,0.4c-1.8-0.4-3.6-0.3-5.4,0c-6.6,0.1-13.1,0.1-19.7,0.2
		c-4.4-0.5-8.9,0-13.3-0.2c-0.1-0.1-0.2-0.3-0.3-0.4c-0.5-2-1.6-3.5-3.4-4.7c-0.4-0.6-0.9-1.1-1.5-1.4c-1.1-1.7-2.7-2.9-4.3-4
		c0-0.2-0.1-0.3-0.3-0.3c-0.7-1.9,0.7-1.9,2-1.7c3.4,0.7,6.7,1.7,10.1,2c6.5,0.7,12.5-0.2,17.3-5l0.1-0.1c3-2,4.5-4.9,5-8.2
		c1.1-6.8-1.5-12.7-5.3-18.4c-4.9-7.3-8.4-15.1-8-24.1c0.3-7.9-1.2-15.6-4.7-22.9c-3.6-7.6-8.3-14.4-15.2-19.9l0,0
		c-0.8-1.2-1.9-2.2-3.3-2.8c-0.3-0.2-0.6-0.5-0.9-0.7c-2.7-1.7-2.9-3.9-1.5-6.4c0.5-0.9,0.7-2,0.9-3.1c0.2-1.5,1-1.5,2.2-1.1
		c0,0.2,0.1,0.3,0.3,0.3c2.7,2.2,5.7,3.4,9.3,3.5c1.4,0.3,2.7,0.3,4.1,0c3.9-0.2,7-2.9,7.3-6.3c0.3-3.1-2.1-6-5.9-6.8
		c0.7,1.2,1.1,2.3,0,3.3c-0.4,0-0.8,0-1.1,0c-1.5-0.8-2.9-1.6-4.4-2.5l0,0c-0.9-1.7-1.8-3.4-2.2-5.3c-0.1-0.5-0.3-0.9-0.4-1.4
		c-2.5-10.5-11.7-9.2-18.3-5.6c-2,1.1-3.2,1.5-5.1,0.4c-1.2-0.7-2.5-1.3-3.8-1.8c-2.9-1.1-5.9-1.6-9-0.4c-0.2,0-0.5,0.1-0.7,0.1
		c-4.1,0.3-7.7,1.5-10.8,4.1c-0.2,0-0.3,0-0.4,0.2c-3.6,1.7-7.4,3.2-10.2,6.1c-1.2,1.2-2.2,2.6-1.5,4.3c2.6,6.2,4,13,8.2,18.6
		c1.4,1.9,1,2.3-1.2,2.7c-8.8,1.7-17.5,3.6-26.2,5.4c-1.8,0-3.6,0-5.4,0c-1.7-0.6-3.5-1.1-5.3-0.8c-0.6,0-1.2-0.1-1.8-0.1
		c-3.9-0.9-7.9-0.7-11.8,0c-1.5,0-3,0.1-4.5,0.1c-5.9-0.2-11.8-0.3-17.6,0.7c-0.5,0-1.1,0.1-1.6,0.1c-1.4-0.3-2.9,0-4.2,0.3
		c-1.9,0.5-2.6-0.1-3.2-1.8c-3.5-9.8-6.2-19.8-10.4-29.3c-0.6-1.3,0-1.9,1.3-1.9c1.4,0,2.8,0.2,4.2,0.3c0.9,0.2,1.7,0.2,2.5,0
		c2.5-0.3,4.5-1.3,6-3.2c0.3-0.2,0.6-0.5,0.9-0.7c1.9-0.9,3.5-2.2,4.8-3.9c0.7-0.3,1.3-0.8,1.7-1.4c0.6-0.1,1.1-0.4,1.2-1
		c1.4-0.8,2.6-1.8,3.6-3c0.7,0,1.1-0.4,1.2-1c1.4-0.8,2.6-1.8,3.6-3c0.7-0.1,1.1-0.4,1.2-1c3.6-2.6,7-5.5,9.7-8.8
		c3.6-4.4,3.8-7.1-0.2-10.8c-5.9-5.4-11.1-11.5-16.5-17.3c-3.8-4-7.5-8-12-11.4c-3.1-2.3-6.3-4.6-10.3-4.8c-3.4-0.2-6.1-1.6-8.8-3.2
		c-1.9-1.1-1.9-2.1-0.1-3.1c2.9-1.6,3.7-4.1,3.4-7c-0.2-2.7,0.3-5.3,1.8-7.7c1.6-2.6,1.1-5-1.1-7.3c-3.3-3.4-6.8-6.6-10.9-9.1
		c-4.6-2.9-9.2-4.8-14.9-2.5c-2.8,1.1-5.3,2.3-6.8,4.9c-2,3.4-3.7,6.8-5.3,10.3c-1.2,2.7-1.3,5.1,0.8,7.4c2.7,2.9,1.8,6.1,0.4,9.1
		c-0.4,0.9-1.3,1.3-2.3,1.5c-1.2,0.2-1.5-0.7-1.9-1.4c-1-1.9-2.2-3.7-2.8-5.7c-1.4-5.3-2.9-10.7-0.1-16.1c0.7-1.3,0.7-2.7,0.4-4.2
		c-1.4-6-2.7-12-4.1-18.1c-0.4-1.6-1.3-3.3-1-4.8c0.3-1.9,2.9-1.8,4.4-2.8c8.6-5.2,9-15,0.7-20.4c-1-0.7-0.9-1.2-0.5-2.1
		c1.1-2.6,1.9-5.2,1.8-8c-0.1-3.9-1.5-5.5-5.5-6.6c-0.5-0.1-1.1-0.2-1.4-0.6c-3.7-4-8.4-2.6-12.9-2.3c-1.4,0.1-3,0.5-4.1,1.7
		c-0.9,0.9-1.9,1.3-3.2,1.6c-4.2,1.1-5.8,3.9-4.7,7.9c0.7,2.3,1.7,4.6,3.1,6.6c0.8,1.1,0.8,1.8-0.3,2.7c-6,5.2-6,12.1-0.2,17.5
		c2.3,2.2,5.1,3.7,8,4.8c1.4,0.5,1.8,1.2,1.4,2.7c-0.9,3.2-1.5,6.5-2.1,9.8c-0.9,5-1.4,10,0.8,14.8c1.7,3.7,1.5,7.3,0.2,11.1
		C617.8,92,618,102,622.5,112c3.6,8,6.5,16.4,9.7,24.6c0.7,1.7,0.6,3.4,0,5.1c-2.2,6.6-5.1,12.9-8.2,19.2c-2,4-2,4.1,1.7,7.1
		c1.3,1.1,1.3,1.8,0.4,3.1c-3,4.9-6,9.8-8.8,14.8c-7,12.2-12.9,24.7-13.9,38.7c-0.4,5.2-0.6,10.4-3.5,15.1c-0.7,1.1-1.2,2.3-2.2,3.3
		c-5,4.6-9,9.9-10.2,16.6c-0.7,4-1.4,8.1-2.2,12.1c-2.5,11.8-6.9,22.7-16.8,31c-2,1.7-3.3,3.7-3,6.4c0.2,1.5-0.5,1.9-2,1.9
		c-4.9,0-9.8,0.1-14.7,0.1c-1.2,0-2-0.3-2.5-1.4c-1.7-3.1-1.7-6.6-2.9-9.8c-0.3-0.9,0.5-1.1,1.2-1.4c8.5-3.3,9.9-9.3,9.6-17.2
		c-0.1-3.3-1.6-6.3-4.2-8.6c-3.6-3.2-7.1-6.5-10.8-9.6c-2-1.7-3.4-3.8-4.5-6.1c-2-4.5-3.5-9.3-6.2-13.5c-1.1-1.7-1.1-3.2-0.5-4.9
		c1.2-3.4,2-6.9,2.4-10.5c0.1-1.3,0.7-2.3,1.5-3.3c5.2-5.8,9.5-12.2,12.1-19.5c1.9-5.4,5.4-9.9,9.6-13.9c1.7-1.6,2.7-1.5,4.5,0
		c12.9,10.5,30.7,10.6,43.9,0.4c16.3-12.6,19.3-37.1,6.5-53.6c-7.8-10-18.3-15.3-31.7-13.9c-15.2,1.6-27.7,12.5-31.2,26.7
		c-0.5,2.1-1.4,2.6-3.5,2.7c-23.9,0.8-47.8,1.6-71.6,2.6c-2.7,0.1-3.6-0.6-4.3-2.9c-4.3-15.4-20.1-26.3-36.5-25.2
		c-17.6,1.2-32,13.5-34,29.6c-1.7,13.9,3.3,25.4,15.7,33.3c12.1,7.7,24.9,7.9,37.8,1.4c1.5-0.8,2.1-0.4,2.9,0.8
		c2.9,4.8,5.4,9.8,7,15c1.5,4.8,3.8,9,9.1,11.3c4.9,2.2,4.9,2.5,3.1,7.3c-2.1,5.6-2,10.8,1.7,15.9c4.2,5.8,8.1,11.7,12.3,17.5
		c1.4,1.9,3.1,3.7,4.2,6.2c-0.8-0.1-1.3-0.2-1.8-0.3c-17.4-3.1-34.8-3.4-52.1,0.3c-8,1.7-9.3,5.8-3.7,11.4c8.3,8.3,17.1,16.2,26,24
		c1.6,1.4,1.8,2.4,0.2,3.9c-2.5,2.3-5.2,4.3-8.2,5.9c-1.9,1-4.2,0.4-6.3,0.4c-0.8,0-0.8-0.6-0.8-1.3c0.1-3.3-1.5-5.7-4.5-7.4
		c-1-0.6-1.8-1.4-1-2.4c1.5-1.9,0.3-2.9-1-4.4c-2.1-2.5-5.4-4.8-3.4-8.9c0.5-0.9,0.3-2.1,0.4-3.2c0.1-1.4-1.3-1.7-2.2-2.2
		c-0.6-0.3-0.9,0.2-1.2,0.6c-2.4,3.4-6.2,4.2-10.1,2.3c-1.1-0.5-2.4-1.1-3.2,0.3s-1.5,0.7-2.3,0.1c-1-0.8-1-1.5,0-2.2
		s2.2-1.7,2.1-2.8c-0.3-2.7,1.7-4,3.2-5.7c1.2-1.3,2.8-2.6-0.7-3.1c-0.3,0-0.7-0.5-0.9-0.8c-1.1-2-2-0.9-2.5,0.2
		c-0.9,2.2-2.9,2.5-4.8,2.9c-1,0.2-1.7-0.2-1.1-1.2c1-1.8,0.3-2.6-1.6-3c-0.6-0.1-1.2-0.3-1.4-1c-0.2-0.6-0.3-1.4-1.3-1.2
		c-0.8,0.2-0.8,1-0.8,1.7c-0.1,1.6-0.9,1.5-2.1,0.8c-3.8-2.1-4.8-4.1-4-8c0.1-0.4,0.2-0.8,0.1-1.2c-0.4-1.8,0.1-2.7,2.2-2.7
		c0.8,0,1.7-0.2,1.8-1.1s-0.3-1.9-1.4-2.1c-1.4-0.2-1.8-1.3-2.4-2.2s-1.3-1.6-2.6-1.3c-1.2,0.3-1.6-0.3-1.6-1.3
		c0.1-1.8-0.8-3.3-1.8-4.6c-1.4-1.8-2.9-1.7-4.2,0.1c-0.5,0.7-1,1.4-1.5,2.1c-1.8,2.5-3.6,3-6.6,2c-0.5-0.2-1-0.4-1.5-0.1
		c-2.4,1.4-2.5,5.5-0.2,7c1.6,1,3.2,2.1,4.8,3.1c1,0.6,1.1,1.3,0.9,2.5c-0.5,2.9-2.4,4.2-4.9,5.3c-2.4,1-5.4,1.9-7.3,1.5
		c-2.2-0.5-4.9-1.9-6.7-3.6c-1.7-1.6-4.9-1.8-5.5-4.6c0-0.2-0.6-0.2-1-0.3c-1.1-0.3-1.8-1-2.1-2c-0.2-0.8-0.5-1.8-1.6-1.7
		c-0.5,0-1.2,0.5-1.5,0.9c-0.6,0.8,0.1,1.4,0.7,1.9c2.3,2.2,3.4,4.8,2.7,8c-0.2,1.1,0,2.3,1.3,3c2.9,1.5,4.3,5.4,2.8,8.3
		c-0.7,1.4-1,2.4,0.9,3.2c1,0.4,1.4,1.4,1,2.3c-0.5,1-1.5,1.4-2.7,1.2c-0.6-0.1-1.1-0.5-1.7-0.7c-0.7-0.2-1.5-0.3-1.8,0.6
		c-0.3,0.8,0.4,1,0.9,1.3c2,1,1.3,1.8-0.2,2.6c-1.2,0.6-2.6,1.1-3.8,1.8c-0.7,0.4-1.2,1.6-0.2,1.7c2.7,0.1,5,1.7,7.7,1.3
		c1.5-0.2,3-0.4,4.4,0.4c0.6,0.3,1.5,0.4,2-0.1c0.6-0.6,0-1.2-0.3-1.8c-1.4-2.9-1.1-3.6,2-5.1c0.7-0.3,1.4-0.4,0.8-1.4
		c-1.3-2,0.4-1.6,1.5-1.5s2.2,0.7,3.3,0c0.7-0.5,1.6-1,2.4-0.2c0.7,0.7,0.3,1.6,0,2.4c-0.4,1.1-1.3,1.7-2.5,2
		c-1.3,0.2-2,0.7-0.9,1.9c1,1.2,0.5,1.9-0.8,2.5c-2.2,1-2.3,1.8-0.2,3.3c1,0.7,1,1.2,0.3,2c-0.9,1-1.9,1.7-3.3,1.9
		c-1.3,0.2-2.6,0.3-3.7,1.1c-1.1,0.8-1.7,0.4-1.5-0.8c0.2-1.3-0.2-2.4-0.9-3.3c-1.1-1.5-2.9-1.9-4.7-1.4c-1.6,0.4-1.2,1.6-0.7,2.6
		c0.2,0.5,0,1.2-0.5,1.2c-1.5,0.1-3-0.2-4.4-0.8c-1.3-0.5-1.1-1.7-0.7-2.6c0.5-1.3-0.2-1.8-1.4-2.1c-2.8-0.7-5.7-1.1-8.7-1.2
		c-0.5,0-1.2-0.1-1.3,0.5c-0.3,1.2-0.5,2.5-2.3,1.9c-1.2-0.4-2.3-1-3-2c-0.4-0.6,0-2-1.4-1.7c-1,0.2-1.5,1-1.8,2
		c-0.8,1.9-2.2,0.8-3.3,0.4c-1.2-0.5-2.3-1.7-1.1-2.7c1.6-1.4,1.8-3,2.3-4.8c0.5-2.2-2-5.1-4.4-5c-0.8,0-1.6,0.4-1.7,1
		c-0.5,2.1-2.3,3.7-1.9,6.1c0.4,2.3-1.8,3.5-4,2.5c-1.3-0.6-2.3-1.5-3.3-2.5c-0.4-0.4-0.8-0.7-1.4-0.3c-0.5,0.3-0.7,0.8-0.5,1.3
		c1.3,2.1-0.5,2-1.8,2.4c-1.9,0.6-2.7-0.7-4-1.4c0-0.2,0.1-0.5,0.1-0.7c0.2-0.7,1.2-1.6-0.4-1.9c-1.2-0.2-1.8,0.4-1.7,1.6
		c0,0.5-0.1,1-0.1,1.5c-0.8,0.5-1.6,0.4-2.6,0.4c-2.9-0.2-3.9,1.1-2.9,3.7c0.3,0.7,0.9,1.3,1.2,1.9c0.4,0.8,0.4,1.9-0.7,1.9
		c-2.5,0.1-3.7,1.7-5.2,3.1c-1.8,1.7-1.8,2.3,0.7,3.3c1.6,0.6,1.5,1.3,0.3,2.1c-2.2,1.3-4.4,2.5-6.6,3.7c-0.5,0.3-1.1,0.4-1.5,0
		c-2-1.5-4.3-1.1-6.6-1.2c-2.4-0.2-4.8-0.1-7.3-1c-2.1-0.8-4.8-0.7-6.8,1c-1,0.9-1.8,0.9-3.1,0.7c-2.6-0.3-5.3-1.9-7.7,0.4
		c-0.2,0.2-0.9,0.2-1.3,0.2c-3.8-0.1-7.5-0.5-11.3-0.4c-5.8,0.1-11.6-0.2-17.1,1.3c-3.6,1-6.4,0.5-9.4-1c-1.3-0.7-2.2-0.3-3,0.6
		c-1.8,2-4.2,2.5-6.9,2.5c-25.9,0.2-51.7,0.5-77.6,0.7c-37.9,0.4-75.9,0.7-113.8,1.1c-0.9,0-1.9-0.2-3.3,0.7
		c2.6,0.6,4.6,0.5,6.5,0.3c2.8-0.3,3.8,2.4,3.6,3.2c-0.7,3.6,1.6,4.7,4.2,6c1.3,0.6,1.1,1.6-0.1,2c-1.9,0.7-3.4,1.9-5.2,2.8
		c-4-0.3-8-0.2-11.9,0c-0.6,0-1.5-0.1-1.5,0.6c0,0.9,1,0.8,1.7,0.8c0.5,0,1.1-0.1,1.6-0.1c3.3-0.3,6.7-0.5,10-0.1
		c-0.1,1.2-1.2,2.5,0.7,3.3c0.1,0.7,0.2,1.4-0.9,1.3c-1.2-0.1-2.5-0.2-3.7-0.2c-0.8,0-2-0.1-2,1s1.3,1.2,2,1.1
		c2.3-0.2,4.8-0.1,6.9-1.1c0.3,0,0.5,0,0.8,0c0.6,0.4,1.4,0.2,2.1,0.2c31.6-0.3,63.2-0.5,94.7-0.8c0.6,0,1.2,0.1,1.8-0.3
		c7.3-0.1,14.6-0.1,21.8-0.2c0.8,0.1,1.6,0.2,2.4,0.2c29.1-0.2,58.2-0.5,87.3-0.8c0.5,0,1-0.1,1.6-0.2c4.6,0,9.2-0.1,13.8-0.1
		c0.5,0.1,1,0.2,1.6,0.2c18.9-0.1,37.8-0.3,56.7-0.4c0.6,0,1.3,0.1,1.8-0.3c3.8,0,7.6,0,11.4-0.1c0.6,0.4,1.4,0.2,2.1,0.2
		c31.3-0.2,62.6-0.5,93.9-0.8c0.7,0,1.4,0.2,2.1-0.2c6.7-0.1,13.5-0.1,20.2-0.2c0.9,0.1,1.7,0.2,2.6,0.2c22.1-0.2,44.2-0.4,66.3-0.6
		c8.1-0.1,16.3-0.2,24.4-0.4c3.9,0,7.8-0.1,11.7-0.1c0.6,0.1,1.2,0.2,1.8,0.2c19-0.1,38-0.3,57-0.5c0.6,0,1.3,0.1,1.8-0.3
		c4.2,0,8.3-0.1,12.5-0.1c0.7,0.1,1.4,0.2,2.1,0.2c30.2-0.2,60.3-0.5,90.5-0.8c0.6,0,1.2-0.2,1.8-0.2c6.7-0.1,13.5-0.1,20.2-0.2
		c0.9,0.4,1.9,0.2,2.9,0.2c24.8-0.2,49.7-0.4,74.5-0.7c5.5-0.1,11,0.2,16.5-0.3c3.5,0,7.1,0,10.6-0.1c0.4,0.1,0.9,0.2,1.3,0.2
		c19.3-0.1,38.5-0.3,57.8-0.5c0.5,0,1.1,0.1,1.5-0.3c5.2,0,10.5-0.1,15.7-0.1c4.7,0.5,9.4,0.1,14,0.1c5.9,0,11.9,0,17.8-0.1
		c0.7,0,1.6,0.1,1.7-0.8c0.1-1.1-1-0.7-1.6-0.7c-0.7-0.1-1.4-0.2-2.1-0.1c-2.3,0.3-2.4-0.5-1.4-2.2c0.5-0.9,1-1.3,2-1.2
		c1.5,0.1,3,0,4.4-0.6c0.6-0.3,1.7-0.4,1.4-1.2c-0.4-1-1.2-0.2-2-0.1c-1,0.2-2.5,1.4-2.9-0.8c0.2,0,0.3-0.1,0.2-0.3
		C948.5,320.3,948.5,319,946.2,316.8L946.2,316.8z M290.9,253.9c-1.3,0-3-0.3-3.3,1.5c-0.3,1.8,0.7,3.2,2.6,3.9
		c0.2,0.1,0.3,0.1,0.5,0.1c1.2,0.1,1.9,0.4,1.8,1.8c-0.1,1.7,1.5,2.8,2.9,3.6c1.4,0.8,2.9-0.1,4.1-1.1c0.5-0.4,0.8-0.9,1.1-1.3
		c1.4-1.9,2.9-0.2,4.3-0.2c1.1,0,1.6,0.8,1.4,1.9c-0.2,0.9,0.2,2.2,1.1,1.9c2.2-0.6,5,0.3,6.7-2c1.6-2.2,2.2-4.8,3.8-7.1
		c2.1-3,1.5-3.9-1.9-5.7c-4-2.1-8.7-3.1-11.5-7c-0.6-0.9-2-1.3-3.1-1.9c-1-0.5-1.9-0.4-2.5,0.6c-1,1.7-2.6,2.9-3.9,4.4
		c-1,1.1-1.9,2.4-1.3,3.9C294.6,253.9,293.1,254.2,290.9,253.9z M338.2,279.9c5.3,0.7,8.2,3.8,11,7c0.8,1,1.9,1.5,3.3,1.3
		c0.7-0.1,1.3-0.3,1.3-1c-0.1-1.3,0.7-2,1.5-2.9c2.2-2.4,2-6.4-0.2-8.8c-0.7-0.8-1.2-1.6-1.3-2.6c0-1.1,0-2.3-1.6-2.4
		c-1.3-0.1-2,0.7-2.5,1.8c-0.6,1.5-1.4,3.1-3.4,3c-1.9-0.1-3.7-0.6-4.8-2.5c-0.9-1.7-2.5-3-4.1-4.2c-1.4-1.1-2.7-2.2-3.6-3.8
		c-1.2-2-2.9-3.7-3.7-5.9c-0.4-1.2-1.7-2.3-3.1-1.7c-1.7,0.7-0.2,2,0.2,2.7c2.3,4.1,4.9,8.1,7.1,12.3c1.1,2.2,3.2,4,5,5.8
		C340.5,279,339.6,279.2,338.2,279.9z M245.9,293.3c-1.8,0.1-3-0.4-3.8,0.5c-1.3,1.6-3,2.9-4.6,4.2c-0.6,0.5-0.9,1-0.6,1.8
		c0.8,2,5.1,4.4,7.5,4.4c1.8,0,4.1-0.6,4.5,2.2c0.1,0.7,1.1,1,1.8,1.3c3.5,1.4,6.7,0,9.7-1.2c2.3-0.9,0.5-3.2,1.1-4.8
		c0-0.1,0-0.2,0-0.2c0.5-2.6-0.5-3.8-3.4-3.7c-1,0-1.9,0.4-2.8,0.6c-0.8,0.2-1.6,0.4-2-0.6C252,293.9,248.3,294.1,245.9,293.3z
		 M460.9,402.1c6.9,2.1,12.2-3.8,18.8-3.4c0.5,0,1.2-0.4,1.3-1c0.1-0.7-0.6-1-1.1-1.2c-2.1-0.9-4.3-1.5-6.7-1.1
		c-4.4,0.8-8.8,0.4-13.2-0.4c-5.4-1-10.8-0.4-16.2,0.1c-0.9,0.1-1.7,0.6-2,1.4c-0.3,1,0.5,1.5,1.2,2c1.6,1.1,3.5,1.6,5.5,1.5
		c1.3-0.1,2.8-0.2,3.5,0.8c1,1.8,2.6,1.5,4.1,1.4C457.7,402.2,459.3,402.1,460.9,402.1z M283.4,294.5c-1.3,0.8-2.5,0.3-3.7,0.2
		c-0.5,0-0.9-0.1-1.2,0.3c-0.3,0.5,0,1,0.5,1.3c0.6,0.3,1.3,0.5,2,0.7c1.3,0.4,2.4,1.3,2.4,2.4c-0.1,1.7,0.7,1.9,2.2,2.4
		c3.4,1,3.8,2.4,1.7,4.3c-0.9,0.9-3.2,1.5-2.2,2.8c0.9,1.2,2.7-0.4,4-0.9c0.1,0,0.2-0.1,0.2-0.1c1.3-1.1,3.1-2.1,1.5-4.2
		c-0.6-0.8,0.1-1.6,0.7-2.2c1-1,2.4-1.4,3.8-1.5c1.2-0.1,1.9-0.8,0.9-1.5c-3.3-2.3-5.8-5.3-9.2-7.5c-3.7-2.4-8.2-3.6-11.1-7.3
		c-2-2.5-5.1-3.8-8.6-3.5c-1.8,0.2-3.5,0.6-3.9,2.7c-0.2,1.5,1.7,3.9,3.3,3.6c3.4-0.6,5.8,0.9,8.5,2.4
		C278,290.5,280.1,293.2,283.4,294.5z M369.1,233.8c-0.6,0.1-1.5-0.5-2,0.4c-0.2,0.4-0.1,0.9,0.4,1.1c2.9,0.7,4.1,3.6,6.9,4.4
		c2,0.6,2.7,2.2,2,4c-0.6,1.7,0.3,2.5,1.7,3.1c1.8,0.8,3.7,1.4,5-0.8c0.4-0.7,1.4-1,2.1-1.5c1.9-1.3,3.2-3,2.8-5.3s-0.7-4.6-3.7-5.5
		c-2.2-0.7-3.8-2.3-4.6-4.5c-0.3-0.8-0.7-1.3-1.7-1.3c-0.9,0-1.2,0.6-1.4,1.3C375.6,232.2,372.7,233.9,369.1,233.8z M379.8,406
		c0,1.2,1.6,2.2,3.7,2.4c2,0.2,4,0.3,5.8,1.6c1.1,0.8,2.2,0.5,3.2-0.2c1.7-1.2,3.4-2.9,3-4.7c-0.4-1.8-1.1-4-3.8-4.8
		c-1.8-0.5-3.5-0.9-5.3-1C383.1,399.1,379.7,401.8,379.8,406z M400.6,248.7c-0.1,1-0.4,2.1,0.9,2.4c1.9,0.4,4.5,1.5,5.5-0.2
		c1.4-2.4,2.8-1.5,4.2-0.6c1.7,1,3.3,0.1,3.3-1.1c0.1-1.8,1.2-2.1,2.4-2.8c0.6-0.4,1.6-0.7,1.2-1.6c-0.3-0.7-1.1-0.6-1.9-0.4
		c-2,0.5-3.6,0-4.8-1.6c-0.7-0.9-1.8-1.3-3-1.2C405.2,241.7,400.2,245.1,400.6,248.7z M281.9,247.4c0.1,1.1-0.3,2.1,0.6,3.3
		c2.1,2.6,4.3,0.9,6.4,0.5c1.7-0.4,4.7-5.1,4.4-6.4c-0.8-3.2-5-4.9-8-3.4C282.8,242.8,281.6,244.7,281.9,247.4z M250.4,254.5
		c-0.1-2.4-1.8-4.7-3.9-5.4c-2.6-0.9-4.2,0.8-5.7,2.3c-1.6,1.7-2.9,3.7-2.1,6.1c0.1,0.4,0.7,0.8,1.1,1c2.7,1.6,5.2,0.4,7.6-0.7
		C249,257.1,250.7,256.4,250.4,254.5z M249.9,280.1c1.7,0,6.2-2.2,6.3-3.1c0.2-2.3-3.3-5.6-6.1-5.7c-2.1-0.1-5.3,1.7-5.3,2.9
		C244.8,276.7,247.6,280,249.9,280.1z M209.5,221.5c-1.5-0.2-4.2,1.6-4.4,2.8c-0.5,4.1,1,5.8,5.7,6.5c0.8,0.1,3.8-2.7,3.9-3.7
		C215,224.5,212.5,221.8,209.5,221.5z M274.6,271c0.6-2.4-0.6-3-2.9-3.2c-2.2-0.2-4.2,0.4-6.3,0.2c-1-0.1-2.1,0.1-2.3,1.2
		c-0.2,1.1,0.3,2,1.3,2.5c1.4,0.8,3,1,4.6,0.2c0.5-0.2,1.1-0.4,1.5,0.1c0.4,0.4,0.1,0.9-0.1,1.4c-0.3,0.5-0.6,1-0.8,1.6
		c-0.2,0.8-0.2,1.7,0.8,2.2c0.9,0.5,1.6-0.1,2.1-0.6C273.8,275,275.1,273.3,274.6,271z M543.7,412.5c0.7-2.3,3.4-1.2,4.6-2.6
		c2-2.5,1.8-3.5-0.6-4.8c-1.1-0.6-8.7,1.1-9.3,2.1c-0.7,1.2-0.2,2.2,1,2.6c1.2,0.3,2.1,0.7,2.7,1.7
		C542.4,411.9,543,412.1,543.7,412.5z M356.3,415.5c0,1,0.1,2.1,0.6,3.1c0.9,1.8,2.7,2,4.5,1.8c1.9-0.2,3.5-1.1,4.1-2.7
		c0.5-1.4-0.9-2.4-1.9-3.3c-0.8-0.7-1.9-0.9-3-0.5c-0.9,0.4-1.8,0.5-2.8,0.1C356.4,413.4,356,414.1,356.3,415.5z M304.1,287.9
		c0-0.6-0.2-1-0.6-1.1c-1.6-0.5-3.1-1.2-4.8-0.4c-2.3,1-4.4,2.4-7,2.8c-1.1,0.2-1.2,0.9-0.6,1.7c1.3,1.6,2.6,3.1,4.4,4.3
		c0.9,0.6,2,0.5,1.8-0.7c-0.7-3.3,1.6-4,4.1-4.6C302.6,289.6,303.8,289.2,304.1,287.9z M217.2,239.4c-2,0-3.2,1-3.2,2.6
		c0.1,2.2,2.7,4.3,5.4,4.1c1.8-0.1,3.6-0.6,3.7-2.8C223.2,241.5,219.9,239.4,217.2,239.4z M455.4,85.8c-1.3,0-2.8-0.2-3,1
		c-0.2,1.3,1.4,1.2,2.3,1.5c1.7,0.5,2.7,1.2,3.3,3c0.7,2.2,2.3,4.1,3.6,6.1c0.3,0.4,0.8,1.1,1.5,0.6c0.6-0.4,0.1-0.9-0.2-1.3
		c-1.5-2.5-2.2-5.2-2.3-8.1c0-1.3-0.8-2-2-2.2C457.4,86.2,456.3,86,455.4,85.8z M405.5,264.9c0.7-0.1,1.5-0.1,2.3-0.3
		c1.8-0.5,2.6-2,3.1-3.5c0.4-1.1-0.6-2.1-1.5-2.7c-1.4-0.9-2.8-0.2-4,0.5c-1.3,0.8-2.5,1.6-3.5,2.6c-1.3,1.4-0.8,2.7,1.2,3.1
		C403.8,264.8,404.6,264.8,405.5,264.9z M672.5,365.9c0.8-0.1,1.8-0.3,2.9-0.4c1.1-0.2,2.1-0.6,2.3-1.7c0.2-1-0.7-1.6-1.6-2.1
		c-2-1.3-7.8-0.8-9.5,0.8c-1.1,1-0.3,1.7,0.5,2.2C668.7,365.8,670.5,365.8,672.5,365.9z M379.9,436.9c2.8,0,4.4-1.2,5.1-3.5
		c0.4-1.2-0.1-1.7-1.2-2c-1.6-0.4-6.7,1-7.5,2.2c-0.8,1.3-0.3,2.4,1.2,2.9C378.4,436.8,379.3,436.8,379.9,436.9z M231.3,308.8
		c1.1,0.2,2.2-0.3,3.1-0.9c1-0.7,1.9-1.8,1.3-3s-1.9-1.3-3.2-1c-1.1,0.2-2.1,0.9-3.3,0.9c-1,0-1.3,0.7-1.3,1.6
		C228,308.4,229.5,308.7,231.3,308.8z M378.7,265.2c1.1-0.1,2.4-0.2,2.4-1.8c0-1.8-2.2-4.1-3.8-4.1c-1.9,0-2.7,0.9-2.7,2.6
		C374.8,263.9,376.4,265.3,378.7,265.2z M444.6,304.9c2.2,0,3.5-0.7,3.5-1.9c0.1-1.1-3.2-3.9-4.6-3.9c-1.3,0-2.2,0.6-2.4,1.8
		C440.8,302.1,443.4,304.9,444.6,304.9z M526.8,401.7c-0.7-0.1-1.6-0.6-1.8,0.4c-0.2,0.9,0.7,1.2,1.5,1.5c1.6,0.6,3.2,0.8,4.7,1.7
		c0.7,0.4,1.5,0.3,2.3,0.1c1.2-0.4,1.8-1.1,0.5-1.8c-2-1-3.3-4.2-6.4-1.8C527.4,401.9,527,401.8,526.8,401.7z M582.3,416.1
		c0.7-3.2,2-5.7,3.4-8.1c0.5-0.9,0.4-1.6-0.7-1.9c-1.1-0.3-1.9,0-2.2,1.1c-0.3,1-0.8,2-1,3C581.2,412,580.9,413.8,582.3,416.1z
		 M277.5,306.5c1.5-0.4,3.1-0.6,3.4-2.4c0.3-1.5-0.9-2.2-2.2-2.3c-1.6-0.1-3.4,0.7-3.7,2.1C274.8,304.9,276.3,305.9,277.5,306.5z
		 M604.8,410.3c1.4-0.2,2.7-0.7,2.8-2.2c0.1-1-0.7-1.7-1.7-1.4c-1.4,0.3-3.2,0.8-3.5,2.2C602.1,410.1,603.8,410,604.8,410.3z
		 M392.3,423.2c1.1-0.2,2.5-0.3,2.4-1.6c-0.1-1.2-1.4-1.9-2.7-1.9c-1.2,0.1-2.3,0.8-2.3,1.9C389.8,422.9,391.1,423.1,392.3,423.2z
		 M469.8,106c0.9,0,1.6-0.3,1.2-1c-0.7-1.4-1.7-2.8-3.6-3.1c-0.9-0.1-1.9,0.5-1.4,1.3C467,104.4,468.5,105.3,469.8,106z
		 M288.8,287.8c1.2,0,1.1-0.8,1.1-1.6c0-1.3-1-1.7-2.1-1.7c-1,0-2.2,0.3-2.1,1.4C285.9,287.5,287.6,287.3,288.8,287.8z M659.7,365
		c0.9-0.3,2.6,0,2.9-1.6c0.1-0.9-0.9-1.2-1.7-1c-1.2,0.2-3-0.3-3.3,1.4C657.3,364.7,658.4,365,659.7,365z M426.5,240.4
		c-0.2-1.1-1-1.7-2.3-1.6c-1.1,0.1-1.9,0.5-1.7,1.7s1.1,1.7,2.2,1.7C425.8,242.2,426.6,241.8,426.5,240.4z M348.5,436.9
		c0.4,1.3,1.6,1.1,2.6,1.1s2.1-0.1,2-1.4c-0.1-1.2-1.2-1.6-2.3-1.5C349.6,435.1,348.8,435.7,348.5,436.9z M313.7,244.7
		c-0.3-1.1-1.3-1.9-2.4-2.3c-1-0.3-1.7,0.7-1.7,1.4c0,1.4,1.3,2,2.6,2.3C313,246.3,313.5,245.5,313.7,244.7z M374.2,398.5
		c-2.3-0.4-3.9-0.8-5.2,0.6c-0.7,0.8,0.1,1.4,0.8,1.7C372.2,401.9,372.3,399.5,374.2,398.5z M489.4,394.8c-1,0.1-2.5,0.3-2.4,1.3
		c0.1,1.3,1.8,1.2,3,1.4c0.9,0.1,1.5-0.5,1.5-1.3C491.5,395,490.5,394.8,489.4,394.8z M616.2,415.4c0.4,0.9,1.3,1,2.2,1.1
		c1,0,1.8-0.2,2-1.3c0.1-0.9-0.5-1.4-1.5-1.3C617.9,414.1,616.8,414.2,616.2,415.4z M481.5,402.4c-0.9,0.2-2.4,0.1-2.5,1.3
		c-0.1,1.1,1.2,1.3,2.2,1.3c1.2,0.1,1.8-0.6,1.8-1.6C483.1,402.5,482.3,402.4,481.5,402.4z M368.8,265.3c0.9,0,1.4-0.4,1.4-1.2
		c0-1.1-0.7-1.4-1.7-1.3c-0.7,0-1.5-0.1-1.5,0.9C367,264.7,368,265.1,368.8,265.3z M532.7,409c-0.9,0.1-1.5,0.7-1.4,1.5
		s0.8,1.3,1.7,1.3c0.9-0.1,1.6-0.6,1.5-1.5C534.4,409.5,533.7,409,532.7,409z M372.9,265c-1,0-1.5,0.6-1.6,1.4
		c-0.1,1,0.6,1.3,1.5,1.3s1.7-0.2,1.8-1.1C374.6,265.8,373.9,265.2,372.9,265z M415.2,267.4c0.1-0.7-0.2-1.1-1-1.1
		c-1.4-0.1-1.5,1-1.8,1.7c-0.3,0.8,0.4,0.9,1.1,0.9C414.6,268.9,415.1,268.4,415.2,267.4z"/>
	<path class="st1" d="M931.8,335.6c0.5,0,1-0.1,1.6-0.1c1.5,0.8,2.7,0.3,3.7-0.8c0.9-0.2,1.7-0.2,2.6,0c1.8,1.4,3.6,1.2,5.4,0
		c1.1-0.4,1.9-0.1,2.6,0.8c-0.2,2.5-2.2,1.7-3.8,1.9c-0.9,0.1-2.2-0.5-2.5,0.7c-0.3,1,0.9,1.3,1.5,1.8c2,1.5,1.9,4.7,0,6.2
		c-2,1.6-0.8,2.3,1,2.7c1.1,0.5,1.5,1.3,1.2,2.5c-0.9,0.5-0.8,1.5-1.3,2.2c-0.9,0.1-1.8,0.1-2.6,0.2c-1.7,0-2.9,0.6-3.2,2.3
		c-0.4,0-0.7,0.1-1.1,0.1c-2,0-3.8,0.7-5.8,0.7c-21.5,0-42.9,0-64.4,0.1c-1,0-2.2-0.6-2.8,0.7c-3.9,0-7.8,0-11.7,0.1
		c-0.9-0.7-2-0.4-3.1-0.4c-28.3,0.2-56.6-0.3-84.9,0.5c-3.8,0.1-7.6,0-11.5,0.1c-0.8,0-1.8-0.4-2.4,0.6c-5.9,0.3-11.7,0.3-17.6,0.1
		c-2.7-0.7-5.5-0.6-8.1-0.2c-3.2,0.5-6.6,0.7-9.5,2.5c-0.3,0.1-0.7,0.1-1,0.2c-0.2-0.1-0.5-0.3-0.7-0.3c-3.7-0.1-7.5,0.4-11.1-0.9
		c-0.7-0.3-1.7-0.4-2.5,0.3c-0.3,0-0.7-0.1-1-0.1c-1-1.5-2.5-1.8-4.3-1.8c-13,0.1-26.1,0.2-39.1,0.4c-24,0.4-48.1,0-72.2,0.6
		c-0.5,0-1.1,0-1.6,0c-1.3,0.1-1.5,0.9-0.9,1.8c1.6,2.3,8.6,4.1,11.3,3.1c2.2-0.8,4.5-1.8,6.6,0.4c0.4,0.4,1,0.4,1.4-0.1
		c0.3,0,0.7,0.1,1,0.1c4.5,1.7,8.7,0.8,12.9-0.9c0.4,0,0.7-0.1,1.1-0.1c0.9,0.6,1.9,0.4,2.8,0.2c5.1-0.8,10,0,14.6,2
		c1.1,0.5,2.4,0.4,3.6,0.4c2.8-0.1,5.6-0.6,8.4,0.7c1.7,0.8,4.3,1.6,5.7-1l0,0c1.4-0.1,3.3-0.7,4.1-0.1c1.7,1.5,3.6,1.1,5.5,1.4
		c4.4,0.7,8.6,1.6,13.1,0.8c2.6-0.5,5.3,0.1,7.9-0.1c4.4-0.3,8.4-2.4,13-1.8c0.7,0,1.4,0.1,2.1,0.1c1.2,0.9,2.7,1.4,4.1,0.9
		c1.8-0.7,3.6-0.7,5.5-0.7c5.3,0.2,10.6-0.2,15.9-0.7c2.8-0.3,5.8-0.4,8.3-2c0.5,0,1.1-0.1,1.6-0.1c3.3,0.7,6.2,0.1,9.1-1.5
		c0.3,0,0.7-0.1,1-0.1c1,0.8,2.4,0.1,3.5,0.7c2.8,1.7,5.9,1.3,9,0.7c1.3-0.2,2.5-0.1,3.5,0.7c3.2,2.7,7.3,1.2,10.9,1.9
		c0.7,0.1,2.1-0.4,2.5-1.5c0.3,0,0.6,0,1,0c1.2,1.6,3.1,1.9,4.7,1.7c4.1-0.7,8.4,0.1,12.4-1c2.5-0.7,5.4,0.4,7.6-1.6
		c0.4,0,0.7-0.1,1.1-0.1c3.2,0.4,6.2,0.1,9.1-1.5c0.3,0,0.7-0.1,1-0.1c2.6,0.7,5.1,0.5,7.5-0.8c2.8-0.4,5.6-0.4,8.4,0
		c3.3,1.8,7.1,1.3,10.6,2.2c2.7,0.7,5.7,1.2,8.6,1.1c1.4,0,2.8,0.1,4.2,0.1c2.5,1.9,5.4,0.4,7.9,0.3c3.5-0.2,7-1.2,10.7-0.5
		c3.6,0.7,7.3,0,10.8,0.7c4.5,1,9,1.5,13.6,1.1c0.3,0.1,0.5,0.1,0.8,0.2c1.3,1.7,2.8,1.1,4.3,0.4c1.7-0.3,3.1,0.9,4.7,1
		c0.5,0.7,0.9,0.6,1.1-0.2c0.3-0.1,0.7-0.2,1-0.3c0.6,0.7,0.9,0.5,1.1-0.3c1.8-0.3,3.5-0.1,5.2,0c1.6,1.2,3.2,1,4.9,0.2
		c1.8,0,3.5,0,5.3,0.1c0.6,0.7,0.9,0.5,1.1-0.3c0.5-0.1,1-0.2,1.5-0.3c1.3,0.8,2.5,0.8,3.8,0c0.7,0,1.4,0,2.1,0
		c1.4,0.7,2.7,1.3,3.8-0.4c1-0.4,2.1-0.6,3.2-0.5c1.8,0.8,3.6,0.8,5.4,0c2,0.1,3.9,0,5.8,0.6c-0.3,0.7-0.7,1.3-1,2l-0.1,0.1h-0.2
		c-0.8-0.2-1.2,0.1-1.2,0.8c0,0.7,0.4,1,1.2,0.9c1.4,1.5,0.7,3.4-1.5,4.2c-0.6,0.2-1.6-0.2-1.7,0.7c-0.1,1.2,1.4,0.7,1.9,1.3
		c0.4,1.5,1.7,0.8,2.6,0.9s2.1-0.3,2.2,1.1c-0.4,0.5-1,0.6-1.7,0.6c-32.6-0.5-65.2,0.1-97.8,0c-0.4,0-0.9-0.1-1.3-0.1
		c-3.2-1.2-6.4-0.5-9.7-0.3c-0.2,0-0.3,0.5-0.5,0.8c-0.2,0.5-0.4,1-0.6,1.5c-0.8,0.1-1.2,0.3-0.5,1c0,0.3,0.1,0.7,0.1,1
		c1,1.8,2.1,1.2,3.2,0.1c1.6-0.3,3.2-0.4,4.8,0c0.5,1.3,1.2,1.2,2.1,0.4c0.7,0.1,1.4,0.2,2.1,0.3c1.1,1,2.3,1.5,3.8,0.6
		c2.1-0.2,4.1-0.3,5.9,1.1c-0.2,1.6-1.5,1.1-2.5,1.1c-6.7,0-13.4,0-20.1,0c-0.9,0-2.3-0.6-2.4,1.1c-4,5.2-9.6,8.3-16,10.1
		c-2.5,0.7-3.1,1.7-3.3,4.2c-0.9,12.5,0.6,24.9,1,37.4c0.1,2.1-0.1,4.2-0.4,6.2c-0.8,5.1-5.1,8.7-10.5,8.9c-5.1,0.2-8.5-2.4-10-7.8
		c-0.4-1.6-0.5-3.1-0.6-4.7c-0.2-7.7-0.6-15.5-0.6-23.2c0-3.1-2-2.1-3.7-2.3c-2.2-0.3-2.4,0.9-2.3,2.5c0.7,21.1,1.3,42.1,1.9,63.2
		c0.1,2.2-0.1,4.5,0,6.7c0.2,7.4-3.3,12.3-10.9,14.6c-1.2,0-2.5,0-3.7,0c-2.1-1.5-4.8-2.1-7-3.4l0,0c-0.1-0.3,0-0.7-0.2-0.9
		c-4.1-4.1-4.1-9.4-4.5-14.5c-0.4-6.7-0.2-13.5-0.4-20.2c-0.2-12-0.7-23.8-3.8-35.5c-1.8-6.8-4.5-13.1-9.4-18.4
		c-0.9-0.9-1.3-2.5-3.1-2.5c-0.2,0-0.3-0.1-0.4-0.3c-2.1-2.9-9-5.3-12.8-4.4c-0.7,0-1.5,0-2.2,0c-3.1-0.8-3.7-0.4-3.7,2.4
		c0,2.1,0.3,4.3-0.1,6.4c-0.8,4.6-2.2,9-6.9,11.6c-1.5,0.9-3.5,0.5-4.8,1.8c-1.4,0.3-2.7,0.3-4.1,0c-0.5-0.9-1.5-0.9-2.3-1
		c-6.1-0.8-9.5-4.3-11.2-9.6c-0.2-0.7-0.3-1.5-1.4-1.6c-0.4-0.1-0.8-0.1-1.1-0.2c-1-1.3-2.6-0.9-3.9-1.1
		c-9.4-1.3-13.4-5.1-14.3-13.7c-0.1-1.2-0.6-1.9-1.9-1.9c-2.4,0-4.8-0.2-7.2,0.1c-1.3,0.1-3.1,0.1-3.8,1.8l-0.1,0.1
		c-0.4,0.2-0.8,0.3-1.1,0.6c-3.6,4-3.6,4.1-8.6,1.4c-0.6-0.3-1.2-0.7-1.8-1c-3.8-2.3-7.7-2.8-11.7-0.4c-0.8,0.5-1.5,0.6-2.4,0.1
		c-2.1-1-2.8-0.6-2.9,1.7c0,0.6-0.1,1.2-0.1,2.1c-1.7-2.6-4.2-3.4-6.7-4.1c-4-1.1-5.4-0.1-6.8,3.7c-0.5,1.4,0.3,3.1-1.2,4.9
		c0.2-2.5-0.8-4.2-1.4-6c-1-3-3.8-4.2-7.1-3.5c-1.7,0.4-3,1.5-4.6,2c-0.9,0.3-1.9,1-2.2-0.8c-0.2-1.3-1.6-1.7-3-1.4
		c-1.5,0.4-3.2,0.3-4.5,1.4c-0.5,0.5-1,0.5-1.5-0.2c-0.9-1.4-2.1-1.4-3.7-0.9c-2.1,0.6-3.9,0.8-4.7-2c-0.7-2.5-2.6-2.8-4.9-1.6
		c-0.5,0-1.1,0.1-1.6,0.1c-1.3-0.7-2.6-0.2-3.9-0.3c-0.1-0.1-0.1-0.3-0.1-0.4s0.1-0.1,0.1-0.2c0.3-1.5-0.2-2-1.8-1.5
		c-1.3,0-2.5,0-3.8,0c-0.9-0.7-0.9,0.3-1.3,0.6c-1.7,1.3-3.3,2.8-5.2,3.8c-2.6,1.3-4.9,3.7-8.4,3c-0.4-0.1-1,0.6-1.4,1
		c-1.6,1.7-3.6,1.6-5.6,0.9c-1.1-0.4-2-0.7-2.9,0.1c-2,1.8-3.9,1.4-6,0.2c-1.2-0.7-2.5-1.3-3.7-1.9c-3.7-2.1-7.2-4.5-12-4
		c-0.9,0.1-1.9-0.5-2.6-1.2c-1.5-1.5-3.2-1.9-5.3-1.3c-2.7,0.9-5.5,1.2-8.3,1c-0.6,0-1.3-0.2-1.8,0.3c-0.3,0-0.7,0-1-0.1
		c-0.8-1.1-2.1-1.2-3.3-1.1c-2.9,0.1-5.6-0.5-8.2-1.7c-1.7-0.8-3.3-1.5-5.3-1.5c-12.6,0.1-25.2,0-37.8,0c-1,0-2.1-0.2-2.8,0.5
		c-2.3,2.2-5.3,1.7-8,2.1c-2,0.2-3.2,0.9-3.4,2.8c-0.4,3.3-0.6,6.6-1,9.9c-0.1,1.2,0.8,3.1-0.7,3.6c-1.2,0.3-2.1-1.5-3-2.5
		c-1-1.2-1.9-2.4-3.8-1.9c-0.6,0-1.1,0-1.7,0c-3.5-0.4-6.8-0.9-10.1,1.2c-1.6,1-1.3,2.8-2.7,3.7c-0.3,0-0.6,0-0.9,0
		c-1-1.4-0.7-3.1-0.7-4.6c0.1-3.3-0.6-4.3-4.3-5.5l0,0c-0.7-1.9-1.2-4.2-3.3-5c-3.4-1.3-7.1-1.6-10.8-1.4c-0.2,0-0.5,0-0.7,0
		c-1.3-1.1-2.9-0.7-4.3-0.5c-2.2,0.3-4.4,0.4-6.6,0.3c-3-0.1-5.6,0.6-8,2.1c-0.7,0.5-1.6,1.1-2.4,0.4c-1.9-1.8-3.3,0.2-4.9,0.3
		c-1.6,0.2-2.4-2.7-4.7-2.3c-0.2,0-0.4,0-0.5,0c-2,0.6-4.1,1-6,1.7c-3.2,1.3-5.8,3.5-8.2,5.8c-2.3,2.3-4.8,2.6-8,2.2
		c-2.6-0.3-5-1.5-7.7-1c-0.3-0.1-0.7-0.1-1-0.2c-2.9-1.5-6.2-1.8-9.4-2.4c-0.4-0.1-0.7-0.2-0.8-0.6c0.1-0.7-0.3-1.1-1-1.1l0,0
		c-1.1-2.8-2-3.3-4.3-2.4c-0.5,0.2-1,0.2-1.6,0c-1.7-1.9-6.3-2.4-9.1-0.9c-0.4,0-0.7,0.1-1.1,0.1c-1.9-0.3-3.8-0.4-5.2,1.3
		c-0.3,0.3-0.7,0.6-1,1c-1.2,0.2-2.3,0.6-2.8,1.8c-0.3,0.2-0.5,0.4-0.8,0.6c-1,0.1-1.1,0.9-1.6,1.5c-0.8,1-1.9,2-3.2,1.9
		c-4.3-0.3-8.7,1.3-13,0.1c-0.2,0-0.2-0.1-0.2-0.2c0.1-1.2,0.8-2.1,1.9-2.8c0.6-0.3,1.1-1.1,0.6-1.7c-0.4-0.5-1.1-0.4-1.7-0.1
		c-1.5,0.6-2.6,0.2-3.8-0.8c-2.5-2-5.3-2.2-8.1-0.2c-0.5,0.2-1,0.3-1.5,0.1c0.3-3.3,0-3.7-2.6-3.1c-2.2,0.5-4.3,0.4-6.5-0.1l0,0
		c0.1-0.9-0.1-1.7-1.3-1.7c-1.8,0-1.4,1.6-2,2.4c-0.4,0.6-1,0.9-1.8,0.9c-0.7-0.3-1.4-0.3-2.1,0c-0.3,0-0.5-0.1-0.8-0.1
		c-2-1.5-4-2.4-6.5-1c-0.3,0-0.6,0-0.9,0c-0.6-0.9-1.5-0.7-2.3-0.5c-0.8,0-1.6,0-2.4,0c-2.1-0.5-4.2,0.1-6.3-0.6
		c-0.9-0.3-1.9,0.1-2.5,1c-0.3,0-0.6,0-0.9,0c-2.1-1.1-4.2-1.6-6.5-0.6c-1.8,0.2-3.6,0.3-5.4,0c-3.8-1.6-8.1-1.8-12-1.9
		c-14.3-0.3-28.7-0.1-43.1-0.2c-1,0-2.1,0.3-3-0.5c0.9,0,1.7,0,2.6,0c0.8,0.1,1.6,0.2,2.4,0.2c42.5,0,85.1-0.1,127.6-0.2
		c0.8,0,1.8,0.4,2.4-0.5c10.4-0.1,20.9-0.2,31.3-0.2c11.4,0,22.8,0,34.2,0c0.6,0.5,1.3,0.3,2,0.3c9.5,0,19,0,28.4,0
		c0.4,0,0.9,0,1.3,0c1,0,1.3-0.6,0.7-1.3c-1.2-1.5-2.3-3.2-4.8-2.4c-1.4,0-2.8-0.1-4.2-0.1c-0.8-1.3-2.4-1.3-3.5-1.1
		c-5.4,0.6-10.7-1.1-16.1-0.7c-1.6,0.1-3.1-0.3-4.7-0.6c-3.1-0.7-6-1.9-9.5-1.9c-27.2,0.3-54.3-0.1-81.5,0.6
		c-3.7,0.1-7.5,0.8-11,0.7c-4.9-0.1-9.9,0.2-14.8-0.5c-1.2-0.2-2.5-0.6-3.5,0.4c-0.5,0-1,0-1.5,0c-0.5-0.7-1.2-0.5-1.9-0.5
		c-6.7,0-13.5,0-20.2,0c-0.7,0-1.4-0.1-1.9,0.5c-1.2,0-2.3,0-3.5,0c-1.2-0.4-2.5-0.2-3.7-0.2c-55.7,0-111.4,0.1-167,0.1
		c-0.8,0-1.8,0.3-2.4-0.1c-1.9-1.3-3.5-1-5.1,0.6c0.8-1.8,0.1-2.2-1.6-2.6c-1.9-0.4-4.5-0.5-4.4-3.4c1.2-0.8,2.5-0.6,3.7-0.5
		c2.5,0.9,4.9,0.4,7.4-0.1c0.5-0.1,1.1-0.2,1-0.9c-0.1-0.6-0.7-0.6-1.3-0.6c-1.4,0-2.8,0.1-4.2,0.1c-5.1,0.1-10.2,0.2-15.2,0.3
		c-0.5-0.7-1-0.7-1.6,0c-0.5-0.1-1-0.1-1.6-0.2c0.5-1.2,1.7-0.7,2.5-0.7c1.8,0,3.6,0,5.2-0.8s3.2-0.8,4.9-0.8c2.6,0,5.3,0.7,7.6-1
		c0.3,0,0.5-0.1,0.8-0.1c3.7,0,7.4,0.4,10.8,2c0.3,0.1,0.7,0.1,1,0.1c4.4,0.1,8.8,0.4,13.2,0.5c11.3,0.3,22.5,0.1,33.8,0
		c0.8,0,1.9,0.4,2.3-0.8c7.1,0,14.2-0.1,21.3-0.1c0.9,0.8,2,0.4,3.1,0.4c22.9-0.2,45.8,0.3,68.7-0.4c10.4-0.3,20.8-0.1,31.2-0.2
		c0.9,0,2,0.5,2.6-0.6c12.3-0.1,24.5-0.1,36.8-0.2c0.5,0.5,1.1,0.4,1.7,0.4c26.3-0.2,52.6,0.4,78.9-0.5c0.8,0,1.9,0.3,2-1
		c0-0.7,0-1.3,0-2c0.5-1.6-0.6-1.8-1.8-1.9c-0.7-0.5-1.3-1-2-1.5c0-0.8-0.4-1.1-1.2-1c-0.9-0.5-1.8-1.2-1.8-2c0-2.2-1.3-2-2.9-2
		c-6.2,0-12.4,0-18.5,0c-0.4-0.6-1.1-0.5-1.7-0.5c-8.1,0-16.2,0-24.3,0c-0.7,0-1.4-0.1-1.8,0.7c-8,0.3-16,0.4-24,0.2
		c-0.4-0.6-1.1-0.5-1.7-0.5c-8.7,0-17.3,0.1-26,0.1c-0.7,0-1.5-0.2-1.8,0.7c-15.3,0.1-30.5,0.2-45.8,0.3c-0.4-0.6-1.1-0.5-1.7-0.5
		c-13,0-26.1,0-39.1,0.1c-0.7,0-1.7-0.2-1.9,0.9c-5.1,0-10.3,0.1-15.4,0.1c-3.4-0.8-6.8-0.8-10.2,0.1c-17.2,0.1-34.5,0.2-51.7,0.4
		c-0.8-0.9-1.8-0.5-2.7-0.5c-9.4,0-18.8,0-28.2,0c-2.2,0-4.7,0.7-5.7-2.1c-0.1-0.5-0.2-1.1-0.4-1.6c0.1-1.5,1.3-3.2-0.8-4.3l0,0
		c-0.1-0.9-0.6-1.1-1.4-0.8c-0.2-0.1-0.5-0.2-0.7-0.3c-0.1-0.8-0.6-1-1.4-0.7c-0.3-0.2-0.5-0.5-0.8-0.7c-0.2-1.3-0.5-2.6-0.7-3.9
		c0-0.1,0-0.2,0.2-0.2c1.3-0.1,2-1.1,1.9-2c-0.1-1.2-1.5-0.9-2.4-0.9c-1,0-2,0-2.9,0c-1,0-1.8-0.1-1.9-1.2
		c17.3-0.2,34.5-0.3,51.8-0.5c0.2,0.6,0.8,0.6,1.3,0.6c5.5,0,11.1,0,16.6,0c0.6,0,1.2-0.1,1.4-0.8c15.2-0.2,30.4-0.3,45.5-0.5
		c11.5-0.1,22.9-0.2,34.4-0.3c3.5,1.4,7.1,0.3,10.6,0.5c0.2,0,0.5-0.4,0.7-0.6c16-0.1,31.9-0.3,47.9-0.4c0.3,0.6,1,0.6,1.6,0.6
		c5.9,0,11.8,0,17.7,0c0.7,0,1.5,0.1,1.6-0.9c14.4-0.2,28.8-0.4,43.2-0.5c10.8-0.1,21.7-0.1,32.5-0.2c0.2,0.6,0.8,0.6,1.3,0.6
		c5.5,0,11,0,16.5,0c0.6,0,1.3,0,1.4-0.8c13.5-0.1,27-0.2,40.4-0.3c1.6,0.9,3.3,1,4.9,0c12.1-0.4,24.1-0.5,36.2-0.4
		c3.1,1,6.1,1.1,9.2-0.1c16.5-0.1,33-0.3,49.5-0.4c0.3,0.7,1,0.6,1.6,0.6c6.1,0,12.1,0,18.2,0c0.7,0,1.5,0.1,1.6-0.9
		c6.3-0.1,12.6-0.1,18.9-0.2c0.4,0,1,0.2,1.3,0c1.8-1.6,3.7-2.3,6.2-1.5c0.6,0.2,1.1-0.3,1.3-1c0.5-0.3,1-0.3,1.5-0.1
		c2.7,0.3,5.3-0.7,8-0.1c0.4,0,0.8,0,1.2,0c5.5,1.9,11.4,2.5,17,2.6c13.3,0.2,26.6,0,39.9-0.2c25.9-0.5,51.8-0.5,77.7-0.7
		c2.7,0,5.3,0,8-0.1c0.8,0,1.8,0.4,2.3-0.7c5.1,0,10.3-0.1,15.4-0.1c0.8,0.7,1.9,0.4,2.8,0.4c24-0.1,48,0.1,72-0.6
		c0.8,0,1.8,0.3,2.5-0.6c6.1-0.1,12.1-0.1,18.2-0.2c0.4,0.1,0.8,0.3,1.2,0.3c16.9,0,33.7-0.1,50.6-0.1c0.7,0,1.7,0.3,2-0.8
		c0.5,0,1.1,0,1.6,0c0.9,0.8,2,0.4,3,0.4c22.5-0.1,45,0.1,67.5-0.5c2.9-0.1,5.8,0,8.8-0.1C930.3,336.3,931.3,336.7,931.8,335.6z
		 M398.5,367.4c2.4,1.8,5,3,8.2,2.9c1.5-0.1,3-0.1,4.5,0.4c4.8,1.5,9.8,2,14.9,1.9c13-0.3,26.1-0.5,39.1-0.6c3.1,0,5.9-0.3,8.4-2.2
		c1.7-1.3,3.9-1.5,6-1.8c3.6-0.6,7.2-1.2,10.7-1.9c2.7-0.5,5.3-1.5,7.6-2.8c0.5-0.3,1.2-0.6,1.1-1.3c-0.1-0.8-0.9-1-1.5-1.1
		c-0.8-0.1-1.6-0.1-2.4-0.1c-5.4-0.3-10.8,0.7-16.1,1.2c-2.8,0.3-5.3,0.9-7.9,2c-5.5,2.5-11.2,3.6-17.1,0.9
		c-4.2-1.9-8.1-0.2-12.1,0.8c-0.3,0.1-0.6,0.4-0.7,0.7c-0.6,1.7-2.1,2-3.6,2.1c-3.5,0.3-7,0.2-10.3-0.7c-2-0.6-3.8-0.6-5.7-0.1
		c-4.6,1.2-9.2,1.4-13.9,0C404.8,366.5,401.7,366.4,398.5,367.4z"/>
	<path class="st2" d="M765.8,499.9c2.3,1.3,4.9,1.9,7,3.4c-0.9,0-1.8,0-2.7,0C769.1,501.8,766.6,501.8,765.8,499.9z"/>
	<path class="st1" d="M694.4,171.6c-0.8,0.3-1.7,0.3-2.5,0c-1.3-1.3-2.9-1.3-4.6-1.2c-1.9,0.2-3,0.9-1.9,2.9
		c0.8,1.5,1.6,3.1,2.1,4.8c2.8,8.1,5.4,16.2,8.2,24.2c0.4,1,0.5,2.6,1.9,2.8c2.2,0.3,4.5,0.3,6.5-1c0.5,0,1.1-0.1,1.6-0.1
		c3.4,0.7,6.8,0.5,10.1,0.1c2.5-0.3,5.1,0.5,7.4-0.8c1.5,0,3-0.1,4.5-0.1c3.9,0.4,7.9,0.4,11.8,0c0.6,0,1.2,0.1,1.8,0.1
		c1.7,0.9,3.4,1.6,5.3,0.8c1.8,0,3.6,0,5.4,0c1.3,0.7,2.6,0.4,3.9,0.1c8.1-1.6,16-4,24.3-4.9c1.5-0.2,2.1-0.9,1.2-2.2
		c-0.9-1.3-1.8-2.6-2.7-4c-2.9-4.6-3.7-9.9-6.1-14.7c-1.2-2.4-0.3-3.7,1.2-5.2c1.9-1.9,4.2-3.3,6.8-4.2c1.1-0.4,2.2-0.7,2.4-2
		c0.1-0.2,0.2-0.2,0.4-0.2c3.6-1.4,7.2-2.7,10.8-4.1c0.2,0,0.5-0.1,0.7-0.1c5.2-0.2,9.9,1,14.3,3.6c0.7,0.4,1.7,0.9,2.4,0
		c2.2-2.7,5.6-2.6,8.6-3.4c2.5-0.7,4.7,0,6.7,1.4c2.4,1.7,2.8,4.2,3.6,6.7c0.7,2.1,0.6,4.6,3.2,5.8l0,0c0.8,1.9,2.3,2.6,4.4,2.5
		c0.4,0,0.8,0,1.1,0c1.8,0.4,1-1.3,1.6-1.9c2.2,1.2,3.8,2.8,3.4,5.3c-0.4,2.7-1.9,4.5-4.8,5.3c-0.6,0.2-1.4,0.3-1.7,1
		c-1.4,0.3-2.7,0.3-4.1,0c-3.1-1.2-6.2-2.4-9.3-3.5c-0.2,0-0.3-0.1-0.3-0.3c-0.1-0.9-0.7-1.4-1.6-1.3c-0.9,0.1-1.2,1-1.4,1.6
		c-0.5,1.8-0.9,3.7-1.4,5.5c-0.8,3-0.5,3.6,2.9,4.7c0.3,0.2,0.6,0.5,0.9,0.7c0.7,1.4,1.6,2.5,3.3,2.8l0,0c-0.1,1.1,0.9,1.6,1.5,2.2
		c2,1.9,3.8,3.9,5.5,6.1c8.2,10.3,12.5,21.8,11.7,34.8c-0.3,5.7,1.6,10.8,3.8,16c2,4.8,5.6,8.8,7.7,13.6c2.5,5.6,3.6,11.3,0.4,17
		c-0.7,1.3-2.2,2.2-2.5,3.8l-0.1,0.1c-0.5,0.2-1.1,0.2-1.5,0.5c-5.6,4-11.8,4.9-18.5,3.3c-2.8-0.7-5.6-1.2-8.5-1.7
		c-0.9-0.2-1.9,0-2.2,1c-0.2,0.8,0.2,1.4,1.2,1.6c0.2,0,0.3,0.1,0.3,0.3c0.7,2.1,2.2,3.4,4.3,4c0.7,0.3,1.2,0.8,1.5,1.4
		c0.7,1.8,1.9,3.3,3.4,4.7c0.1,0.1,0.2,0.3,0.3,0.4c0,0.9,0.7,1,1.4,1c3.5,0,7,0,10.5,0c0.6,0,1.2-0.1,1.4-0.8
		c6.6-0.1,13.1-0.1,19.7-0.2c1.8,0.8,3.6,0.8,5.4,0c13-0.1,25.9-0.2,38.9-0.4c0.3,0.5,0.9,0.5,1.4,0.5c8.7,0,17.5-0.1,26.2-0.1
		c0.7,0,1.5,0.1,1.7-0.8c3.7-0.2,7.4-0.3,11.1,0c0.1,0.5,0.2,1.1,0.3,1.6c-0.6,0.8-1.5,1.4-2.5,1.6c-1.3-0.2-2.6-1-3.6,0.5
		c-0.2,0-0.3,0.1-0.5,0.1c-1.7,1.1-1.6,2.9-2,4.5c-0.1,0.6,0.8,1,1.6,0.9l0,0c0.7,1.9,0.6,3.9,0,5.8c0,0.2-0.1,0.3-0.2,0.3
		c-2.6,0.8-3.8,2.7-4.3,5c-0.4,1.6-1.1,2.1-2.8,2.1c-7.2-0.1-14.3,0-21.5,0.1c-0.9,0-2-0.3-2.7,0.5c-5.2,0-10.5,0.1-15.7,0.1
		c-0.6-0.1-1.2-0.3-1.8-0.3c-18.9,0-37.8,0.1-56.8,0.1c-0.7,0-1.7-0.3-2,0.7c-3.5,0-7.1,0-10.6,0.1c-0.9-0.7-2-0.4-3.1-0.4
		c-21.8,0.2-43.7-0.2-65.5,0.4c-7.5,0.2-15.1,0.1-22.6,0.2c-0.9,0-2-0.4-2.7,0.6c-6.7,0.1-13.5,0.1-20.2,0.2
		c-0.9-0.7-1.9-0.4-2.8-0.3c-20.8,0.2-41.6-0.3-62.5,0.4c-8.8,0.3-17.6,0.1-26.3,0.2c-0.9,0-2-0.3-2.7,0.5c-4.2,0-8.3,0.1-12.5,0.1
		c-0.6-0.1-1.2-0.3-1.8-0.3c-18.9,0-37.8,0.1-56.7,0.1c-0.7,0-1.7-0.3-2,0.7c-3.9,0-7.8,0.1-11.7,0.1c-0.9-0.8-2-0.4-3.1-0.4
		c-21.4,0.2-42.8-0.3-64.2,0.4c-7.8,0.3-15.6,0.1-23.4,0.2c-0.9,0-2-0.4-2.7,0.6c-6.7,0.1-13.5,0.1-20.2,0.2
		c-0.9-0.7-1.9-0.3-2.8-0.3c-21,0.2-42-0.3-63,0.4c-9.7,0.3-19.5,0.1-29.3,0.2c-1,0-2.2-0.4-3,0.5c-3.8,0-7.6,0-11.4,0.1
		c-0.6-0.1-1.2-0.3-1.8-0.3c-18.7,0-37.5,0.1-56.2,0.2c-0.7,0-1.7-0.3-2,0.7c-4.6,0-9.2,0.1-13.8,0.1c-0.9-0.7-2-0.4-3.1-0.4
		c-21.6,0.2-43.3-0.3-64.9,0.4c-6.8,0.2-13.7,0.1-20.5,0.1c-0.9,0-2-0.4-2.7,0.6c-7.3,0.1-14.6,0.1-21.8,0.2
		c-0.9-0.6-1.9-0.3-2.8-0.3c-21.3,0.2-42.5-0.3-63.8,0.4c-9.7,0.3-19.5,0.1-29.3,0.2c-0.9,0-2-0.3-2.7,0.5c-0.3,0-0.5,0-0.8,0
		c-1.6,0.1-0.8-2.2-2.4-2.1c-1.9-0.8-0.8-2.1-0.7-3.3c0.1-0.4,0.1-0.8,0.2-1.2c1.8-0.9,3.3-2.1,5.2-2.8c1.1-0.4,1.3-1.4,0.1-2
		c-2.6-1.3-4.9-2.4-4.2-6c0.2-0.9-0.8-3.5-3.6-3.2c-1.9,0.2-3.9,0.3-6.5-0.3c1.5-0.8,2.4-0.7,3.3-0.7c37.9-0.4,75.9-0.7,113.8-1.1
		c25.9-0.2,51.7-0.5,77.6-0.7c2.7,0,5.1-0.5,6.9-2.5c0.8-0.9,1.8-1.3,3-0.6c3,1.5,5.8,2,9.4,1c5.5-1.5,11.3-1.2,17.1-1.3
		c3.8,0,7.5,0.3,11.3,0.4c0.4,0,1,0,1.3-0.2c2.4-2.3,5.2-0.8,7.7-0.4c1.3,0.2,2.1,0.1,3.1-0.7c2-1.7,4.6-1.8,6.8-1
		c2.4,0.9,4.9,0.9,7.3,1c2.3,0.2,4.6-0.3,6.6,1.2c0.5,0.3,1.1,0.2,1.5,0c2.2-1.2,4.5-2.4,6.6-3.7c1.2-0.7,1.3-1.4-0.3-2.1
		c-2.5-1-2.5-1.6-0.7-3.3c1.5-1.4,2.7-3,5.2-3.1c1.2,0,1.2-1.1,0.7-1.9c-0.3-0.7-0.9-1.2-1.2-1.9c-1-2.6,0-3.9,2.9-3.7
		c0.9,0.1,1.8,0.1,2.6-0.4c0.8,0.1,1.5-0.2,2.1-0.4c1.2,0.7,2.1,2.1,4,1.4c1.3-0.5,3.1-0.3,1.8-2.4c-0.3-0.4-0.1-1,0.5-1.3
		s1,0,1.4,0.3c1,1,2,1.9,3.3,2.5c2.2,0.9,4.4-0.3,4-2.5c-0.4-2.4,1.4-4,1.9-6.1c0.1-0.6,0.9-0.9,1.7-1c2.4-0.1,4.9,2.8,4.4,5
		c-0.4,1.7-0.7,3.4-2.3,4.8c-1.2,1,0,2.2,1.1,2.7c1.1,0.4,2.5,1.6,3.3-0.4c0.4-0.9,0.8-1.8,1.8-2c1.4-0.2,0.9,1.1,1.4,1.7
		c0.7,1,1.8,1.6,3,2c1.8,0.6,2-0.7,2.3-1.9c0.1-0.6,0.8-0.6,1.3-0.5c2.9,0.1,5.8,0.5,8.7,1.2c1.2,0.3,1.8,0.8,1.4,2.1
		c-0.3,0.9-0.5,2.1,0.7,2.6c1.4,0.6,2.9,0.9,4.4,0.8c0.5,0,0.7-0.7,0.5-1.2c-0.4-1.1-0.9-2.2,0.7-2.6c1.8-0.5,3.6,0,4.7,1.4
		c0.7,0.9,1.2,2,0.9,3.3c-0.2,1.3,0.4,1.6,1.5,0.8c1.1-0.8,2.4-1,3.7-1.1c1.4-0.2,2.4-0.9,3.3-1.9c0.7-0.8,0.7-1.3-0.3-2
		c-2.1-1.5-2-2.3,0.2-3.3c1.3-0.6,1.9-1.3,0.8-2.5c-1.1-1.3-0.4-1.7,0.9-1.9c1.2-0.2,2.1-0.8,2.5-2c0.3-0.8,0.6-1.7,0-2.4
		c-0.7-0.8-1.6-0.3-2.4,0.2c-1.1,0.8-2.2,0.2-3.3,0c-1.1-0.1-2.7-0.5-1.5,1.5c0.6,1-0.1,1.1-0.8,1.4c-3.1,1.5-3.4,2.2-2,5.1
		c0.3,0.6,0.9,1.2,0.3,1.8c-0.5,0.5-1.4,0.4-2,0.1c-1.4-0.7-2.9-0.6-4.4-0.4c-2.7,0.4-5.1-1.2-7.7-1.3c-1,0-0.5-1.3,0.2-1.7
		c1.2-0.7,2.5-1.2,3.8-1.8c1.5-0.7,2.3-1.6,0.2-2.6c-0.5-0.3-1.2-0.5-0.9-1.3s1.1-0.8,1.8-0.6c0.6,0.2,1.1,0.6,1.7,0.7
		c1.2,0.2,2.2-0.2,2.7-1.2c0.4-0.9,0-1.9-1-2.3c-1.9-0.8-1.6-1.8-0.9-3.2c1.5-2.8,0.1-6.7-2.8-8.3c-1.3-0.7-1.6-1.9-1.3-3
		c0.7-3.2-0.4-5.7-2.7-8c-0.5-0.5-1.3-1.1-0.7-1.9c0.3-0.4,1-0.9,1.5-0.9c1.1-0.1,1.4,0.9,1.6,1.7c0.3,1.1,1,1.7,2.1,2
		c0.3,0.1,0.9,0.2,1,0.3c0.6,2.8,3.8,3,5.5,4.6c1.9,1.8,4.5,3.1,6.7,3.6c1.9,0.5,4.9-0.5,7.3-1.5c2.6-1.1,4.4-2.4,4.9-5.3
		c0.2-1.2,0.1-1.8-0.9-2.5c-1.6-1-3.2-2.1-4.8-3.1c-2.3-1.5-2.2-5.6,0.2-7c0.5-0.3,1-0.1,1.5,0.1c3,1.1,4.8,0.6,6.6-2
		c0.5-0.7,1-1.4,1.5-2.1c1.3-1.9,2.9-2,4.2-0.1c1,1.4,1.9,2.8,1.8,4.6c-0.1,1.1,0.4,1.6,1.6,1.3c1.3-0.3,2,0.4,2.6,1.3
		s1.1,1.9,2.4,2.2c1.1,0.2,1.5,1.2,1.4,2.1s-1.1,1.1-1.8,1.1c-2.1,0-2.7,0.9-2.2,2.7c0.1,0.4,0,0.8-0.1,1.2c-0.9,3.9,0.1,5.9,4,8
		c1.2,0.6,2,0.8,2.1-0.8c0-0.7,0-1.4,0.8-1.7c1-0.3,1.1,0.6,1.3,1.2s0.8,0.8,1.4,1c1.9,0.4,2.6,1.2,1.6,3c-0.6,1,0.1,1.5,1.1,1.2
		c1.9-0.5,3.9-0.8,4.8-2.9c0.4-1.1,1.4-2.2,2.5-0.2c0.2,0.3,0.6,0.8,0.9,0.8c3.4,0.4,1.8,1.8,0.7,3.1c-1.5,1.7-3.5,3-3.2,5.7
		c0.1,1.1-1.1,2-2.1,2.8c-1,0.7-1,1.5,0,2.2c0.8,0.6,1.5,1.2,2.3-0.1c0.8-1.4,2.1-0.8,3.2-0.3c4,1.9,7.8,1.1,10.1-2.3
		c0.3-0.4,0.7-0.9,1.2-0.6c0.9,0.5,2.3,0.8,2.2,2.2c-0.1,1.1,0.1,2.3-0.4,3.2c-2,4.1,1.3,6.4,3.4,8.9c1.2,1.5,2.5,2.4,1,4.4
		c-0.8,1,0,1.8,1,2.4c3,1.7,4.5,4.1,4.5,7.4c0,0.7,0,1.3,0.8,1.3c2.1,0,4.4,0.6,6.3-0.4c3-1.6,5.7-3.6,8.2-5.9
		c1.6-1.5,1.4-2.5-0.2-3.9c-8.9-7.8-17.7-15.7-26-24c-5.6-5.5-4.3-9.7,3.7-11.4c17.3-3.7,34.7-3.5,52.1-0.3c0.5,0.1,1,0.2,1.8,0.3
		c-1.1-2.4-2.8-4.2-4.2-6.2c-4.2-5.8-8.1-11.7-12.3-17.5c-3.7-5.2-3.8-10.3-1.7-15.9c1.8-4.8,1.9-5-3.1-7.3
		c-5.3-2.4-7.6-6.5-9.1-11.3c-1.7-5.3-4.1-10.3-7-15c-0.8-1.2-1.4-1.6-2.9-0.8c-12.9,6.5-25.7,6.3-37.8-1.4
		c-12.4-7.9-17.5-19.4-15.7-33.3c2-16.1,16.4-28.4,34-29.6c16.4-1.1,32.1,9.8,36.5,25.2c0.7,2.3,1.6,3,4.3,2.9
		c23.9-1,47.8-1.8,71.6-2.6c2.1-0.1,3-0.6,3.5-2.7c3.5-14.2,16-25.2,31.2-26.7c13.4-1.4,23.9,3.9,31.7,13.9
		c12.9,16.6,9.8,41-6.5,53.6c-13.2,10.2-31,10.1-43.9-0.4c-1.8-1.5-2.8-1.5-4.5,0c-4.3,4-7.7,8.5-9.6,13.9
		c-2.6,7.3-6.8,13.7-12.1,19.5c-0.9,1-1.4,2-1.5,3.3c-0.4,3.6-1.1,7.1-2.4,10.5c-0.6,1.7-0.6,3.2,0.5,4.9c2.6,4.3,4.2,9,6.2,13.5
		c1,2.3,2.4,4.4,4.5,6.1c3.7,3.1,7.2,6.4,10.8,9.6c2.7,2.4,4.1,5.3,4.2,8.6c0.3,7.9-1.1,13.8-9.6,17.2c-0.6,0.3-1.5,0.5-1.2,1.4
		c1.2,3.2,1.3,6.7,2.9,9.8c0.6,1.1,1.4,1.4,2.5,1.4c4.9-0.1,9.8-0.1,14.7-0.1c1.4,0,2.2-0.4,2-1.9c-0.4-2.7,0.9-4.7,3-6.4
		c9.9-8.3,14.4-19.1,16.8-31c0.8-4,1.5-8,2.2-12.1c1.2-6.7,5.1-12,10.2-16.6c1.1-1,1.5-2.2,2.2-3.3c2.9-4.7,3.1-9.9,3.5-15.1
		c1.1-14,6.9-26.6,13.9-38.7c2.9-5,5.8-9.9,8.8-14.8c0.8-1.3,0.9-2.1-0.4-3.1c-3.7-3-3.6-3.1-1.7-7.1c3.1-6.3,6-12.6,8.2-19.2
		c0.6-1.8,0.7-3.4,0-5.1c-3.2-8.2-6.1-16.5-9.7-24.6c-4.5-10-4.8-20-1.2-30.2c1.3-3.8,1.5-7.4-0.2-11.1c-2.2-4.8-1.7-9.8-0.8-14.8
		c0.6-3.3,1.2-6.6,2.1-9.8c0.4-1.5,0-2.1-1.4-2.7c-3-1.2-5.7-2.7-8-4.8c-5.8-5.4-5.7-12.3,0.2-17.5c1.1-1,1.1-1.6,0.3-2.7
		c-1.4-2-2.5-4.2-3.1-6.6c-1.1-4,0.5-6.8,4.7-7.9c1.2-0.3,2.3-0.7,3.2-1.6c1.1-1.1,2.6-1.6,4.1-1.7c4.5-0.3,9.3-1.6,12.9,2.3
		c0.3,0.3,0.9,0.4,1.4,0.6c4,1.1,5.4,2.7,5.5,6.6c0.1,2.8-0.7,5.4-1.8,8c-0.4,0.9-0.5,1.4,0.5,2.1c8.3,5.5,7.9,15.2-0.7,20.4
		c-1.5,0.9-4.1,0.9-4.4,2.8c-0.3,1.5,0.7,3.2,1,4.8c1.4,6,2.8,12,4.1,18.1c0.3,1.4,0.3,2.9-0.4,4.2c-2.8,5.4-1.3,10.7,0.1,16.1
		c0.5,2,1.8,3.8,2.8,5.7c0.4,0.7,0.7,1.6,1.9,1.4c1-0.2,1.9-0.6,2.3-1.5c1.4-3.1,2.3-6.2-0.4-9.1c-2.1-2.3-2-4.7-0.8-7.4
		c1.6-3.5,3.3-7,5.3-10.3c1.5-2.6,3.9-3.8,6.8-4.9c5.7-2.3,10.3-0.4,14.9,2.5c4.1,2.6,7.6,5.7,10.9,9.1c2.2,2.3,2.7,4.6,1.1,7.3
		c-1.5,2.4-2,4.9-1.8,7.7c0.3,2.9-0.5,5.4-3.4,7c-1.8,1-1.7,2,0.1,3.1c2.7,1.6,5.4,3,8.8,3.2c4,0.3,7.3,2.5,10.3,4.8
		c4.4,3.4,8.2,7.4,12,11.4c5.5,5.8,10.6,11.9,16.5,17.3c4,3.6,3.8,6.4,0.2,10.8c-2.7,3.4-6.2,6.2-9.7,8.8c-0.8-0.1-1.2,0.2-1.2,1
		c-1,1.2-2.2,2.2-3.6,3c-0.8-0.1-1.2,0.2-1.2,1c-1,1.2-2.3,2.2-3.6,3c-0.8-0.1-1.2,0.2-1.2,1c-0.4,0.6-1,1.1-1.7,1.4
		c-2,0.8-3.8,1.9-4.8,3.9c-0.3,0.2-0.6,0.5-0.9,0.7C698.3,169.2,696.3,170.4,694.4,171.6z M712.3,309.8c-1.8-2.1-1.3-3.4,0.1-5.2
		c2-2.4,3.2-5.3,4.4-8.2c0.4-1.1,0.4-1.8-1.1-1.8c-5.5,0.1-10.7-1.3-16.1-1.9c-2.5-0.2-4.6,0.4-6.9,1.3c-6.9,2.6-13.8,3.7-20.4-0.9
		c-5.3-3.7-10.8-7.3-17-9.7c-1.5-0.6-2.8-1.5-3.7-2.8c-1-1.4-1.6-3.3,0.2-4.2c3.6-1.8,7.4-3.9,11.6-3c6.9,1.6,14,2.3,20.7,4.5
		c7.6,2.5,14.9,1.4,22.3,0.2c1.2-0.2,1.8-0.6,0.7-1.8c-1.7-1.8-3.1-3.9-4.8-5.6c-6.6-6.8-9.9-14.9-10.3-24c-0.1-1.5-1-2.2-2-3
		c-5.7-4.2-11.1-8.6-15.1-14.3c-6.6-9.5-12.6-19.3-15.6-30.4c-0.6-2.1-1.6-4.1-3.6-5.4c-1.2-0.7-2.3-1-3,0.6
		c-3.6,8.4-8.7,16-13.5,23.7c-3.8,6.2-6,13.1-9.7,19.4c-4.1,7.1-9.3,13.5-13.6,20.5c-1,1.7-2.1,3.3-2.6,5.2c-1.4,4.7-3.3,9.1-6.5,13
		c-4.8,5.8-8.9,12-13.4,18c-2.1,2.7-2.6,5.6-2,8.8c0.3,1.7,1.1,3.3,1.5,5c0.5,2.2,1.7,2.9,4.2,2.9c36.1-0.4,72.1-0.7,108.2-1
		C707.6,309.7,709.9,309.8,712.3,309.8z M782.9,256.2c9.7,0.4,17.1,0.6,24.6,1c2,0.1,1.9-0.5,1.3-1.8c-0.7-1.4-1.2-2.8-1.8-4.1
		c-3.4-7-8.4-12.5-16.6-14.7c-2.1-0.6-3.1-2.2-3.9-3.9c-1-2-1.9-4.2-2-6.4c-0.1-1.9-1-2.3-2.8-2.5c-4.8-0.5-9.5-1.2-14.2-2
		c-10.1-1.6-20-3.7-30.4-2.4c-5,0.6-10.1,0.5-15.2,0.1c-5.9-0.4-11.9-0.8-17.7-1.9c-1.9-0.4-2.4,0.1-1.9,1.9
		c0.4,1.4,0.6,2.9,0.8,4.4c1,6.3,3,12.2,7.4,17.3c4.8,5.6,9.3,11.4,12,18.2c1.7,4.4,3.6,8.7,5.2,13.1c0.5,1.4,1.2,2,2.9,1.8
		c4.4-0.5,8.8-1,13.2-1.3c3.5-0.2,6.6-1.3,9.6-2.6c1.4-0.6,1.7-1,0.5-2.3c-3.6-3.8-2.6-7.9,2.3-10.1c2.6-1.2,5.4-1.7,8.3-1.7
		C771.2,256.2,778.2,256.2,782.9,256.2z M495.6,167.7c5.6,0.1,9.4,0.7,13.1,2c5.1,1.8,9.4,4.2,10.5,9.9c0.7,3.4,0,6.6-0.2,9.9
		c-0.2,3.3-1.8,5.8-4.1,8.2c-1.5,1.6-5,2-4.7,4.5c0.3,2.2,3.5,2.8,4.9,4.7c0.9,1.2,1.7,0.8,2.6,0c2.6-2.5,5.1-5,7.2-8
		c1.8-2.6,3-5.9,5.7-7.8c5.9-4.1,9.9-9.7,15-14.4c0.7-0.7,1.1-1.4,0.7-2.4c-1.3-3.3-1.9-6.8-2-10.3c0-1.7-0.6-2.2-2.4-2.1
		c-5.1,0.3-10.1,0.5-15.2,0.7c-18.8,0.8-37.6,1.7-56.4,2.5c-1.4,0.1-2.8-0.1-3,1.9c-0.4,4.6-2,8.9-4.5,12.9
		c-0.8,1.3-0.3,1.9,0.5,2.8c2.6,3,5,6,7.6,9c0.6,0.7,1,2.3,2,2.1c1.3-0.2,1.1-1.8,1.1-2.8c0-3.9,2-7.7,1.3-11.7
		c-0.1-0.3,0.2-0.6,0.3-0.9c1.2-3.9,3.1-7,8-7.5c0.6-0.1,1.2-0.4,1.7-0.6C489.3,168.8,493.1,167.6,495.6,167.7z M800.8,300.6
		c-13.1-11.3-40.2-15.8-60.7-7.7c0.7,0.4,1.3,0.7,1.9,0.9c2.3,0.7,3.2,2.2,2.7,4.2c-0.8,3.1,0.9,5,3.1,6.9c1.2,1,2.4,2,3.5,3.1
		c0.9,0.9,2,1.2,3.3,1.2c8.7-0.1,17.4-0.2,26.1-0.2c1.2,0,2.1-0.2,2.8-1.3c1.7-2.7,4.4-4.2,7.5-5.3
		C794.1,301.3,797.4,301,800.8,300.6z M676.5,142.8c0.1,0.3,0.1,0.6,0.2,0.9c1.4,4.2,3,8.3,3.8,12.7c0.2,1,1,1.2,1.9,1.5
		c3.2,1,6.4,1.9,9.5,3.2c1.9,0.7,2.8,0.4,3.9-1.1c4.8-6.2,9.5-12.4,15.8-17.4c0.5-0.4,1.1-0.8,0.5-1.7c-1.4-1.8-2.5-4-4.5-5.2
		c-6.5-3.7-12.3-8.3-18.3-12.8c-1.4-1-2.1-0.8-2.8,0.6c-1.8,3-3.8,6-5.5,9.1C679.1,135.9,677.5,139.2,676.5,142.8z M517.8,311.3
		c-2.1-2.5-4.8-4.3-9.1-6.1c-2.3-1-4.8-2.1-5.9-4.1c-2.9-5.3-7.9-6.3-13.5-6.8c-4.7-0.4-9.4-1.5-14.1-2.2c-0.3,1,0.6,1.3,1,1.8
		c5.4,5.8,11.9,10.7,16.9,16.9c0.8,1,1.8,0.9,2.9,0.9c5,0,9.9-0.1,14.9-0.2C513.2,311.5,515.5,311.8,517.8,311.3z M632.1,15.2
		c-0.2,1-0.3,2,0.9,2.4c0.7,0.3,1.4,0.8,2.2,0.3c1.8-1.1,2.6-7.1,1.1-8.6c-1.2-1.2-2.3-1.1-3,0.6C632.5,11.6,632.1,13.4,632.1,15.2z
		 M617.2,9.9c-0.1,3,0.8,5.2,1.9,7.4c0.3,0.5,0.6,1.1,1.4,0.9c0.9-0.2,1.1-0.8,0.9-1.5C621,14,619.7,11.9,617.2,9.9z"/>
	<path class="st1" d="M290.9,253.9c2.3,0.3,3.7,0,2.8-2.6c-0.5-1.5,0.3-2.7,1.3-3.9c1.3-1.5,2.9-2.6,3.9-4.4c0.5-1,1.5-1.2,2.5-0.6
		c1.1,0.6,2.5,1,3.1,1.9c2.8,3.9,7.5,4.9,11.5,7c3.4,1.8,4,2.7,1.9,5.7c-1.6,2.2-2.1,4.9-3.8,7.1c-1.7,2.3-4.5,1.4-6.7,2
		c-0.9,0.2-1.2-1-1.1-1.9c0.3-1.2-0.2-1.9-1.4-1.9c-1.4,0-3-1.7-4.3,0.2c-0.3,0.5-0.7,1-1.1,1.3c-1.2,0.9-2.7,1.8-4.1,1.1
		c-1.4-0.7-3-1.8-2.9-3.6c0-1.4-0.6-1.7-1.8-1.8c-0.2,0-0.4,0-0.5-0.1c-1.9-0.7-2.9-2.1-2.6-3.9
		C287.9,253.6,289.6,253.9,290.9,253.9z"/>
	<path class="st2" d="M153.3,390.8c0.9,0.8,2,0.5,3,0.5c14.4,0,28.7-0.2,43.1,0.2c4,0.1,8.2,0.3,12,1.9c-29.9-2.9-59.9-0.8-89.9-1.1
		c-20.6-0.2-41.2,0.2-61.8,0.1c-7.3,0-14.7-0.1-22,0c-10,0.1-20.1-0.2-30.1,0.5c-1.9,0.1-3.8-0.1-5.8-0.5c0.7-1.2,1.8-1.3,2.9-1.3
		c1.7,0,3.4-0.1,5.1-0.1c4.4,0.2,8.9-0.4,13.3-0.2c12.5,0.4,24.9,0,37.4,0c30.2,0,60.4-0.1,90.6-0.1
		C151.7,390.6,152.5,390.7,153.3,390.8z"/>
	<path class="st2" d="M832.1,387.5c0.1-1.7,1.5-1.1,2.4-1.1c6.7,0,13.4,0,20.1,0c0.9,0,2.3,0.5,2.5-1.1c0.9,0.1,1.8,0.1,2.6,0.2
		c1.1,0.1,2.1,0.3,2-1.4c-0.1-1.8,1.4-2.7,2.9-3.3c3.3-1.2,6.5-0.7,9.4,1c1.5,0.9,1.1,1.7-1.8,3.1c5.9,0.4,11.3,0.8,16.4-1.7
		c1.1-0.5,2.2-0.6,3.3-0.6c7.6-0.1,15.3,0.4,22.9-0.2c2.5-0.2,1.6,1,1.2,1.8c8.5,0.6,17.1,1,25.8,1.1c0.7,0,2-0.3,2.1,0.6
		c0.1,1.2-1.3,0.7-2.1,0.8c-3.4,0.7-6.9,0.5-10.4,0.5c-32,0-64,0-96,0C834.4,387.4,833.3,387.5,832.1,387.5z"/>
	<path class="st1" d="M338.2,279.9c1.3-0.7,2.3-0.9,1.1-2c-1.8-1.8-3.9-3.6-5-5.8c-2.2-4.2-4.7-8.2-7.1-12.3c-0.4-0.8-1.9-2-0.2-2.7
		c1.4-0.6,2.7,0.5,3.1,1.7c0.8,2.3,2.5,4,3.7,5.9c1,1.6,2.2,2.7,3.6,3.8c1.6,1.2,3.2,2.5,4.1,4.2c1.1,1.9,2.9,2.4,4.8,2.5
		c2,0.1,2.8-1.5,3.4-3c0.5-1.1,1.2-1.9,2.5-1.8c1.6,0.1,1.6,1.4,1.6,2.4c0,1.1,0.5,1.8,1.3,2.6c2.2,2.5,2.3,6.4,0.2,8.8
		c-0.8,0.9-1.7,1.6-1.5,2.9c0.1,0.7-0.6,0.9-1.3,1c-1.4,0.2-2.4-0.3-3.3-1.3C346.5,283.6,343.5,280.6,338.2,279.9z"/>
	<path class="st1" d="M245.9,293.3c2.4,0.8,6.1,0.7,7.6,4.4c0.4,1,1.2,0.8,2,0.6c0.9-0.2,1.9-0.6,2.8-0.6c2.9-0.1,3.9,1.1,3.4,3.7
		c0,0.1,0,0.2,0,0.2c-0.6,1.6,1.2,3.8-1.1,4.8c-3.1,1.2-6.2,2.6-9.7,1.2c-0.8-0.3-1.7-0.6-1.8-1.3c-0.4-2.8-2.7-2.2-4.5-2.2
		c-2.4,0-6.7-2.4-7.5-4.4c-0.3-0.7,0.1-1.3,0.6-1.8c1.6-1.3,3.2-2.6,4.6-4.2C242.8,292.9,244.1,293.3,245.9,293.3z"/>
	<path class="st1" d="M460.9,402.1c-1.6,0.1-3.2,0.2-4.8,0.2s-3.1,0.3-4.1-1.4c-0.6-1-2.2-0.9-3.5-0.8c-2,0.1-3.9-0.4-5.5-1.5
		c-0.7-0.5-1.5-1-1.2-2c0.3-0.9,1.1-1.3,2-1.4c5.4-0.5,10.8-1.2,16.2-0.1c4.4,0.8,8.8,1.2,13.2,0.4c2.4-0.4,4.6,0.2,6.7,1.1
		c0.5,0.2,1.2,0.5,1.1,1.2s-0.8,1.1-1.3,1C473,398.3,467.7,404.1,460.9,402.1z"/>
	<path class="st2" d="M19.5,377.9c-0.1,2.9,2.5,2.9,4.4,3.4c1.7,0.4,2.4,0.9,1.6,2.6c1.6-1.6,3.1-1.9,5.1-0.6
		c0.5,0.4,1.6,0.1,2.4,0.1c55.7,0,111.4-0.1,167-0.1c1.2,0,2.5-0.2,3.7,0.2c-0.7,0.6-1.5,0.3-2.3,0.3c-48,0.2-96.1,0.3-144.1,0.5
		c-8.2,0-16.3,0-24.5,0c-1.3,0-2.7,0.3-3.8-0.7c-0.2-0.2-0.7-0.3-1-0.2c-4.3,2.5-8.8,0.8-13.2,0.8c-2.6,0-5.1,0.8-7.7,0.3
		c-0.7-0.1-1.9,0.2-1.8-0.9s1.2-0.7,2-0.7c5.2,0.5,10.3-1,15.9,0.2c-0.8-1.7-1.9-1.8-2.8-2.2C18.9,380.2,18,379.3,19.5,377.9z"/>
	<path class="st1" d="M283.4,294.5c-3.3-1.3-5.4-3.9-8.4-5.6c-2.7-1.5-5.1-3-8.5-2.4c-1.6,0.3-3.5-2.1-3.3-3.6
		c0.3-2.1,2.1-2.5,3.9-2.7c3.5-0.3,6.6,0.9,8.6,3.5c2.9,3.6,7.4,4.9,11.1,7.3c3.4,2.2,5.9,5.2,9.2,7.5c1.1,0.7,0.3,1.5-0.9,1.5
		c-1.5,0.1-2.8,0.4-3.8,1.5c-0.6,0.6-1.3,1.4-0.7,2.2c1.6,2.1-0.2,3.1-1.5,4.2c-0.1,0.1-0.1,0.1-0.2,0.1c-1.3,0.5-3,2.1-4,0.9
		s1.3-1.9,2.2-2.8c2.1-1.9,1.7-3.3-1.7-4.3c-1.5-0.4-2.2-0.7-2.2-2.4c0.1-1.2-1-2.1-2.4-2.4c-0.7-0.2-1.4-0.4-2-0.7
		c-0.5-0.2-0.8-0.7-0.5-1.3c0.2-0.4,0.7-0.4,1.2-0.3C280.8,294.8,282,295.2,283.4,294.5z"/>
	<path class="st1" d="M369.1,233.8c3.6,0.1,6.5-1.7,7.6-4.7c0.2-0.7,0.5-1.3,1.4-1.3s1.4,0.5,1.7,1.3c0.8,2.1,2.4,3.8,4.6,4.5
		c3,0.9,3.4,3.3,3.7,5.5c0.4,2.2-1,3.9-2.8,5.3c-0.7,0.5-1.7,0.8-2.1,1.5c-1.4,2.3-3.2,1.6-5,0.8c-1.4-0.6-2.3-1.4-1.7-3.1
		c0.7-1.8,0-3.4-2-4c-2.8-0.8-4-3.8-6.9-4.4c-0.5-0.1-0.6-0.7-0.4-1.1C367.6,233.3,368.5,233.9,369.1,233.8z"/>
	<path class="st2" d="M581.4,394.1c2.3-1.2,4.2-0.9,4.9,1.6c0.8,2.9,2.6,2.7,4.7,2c1.5-0.5,2.8-0.5,3.7,0.9c0.4,0.7,0.9,0.7,1.5,0.2
		c1.3-1.1,3-1,4.5-1.4c1.3-0.4,2.7,0,3,1.4c0.3,1.8,1.3,1.1,2.2,0.8c1.6-0.5,2.9-1.6,4.6-2c3.3-0.7,6.1,0.6,7.1,3.5
		c0.6,1.8,1.6,3.4,1.4,6c1.6-1.8,0.7-3.5,1.2-4.9c1.4-3.7,2.8-4.7,6.8-3.7c2.4,0.7,5,1.5,6.7,4.1c0.1-0.9,0.1-1.5,0.1-2.1
		c0.1-2.3,0.8-2.7,2.9-1.7c1,0.5,1.7,0.4,2.4-0.1c4-2.4,7.9-1.8,11.7,0.4c0.6,0.4,1.2,0.7,1.8,1c5,2.7,5,2.7,8.6-1.4
		c0.3-0.3,0.7-0.4,1.1-0.6c-0.5,1.6-1.8,2.6-2.7,4c-0.8,1.3-2.1,1.1-3.3,0.6c-2.5-1.1-4.9-2.3-7.3-3.6c-3.4-1.9-6.6-1.5-9.8,0.4
		c-0.9,0.5-1.6,1-2.6,0.3c-1.9-1.4-2.3-0.4-2.2,1.2c0.3,5.8,1.5,11.4,3.1,16.9c1.3,4.4,4.2,8,6.1,12.2c-2.8-1.7-4.2-4.4-5.9-6.9
		c-3.9-5.9-4.7-12.6-5.4-19.3c-0.3-3.2-6.9-6.1-9.9-4.6c-0.8,0.4-1,1.1-1.1,1.9c-0.3,1.5-0.3,3-0.2,4.5c0.1,1.2-0.7,1.6-1.8,1.7
		s-1.4-0.6-1.4-1.4c0-2.1-1.3-3.8-1.8-5.7c-0.5-2.1-4.1-2.8-6.9-1.6c-1.4,0.6-2.8,1.4-4.3,1.9c-0.9,0.3-2.3,0.5-2.4-0.8
		c-0.1-2.1-1.5-1.6-2.8-1.6c-1,0.1-1.9,0.3-2.7,0.9c-1.5,1-2.7,2-3.7-0.6c-0.4-1.1-1.8-0.4-2.6-0.1c-2.6,1-4.3,0.6-5-2.2
		C585.2,394.1,583.2,394.2,581.4,394.1z"/>
	<path class="st2" d="M232.7,383.5c1.1-1,2.3-0.6,3.5-0.4c4.9,0.8,9.9,0.4,14.8,0.5c3.5,0.1,7.3-0.6,11-0.7
		c27.2-0.7,54.3-0.4,81.5-0.6c3.4,0,6.3,1.2,9.5,1.9c1.6,0.3,3.1,0.7,4.7,0.6c5.4-0.4,10.6,1.3,16.1,0.7c1.1-0.1,2.7-0.1,3.5,1.1
		c-6.5-0.5-12.9-0.7-19.4-1.1c-3.4-0.2-6.5-1.1-9.7-2c-0.8-0.2-1.7-0.3-2.6-0.3c-22.5,0-44.9,0.1-67.4,0.2c-3.6,0-7.2,0.3-10.8,0.7
		c-1.5,0.1-2.9-0.4-4.5-0.4c-8,0.3-16,0.4-24,0.4C236.9,384.2,234.8,383.7,232.7,383.5z"/>
	<path class="st2" d="M600.1,364.5c-0.4,0.5-1,0.5-1.4,0.1c-2.1-2.2-4.4-1.2-6.6-0.4c-2.8,1-9.8-0.8-11.3-3.1
		c-0.6-0.9-0.4-1.6,0.9-1.8c0.5-0.1,1.1,0,1.6,0c24.1-0.5,48.1-0.1,72.2-0.6c13-0.2,26.1-0.3,39.1-0.4c1.8,0,3.3,0.3,4.3,1.8
		c-2.9-1.2-6-0.9-9.1-0.8c-34.8,0.3-69.6,0.6-104.4,0.8c-1.1,0-2.2,0-3.6,0c2.6,3,6.9,4.6,10.2,3.3
		C594.9,362.2,597.6,362.2,600.1,364.5z"/>
	<path class="st2" d="M683.9,338.1c-0.5,1.1-1.5,0.7-2.3,0.7c-2.7,0.1-5.3,0-8,0.1c-25.9,0.2-51.8,0.1-77.7,0.7
		c-13.3,0.3-26.6,0.5-39.9,0.2c-5.7-0.1-11.5-0.8-17-2.6c4.5-0.1,8.9,0.9,13.3,1.5c1.5,0.2,2.9,0.5,4.5,0.5
		c41.5-0.4,83.1-0.8,124.6-1.2C682.1,337.9,683,338,683.9,338.1z"/>
	<path class="st1" d="M379.8,406c-0.1-4.2,3.3-6.9,6.6-6.7c1.9,0.1,3.6,0.5,5.3,1c2.7,0.8,3.4,2.9,3.8,4.8c0.4,1.8-1.3,3.5-3,4.7
		c-1,0.7-2.1,1-3.2,0.2c-1.7-1.3-3.7-1.4-5.8-1.6C381.4,408.1,379.8,407.2,379.8,406z"/>
	<path class="st2" d="M288.3,390.3c-0.6,0.9-1.6,0.5-2.4,0.5c-42.5,0.1-85.1,0.1-127.6,0.2c-0.8,0-1.6-0.1-2.4-0.2
		c0.6-0.6,1.3-0.4,2-0.4c42.7-0.1,85.4-0.3,128-0.4C286.7,390.1,287.5,389.9,288.3,390.3z"/>
	<path class="st1" d="M400.6,248.7c-0.4-3.6,4.6-7,7.7-7.2c1.3-0.1,2.3,0.3,3,1.2c1.2,1.7,2.8,2.2,4.8,1.6c0.8-0.2,1.6-0.2,1.9,0.4
		c0.4,0.9-0.6,1.3-1.2,1.6c-1.2,0.7-2.3,1-2.4,2.8c-0.1,1.2-1.6,2-3.3,1.1c-1.4-0.8-2.7-1.8-4.2,0.6c-1,1.7-3.6,0.6-5.5,0.2
		C400.1,250.8,400.5,249.6,400.6,248.7z"/>
	<path class="st2" d="M854.9,292.7c0.3-1.6,1.8-2.4,2.5-3.8c3.2-5.7,2.1-11.4-0.4-17c-2.1-4.7-5.7-8.7-7.7-13.6
		c-2.2-5.2-4.2-10.3-3.8-16c0.8-13-3.5-24.5-11.7-34.8c-1.7-2.1-3.5-4.2-5.5-6.1c-0.7-0.6-1.6-1.1-1.5-2.2
		c6.8,5.4,11.5,12.3,15.2,19.9c3.5,7.3,5,15,4.7,22.9c-0.4,9,3.1,16.8,8,24.1c3.8,5.7,6.4,11.6,5.3,18.4
		C859.3,287.8,857.9,290.7,854.9,292.7z"/>
	<path class="st2" d="M750.4,358.5c0.6-0.9,1.6-0.6,2.4-0.6c3.8-0.1,7.6,0,11.5-0.1c28.3-0.8,56.6-0.3,84.9-0.5c1,0,2.1-0.4,3.1,0.4
		c-4.2,0.5-8.5,0.2-12.7,0.3c-28.7,0.3-57.3,0.5-86,0.7C752.5,358.7,751.4,358.6,750.4,358.5z"/>
	<path class="st2" d="M744.5,407.9c1.8,0,2.2,1.5,3.1,2.5c4.9,5.3,7.6,11.6,9.4,18.4c3.1,11.7,3.6,23.6,3.8,35.5
		c0.1,6.7-0.1,13.5,0.4,20.2c0.3,5.1,0.4,10.3,4.5,14.5c0.2,0.2,0.1,0.6,0.2,0.9c-3.9-3-5.1-7.2-5.3-11.5
		c-0.5-11.3-0.5-22.6-0.9-33.9c-0.5-11.3-1.8-22.5-6.1-33.3C751.5,416.2,748.1,412,744.5,407.9z"/>
	<path class="st2" d="M216.8,373.6c-0.6,1.1-1.7,0.6-2.6,0.6c-10.4,0.1-20.8-0.1-31.2,0.2c-22.9,0.6-45.8,0.2-68.7,0.4
		c-1,0-2.1,0.4-3.1-0.4c8.2-0.1,16.3-0.3,24.5-0.4c26.1-0.2,52.2-0.4,78.3-0.6C214.9,373.4,215.9,373.6,216.8,373.6z"/>
	<path class="st1" d="M281.9,247.4c-0.3-2.7,0.9-4.7,3.4-6c3-1.6,7.2,0.2,8,3.4c0.3,1.3-2.8,6-4.4,6.4c-2.1,0.5-4.3,2.1-6.4-0.5
		C281.6,249.6,282,248.6,281.9,247.4z"/>
	<path class="st2" d="M427.4,404.1c1.9-0.5,2.8,0.7,3.8,1.9c0.9,1,1.8,2.8,3,2.5c1.5-0.4,0.5-2.3,0.7-3.6c0.4-3.3,0.6-6.6,1-9.9
		c0.2-1.9,1.5-2.5,3.4-2.8c2.7-0.3,5.8,0.2,8-2.1c0.7-0.7,1.8-0.5,2.8-0.5c12.6,0,25.2,0,37.8,0c2,0,3.6,0.7,5.3,1.5
		c2.6,1.2,5.3,1.8,8.2,1.7c1.2-0.1,2.5,0,3.3,1.1c-4.2,0-8.3-0.4-12.1-2.3c-2-1-4.1-1.4-6.4-1.4c-11.8,0.1-23.6,0.1-35.4,0.1
		c-1.7,0-3.2,0.3-4.6,1.4c-1.9,1.4-4.5,1.1-6.7,1.3c-2.2,0.3-3.2,1-3,2.9c0.4,3.7-1.1,7.2-0.7,10.9c0.1,1,0.2,2.3-1.2,2.8
		c-1.3,0.4-1.9-0.7-2.5-1.5C430.8,406.7,429.5,405,427.4,404.1z"/>
	<path class="st2" d="M322.8,335.5c0.8-0.9,2-0.5,3-0.5c9.8-0.1,19.5,0.2,29.3-0.2c21-0.7,42-0.2,63-0.4c0.9,0,2-0.3,2.8,0.3
		c-0.6,0.4-1.4,0.2-2.1,0.2c-31.3,0.3-62.6,0.5-93.9,0.8C324.2,335.7,323.5,335.9,322.8,335.5z"/>
	<path class="st2" d="M441.2,334.5c0.7-1,1.8-0.6,2.7-0.6c7.8-0.1,15.6,0.1,23.4-0.2c21.4-0.7,42.8-0.2,64.2-0.4
		c1,0,2.1-0.4,3.1,0.4c-8.1,0.1-16.3,0.3-24.4,0.4c-22.1,0.2-44.2,0.4-66.3,0.6C442.9,334.7,442,334.6,441.2,334.5z"/>
	<path class="st2" d="M733.9,332c0.7-1,1.8-0.6,2.7-0.6c7.5-0.1,15.1,0.1,22.6-0.2c21.8-0.7,43.7-0.3,65.5-0.4c1,0,2.1-0.4,3.1,0.4
		c-5.5,0.5-11,0.2-16.5,0.3c-24.8,0.3-49.7,0.5-74.5,0.7C735.8,332.2,734.8,332.4,733.9,332z"/>
	<path class="st2" d="M25.9,338c0.8-0.9,1.8-0.5,2.7-0.5c9.8-0.1,19.5,0.2,29.3-0.2c21.3-0.7,42.5-0.2,63.8-0.4c0.9,0,2-0.3,2.8,0.3
		c-0.5,0.4-1.2,0.3-1.8,0.3c-31.6,0.3-63.2,0.5-94.7,0.8C27.3,338.2,26.5,338.4,25.9,338z"/>
	<path class="st2" d="M146.3,337c0.7-1,1.8-0.6,2.7-0.6c6.8-0.1,13.7,0.1,20.5-0.1c21.6-0.8,43.3-0.2,64.9-0.4c1,0,2.1-0.4,3.1,0.4
		c-0.5,0.1-1,0.2-1.6,0.2c-29.1,0.3-58.2,0.5-87.3,0.8C147.9,337.2,147.1,337.1,146.3,337z"/>
	<path class="st2" d="M619.3,333c0.8-0.9,1.8-0.5,2.7-0.5c8.8-0.1,17.6,0.2,26.3-0.2c20.8-0.8,41.6-0.2,62.5-0.4
		c0.9,0,2-0.3,2.8,0.3c-0.6,0.1-1.2,0.2-1.8,0.2c-30.2,0.3-60.3,0.5-90.5,0.8C620.7,333.2,620,333,619.3,333z"/>
	<path class="st1" d="M250.4,254.5c0.2,1.9-1.5,2.6-2.9,3.3c-2.4,1.1-4.9,2.3-7.6,0.7c-0.4-0.3-1-0.6-1.1-1
		c-0.8-2.4,0.4-4.4,2.1-6.1c1.5-1.5,3-3.2,5.7-2.3C248.7,249.8,250.4,252.1,250.4,254.5z"/>
	<path class="st2" d="M931.8,335.6c-0.5,1.1-1.5,0.7-2.3,0.7c-2.9,0.1-5.8,0-8.8,0.1c-22.5,0.6-45,0.4-67.5,0.5c-1,0-2.1,0.4-3-0.4
		c0.4-0.1,0.9-0.2,1.3-0.2c26.3-0.3,52.7-0.5,79-0.8C930.9,335.5,931.3,335.5,931.8,335.6z"/>
	<path class="st2" d="M776.6,337.2c-0.7,0.8-1.6,0.5-2.5,0.6c-24,0.7-48,0.5-72,0.6c-0.9,0-2,0.3-2.8-0.4c0.5-0.1,1-0.2,1.5-0.2
		c24.6-0.3,49.3-0.5,73.9-0.7C775.4,337,776,337.2,776.6,337.2z"/>
	<path class="st2" d="M336.2,372.3c-0.1,1.3-1.2,1-2,1c-26.3,0.9-52.6,0.3-78.9,0.5c-0.6,0-1.3,0.1-1.7-0.4c0.8-0.5,1.7-0.2,2.6-0.3
		c25.6-0.2,51.2-0.4,76.9-0.5C334.1,372.7,335.2,372.8,336.2,372.3z"/>
	<path class="st1" d="M249.9,280.1c-2.3,0-5.1-3.4-5.1-5.9c0-1.2,3.2-3,5.3-2.9c2.8,0.1,6.3,3.4,6.1,5.7
		C256.1,277.9,251.6,280.1,249.9,280.1z"/>
	<path class="st2" d="M330.9,401.6c2.7-0.5,5.2,0.7,7.7,1c3.2,0.4,5.6,0.1,8-2.2c2.4-2.3,5-4.5,8.2-5.8c1.9-0.8,4-1.2,6-1.7
		c0.2,0,0.4,0,0.5,0c2.3-0.4,3.1,2.4,4.7,2.3c1.6-0.2,3-2.1,4.9-0.3c0.8,0.7,1.6,0.1,2.4-0.4c2.4-1.6,5.1-2.3,8-2.1
		c2.2,0.1,4.4,0,6.6-0.3c1.4-0.2,3-0.6,4.3,0.5c-3.2,0.2-6.3,0.5-9.5,0.5c-3.5,0-6.7,0.3-9.5,2.4c-1,0.7-2,0.6-2.9-0.1
		c-1-0.7-2-1-2.7,0.1c-0.5,0.8-2.7,1.1-1,2.8c0.8,0.8,0,1.6-0.7,2.1c-0.8,0.5-1.5-0.1-2-0.7c-0.6-0.6-0.6-1.2-0.1-2
		c0.4-0.6,2.6-0.3,1.2-1.7c-1.2-1.2-2.2-2.8-4.6-2.2c-5,1.2-9.3,3.6-12.8,7c-2.5,2.4-5.2,3.2-8.6,2.7
		C336.2,402.9,333.4,402.7,330.9,401.6z"/>
	<path class="st1" d="M209.5,221.5c3,0.3,5.5,3.1,5.2,5.7c-0.1,1-3.1,3.8-3.9,3.7c-4.7-0.7-6.2-2.5-5.7-6.5
		C205.3,223.1,208,221.3,209.5,221.5z"/>
	<path class="st2" d="M274.6,271c0.5,2.3-0.8,4-2.2,5.6c-0.5,0.6-1.2,1.1-2.1,0.6c-1-0.5-1-1.3-0.8-2.2c0.2-0.6,0.5-1.1,0.8-1.6
		c0.2-0.5,0.5-1,0.1-1.4c-0.4-0.5-1-0.3-1.5-0.1c-1.6,0.8-3.1,0.5-4.6-0.2c-1-0.5-1.5-1.5-1.3-2.5c0.3-1.1,1.3-1.3,2.3-1.2
		c2.1,0.3,4.2-0.3,6.3-0.2C274,268,275.2,268.6,274.6,271z"/>
	<path class="st2" d="M505.8,394.2c0.5-0.5,1.2-0.4,1.8-0.3c2.9,0.2,5.6-0.1,8.3-1c2.1-0.7,3.8-0.2,5.3,1.3c0.7,0.7,1.6,1.3,2.6,1.2
		c4.7-0.5,8.3,1.9,12,4c1.2,0.7,2.5,1.2,3.7,1.9c2.1,1.2,4,1.6,6-0.2c0.9-0.8,1.8-0.5,2.9-0.1c2,0.8,3.9,0.8,5.6-0.9
		c0.4-0.4,1.1-1.1,1.4-1c3.5,0.7,5.8-1.7,8.4-3c1.9-0.9,3.5-2.5,5.2-3.8c0.4-0.3,0.5-1.3,1.3-0.6c-1.7,2.6-4.4,3.9-7.1,5.2
		c-0.6,0.3-1,0.5-1.4,1.1c-0.3,0.5-0.9,1.2-1.2,1.2c-4.7-0.8-8.2,4.7-13.2,2.4c-0.8-0.4-1.8,0.2-2.4,0.7c-1.4,1.3-2.8,1.2-4.3,0.3
		c-1.5-0.9-3.2-1.4-4.7-2.4c-3.8-2.4-7.8-4.3-12.5-4.3c-1,0-1.9-0.4-2.6-1.1c-1.7-1.8-3.6-1.6-5.8-0.9
		C511.9,394.8,508.8,394.9,505.8,394.2z"/>
	<path class="st2" d="M783,167c-0.2,1.3-1.3,1.6-2.4,2c-2.6,0.9-4.9,2.3-6.8,4.2c-1.5,1.5-2.4,2.9-1.2,5.2
		c2.4,4.7,3.2,10.1,6.1,14.7c0.8,1.4,1.8,2.7,2.7,4s0.4,2-1.2,2.2c-8.3,0.8-16.2,3.2-24.3,4.9c-1.3,0.3-2.6,0.5-3.9-0.1
		c8.7-1.8,17.5-3.7,26.2-5.4c2.2-0.4,2.6-0.9,1.2-2.7c-4.2-5.6-5.6-12.3-8.2-18.6c-0.7-1.7,0.3-3,1.5-4.3
		C775.6,170.2,779.4,168.7,783,167z"/>
	<path class="st2" d="M864,357.7c0.6-1.3,1.9-0.7,2.8-0.7c21.5-0.1,42.9-0.2,64.4-0.1c2,0,3.8-0.8,5.8-0.7c-0.9,0.9-2,1.3-3.3,1.3
		c-22.9,0.1-45.8,0.3-68.7,0.5C864.7,357.8,864.3,357.7,864,357.7z"/>
	<path class="st2" d="M24.4,361.3c1,2.8,3.6,2.1,5.7,2.1c9.4,0,18.8,0,28.2,0c0.9,0,2-0.4,2.7,0.5c-0.6,0.6-1.3,0.3-2,0.3
		c-17.5,0.1-35.1,0.2-52.6,0.4c-1.9,0-3.6-0.4-5.3-1.2c0.1-0.9,0.8-0.7,1.2-0.6c6.4,0.6,12.9-0.4,19.3,0.2
		C23,363,24.3,363,24.4,361.3z"/>
	<path class="st1" d="M543.7,412.5c-0.8-0.5-1.3-0.7-1.6-1c-0.7-1-1.5-1.4-2.7-1.7c-1.3-0.3-1.8-1.3-1-2.6c0.6-1,8.3-2.7,9.3-2.1
		c2.5,1.3,2.7,2.4,0.6,4.8C547.1,411.4,544.4,410.3,543.7,412.5z"/>
	<path class="st2" d="M89.9,374.5c-0.4,1.1-1.5,0.8-2.3,0.8c-11.3,0.1-22.5,0.3-33.8,0c-4.4-0.1-8.8-0.4-13.2-0.5
		c-0.4,0-0.7,0-1-0.1c-3.4-1.6-7-2-10.8-2c2.2-1.2,4.7-1.2,6.9-0.2c2.3,1,4.6,1.1,7,1.3c15.5,1.3,31,0.5,46.5,0.6
		C89.4,374.3,89.7,374.4,89.9,374.5z"/>
	<path class="st2" d="M914.6,330.5c0.8-0.9,1.8-0.5,2.7-0.5c7.2-0.1,14.3-0.1,21.5-0.1c1.8,0,2.4-0.5,2.8-2.1c0.5-2.3,1.7-4.2,4.3-5
		c0.3,2.2,1.9,0.9,2.9,0.8c0.7-0.1,1.6-0.9,2,0.1c0.3,0.8-0.8,0.9-1.4,1.2c-1.4,0.6-2.9,0.8-4.4,0.6c-1-0.1-1.5,0.3-2,1.2
		c-0.9,1.7-0.8,2.5,1.4,2.2c0.7-0.1,1.4,0,2.1,0.1c0.6,0.1,1.7-0.3,1.6,0.7c0,0.9-1,0.8-1.7,0.8c-5.9,0-11.9,0.1-17.8,0.1
		C924,330.5,919.3,330.9,914.6,330.5z"/>
	<path class="st1" d="M356.3,415.5c-0.4-1.4,0-2.1,1.6-1.4c1,0.4,1.9,0.3,2.8-0.1c1.1-0.4,2.1-0.3,3,0.5c1,0.9,2.5,1.8,1.9,3.3
		c-0.6,1.6-2.2,2.6-4.1,2.7c-1.8,0.2-3.6,0-4.5-1.8C356.4,417.6,356.3,416.5,356.3,415.5z"/>
	<path class="st2" d="M546.2,333.6c0.4-1,1.3-0.7,2-0.7c18.9-0.1,37.8-0.1,56.7-0.1c0.6,0,1.2,0.2,1.8,0.3c-0.5,0.5-1.2,0.3-1.8,0.3
		c-19,0.2-38,0.3-57,0.5C547.4,333.8,546.8,333.7,546.2,333.6z"/>
	<path class="st2" d="M838.4,331.2c0.3-1,1.3-0.7,2-0.7c18.9-0.1,37.8-0.1,56.8-0.1c0.6,0,1.2,0.2,1.8,0.3c-0.4,0.4-1,0.3-1.5,0.3
		c-19.3,0.2-38.5,0.3-57.8,0.5C839.2,331.3,838.8,331.2,838.4,331.2z"/>
	<path class="st2" d="M251.4,336.1c0.4-1,1.3-0.7,2-0.7c18.7-0.1,37.5-0.1,56.2-0.2c0.6,0,1.2,0.2,1.8,0.3c-0.5,0.5-1.2,0.3-1.8,0.3
		c-18.9,0.2-37.8,0.3-56.7,0.4C252.4,336.3,251.9,336.2,251.4,336.1z"/>
	<path class="st2" d="M704.1,204.1c-2,1.3-4.3,1.4-6.5,1c-1.4-0.2-1.6-1.7-1.9-2.8c-2.8-8.1-5.5-16.2-8.2-24.2
		c-0.6-1.6-1.3-3.2-2.1-4.8c-1.1-2,0-2.8,1.9-2.9c1.6-0.1,3.3-0.1,4.6,1.2c-1.4-0.1-2.8-0.2-4.2-0.3c-1.4,0-1.9,0.6-1.3,1.9
		c4.2,9.5,6.9,19.6,10.4,29.3c0.6,1.7,1.3,2.3,3.2,1.8C701.3,204.1,702.7,203.8,704.1,204.1z"/>
	<path class="st1" d="M304.1,287.9c-0.3,1.2-1.5,1.6-2.7,1.9c-2.6,0.6-4.8,1.3-4.1,4.6c0.2,1.2-0.9,1.3-1.8,0.7
		c-1.8-1.1-3.1-2.7-4.4-4.3c-0.6-0.8-0.5-1.5,0.6-1.7c2.6-0.4,4.7-1.8,7-2.8c1.8-0.8,3.3-0.1,4.8,0.4
		C303.9,287,304.2,287.4,304.1,287.9z"/>
	<path class="st1" d="M217.2,239.4c2.8-0.1,6.1,2.1,5.9,3.9c-0.1,2.1-1.9,2.6-3.7,2.8c-2.7,0.2-5.3-1.9-5.4-4.1
		C214,240.4,215.2,239.5,217.2,239.4z"/>
	<path class="st2" d="M455.4,85.8c0.9,0.2,2,0.4,3.1,0.6c1.3,0.2,2,0.9,2,2.2c0.1,2.9,0.8,5.6,2.3,8.1c0.3,0.4,0.8,0.9,0.2,1.3
		c-0.7,0.5-1.2-0.2-1.5-0.6c-1.3-2-2.9-3.9-3.6-6.1c-0.6-1.8-1.6-2.5-3.3-3c-0.9-0.3-2.5-0.2-2.3-1.5
		C452.6,85.6,454.1,85.8,455.4,85.8z"/>
	<path class="st2" d="M848.6,336.5c-0.3,1-1.2,0.8-2,0.8c-16.9,0.1-33.7,0.1-50.6,0.1c-0.4,0-0.8-0.2-1.2-0.3c0.5-0.1,1-0.3,1.5-0.3
		c16.9-0.2,33.8-0.3,50.7-0.5C847.5,336.3,848.1,336.4,848.6,336.5z"/>
	<path class="st2" d="M405.5,264.9c-0.9-0.1-1.7-0.1-2.5-0.2c-1.9-0.4-2.5-1.7-1.2-3.1c1-1,2.3-1.9,3.5-2.6s2.6-1.4,4-0.5
		c0.9,0.6,2,1.6,1.5,2.7c-0.6,1.4-1.3,2.9-3.1,3.5C407,264.8,406.2,264.8,405.5,264.9z"/>
	<path class="st2" d="M672.5,365.9c-2-0.2-3.8-0.1-5.3-1.2c-0.7-0.6-1.6-1.2-0.5-2.2c1.7-1.6,7.5-2.1,9.5-0.8
		c0.8,0.5,1.7,1.1,1.6,2.1c-0.2,1.1-1.2,1.5-2.3,1.7S673.3,365.8,672.5,365.9z"/>
	<path class="st2" d="M833.7,176.8c-2.6-1.2-2.6-3.7-3.2-5.8c-0.8-2.5-1.3-5-3.6-6.7c-2-1.4-4.2-2.1-6.7-1.4c-3,0.8-6.4,0.6-8.6,3.4
		c-0.7,0.9-1.7,0.4-2.4,0c-4.4-2.6-9.1-3.8-14.3-3.6c3.1-1.3,6.1-0.7,9,0.4c1.3,0.5,2.6,1.1,3.8,1.8c1.9,1.1,3.1,0.7,5.1-0.4
		c6.7-3.6,15.8-4.9,18.3,5.6c0.1,0.5,0.3,0.9,0.4,1.4C832,173.4,832.8,175.1,833.7,176.8z"/>
	<path class="st1" d="M379.9,436.9c-0.6-0.1-1.5,0-2.3-0.3c-1.6-0.5-2.1-1.6-1.2-2.9c0.8-1.2,5.9-2.6,7.5-2.2c1.2,0.3,1.6,0.8,1.2,2
		C384.3,435.7,382.7,436.9,379.9,436.9z"/>
	<path class="st2" d="M693.9,366c-4.5-0.6-8.6,1.5-13,1.8c-2.6,0.2-5.4-0.4-7.9,0.1c-4.5,0.8-8.8,0-13.1-0.8c-1.9-0.3-3.7,0-5.5-1.4
		c-0.7-0.6-2.7,0.1-4.1,0.1c1.9-1.1,3.8-2,5.7,0c0.4,0.5,1,1,1.5,0.7c1.8-1.1,3.6-0.3,5.1,0.3c4.7,1.8,9.3-0.5,13.9,0.2
		c3.8,0.5,7.3-0.2,10.9-1.6C689.5,364.6,691.8,365.4,693.9,366z"/>
	<path class="st2" d="M889.8,366.2c-4.6,0.4-9.1-0.1-13.6-1.1c-3.5-0.8-7.2-0.1-10.8-0.7c-3.6-0.7-7.1,0.4-10.7,0.5
		c-2.5,0.1-5.4,1.6-7.9-0.3c5.1-0.8,10.2-0.4,15.3-1.5c1.4-0.3,2.8,0.4,4.2,0.5c5.5,0.5,11.1,0.2,16.4,1.9c0.8,0.3,1.6,0,2.4,0
		C886.7,365.5,888.5,364.8,889.8,366.2z"/>
	<path class="st2" d="M662.4,398.2c0.7-1.6,2.4-1.6,3.8-1.8c2.4-0.3,4.8-0.1,7.2-0.1c1.3,0,1.8,0.7,1.9,1.9
		c0.9,8.6,5,12.4,14.3,13.7c1.3,0.2,2.9-0.1,3.9,1.1c-5.7-0.1-10.8-1.6-15.2-5.1c-2.8-2.3-3.9-5.5-4.1-8.9c-0.1-1-0.2-1.8-1.5-1.8
		C669.2,397.3,665.7,397,662.4,398.2z"/>
	<path class="st2" d="M138.4,363.3c0.2-1.1,1.1-0.9,1.9-0.9c13,0,26.1,0,39.1-0.1c0.6,0,1.3-0.1,1.7,0.5c-0.5,0.1-1,0.3-1.5,0.3
		c-13.2,0.1-26.4,0.2-39.6,0.3C139.4,363.5,138.9,363.4,138.4,363.3z"/>
	<path class="st2" d="M650.3,365.9c-1.5,2.5-4.1,1.7-5.7,1c-2.8-1.3-5.6-0.8-8.4-0.7c-1.3,0.1-2.5,0.2-3.6-0.4
		c-4.7-2.1-9.5-2.9-14.6-2c-0.9,0.1-1.9,0.4-2.8-0.2c5.2-1.2,10.3-1.6,15.3,0.7c3.2,1.5,6.4,0.8,9.6,0.9c0.9,0,1.9-0.2,2.6,0.2
		C645.1,366.7,647.7,366.4,650.3,365.9z"/>
	<path class="st2" d="M381.5,386.7c2.5-0.8,3.6,0.9,4.8,2.4c0.6,0.7,0.3,1.2-0.7,1.3c-0.4,0-0.9,0-1.3,0c-9.5,0-19,0-28.4,0
		c-0.7,0-1.4,0.2-2-0.3c4.7-0.5,9.5-0.2,14.2-0.3c4.9-0.1,9.7,0,14.6-0.1c0.8,0,2,0.5,2.3-0.5c0.3-1.1-1-1.4-1.8-1.8
		C382.7,387.1,382.1,386.9,381.5,386.7z"/>
	<path class="st2" d="M729.7,363.7c-2.5,1.6-5.5,1.7-8.3,2c-5.3,0.5-10.6,0.9-15.9,0.7c-1.8-0.1-3.7,0-5.5,0.7
		c-1.4,0.5-2.9,0.1-4.1-0.9c5.3-0.3,10.6-0.6,15.9-0.8c5.3-0.2,10.6-0.2,15.8-1.7C728.3,363.5,729,363.4,729.7,363.7z"/>
	<path class="st2" d="M713.6,425.5c1.3-1.4,3.3-1,4.8-1.8c4.7-2.6,6.1-7,6.9-11.6c0.4-2.1,0.1-4.3,0.1-6.4c0-2.8,0.6-3.2,3.7-2.4
		c-2.2,0.1-2.8,1-2.7,3.2c0.4,5.1-0.5,10.1-3.7,14.5C720.6,423.8,717.6,425.5,713.6,425.5z"/>
	<path class="st2" d="M231.3,308.8c-1.8-0.1-3.4-0.4-3.4-2.5c0-0.8,0.3-1.6,1.3-1.6c1.2,0,2.2-0.7,3.3-0.9c1.3-0.3,2.7-0.2,3.2,1
		s-0.4,2.3-1.3,3C233.6,308.5,232.5,309,231.3,308.8z"/>
	<path class="st2" d="M378.7,265.2c-2.4,0.1-3.9-1.3-4-3.3c-0.1-1.7,0.8-2.6,2.7-2.6c1.6,0,3.8,2.3,3.8,4.1
		C381.1,265,379.8,265.1,378.7,265.2z"/>
	<path class="st2" d="M770.8,364.5c-0.4,1.2-1.7,1.7-2.5,1.5c-3.6-0.7-7.7,0.8-10.9-1.9c-1-0.8-2.2-1-3.5-0.7
		c-3.1,0.6-6.1,0.9-9-0.7c-1.1-0.7-2.5,0.1-3.5-0.7c1.2-0.5,2.6-0.5,3.6,0c2.5,1.3,5.1,1,7.8,0.8c2.2-0.2,4.1,0.5,6.2,1.3
		C762.6,365.5,766.8,365.7,770.8,364.5z"/>
	<path class="st2" d="M444.6,304.9c-1.1,0-3.7-2.8-3.5-4s1.1-1.8,2.4-1.8c1.5,0,4.7,2.8,4.6,3.9C448,304.2,446.7,304.9,444.6,304.9z
		"/>
	<path class="st2" d="M825.4,297.4c-1-0.1-1.4-0.7-1.2-1.6c0.3-1,1.3-1.1,2.2-1c2.8,0.5,5.7,1,8.5,1.7c6.7,1.6,12.9,0.8,18.5-3.3
		c0.4-0.3,1-0.3,1.5-0.5c-4.7,4.8-10.8,5.7-17.3,5c-3.4-0.4-6.7-1.4-10.1-2C826.1,295.5,824.7,295.5,825.4,297.4z"/>
	<path class="st2" d="M28.1,372.8c-2.3,1.7-5.1,1-7.6,1c-1.7,0-3.3,0-4.9,0.8s-3.4,0.8-5.2,0.8c-0.9,0-2-0.5-2.5,0.7
		c-2,0.6-4,0.1-6.1,0.3c-0.6,0.1-1.4,0-1.5-0.7c-0.1-1,0.9-1,1.5-1c2.9,0.4,5.8,0.2,8.7,0c2.2-0.2,4.4-0.1,6.3-1.5
		c0.4-0.3,1.1-0.6,1.4-0.4C21.6,373.9,24.8,372.5,28.1,372.8z"/>
	<path class="st2" d="M526.8,401.7c0.3,0,0.6,0.2,0.8,0.1c3-2.4,4.4,0.8,6.4,1.8c1.4,0.7,0.7,1.4-0.5,1.8c-0.8,0.3-1.6,0.3-2.3-0.1
		c-1.4-0.9-3.1-1.1-4.7-1.7c-0.7-0.3-1.7-0.5-1.5-1.5C525.2,401.2,526.1,401.6,526.8,401.7z"/>
	<path class="st2" d="M582.3,416.1c-1.3-2.3-1-4.1-0.6-5.9c0.3-1,0.8-2,1-3c0.3-1.2,1.1-1.4,2.2-1.1c1.1,0.3,1.2,1.1,0.7,1.9
		C584.3,410.4,583,412.9,582.3,416.1z"/>
	<path class="st2" d="M941.9,307.5c-0.3,0.9-1,0.8-1.7,0.8c-8.7,0-17.5,0.1-26.2,0.1c-0.5,0-1.1,0-1.4-0.5c0.2-0.1,0.5-0.3,0.7-0.3
		C922.8,307.6,932.3,307.2,941.9,307.5z"/>
	<path class="st2" d="M226.8,362.6c0.3-0.9,1.1-0.7,1.8-0.7c8.7,0,17.3-0.1,26-0.1c0.6,0,1.3-0.1,1.7,0.5c-0.5,0.5-1.2,0.3-1.8,0.3
		C245.3,362.6,236.1,363,226.8,362.6z"/>
	<path class="st2" d="M280.2,362.1c0.4-0.8,1.1-0.7,1.8-0.7c8.1,0,16.2,0,24.3,0c0.6,0,1.2,0,1.7,0.5c-6.9,0.6-13.8,0.3-20.7,0.4
		C284.9,362.4,282.5,362.7,280.2,362.1z"/>
	<path class="st2" d="M796.4,363.7c-2.2,1.9-5.1,0.9-7.6,1.6c-4,1.1-8.3,0.3-12.4,1c-1.6,0.3-3.5-0.1-4.7-1.7
		c6.9,1.5,13.7,0.3,20.5-0.6C793.6,363.8,794.9,363.4,796.4,363.7z"/>
	<path class="st2" d="M944,348.8c-1.8-0.4-3-1.1-1-2.7c1.9-1.5,1.9-4.7,0-6.2c-0.7-0.5-1.8-0.8-1.5-1.8c0.3-1.2,1.6-0.7,2.5-0.7
		c1.6-0.1,3.6,0.6,3.8-1.9c1.3,0.3,0.9,1.1,0.4,1.7c-0.6,0.7-1.3,1.7-2.6,1.3c-0.9-0.3-1.8-0.8-2.9,0.1c2.4,0.9,2,3.2,3,4.9
		c0.6,0.9,0,2.1-1,2.6C942.7,346.8,943.1,347.7,944,348.8z"/>
	<path class="st2" d="M938,355.9c0.4-1.7,1.5-2.3,3.2-2.3c-0.9,0.8-1.3,1.6,0.5,1.6c2.6,0,5.1-0.1,7.7-0.1c0.9,0,1.9-0.2,2.7,0.8
		C947.5,356.4,942.8,356.3,938,355.9z"/>
	<path class="st2" d="M277.5,306.5c-1.2-0.6-2.7-1.6-2.5-2.5c0.3-1.4,2.1-2.1,3.7-2.1c1.3,0,2.4,0.7,2.2,2.3
		C280.6,305.9,279,306.1,277.5,306.5z"/>
	<path class="st2" d="M837.8,189c0.3-0.7,1.1-0.9,1.7-1c2.8-0.8,4.4-2.6,4.8-5.3c0.3-2.6-1.2-4.1-3.4-5.3c-0.6,0.6,0.2,2.3-1.6,1.9
		c1-1,0.6-2.1,0-3.3c3.8,0.8,6.2,3.7,5.9,6.8C844.8,186.1,841.7,188.8,837.8,189z"/>
	<path class="st2" d="M13,344.7c0.1,1.1,1,1.3,1.9,1.2c1,0,2-0.1,2.9,0c0.9,0,2.3-0.3,2.4,0.9c0.1,0.9-0.6,1.9-1.9,2
		c0.8-1.4,1-2.3-1.3-2c-1.7,0.2-3.2-0.2-4.9-0.6c-1.8-0.4-3.9,0.2-5.8,0.4c-0.9,0.1-2.1,1-2.3-0.5c-0.2-1.2,0.9-1.7,2.1-1.7
		C8.5,344.5,10.7,344.6,13,344.7z"/>
	<path class="st2" d="M207.1,383.5c0.5-0.7,1.2-0.5,1.9-0.5c6.7,0,13.5,0,20.2,0c0.7,0,1.4-0.1,1.9,0.5c-4.9,0.6-9.9,0.2-14.8,0.2
		C213.3,383.7,210.2,384,207.1,383.5z"/>
	<path class="st2" d="M694.6,413.3c1,0.1,1.1,1,1.4,1.6c1.7,5.3,5.1,8.7,11.2,9.6c0.8,0.1,1.8,0.1,2.3,1
		C701.6,425.6,695.8,420,694.6,413.3z"/>
	<path class="st2" d="M500.4,339.9c-0.1,0.9-0.9,0.9-1.6,0.9c-6.1,0-12.1,0-18.2,0c-0.6,0-1.3,0-1.6-0.6c3.5-0.7,7-0.3,10.5-0.4
		C493.2,339.7,496.8,339.4,500.4,339.9z"/>
	<path class="st2" d="M842.7,364.5c-2.9,0.1-5.9-0.4-8.6-1.1c-3.5-0.9-7.4-0.4-10.6-2.2c2.3-0.4,4.6,0.1,6.7,0.7
		C834.3,363.1,838.7,362.7,842.7,364.5z"/>
	<path class="st2" d="M244,342.4c-0.1,0.9-0.9,0.9-1.6,0.9c-5.9,0-11.8,0-17.7,0c-0.6,0-1.3,0-1.6-0.6c3.7-0.7,7.4-0.3,11.1-0.4
		C237.5,342.2,240.7,341.9,244,342.4z"/>
	<path class="st2" d="M263.6,396.5c2.8-1.9,5.5-1.8,8.1,0.2c1.2,1,2.3,1.5,3.8,0.8c0.6-0.2,1.3-0.4,1.7,0.1c0.5,0.6,0,1.4-0.6,1.7
		c-1.2,0.7-1.8,1.5-1.9,2.8c-0.2-0.3-0.5-0.5-0.6-0.8c-0.4-1.3-1.8-3.6-3.1-4.3c-1.7-0.9-3.4-1.9-5.4-0.7
		C265.1,396.7,264.3,396.8,263.6,396.5z"/>
	<path class="st2" d="M723.3,203.3c-2.3,1.3-5,0.5-7.4,0.8c-3.3,0.4-6.8,0.7-10.1-0.1C711.5,203,717.4,203.1,723.3,203.3z"/>
	<path class="st2" d="M22.7,335.8c1.5,0,0.7,2.3,2.4,2.1c-2.2,1-4.6,1-6.9,1.1c-0.8,0.1-2,0-2-1.1c0-1.2,1.2-1,2-1
		c1.2,0,2.5,0.1,3.7,0.2C22.9,337.2,22.8,336.5,22.7,335.8z"/>
	<path class="st2" d="M274.9,402.3c4.3,1.2,8.7-0.5,13-0.1c1.4,0.1,2.4-0.9,3.2-1.9c0.5-0.6,0.6-1.4,1.6-1.5c-0.5,2.7-2.6,4-5.2,4.2
		c-3.1,0.2-6.1,0.4-9.2,0.6C277.1,403.6,275.7,403.7,274.9,402.3z"/>
	<path class="st2" d="M84,344c-0.1,0.7-0.8,0.8-1.4,0.8c-5.5,0-11.1,0-16.6,0c-0.5,0-1.1-0.1-1.3-0.6C71.2,343.6,77.6,343.7,84,344z
		"/>
	<path class="st2" d="M338.9,341.5c-0.2,0.8-0.8,0.8-1.4,0.8c-5.5,0-11,0-16.5,0c-0.5,0-1.1-0.1-1.3-0.6
		C326,341.1,332.5,341.2,338.9,341.5z"/>
	<path class="st2" d="M715.2,361c2.9-1.8,6.3-2,9.5-2.5c2.6-0.4,5.4-0.6,8.1,0.2C726.8,358.5,721,360.1,715.2,361z"/>
	<path class="st2" d="M393,392.5c3.7-0.1,7.4,0.1,10.8,1.4c2.1,0.8,2.6,3.1,3.3,5c-0.2-0.1-0.6-0.2-0.6-0.4
		c-1.6-4.8-6.1-4.7-10.2-5.2C395.1,393.2,393.9,393.2,393,392.5z"/>
	<path class="st2" d="M822.5,195.8c-3.4-1.1-3.7-1.7-2.9-4.7c0.5-1.8,0.9-3.7,1.4-5.5c0.2-0.7,0.4-1.5,1.4-1.6
		c0.9-0.1,1.5,0.4,1.6,1.3c-1.2-0.4-2-0.4-2.2,1.1c-0.1,1-0.4,2.1-0.9,3.1C819.7,191.9,819.8,194.1,822.5,195.8z"/>
	<path class="st2" d="M604.8,410.3c-1-0.3-2.7-0.2-2.4-1.4c0.3-1.4,2.1-1.9,3.5-2.2c1-0.2,1.8,0.4,1.7,1.4
		C607.5,409.6,606.2,410,604.8,410.3z"/>
	<path class="st2" d="M392.3,423.2c-1.2-0.1-2.6-0.2-2.6-1.6c0-1.2,1.1-1.9,2.3-1.9c1.3-0.1,2.5,0.7,2.7,1.9
		C394.9,422.9,393.4,422.9,392.3,423.2z"/>
	<path class="st2" d="M469.8,106c-1.4-0.7-2.8-1.5-3.7-2.8c-0.5-0.8,0.5-1.4,1.4-1.3c1.8,0.3,2.8,1.7,3.6,3.1
		C471.4,105.7,470.7,105.9,469.8,106z"/>
	<path class="st2" d="M412.9,409c1.4-0.9,1.2-2.7,2.7-3.7c3.2-2.1,6.6-1.6,10.1-1.2c-1.4,0.8-2.9,0.6-4.3,0.4
		c-3.1-0.3-5.4,0.7-6.6,3.6C414.4,409,413.8,409.3,412.9,409z"/>
	<path class="st2" d="M407,398.9c3.7,1.3,4.4,2.2,4.3,5.5c-0.1,1.6-0.3,3.2,0.7,4.6c-2.7-0.7-2.2-3.1-1.8-4.4
		c0.9-2.6-0.3-3.8-2.4-4.9C407.5,399.7,407.3,399.2,407,398.9z"/>
	<path class="st2" d="M288.8,287.8c-1.2-0.5-2.9-0.3-3.1-1.9c-0.1-1.1,1.1-1.5,2.1-1.4c1.1,0,2.1,0.4,2.1,1.7
		C289.9,286.9,290,287.8,288.8,287.8z"/>
	<path class="st2" d="M659.7,365c-1.3,0-2.4-0.2-2.2-1.3c0.3-1.7,2.1-1.1,3.3-1.4c0.8-0.2,1.9,0.1,1.7,1
		C662.3,365,660.6,364.7,659.7,365z"/>
	<path class="st2" d="M426.5,240.4c0.1,1.4-0.7,1.8-1.8,1.7c-1.2,0-2.1-0.5-2.2-1.7c-0.2-1.2,0.6-1.6,1.7-1.7
		C425.6,238.7,426.3,239.4,426.5,240.4z"/>
	<path class="st2" d="M348.5,436.9c0.3-1.1,1.1-1.7,2.2-1.8c1.1-0.1,2.2,0.3,2.3,1.5c0.2,1.3-1,1.4-2,1.4
		C350.1,437.9,348.9,438.2,348.5,436.9z"/>
	<path class="st2" d="M313.7,244.7c-0.2,0.9-0.7,1.7-1.6,1.5c-1.2-0.3-2.6-0.9-2.6-2.3c0-0.7,0.7-1.8,1.7-1.4
		C312.4,242.8,313.4,243.5,313.7,244.7z"/>
	<path class="st2" d="M22.2,331.4c-0.1,0.4-0.1,0.8-0.2,1.2c-3.4-0.4-6.7-0.2-10,0.1c-0.5,0.1-1.1,0.2-1.6,0.1
		c-0.7,0-1.7,0.1-1.7-0.8c0-0.8,0.9-0.6,1.5-0.6C14.2,331.2,18.2,331.1,22.2,331.4z"/>
	<path class="st2" d="M699.8,360.2c0.7-0.7,1.8-0.5,2.5-0.3c3.6,1.3,7.4,0.9,11.1,0.9c0.2,0,0.5,0.2,0.7,0.3
		c-2.8,1.1-5.6,0.8-8.5,0.3C703.7,361.1,701.8,360.6,699.8,360.2z"/>
	<path class="st2" d="M374.2,398.5c-1.9,1-2,3.4-4.4,2.3c-0.7-0.3-1.5-1-0.8-1.7C370.2,397.7,371.8,398.1,374.2,398.5z"/>
	<path class="st2" d="M731.3,403.2c3.8-0.9,10.8,1.5,12.8,4.4C740.2,405.1,735.9,403.8,731.3,403.2z"/>
	<path class="st2" d="M614,363.7c-4.2,1.6-8.5,2.6-12.9,0.9C605.5,365,609.7,364,614,363.7z"/>
	<path class="st2" d="M848.6,308.5c-0.1,0.8-0.7,0.8-1.4,0.8c-3.5,0-7,0-10.5,0c-0.7,0-1.4-0.1-1.4-1
		C839.7,308.5,844.1,308,848.6,308.5z"/>
	<path class="st2" d="M489.4,394.8c1.1,0,2,0.2,2.1,1.4c0,0.8-0.5,1.5-1.5,1.3c-1.2-0.2-2.8-0.1-3-1.4
		C486.9,395.1,488.4,395,489.4,394.8z"/>
	<path class="st2" d="M26.2,376c1.4-0.1,2.8-0.1,4.2-0.1c0.5,0,1.1,0,1.3,0.6c0.1,0.6-0.5,0.8-1,0.9c-2.5,0.5-4.9,1-7.4,0.1
		c0.6-0.6,1.5-0.3,2.2-0.3C26.3,377,26.5,376.7,26.2,376z"/>
	<path class="st2" d="M616.2,415.4c0.6-1.1,1.7-1.3,2.7-1.5s1.6,0.3,1.5,1.3s-1,1.3-2,1.3C617.5,416.4,616.7,416.3,616.2,415.4z"/>
	<path class="st2" d="M253,393.3c2.2,0.4,4.3,0.6,6.5,0.1c2.6-0.6,2.9-0.1,2.6,3.1c-0.7,0.2-1.2-0.3-1-0.7c0.9-2.6-1.1-1.7-2.3-1.6
		C256.8,394.4,254.7,395.1,253,393.3z"/>
	<path class="st2" d="M794.2,162.7c-3.6,1.4-7.2,2.7-10.8,4.1C786.5,164.2,790.1,163,794.2,162.7z"/>
	<path class="st2" d="M481.5,402.4c0.8,0,1.6,0.1,1.5,1c-0.1,1-0.7,1.7-1.8,1.6c-1-0.1-2.2-0.3-2.2-1.3
		C479.2,402.5,480.6,402.6,481.5,402.4z"/>
	<path class="st2" d="M175.2,343c-0.2,0.2-0.5,0.6-0.7,0.6c-3.5-0.2-7.1,0.9-10.6-0.5C167.7,342.7,171.5,342.8,175.2,343z"/>
	<path class="st2" d="M739.5,203.1c-3.9,0.4-7.9,0.4-11.8,0C731.7,202.4,735.6,202.3,739.5,203.1z"/>
	<path class="st2" d="M824.4,185.4c3.1,1.2,6.2,2.4,9.3,3.5C830.1,188.9,827.1,187.6,824.4,185.4z"/>
	<path class="st2" d="M528.1,337.3c-0.2,0.6-0.8,1.2-1.3,1c-2.5-0.9-4.4-0.1-6.2,1.5c-0.2,0.2-0.8,0-1.3,0
		C521.7,337.1,524.8,336.8,528.1,337.3z"/>
	<path class="st2" d="M112.8,363.5c3.4-0.9,6.8-0.9,10.2-0.1C119.6,363.8,116.2,363.8,112.8,363.5z"/>
	<path class="st2" d="M836.3,379.4c0.2-0.3,0.3-0.8,0.5-0.8c3.2-0.1,6.5-0.8,9.7,0.3C843.1,379.7,839.7,378.9,836.3,379.4z"/>
	<path class="st2" d="M368.8,265.3c-0.9-0.2-1.8-0.5-1.8-1.6c0-0.9,0.8-0.9,1.5-0.9c1,0,1.7,0.2,1.7,1.3
		C370.2,264.9,369.8,265.3,368.8,265.3z"/>
	<path class="st2" d="M806.5,362.1c-2.8,1.5-5.9,1.9-9.1,1.5C800.4,362.7,803.4,362.2,806.5,362.1z"/>
	<path class="st2" d="M320.5,399c3.2,0.7,6.5,0.9,9.4,2.4C326.6,401.2,323.4,400.6,320.5,399z"/>
	<path class="st2" d="M532.7,409c1,0,1.7,0.5,1.8,1.3s-0.5,1.4-1.5,1.5c-0.9,0.1-1.6-0.5-1.7-1.3C531.3,409.7,531.9,409.1,532.7,409
		z"/>
	<path class="st2" d="M303.6,394c2.8-1.5,7.5-1,9.1,0.9C309.9,393.2,306.6,394.4,303.6,394z"/>
	<path class="st2" d="M740.4,362.1c-2.8,1.6-5.8,2.2-9.1,1.5C734.3,363.1,737.3,362.6,740.4,362.1z"/>
	<path class="st2" d="M815,361.2c-2.4,1.3-4.9,1.4-7.5,0.8C810,361.2,812.5,361,815,361.2z"/>
	<path class="st2" d="M429.5,340.6c-3,1.2-6.1,1.1-9.2,0.1C423.4,340.2,426.5,340.3,429.5,340.6z"/>
	<path class="st2" d="M224.2,393.9c0.5-0.9,1.6-1.3,2.5-1c2.1,0.7,4.2,0.1,6.3,0.6c-1.4,1-3.1,0.8-4.5,0.4
		C226.9,393.4,225.6,393.5,224.2,393.9z"/>
	<path class="st2" d="M372.9,265c1,0.1,1.7,0.7,1.7,1.6s-0.9,1.1-1.8,1.1s-1.6-0.4-1.5-1.3C371.4,265.6,371.9,265.1,372.9,265z"/>
	<path class="st2" d="M537.7,337.1c-2.7-0.6-5.3,0.5-8,0.1C532.3,336.5,535,334.9,537.7,337.1z"/>
	<path class="st2" d="M946.2,322.5c0.5-1.9,0.6-3.9,0-5.8C948.5,319,948.5,320.3,946.2,322.5z"/>
	<path class="st2" d="M947.2,378.4c-0.2-1.4-1.3-1-2.2-1.1s-2.2,0.6-2.6-0.9c2.4,0.1,4.8-0.2,7.4,0.7
		C948.9,377.9,948.1,378.2,947.2,378.4z"/>
	<path class="st2" d="M946.2,316.8c-0.8,0.1-1.7-0.3-1.6-0.9c0.4-1.6,0.3-3.4,2-4.5C947,313.2,944.6,314.8,946.2,316.8z"/>
	<path class="st2" d="M694.4,171.6c1.9-1.2,3.9-2.3,6-3.2C698.9,170.2,696.9,171.3,694.4,171.6z"/>
	<path class="st2" d="M307.9,290.9c-0.7,0.3-1.4,0.6-2.1,0.4c0-0.5,0.1-1,0.1-1.5c-0.1-1.2,0.5-1.8,1.7-1.6c1.6,0.3,0.7,1.2,0.4,1.9
		C308,290.4,307.9,290.6,307.9,290.9z"/>
	<path class="st2" d="M834.9,307.9c-1.5-1.4-2.7-2.9-3.4-4.7C833.3,304.4,834.5,305.9,834.9,307.9z"/>
	<path class="st2" d="M701.3,167.7c1-1.9,2.8-3,4.8-3.9C704.9,165.5,703.3,166.7,701.3,167.7z"/>
	<path class="st2" d="M945.1,334.7c-1.8,1.2-3.6,1.4-5.4,0C941.5,334.7,943.3,334.7,945.1,334.7z"/>
	<path class="st2" d="M238.6,393.9c2.5-1.4,4.5-0.5,6.5,1C242.9,394.4,240.8,393.6,238.6,393.9z"/>
	<path class="st2" d="M216.8,393.3c2.3-1,4.4-0.4,6.5,0.6C221.1,393.7,218.9,393.5,216.8,393.3z"/>
	<path class="st2" d="M830,301.8c-2.2-0.7-3.6-2-4.3-4C827.3,298.9,828.9,300.1,830,301.8z"/>
	<path class="st2" d="M415.2,267.4c-0.1,1-0.6,1.5-1.7,1.5c-0.7,0-1.4-0.1-1.1-0.9s0.4-1.8,1.8-1.7
		C415,266.4,415.2,266.7,415.2,267.4z"/>
	<path class="st2" d="M746.7,204c-1.9,0.8-3.6,0.1-5.3-0.8C743.2,202.9,745,203.4,746.7,204z"/>
	<path class="st2" d="M297.3,395.4c1.4-1.7,3.3-1.5,5.2-1.3C301,395.2,299,394.7,297.3,395.4z"/>
	<path class="st2" d="M873.6,308.3c-1.8,0.8-3.6,0.8-5.4,0C870,307.9,871.8,307.9,873.6,308.3z"/>
	<path class="st2" d="M939.2,365.8c-1.8,0.8-3.6,0.8-5.4,0C935.6,365,937.4,365,939.2,365.8z"/>
	<path class="st2" d="M944,368.4c0.3-0.7,0.7-1.3,1-2c0.4,0.1,0.9,0.1,1.2,0.2c0.5,0.2,1.4,0.1,1.3,0.9c-0.1,0.6-0.8,0.8-1.5,0.8
		C945.4,368.4,944.7,368.4,944,368.4z"/>
	<path class="st2" d="M314.3,394.9c2.2-0.9,3.2-0.3,4.3,2.4C317.2,396.5,316.4,394.7,314.3,394.9z"/>
	<path class="st2" d="M384.2,341.1c-1.6,1.1-3.2,1-4.9,0C381,340.7,382.6,340.6,384.2,341.1z"/>
	<path class="st2" d="M913.1,367.3c-1.7,0.8-3.3,1-4.9-0.2C909.8,366.8,911.5,366.6,913.1,367.3z"/>
	<path class="st2" d="M249.7,394.1c0.6-0.9,0.2-2.4,2-2.4c1.2,0,1.4,0.7,1.3,1.7C251.3,391.2,250.8,393.9,249.7,394.1z"/>
	<path class="st2" d="M838.1,179.2c-2.1,0.2-3.6-0.6-4.4-2.5C835.2,177.6,836.6,178.4,838.1,179.2z"/>
	<path class="st2" d="M575.9,393.8c1.3,0.1,2.7-0.3,3.9,0.3C578.5,394.4,577,395.4,575.9,393.8z"/>
	<path class="st2" d="M937.1,334.7c-1.1,1.1-2.3,1.5-3.7,0.8C934.5,335,935.7,334.4,937.1,334.7z"/>
	<path class="st2" d="M826.8,199.3c-1.7-0.3-2.7-1.4-3.3-2.8C824.9,197.1,826,198.1,826.8,199.3z"/>
	<path class="st2" d="M23.2,355.4c2.1,1.1,1,2.8,0.8,4.3C22.7,358.4,23.6,356.8,23.2,355.4z"/>
	<path class="st2" d="M895,366.8c-1.5,0.7-3,1.3-4.3-0.4C892.1,366.2,893.6,366,895,366.8z"/>
	<path class="st2" d="M924.8,366.8c-1.3,0.8-2.5,0.8-3.8,0C922.3,365.9,923.5,366,924.8,366.8z"/>
	<path class="st2" d="M930.6,366.3c-1.1,1.7-2.4,1.1-3.8,0.4C928.1,366.1,929.4,366.3,930.6,366.3z"/>
	<path class="st2" d="M851.2,384.2c-1.5,0.9-2.7,0.4-3.8-0.6C848.8,383.3,850,383.6,851.2,384.2z"/>
	<path class="st2" d="M838.4,382.9c-1.1,1.1-2.2,1.8-3.2-0.1C836.3,382.9,837.4,382.9,838.4,382.9z"/>
	<path class="st2" d="M947.1,311.2c1-1.6,2.3-0.8,3.6-0.5C949.7,311.6,948.4,311.5,947.1,311.2z"/>
	<path class="st2" d="M18.2,349c0.2,1.3,0.5,2.6,0.7,3.9C17.9,351.8,16.7,350.6,18.2,349z"/>
	<path class="st2" d="M943.9,353.5c0.4-0.7,0.4-1.7,1.3-2.2C945.3,352.3,945.7,353.5,943.9,353.5z"/>
	<path class="st2" d="M293.5,398.2c0.5-1.2,1.6-1.6,2.8-1.8C295.7,397.5,294.6,397.8,293.5,398.2z"/>
	<path class="st2" d="M334.4,368.5c1.2,0.1,2.3,0.3,1.8,1.9C335.5,369.8,334.8,369.3,334.4,368.5z"/>
	<path class="st2" d="M574,391.7c1.6-0.5,2.1,0,1.8,1.5C575.2,392.7,574.6,392.2,574,391.7z"/>
	<path class="st2" d="M845.4,383.3c-0.9,0.7-1.7,0.8-2.1-0.4C844,382.6,844.8,382.7,845.4,383.3z"/>
	<path class="st2" d="M235.3,393.4c0.9-0.2,1.7-0.4,2.3,0.5C236.8,394.2,236,394,235.3,393.4z"/>
	<path class="st2" d="M943.7,370.2c-0.8,0.2-1.2-0.1-1.2-0.9c0-0.7,0.5-1,1.2-0.8C943.5,369.1,943.5,369.6,943.7,370.2z"/>
	<path class="st2" d="M9.4,376.3c0.5-0.7,1-0.7,1.6,0C10.4,376.8,9.9,376.8,9.4,376.3z"/>
	<path class="st2" d="M245.8,395c0.7-0.3,1.4-0.3,2.1,0C247.2,395.6,246.5,395.6,245.8,395z"/>
	<path class="st2" d="M953.3,309.1c-0.1-0.5-0.2-1.1-0.3-1.6c0.6-0.2,1-0.1,1.2,0.5C954.3,308.7,954.1,309.1,953.3,309.1z"/>
	<path class="st2" d="M835.2,381.8c-0.6-0.7-0.2-0.9,0.5-1C835.9,381.4,835.7,381.7,835.2,381.8z"/>
	<path class="st2" d="M331.2,365.9c0.8-0.1,1.2,0.2,1.2,1C331.7,366.9,331.3,366.6,331.2,365.9z"/>
	<path class="st2" d="M717.4,154.4c0-0.8,0.4-1.1,1.2-1C718.5,154.1,718.1,154.4,717.4,154.4z"/>
	<path class="st2" d="M21.8,354.6c0.8-0.3,1.3-0.1,1.4,0.8C22.6,355.4,22.1,355.2,21.8,354.6z"/>
	<path class="st2" d="M19.7,353.7c0.8-0.3,1.3-0.1,1.4,0.7C20.4,354.5,20,354.2,19.7,353.7z"/>
	<path class="st2" d="M903,367c-0.2,0.7-0.5,1-1.1,0.3C902.1,366.8,902.5,366.8,903,367z"/>
	<path class="st2" d="M712.7,158.4c0-0.8,0.4-1.1,1.2-1C713.7,158.1,713.3,158.4,712.7,158.4z"/>
	<path class="st2" d="M919.5,367c-0.2,0.7-0.5,1-1.1,0.3C918.7,366.9,919.1,366.9,919.5,367z"/>
	<path class="st2" d="M900.8,367.6c-0.3,0.7-0.7,0.8-1.1,0.2C900,367.4,900.4,367.3,900.8,367.6z"/>
	<path class="st2" d="M707.8,162.4c0-0.8,0.4-1.1,1.2-1C708.9,162,708.5,162.4,707.8,162.4z"/>
	<path class="st2" d="M318.6,397.4c0.8,0,1.1,0.3,1,1.1C319,398.3,318.6,398,318.6,397.4z"/>
	<path class="st0" d="M398.5,367.4c3.2-1,6.3-0.9,9.2,0c4.7,1.4,9.3,1.2,13.9,0c1.9-0.5,3.7-0.4,5.7,0.1c3.3,0.9,6.8,1,10.3,0.7
		c1.5-0.1,3-0.4,3.6-2.1c0.1-0.3,0.4-0.6,0.7-0.7c4-1,8-2.7,12.1-0.8c5.9,2.7,11.6,1.6,17.1-0.9c2.5-1.1,5.1-1.7,7.9-2
		c5.4-0.6,10.7-1.5,16.1-1.2c0.8,0,1.6,0,2.4,0.1c0.7,0.1,1.5,0.3,1.5,1.1c0.1,0.7-0.6,1-1.1,1.3c-2.4,1.4-4.9,2.3-7.6,2.8
		c-3.6,0.6-7.2,1.3-10.7,1.9c-2.1,0.4-4.4,0.5-6,1.8c-2.5,2-5.4,2.2-8.4,2.2c-13,0.1-26.1,0.4-39.1,0.6c-5.1,0.1-10.1-0.4-14.9-1.9
		c-1.5-0.4-3-0.4-4.5-0.4C403.6,370.4,401,369.1,398.5,367.4z"/>
	<path class="st0" d="M712.3,309.8c-2.4,0-4.7,0-7.1,0c-36.1,0.3-72.1,0.6-108.2,1c-2.5,0-3.7-0.7-4.2-2.9c-0.4-1.7-1.2-3.3-1.5-5
		c-0.6-3.1-0.1-6,2-8.8c4.5-6,8.6-12.2,13.4-18c3.2-3.9,5.1-8.3,6.5-13c0.6-1.9,1.6-3.5,2.6-5.2c4.3-6.9,9.5-13.4,13.6-20.5
		c3.6-6.3,5.9-13.2,9.7-19.4c4.7-7.8,9.9-15.4,13.5-23.7c0.7-1.6,1.9-1.3,3-0.6c2,1.3,3,3.2,3.6,5.4c3,11.1,9,20.9,15.6,30.4
		c4,5.7,9.4,10.1,15.1,14.3c1.1,0.8,2,1.4,2,3c0.3,9.1,3.7,17.2,10.3,24c1.7,1.8,3.2,3.8,4.8,5.6c1.1,1.2,0.5,1.6-0.7,1.8
		c-7.4,1.2-14.8,2.2-22.3-0.2c-6.7-2.2-13.8-2.9-20.7-4.5c-4.2-1-8,1.1-11.6,3c-1.8,0.9-1.3,2.8-0.2,4.2c0.9,1.3,2.2,2.2,3.7,2.8
		c6.2,2.4,11.7,6,17,9.7c6.6,4.6,13.6,3.5,20.4,0.9c2.3-0.9,4.4-1.5,6.9-1.3c5.4,0.5,10.6,1.9,16.1,1.9c1.5,0,1.5,0.7,1.1,1.8
		c-1.2,2.9-2.4,5.8-4.4,8.2C711,306.3,710.5,307.7,712.3,309.8z"/>
	<path class="st0" d="M782.9,256.2c-4.7,0-11.6,0-18.5,0c-2.9,0-5.7,0.5-8.3,1.7c-4.9,2.3-5.9,6.4-2.3,10.1c1.2,1.3,0.9,1.7-0.5,2.3
		c-3.1,1.3-6.2,2.4-9.6,2.6c-4.4,0.3-8.8,0.7-13.2,1.3c-1.7,0.2-2.3-0.3-2.9-1.8c-1.6-4.4-3.5-8.7-5.2-13.1
		c-2.7-6.8-7.2-12.6-12-18.2c-4.4-5.1-6.4-11-7.4-17.3c-0.2-1.5-0.4-3-0.8-4.4c-0.5-1.8,0-2.2,1.9-1.9c5.8,1.1,11.8,1.5,17.7,1.9
		c5.1,0.3,10.1,0.5,15.2-0.1c10.3-1.3,20.3,0.9,30.4,2.4c4.7,0.7,9.5,1.4,14.2,2c1.8,0.2,2.7,0.6,2.8,2.5c0.1,2.3,1,4.4,2,6.4
		c0.9,1.7,1.8,3.3,3.9,3.9c8.3,2.2,13.2,7.8,16.6,14.7c0.7,1.4,1.2,2.8,1.8,4.1s0.7,1.9-1.3,1.8C800,256.8,792.5,256.5,782.9,256.2z
		"/>
	<path class="st0" d="M495.6,167.7c-2.5-0.1-6.4,1.1-10.2,2.6c-0.6,0.2-1.1,0.5-1.7,0.6c-4.8,0.5-6.8,3.6-8,7.5
		c-0.1,0.3-0.3,0.7-0.3,0.9c0.7,4-1.2,7.7-1.3,11.7c0,1,0.2,2.6-1.1,2.8c-1,0.2-1.4-1.3-2-2.1c-2.6-3-5-6-7.6-9
		c-0.8-0.9-1.3-1.5-0.5-2.8c2.5-4,4.2-8.3,4.5-12.9c0.2-2,1.5-1.9,3-1.9c18.8-0.8,37.6-1.7,56.4-2.5c5.1-0.2,10.1-0.4,15.2-0.7
		c1.7-0.1,2.4,0.4,2.4,2.1c0.1,3.5,0.7,7,2,10.3c0.4,1.1,0,1.8-0.7,2.4c-5.1,4.7-9.2,10.4-15,14.4c-2.7,1.9-3.9,5.1-5.7,7.8
		c-2,3-4.5,5.5-7.2,8c-0.9,0.9-1.7,1.2-2.6,0c-1.4-1.9-4.7-2.5-4.9-4.7c-0.3-2.5,3.2-2.9,4.7-4.5c2.3-2.4,3.8-4.9,4.1-8.2
		c0.2-3.3,0.9-6.6,0.2-9.9c-1.1-5.6-5.5-8.1-10.5-9.9C505.1,168.4,501.2,167.8,495.6,167.7z"/>
	<path class="st0" d="M800.8,300.6c-3.4,0.3-6.6,0.7-9.7,1.8c-3.1,1.1-5.8,2.6-7.5,5.3c-0.7,1.1-1.6,1.3-2.8,1.3
		c-8.7,0.1-17.4,0.1-26.1,0.2c-1.3,0-2.4-0.3-3.3-1.2c-1.1-1.1-2.3-2.1-3.5-3.1c-2.2-1.9-3.8-3.8-3.1-6.9c0.5-2-0.5-3.5-2.7-4.2
		c-0.6-0.2-1.2-0.6-1.9-0.9C760.6,284.8,787.6,289.3,800.8,300.6z"/>
	<path class="st0" d="M676.5,142.8c1-3.6,2.6-6.9,4.4-10.2c1.8-3.1,3.7-6,5.5-9.1c0.8-1.3,1.5-1.6,2.8-0.6c6,4.4,11.8,9.1,18.3,12.8
		c2.1,1.2,3.2,3.3,4.5,5.2c0.6,0.8,0.1,1.2-0.5,1.7c-6.3,5-11,11.2-15.8,17.4c-1.1,1.5-2,1.8-3.9,1.1c-3.1-1.2-6.3-2.1-9.5-3.2
		c-0.9-0.3-1.7-0.5-1.9-1.5c-0.8-4.3-2.5-8.5-3.8-12.7C676.6,143.4,676.6,143.1,676.5,142.8z"/>
	<path class="st0" d="M517.8,311.3c-2.3,0.5-4.6,0.2-6.9,0.3c-5,0.1-9.9,0.1-14.9,0.2c-1.1,0-2.1,0.1-2.9-0.9
		c-5-6.2-11.5-11.1-16.9-16.9c-0.4-0.5-1.3-0.7-1-1.8c4.7,0.8,9.3,1.8,14.1,2.2c5.6,0.5,10.6,1.4,13.5,6.8c1.1,2,3.6,3.1,5.9,4.1
		C513,306.9,515.6,308.8,517.8,311.3z"/>
	<path class="st0" d="M632.1,15.2c0-1.8,0.4-3.5,1.2-5.2c0.7-1.6,1.7-1.8,3-0.6c1.6,1.5,0.8,7.5-1.1,8.6c-0.8,0.5-1.5-0.1-2.2-0.3
		C631.8,17.1,631.9,16.2,632.1,15.2z"/>
	<path class="st0" d="M617.2,9.9c2.5,2,3.8,4.1,4.2,6.7c0.1,0.8-0.1,1.3-0.9,1.5c-0.8,0.2-1.1-0.3-1.4-0.9
		C618,15.1,617.2,12.9,617.2,9.9z"/>
</g>
</svg>
