<?xml version="1.0" encoding="utf-8"?>
<!-- Generator: Adobe Illustrator 19.2.0, SVG Export Plug-In . SVG Version: 6.00 Build 0)  -->
<svg version="1.1" id="Layer_1" xmlns="http://www.w3.org/2000/svg" xmlns:xlink="http://www.w3.org/1999/xlink" x="0px" y="0px"
	 viewBox="0 0 1280 800" style="enable-background:new 0 0 1280 800;" xml:space="preserve">
<style type="text/css">
	.st0{fill:#FDFDFD;}
	.st1{fill:#030303;}
	.st2{fill:#353535;}
</style>
<g>
	<path class="st0" d="M949.5,526.4c-256.4,0,65.5,0,6.4,0c7.6-2.3,11.2-7.2,10.9-14.6c-0.1-2.2,0.1-4.5,0-6.7
		c-0.6-21.1-1.2-42.1-1.9-63.2c-0.1-1.7,0.1-2.8,2.3-2.5c1.7,0.2,3.7-0.7,3.7,2.3c0,7.7,0.4,15.5,0.6,23.2c0,1.6,0.1,3.2,0.6,4.7
		c1.5,5.4,4.9,8.1,10,7.8c5.5-0.3,9.7-3.9,10.5-8.9c0.3-2.1,0.5-4.1,0.4-6.2c-0.4-12.5-2-24.9-1-37.4c0.2-2.5,0.8-3.5,3.3-4.2
		c6.4-1.8,12-4.8,16-10.1c1.2,0,2.3-0.1,3.5-0.1c32,0,64,0,96,0c3.5,0,6.9,0.2,10.4-0.5c0.8-0.2,2.1,0.3,2.1-0.8
		c-0.1-0.8-1.3-0.5-2.1-0.6c-8.7-0.1-17.3-0.5-25.8-1.1c0.4-0.8,1.3-2-1.2-1.8c-7.6,0.5-15.3,0.1-22.9,0.2c-1.2,0-2.2,0-3.3,0.6
		c-5.1,2.5-10.5,2.1-16.4,1.7c2.9-1.4,3.3-2.2,1.8-3.1c-2.9-1.7-6.2-2.2-9.4-1c-1.4,0.5-3,1.5-2.9,3.3c0.1,1.7-0.9,1.5-2,1.4
		c-0.9-0.1-1.8-0.1-2.6-0.2c-1.7-1.3-3.8-1.3-5.9-1.1c-1.2-0.6-2.4-0.9-3.8-0.6c-0.7-0.1-1.4-0.2-2.1-0.3c-0.6-0.6-1.3-0.7-2.1-0.4
		c-1.6-0.3-3.2-0.3-4.8,0c-1.1,0-2.1-0.1-3.2-0.1c0-0.3-0.1-0.7-0.1-1c0.6-0.2,0.7-0.5,0.5-1c0.2-0.5,0.4-1,0.6-1.5
		c3.4-0.4,6.8,0.3,10.1-0.4c0.4,0,0.9,0.1,1.3,0.1c32.6,0,65.2-0.5,97.8,0c0.6,0,1.2-0.1,1.7-0.6c0.9-0.2,1.7-0.5,2.6-1.3
		c-2.6-1-5-0.6-7.4-0.7c-0.6-0.6-2-0.1-1.9-1.3c0.1-0.9,1.1-0.5,1.7-0.7c2.2-0.8,2.9-2.7,1.5-4.2c-0.2-0.6-0.2-1.1,0-1.7l0.2,0
		c0,0,0.1-0.1,0.1-0.1c0.7,0,1.4,0,2.1-0.1c0.6,0,1.3-0.2,1.5-0.8c0.1-0.8-0.8-0.7-1.3-0.9c-0.4-0.2-0.8-0.2-1.2-0.2
		c-1.9-0.6-3.9-0.5-5.8-0.6c-1.8-0.8-3.6-0.8-5.4,0c-1.1,0-2.2,0.2-3.2,0.5c-1.3-0.1-2.6-0.2-3.8,0.4c-0.7,0-1.4,0-2.1,0
		c-1.3-0.8-2.5-0.9-3.8,0c-0.5,0.1-1,0.2-1.5,0.3c-0.4-0.2-0.8-0.2-1.1,0.3c-1.8,0-3.5,0-5.3-0.1c-1.6-0.6-3.2-0.4-4.9-0.2
		c-1.7-0.2-3.5-0.3-5.2,0c-0.5-0.2-0.9-0.2-1.1,0.3c-0.3,0.1-0.7,0.2-1,0.3c-0.4-0.3-0.8-0.2-1.1,0.2c-1.6,0-3-1.2-4.7-1
		c-1.4-0.7-2.8-0.5-4.3-0.4c-0.3-0.1-0.5-0.1-0.8-0.2c-1.4-1.4-3.2-0.7-4.8-0.7c-0.8,0-1.5,0.3-2.4,0c-5.3-1.7-10.9-1.4-16.4-1.9
		c-1.4-0.1-2.8-0.8-4.2-0.5c-5,1-10.2,0.7-15.3,1.5c-1.4,0-2.8-0.1-4.2-0.1c-3.9-1.8-8.4-1.4-12.5-2.6c-2.1-0.6-4.4-1.1-6.7-0.7
		c-2.8-0.4-5.6-0.4-8.4,0c-2.6-0.2-5.1,0-7.5,0.8c-0.3,0-0.7,0.1-1,0.1c-3.1,0.1-6.1,0.6-9.1,1.5c-0.4,0-0.7,0.1-1.1,0.1
		c-1.4-0.3-2.8,0.1-4.2,0.3c-6.8,0.9-13.6,2-20.5,0.6c-0.3,0-0.6,0-1,0c-4,1.2-8.2,1-11.8-0.4c-2.1-0.9-4-1.5-6.2-1.3
		c-2.6,0.2-5.2,0.5-7.8-0.8c-1-0.5-2.4-0.5-3.6,0c-0.3,0-0.7,0.1-1,0.1c-3,0.5-6,1-9.1,1.5c-0.5,0-1.1,0.1-1.6,0.1
		c-0.7-0.3-1.4-0.2-2.1,0c-5.2,1.5-10.5,1.5-15.8,1.7c-5.3,0.2-10.6,0.5-15.9,0.8c-0.7,0-1.4-0.1-2.1-0.1c-2.1-0.6-4.4-1.4-6.5-0.6
		c-3.5,1.4-7.1,2.2-10.9,1.6c-4.6-0.7-9.2,1.6-13.9-0.2c-1.5-0.6-3.3-1.4-5.1-0.3c-0.6,0.3-1.1-0.2-1.5-0.7c-1.9-2-3.8-1.1-5.7,0
		l0,0c-2.6,0.5-5.2,0.8-7.7-0.6c-0.7-0.4-1.7-0.1-2.6-0.2c-3.2-0.1-6.5,0.6-9.6-0.9c-4.9-2.3-10.1-1.9-15.3-0.7
		c-0.4,0-0.7,0.1-1.1,0.1c-4.3,0.3-8.6,1.3-12.9,0.9c-0.3,0-0.7-0.1-1-0.1c-2.5-2.3-5.1-2.2-8.3-1c-3.2,1.3-7.6-0.3-10.2-3.3
		c1.4,0,2.5,0,3.6,0c34.8-0.3,69.6-0.6,104.4-0.8c3.1,0,6.2-0.4,9.1,0.8c0.3,0,0.7,0.1,1,0.1c2,0.4,3.9,0.9,5.9,1.2
		c2.8,0.5,5.7,0.8,8.5-0.3c0.3-0.1,0.7-0.1,1-0.2c5.9-0.9,11.6-2.5,17.6-2.3c5.9,0.1,11.7,0.1,17.6-0.1c1.1,0.1,2.1,0.2,3.2,0.2
		c28.7-0.2,57.3-0.5,86-0.7c4.2,0,8.5,0.2,12.7-0.3c3.9,0,7.8,0,11.7-0.1c0.3,0.1,0.7,0.2,1,0.2c22.9-0.1,45.8-0.3,68.7-0.5
		c1.3,0,2.4-0.4,3.3-1.3c0.4,0,0.7-0.1,1.1-0.1c4.7,0.3,9.4,0.5,14.2,0c-0.8-1-1.8-0.8-2.7-0.8c-2.6,0-5.1,0.1-7.7,0.1
		c-1.8,0-1.4-0.8-0.5-1.6c0.9-0.1,1.8-0.1,2.6-0.2c1.8,0,1.4-1.2,1.3-2.2c0.4-1.1-0.1-2-1.2-2.5c-0.9-1.1-1.3-2.1,0.5-2.9
		c1-0.4,1.5-1.7,1-2.6c-1-1.6-0.6-4-3-4.9c1.1-0.9,2-0.4,2.9-0.1c1.3,0.4,2-0.5,2.6-1.3c0.5-0.6,0.9-1.3-0.4-1.7
		c-0.7-0.9-1.5-1.2-2.6-0.8c-1.8,0-3.6,0-5.4,0c-0.9-0.2-1.7-0.3-2.6,0c-1.4-0.3-2.5,0.2-3.7,0.8c-0.5,0-1,0.1-1.6,0.1
		c-0.4,0-0.9-0.1-1.3-0.1c-26.3,0.3-52.7,0.5-79,0.8c-0.4,0-0.9,0.1-1.3,0.2c-0.5,0-1.1,0-1.6,0c-0.5-0.1-1-0.2-1.6-0.2
		c-16.9,0.2-33.8,0.3-50.7,0.5c-0.5,0-1,0.2-1.5,0.3c-6.1,0.1-12.1,0.1-18.2,0.2c-0.6-0.1-1.2-0.2-1.8-0.2
		c-24.6,0.2-49.3,0.5-73.9,0.7c-0.5,0-1,0.1-1.5,0.2c-5.1,0-10.3,0.1-15.4,0.1c-0.9-0.1-1.8-0.2-2.6-0.2
		c-41.5,0.4-83.1,0.8-124.6,1.2c-1.5,0-3-0.3-4.5-0.5c-4.4-0.6-8.8-1.6-13.3-1.5c-0.4,0-0.8,0-1.2,0c-2.7-2.2-5.3-0.6-8,0.1
		c-0.5-0.2-1-0.2-1.5,0.1c-3.3-0.5-6.4-0.1-8.8,2.4c-6.3,0.1-12.6,0.1-18.9,0.2c-3.6-0.5-7.2-0.2-10.8-0.1c-3.5,0-7-0.3-10.5,0.4
		c-16.5,0.1-33,0.3-49.5,0.4c-3.1-0.3-6.1-0.3-9.2,0.1c-12.1-0.1-24.1,0-36.2,0.4c-1.6-0.5-3.3-0.4-4.9,0c-13.5,0.1-27,0.2-40.4,0.3
		c-6.4-0.2-12.8-0.3-19.3,0.2c-10.8,0.1-21.7,0.1-32.5,0.2c-14.4,0.1-28.8,0.3-43.2,0.5c-3.3-0.5-6.5-0.2-9.8-0.1
		c-3.7,0.1-7.4-0.4-11.1,0.4c-16,0.1-31.9,0.3-47.9,0.4c-3.8-0.3-7.5-0.3-11.3,0.1c-11.5,0.1-22.9,0.2-34.4,0.3
		c-15.2,0.1-30.4,0.3-45.5,0.5c-6.4-0.3-12.8-0.4-19.3,0.2c-17.3,0.2-34.5,0.3-51.8,0.5c-2.3-0.1-4.6-0.2-6.8-0.2
		c-1.2,0-2.3,0.5-2.1,1.7c0.2,1.5,1.4,0.6,2.3,0.5c1.9-0.2,4-0.8,5.8-0.4c1.6,0.4,3.2,0.9,4.9,0.6c2.3-0.3,2.1,0.6,1.3,2
		c-0.1,0-0.2,0.1-0.2,0.2c-1.5,1.6-0.3,2.7,0.7,3.9c0.3,0.2,0.5,0.5,0.8,0.7c0.3,0.5,0.7,0.8,1.4,0.7c0.2,0.1,0.5,0.2,0.7,0.3
		c0.3,0.6,0.8,0.8,1.4,0.8l0,0c0.4,1.4-0.5,3,0.8,4.3c0.1,0.5,0.2,1.1,0.4,1.6c-0.1,1.7-1.4,1.7-2.7,1.6c-6.4-0.6-12.9,0.4-19.3-0.2
		c-0.4,0-1.1-0.2-1.2,0.6c1.7,0.7,3.4,1.2,5.3,1.2c17.5-0.1,35.1-0.2,52.6-0.4c0.7,0,1.4,0.2,2-0.3c17.2-0.1,34.5-0.2,51.7-0.4
		c3.4,0.3,6.8,0.4,10.2-0.1c5.1,0,10.3-0.1,15.4-0.1c0.5,0.1,1,0.2,1.6,0.2c13.2-0.1,26.4-0.2,39.6-0.3c0.5,0,1-0.2,1.5-0.3
		c15.3-0.1,30.5-0.2,45.8-0.3c9.2,0.4,18.4,0,27.6,0c0.6,0,1.3,0.2,1.8-0.3c8,0.2,16,0.1,24-0.2c2.3,0.6,4.7,0.3,7.1,0.2
		c6.9-0.1,13.8,0.2,20.7-0.4c6.2,0,12.4,0,18.5,0c1.6,0,3-0.1,2.9,2c0,0.8,0.9,1.6,1.8,2c0.1,0.6,0.5,1,1.2,1c0.7,0.5,1.3,1,2,1.5
		c0.4,0.8,1.1,1.3,1.8,1.9c0,0.7,0,1.3,0,2c-1,0.4-2.1,0.3-3.1,0.3c-25.6,0.2-51.2,0.3-76.9,0.5c-0.9,0-1.8-0.2-2.6,0.3
		c-12.3,0.1-24.5,0.1-36.8,0.2c-1-0.1-1.9-0.2-2.9-0.2c-26.1,0.2-52.2,0.3-78.3,0.6c-8.2,0.1-16.3,0.3-24.5,0.4
		c-7.1,0-14.2,0.1-21.3,0.1c-0.3-0.1-0.5-0.2-0.8-0.2c-15.5-0.1-31,0.7-46.5-0.6c-2.4-0.2-4.7-0.3-7-1.3c-2.2-1-4.6-1-6.9,0.2
		c-0.3,0-0.5,0.1-0.8,0.1c-3.2-0.3-6.5,1.1-9.7,0c-0.4-0.1-1.1,0.2-1.4,0.4c-1.9,1.4-4.1,1.3-6.3,1.5c-2.9,0.2-5.8,0.4-8.7,0
		c-0.6-0.1-1.6,0-1.5,1c0.1,0.8,0.9,0.8,1.5,0.7c2-0.2,4.1,0.3,6.1-0.3c0.5,0.1,1,0.1,1.6,0.2c0.5,0.5,1,0.5,1.6,0
		c5.1-0.1,10.2-0.2,15.2-0.3c0.3,0.7,0.1,1-0.7,1.1c-0.7,0.1-1.5-0.2-2.2,0.3c-1.3-0.1-2.6-0.3-3.7,0.5c-1.5,1.4-0.7,2.3,0.8,2.9
		c0.9,0.4,2,0.5,2.8,2.2c-5.6-1.2-10.7,0.3-15.9-0.2c-0.7-0.1-1.8-0.4-2,0.7c-0.1,1.1,1.1,0.8,1.8,0.9c2.6,0.5,5.1-0.4,7.7-0.3
		c4.4,0,9,1.6,13.2-0.8c0.2-0.1,0.8,0,1,0.2c1.1,1,2.5,0.7,3.8,0.7c8.2,0,16.3,0.1,24.5,0c48-0.2,96.1-0.3,144.1-0.5
		c0.8,0,1.6,0.2,2.3-0.3c1.2,0,2.3,0,3.5,0c3.1,0.6,6.2,0.3,9.2,0.2c4.9,0,9.9,0.4,14.8-0.2c0.5,0,1,0,1.5,0
		c2.1,0.2,4.1,0.7,6.2,0.7c8,0,16-0.2,24-0.4c1.5-0.1,2.9,0.5,4.5,0.4c3.6-0.3,7.2-0.6,10.8-0.7c22.5-0.1,44.9-0.1,67.4-0.2
		c0.9,0,1.8,0,2.6,0.3c3.2,0.9,6.3,1.8,9.7,2c6.5,0.4,12.9,0.6,19.4,1.1c1.4,0,2.8,0.1,4.2,0.1c0.6,0.2,1.1,0.4,1.7,0.7
		c0.8,0.4,2.1,0.7,1.8,1.8c-0.3,1-1.5,0.5-2.3,0.5c-4.9,0.1-9.7,0-14.6,0.1c-4.7,0.1-9.5-0.3-14.2,0.3c-11.4,0-22.8,0-34.2,0
		c-10.4,0-20.9,0.1-31.3,0.2c-0.7-0.4-1.6-0.2-2.3-0.2c-42.7,0.1-85.4,0.2-128,0.4c-0.7,0-1.4-0.2-2,0.4c-0.9,0-1.7,0-2.6,0
		c-0.8-0.1-1.6-0.2-2.4-0.2c-30.2,0-60.4,0.1-90.6,0.1c-12.5,0-24.9,0.4-37.4,0c-4.4-0.1-8.8,0.4-13.3,0.2c-1.7-0.1-3.4,0-5.1,0.1
		c-1.1,0-2.1,0.2-2.9,1.3c2,0.4,3.9,0.6,5.8,0.5c10-0.7,20.1-0.4,30.1-0.5c7.3-0.1,14.7,0,22,0c20.6,0.1,41.2-0.3,61.8-0.1
		c30,0.3,59.9-1.8,89.9,1.1c1.8,0.3,3.6,0.2,5.4,0c2.2,0.2,4.3,0.4,6.5,0.6c0.3,0,0.6,0,0.9,0c1.4-0.4,2.7-0.5,4.2,0
		c1.3,0.4,3.1,0.6,4.5-0.4c0.8,0,1.6,0,2.4,0c0.7,0.6,1.4,0.8,2.3,0.5c0.3,0,0.6,0,0.9,0c2.3-0.3,4.3,0.5,6.5,1
		c0.3,0,0.5,0.1,0.8,0.1c0.7,0.6,1.4,0.6,2.1,0c0.8,0,1.4-0.3,1.8-0.9c1.1-0.2,1.6-2.9,3.3-0.8l0,0c1.7,1.7,3.8,1,5.8,0.9
		c1.2-0.1,3.2-1,2.3,1.6c-0.2,0.4,0.3,0.9,1,0.7c0.5,0.2,1,0.2,1.5-0.1c0.7,0.3,1.5,0.2,2-0.1c2-1.2,3.7-0.2,5.4,0.7
		c1.2,0.7,2.7,3,3.1,4.3c0.1,0.3,0.4,0.5,0.6,0.8c0,0.1,0.1,0.2,0.2,0.2c0.8,1.3,2.2,1.3,3.5,1.2c3.1-0.3,6.1-0.4,9.2-0.6
		c2.6-0.2,4.7-1.4,5.2-4.2c0.3-0.2,0.5-0.4,0.8-0.6c1.1-0.3,2.2-0.7,2.8-1.8c0.3-0.3,0.7-0.6,1-1c1.7-0.7,3.7-0.2,5.2-1.3
		c0.4,0,0.7-0.1,1.1-0.1c3,0.4,6.2-0.8,9.1,0.9c0.5,0.3,1,0.2,1.6,0c2.1-0.3,2.9,1.5,4.3,2.4l0,0c0,0.6,0.4,1,1,1.1
		c0.1,0.4,0.4,0.5,0.8,0.6c2.9,1.6,6.1,2.1,9.4,2.4c0.3,0.1,0.7,0.1,1,0.2c2.5,1.1,5.3,1.2,8,1.7c3.4,0.6,6.1-0.3,8.6-2.7
		c3.5-3.5,7.8-5.8,12.8-7c2.4-0.6,3.4,1,4.6,2.2c1.4,1.4-0.8,1.1-1.2,1.7c-0.5,0.8-0.5,1.4,0.1,2c0.5,0.6,1.2,1.2,2,0.7
		c0.7-0.5,1.5-1.3,0.7-2.1c-1.8-1.7,0.5-2,1-2.8c0.7-1.1,1.8-0.8,2.7-0.1c1,0.7,1.9,0.8,2.9,0.1c2.8-2.1,6.1-2.4,9.5-2.4
		c3.2,0,6.3-0.3,9.5-0.5c0.2,0,0.5,0,0.7,0c1,0.6,2.1,0.7,3.3,0.8c4.1,0.5,8.5,0.4,10.2,5.2c0.1,0.2,0.4,0.2,0.6,0.4l0,0
		c0.3,0.3,0.4,0.7,0.8,0.9c2.1,1.1,3.3,2.2,2.4,4.9c-0.4,1.2-0.9,3.7,1.8,4.4c0.3,0,0.6,0,0.9,0c0.9,0.2,1.5-0.1,1.9-0.9
		c1.2-2.9,3.5-3.9,6.6-3.6c1.5,0.1,3,0.4,4.3-0.4c0.6,0,1.1,0,1.7,0c2.1,0.9,3.4,2.6,4.8,4.1c0.7,0.7,1.3,1.9,2.5,1.5
		c1.4-0.4,1.3-1.8,1.2-2.8c-0.4-3.7,1-7.2,0.7-10.9c-0.2-1.9,0.7-2.6,3-2.9c2.2-0.3,4.9,0.1,6.7-1.3c1.4-1.1,2.9-1.4,4.6-1.4
		c11.8,0,23.6,0,35.4-0.1c2.3,0,4.4,0.4,6.4,1.4c3.8,1.9,7.9,2.3,12.1,2.3c0.3,0,0.7,0,1,0.1c3.1,0.7,6.2,0.7,9.1-0.3
		c2.2-0.7,4.1-0.8,5.8,0.9c0.7,0.7,1.6,1.1,2.6,1.1c4.7,0,8.7,1.9,12.5,4.3c1.5,0.9,3.1,1.5,4.7,2.4c1.6,0.9,2.9,1,4.3-0.3
		c0.6-0.6,1.6-1.1,2.4-0.7c5.1,2.3,8.5-3.2,13.2-2.4c0.3,0.1,0.9-0.7,1.2-1.2c0.4-0.5,0.8-0.8,1.4-1.1c2.7-1.3,5.4-2.7,7.1-5.2
		c1.3,0,2.5,0,3.8,0c0.6,0.5,1.2,1,1.8,1.5c0,0.1-0.1,0.2-0.1,0.2c0,0.1,0.1,0.3,0.1,0.4c1.2,1.5,2.6,0.5,3.9,0.3
		c0.5,0,1.1-0.1,1.6-0.1c1.9,0.1,3.8,0.1,4.4,2.3c0.7,2.7,2.4,3.2,5,2.2c0.8-0.3,2.2-1,2.6,0.1c1,2.6,2.2,1.6,3.7,0.6
		c0.8-0.5,1.7-0.8,2.7-0.9c1.3-0.1,2.6-0.5,2.8,1.6c0.1,1.2,1.5,1.1,2.4,0.8c1.5-0.5,2.9-1.3,4.3-1.9c2.8-1.2,6.4-0.5,6.9,1.6
		c0.5,1.9,1.8,3.6,1.8,5.7c0,0.8,0.3,1.5,1.4,1.4c1.1-0.1,1.9-0.5,1.8-1.7c-0.1-1.5-0.1-3,0.2-4.5c0.2-0.7,0.4-1.5,1.1-1.9
		c3-1.6,9.6,1.4,9.9,4.6c0.6,6.7,1.4,13.4,5.4,19.3c1.7,2.5,3.1,5.3,5.9,6.9c-1.9-4.1-4.9-7.7-6.1-12.2c-1.6-5.6-2.8-11.2-3.1-16.9
		c-0.1-1.6,0.3-2.7,2.2-1.2c1,0.8,1.7,0.3,2.6-0.3c3.2-1.8,6.4-2.3,9.8-0.4c2.4,1.3,4.8,2.5,7.3,3.6c1.2,0.5,2.5,0.7,3.3-0.6
		c0.9-1.3,2.2-2.4,2.7-4l0.1-0.1c3.3-1.2,6.8-1,10.2-1c1.4,0,1.5,0.8,1.5,1.8c0.3,3.4,1.3,6.6,4.1,8.9c4.3,3.5,9.5,5,15.2,5.1
		c0.4,0.1,0.8,0.1,1.1,0.2c1.2,6.7,7,12.3,14.9,12.2c1.4,0.3,2.7,0.3,4.1,0c4,0.1,7-1.7,9.1-4.6c3.2-4.3,4.1-9.3,3.7-14.5
		c-0.2-2.1,0.5-3.1,2.7-3.2c0.7,0,1.5,0,2.2,0c4.6,0.6,9,1.9,12.8,4.4c0,0.2,0.2,0.3,0.4,0.3c3.6,4.1,7.1,8.2,9.1,13.3
		c4.2,10.7,5.6,22,6.1,33.3c0.5,11.3,0.5,22.6,0.9,33.9c0.2,4.3,1.3,8.5,5.3,11.5l0,0C945.9,524.8,948.4,524.8,949.5,526.4z
		 M1125.5,339.8c-1.6-1.9,0.8-3.6,0.4-5.4c0.2,0,0.3-0.1,0.5-0.1c1.3,0.2,2.5,0.4,3.6-0.5c1.1-0.2,1.9-0.7,2.5-1.6
		c0.8,0,1-0.5,0.9-1.1c-0.1-0.6-0.6-0.7-1.2-0.5c-3.7-0.3-7.4-0.1-11.1,0c-9.6-0.4-19.1,0-28.7,0.1c-0.2,0-0.5,0.2-0.7,0.3
		c-13,0.1-25.9,0.2-38.9,0.4c-1.8-0.4-3.6-0.3-5.4,0c-6.6,0.1-13.1,0.1-19.7,0.2c-4.4-0.5-8.9,0-13.3-0.2c-0.1-0.1-0.2-0.3-0.3-0.4
		c-0.5-2-1.6-3.5-3.4-4.7c-0.4-0.6-0.9-1.1-1.5-1.4c-1.1-1.7-2.7-2.9-4.3-4c0-0.2-0.1-0.3-0.3-0.3c-0.7-1.9,0.7-1.9,2-1.7
		c3.4,0.7,6.7,1.7,10.1,2c6.5,0.7,12.5-0.2,17.3-5l0.1-0.1c3-2,4.5-4.9,5-8.2c1.1-6.8-1.5-12.7-5.3-18.4c-4.9-7.3-8.4-15.1-8-24.1
		c0.3-7.9-1.2-15.6-4.7-22.9c-3.6-7.6-8.3-14.4-15.2-19.9l0,0c-0.8-1.2-1.9-2.2-3.3-2.8c-0.3-0.2-0.6-0.5-0.9-0.7
		c-2.7-1.7-2.9-3.9-1.5-6.4c0.5-0.9,0.7-2,0.9-3.1c0.2-1.5,1-1.5,2.2-1.1c0,0.2,0.1,0.3,0.3,0.3c2.7,2.2,5.7,3.4,9.3,3.5
		c1.4,0.3,2.7,0.3,4.1,0c3.9-0.2,7-2.9,7.3-6.3c0.3-3.1-2.1-6-5.9-6.8c0.7,1.2,1.1,2.3,0,3.3c-0.4,0-0.8,0-1.1,0
		c-1.5-0.8-2.9-1.6-4.4-2.5l0,0c-0.9-1.7-1.8-3.4-2.2-5.3c-0.1-0.5-0.3-0.9-0.4-1.4c-2.5-10.5-11.7-9.2-18.3-5.6
		c-2,1.1-3.2,1.5-5.1,0.4c-1.2-0.7-2.5-1.3-3.8-1.8c-2.9-1.1-5.9-1.6-9-0.4c-0.2,0-0.5,0.1-0.7,0.1c-4.1,0.3-7.7,1.5-10.8,4.1
		c-0.2,0-0.3,0-0.4,0.2c-3.6,1.7-7.4,3.2-10.2,6.1c-1.2,1.2-2.2,2.6-1.5,4.3c2.6,6.2,4,13,8.2,18.6c1.4,1.9,1,2.3-1.2,2.7
		c-8.8,1.7-17.5,3.6-26.2,5.4c-1.8,0-3.6,0-5.4,0c-1.7-0.6-3.5-1.1-5.3-0.8c-0.6,0-1.2-0.1-1.8-0.1c-3.9-0.9-7.9-0.7-11.8,0
		c-1.5,0-3,0.1-4.5,0.1c-5.9-0.2-11.8-0.3-17.6,0.7c-0.5,0-1.1,0.1-1.6,0.1c-1.4-0.3-2.9,0-4.2,0.3c-1.9,0.5-2.6-0.1-3.2-1.8
		c-3.5-9.8-6.2-19.8-10.4-29.3c-0.6-1.3,0-1.9,1.3-1.9c1.4,0,2.8,0.2,4.2,0.3c0.9,0.2,1.7,0.2,2.5,0c2.5-0.3,4.5-1.3,6-3.2
		c0.3-0.2,0.6-0.5,0.9-0.7c1.9-0.9,3.5-2.2,4.8-3.9c0.7-0.3,1.3-0.8,1.7-1.4c0.6-0.1,1.1-0.4,1.2-1c1.4-0.8,2.6-1.8,3.6-3
		c0.7,0,1.1-0.4,1.2-1c1.4-0.8,2.6-1.8,3.6-3c0.7-0.1,1.1-0.4,1.2-1c3.6-2.6,7-5.5,9.7-8.8c3.6-4.4,3.8-7.1-0.2-10.8
		c-5.9-5.4-11.1-11.5-16.5-17.3c-3.8-4-7.5-8-12-11.4c-3.1-2.3-6.3-4.6-10.3-4.8c-3.4-0.2-6.1-1.6-8.8-3.2c-1.9-1.1-1.9-2.1-0.1-3.1
		c2.9-1.6,3.7-4.1,3.4-7c-0.2-2.7,0.3-5.3,1.8-7.7c1.6-2.6,1.1-5-1.1-7.3c-3.3-3.4-6.8-6.6-10.9-9.1c-4.6-2.9-9.2-4.8-14.9-2.5
		c-2.8,1.1-5.3,2.3-6.8,4.9c-2,3.4-3.7,6.8-5.3,10.3c-1.2,2.7-1.3,5.1,0.8,7.4c2.7,2.9,1.8,6.1,0.4,9.1c-0.4,0.9-1.3,1.3-2.3,1.5
		c-1.2,0.2-1.5-0.7-1.9-1.4c-1-1.9-2.2-3.7-2.8-5.7c-1.4-5.3-2.9-10.7-0.1-16.1c0.7-1.3,0.7-2.7,0.4-4.2c-1.4-6-2.7-12-4.1-18.1
		c-0.4-1.6-1.3-3.3-1-4.8c0.3-1.9,2.9-1.8,4.4-2.8c8.6-5.2,9-15,0.7-20.4c-1-0.7-0.9-1.2-0.5-2.1c1.1-2.6,1.9-5.2,1.8-8
		c-0.1-3.9-1.5-5.5-5.5-6.6c-0.5-0.1-1.1-0.2-1.4-0.6c-3.7-4-8.4-2.6-12.9-2.3c-1.4,0.1-3,0.5-4.1,1.7c-0.9,0.9-1.9,1.3-3.2,1.6
		c-4.2,1.1-5.8,3.9-4.7,7.9c0.7,2.3,1.7,4.6,3.1,6.6c0.8,1.1,0.8,1.8-0.3,2.7c-6,5.2-6,12.1-0.2,17.5c2.3,2.2,5.1,3.7,8,4.8
		c1.4,0.5,1.8,1.2,1.4,2.7c-0.9,3.2-1.5,6.5-2.1,9.8c-0.9,5-1.4,10,0.8,14.8c1.7,3.7,1.5,7.3,0.2,11.1c-3.5,10.2-3.3,20.2,1.2,30.2
		c3.6,8,6.5,16.4,9.7,24.6c0.7,1.7,0.6,3.4,0,5.1c-2.2,6.6-5.1,12.9-8.2,19.2c-2,4-2,4.1,1.7,7.1c1.3,1.1,1.3,1.8,0.4,3.1
		c-3,4.9-6,9.8-8.8,14.8c-7,12.2-12.9,24.7-13.9,38.7c-0.4,5.2-0.6,10.4-3.5,15.1c-0.7,1.1-1.2,2.3-2.2,3.3c-5,4.6-9,9.9-10.2,16.6
		c-0.7,4-1.4,8.1-2.2,12.1c-2.5,11.8-6.9,22.7-16.8,31c-2,1.7-3.3,3.7-3,6.4c0.2,1.5-0.5,1.9-2,1.9c-4.9,0-9.8,0.1-14.7,0.1
		c-1.2,0-2-0.3-2.5-1.4c-1.7-3.1-1.7-6.6-2.9-9.8c-0.3-0.9,0.5-1.1,1.2-1.4c8.5-3.3,9.9-9.3,9.6-17.2c-0.1-3.3-1.6-6.3-4.2-8.6
		c-3.6-3.2-7.1-6.5-10.8-9.6c-2-1.7-3.4-3.8-4.5-6.1c-2-4.5-3.5-9.3-6.2-13.5c-1.1-1.7-1.1-3.2-0.5-4.9c1.2-3.4,2-6.9,2.4-10.5
		c0.1-1.3,0.7-2.3,1.5-3.3c5.2-5.8,9.5-12.2,12.1-19.5c1.9-5.4,5.4-9.9,9.6-13.9c1.7-1.6,2.7-1.5,4.5,0
		c12.9,10.5,30.7,10.6,43.9,0.4c16.3-12.6,19.3-37.1,6.5-53.6c-7.8-10-18.3-15.3-31.7-13.9c-15.2,1.6-27.7,12.5-31.2,26.7
		c-0.5,2.1-1.4,2.6-3.5,2.7c-23.9,0.8-47.8,1.6-71.6,2.6c-2.7,0.1-3.6-0.6-4.3-2.9c-4.3-15.4-20.1-26.3-36.5-25.2
		c-17.6,1.2-32,13.5-34,29.6c-1.7,13.9,3.3,25.4,15.7,33.3c12.1,7.7,24.9,7.9,37.8,1.4c1.5-0.8,2.1-0.4,2.9,0.8
		c2.9,4.8,5.4,9.8,7,15c1.5,4.8,3.8,9,9.1,11.3c4.9,2.2,4.9,2.5,3.1,7.3c-2.1,5.6-2,10.8,1.7,15.9c4.2,5.8,8.1,11.7,12.3,17.5
		c1.4,1.9,3.1,3.7,4.2,6.2c-0.8-0.1-1.3-0.2-1.8-0.3c-17.4-3.1-34.8-3.4-52.1,0.3c-8,1.7-9.3,5.8-3.7,11.4c8.3,8.3,17.1,16.2,26,24
		c1.6,1.4,1.8,2.4,0.2,3.9c-2.5,2.3-5.2,4.3-8.2,5.9c-1.9,1-4.2,0.4-6.3,0.4c-0.8,0-0.8-0.6-0.8-1.3c0.1-3.3-1.5-5.7-4.5-7.4
		c-1-0.6-1.8-1.4-1-2.4c1.5-1.9,0.3-2.9-1-4.4c-2.1-2.5-5.4-4.8-3.4-8.9c0.5-0.9,0.3-2.1,0.4-3.2c0.1-1.4-1.3-1.7-2.2-2.2
		c-0.6-0.3-0.9,0.2-1.2,0.6c-2.4,3.4-6.2,4.2-10.1,2.3c-1.1-0.5-2.4-1.1-3.2,0.3c-0.8,1.4-1.5,0.7-2.3,0.1c-1-0.8-1-1.5,0-2.2
		c1-0.7,2.2-1.7,2.1-2.8c-0.3-2.7,1.7-4,3.2-5.7c1.2-1.3,2.8-2.6-0.7-3.1c-0.3,0-0.7-0.5-0.9-0.8c-1.1-2-2-0.9-2.5,0.2
		c-0.9,2.2-2.9,2.5-4.8,2.9c-1,0.2-1.7-0.2-1.1-1.2c1-1.8,0.3-2.6-1.6-3c-0.6-0.1-1.2-0.3-1.4-1c-0.2-0.6-0.3-1.4-1.3-1.2
		c-0.8,0.2-0.8,1-0.8,1.7c-0.1,1.6-0.9,1.5-2.1,0.8c-3.8-2.1-4.8-4.1-4-8c0.1-0.4,0.2-0.8,0.1-1.2c-0.4-1.8,0.1-2.7,2.2-2.7
		c0.8,0,1.7-0.2,1.8-1.1c0.1-0.9-0.3-1.9-1.4-2.1c-1.4-0.2-1.8-1.3-2.4-2.2c-0.6-0.9-1.3-1.6-2.6-1.3c-1.2,0.3-1.6-0.3-1.6-1.3
		c0.1-1.8-0.8-3.3-1.8-4.6c-1.4-1.8-2.9-1.7-4.2,0.1c-0.5,0.7-1,1.4-1.5,2.1c-1.8,2.5-3.6,3-6.6,2c-0.5-0.2-1-0.4-1.5-0.1
		c-2.4,1.4-2.5,5.5-0.2,7c1.6,1,3.2,2.1,4.8,3.1c1,0.6,1.1,1.3,0.9,2.5c-0.5,2.9-2.4,4.2-4.9,5.3c-2.4,1-5.4,1.9-7.3,1.5
		c-2.2-0.5-4.9-1.9-6.7-3.6c-1.7-1.6-4.9-1.8-5.5-4.6c0-0.2-0.6-0.2-1-0.3c-1.1-0.3-1.8-1-2.1-2c-0.2-0.8-0.5-1.8-1.6-1.7
		c-0.5,0-1.2,0.5-1.5,0.9c-0.6,0.8,0.1,1.4,0.7,1.9c2.3,2.2,3.4,4.8,2.7,8c-0.2,1.1,0,2.3,1.3,3c2.9,1.5,4.3,5.4,2.8,8.3
		c-0.7,1.4-1,2.4,0.9,3.2c1,0.4,1.4,1.4,1,2.3c-0.5,1-1.5,1.4-2.7,1.2c-0.6-0.1-1.1-0.5-1.7-0.7c-0.7-0.2-1.5-0.3-1.8,0.6
		c-0.3,0.8,0.4,1,0.9,1.3c2,1,1.3,1.8-0.2,2.6c-1.2,0.6-2.6,1.1-3.8,1.8c-0.7,0.4-1.2,1.6-0.2,1.7c2.7,0.1,5,1.7,7.7,1.3
		c1.5-0.2,3-0.4,4.4,0.4c0.6,0.3,1.5,0.4,2-0.1c0.6-0.6,0-1.2-0.3-1.8c-1.4-2.9-1.1-3.6,2-5.1c0.7-0.3,1.4-0.4,0.8-1.4
		c-1.3-2,0.4-1.6,1.5-1.5c1.1,0.1,2.2,0.7,3.3,0c0.7-0.5,1.6-1,2.4-0.2c0.7,0.7,0.3,1.6,0,2.4c-0.4,1.1-1.3,1.7-2.5,2
		c-1.3,0.2-2,0.7-0.9,1.9c1,1.2,0.5,1.9-0.8,2.5c-2.2,1-2.3,1.8-0.2,3.3c1,0.7,1,1.2,0.3,2c-0.9,1-1.9,1.7-3.3,1.9
		c-1.3,0.2-2.6,0.3-3.7,1.1c-1.1,0.8-1.7,0.4-1.5-0.8c0.2-1.3-0.2-2.4-0.9-3.3c-1.1-1.5-2.9-1.9-4.7-1.4c-1.6,0.4-1.2,1.6-0.7,2.6
		c0.2,0.5,0,1.2-0.5,1.2c-1.5,0.1-3-0.2-4.4-0.8c-1.3-0.5-1.1-1.7-0.7-2.6c0.5-1.3-0.2-1.8-1.4-2.1c-2.8-0.7-5.7-1.1-8.7-1.2
		c-0.5,0-1.2-0.1-1.3,0.5c-0.3,1.2-0.5,2.5-2.3,1.9c-1.2-0.4-2.3-1-3-2c-0.4-0.6,0-2-1.4-1.7c-1,0.2-1.5,1-1.8,2
		c-0.8,1.9-2.2,0.8-3.3,0.4c-1.2-0.5-2.3-1.7-1.1-2.7c1.6-1.4,1.8-3,2.3-4.8c0.5-2.2-2-5.1-4.4-5c-0.8,0-1.6,0.4-1.7,1
		c-0.5,2.1-2.3,3.7-1.9,6.1c0.4,2.3-1.8,3.5-4,2.5c-1.3-0.6-2.3-1.5-3.3-2.5c-0.4-0.4-0.8-0.7-1.4-0.3c-0.5,0.3-0.7,0.8-0.5,1.3
		c1.3,2.1-0.5,2-1.8,2.4c-1.9,0.6-2.7-0.7-4-1.4c0-0.2,0.1-0.5,0.1-0.7c0.2-0.7,1.2-1.6-0.4-1.9c-1.2-0.2-1.8,0.4-1.7,1.6
		c0,0.5-0.1,1-0.1,1.5c-0.8,0.5-1.6,0.4-2.6,0.4c-2.9-0.2-3.9,1.1-2.9,3.7c0.3,0.7,0.9,1.3,1.2,1.9c0.4,0.8,0.4,1.9-0.7,1.9
		c-2.5,0.1-3.7,1.7-5.2,3.1c-1.8,1.7-1.8,2.3,0.7,3.3c1.6,0.6,1.5,1.3,0.3,2.1c-2.2,1.3-4.4,2.5-6.6,3.7c-0.5,0.3-1.1,0.4-1.5,0
		c-2-1.5-4.3-1.1-6.6-1.2c-2.4-0.2-4.8-0.1-7.3-1c-2.1-0.8-4.8-0.7-6.8,1c-1,0.9-1.8,0.9-3.1,0.7c-2.6-0.3-5.3-1.9-7.7,0.4
		c-0.2,0.2-0.9,0.2-1.3,0.2c-3.8-0.1-7.5-0.5-11.3-0.4c-5.8,0.1-11.6-0.2-17.1,1.3c-3.6,1-6.4,0.5-9.4-1c-1.3-0.7-2.2-0.3-3,0.6
		c-1.8,2-4.2,2.5-6.9,2.5c-25.9,0.2-51.7,0.5-77.6,0.7c-37.9,0.4-75.9,0.7-113.8,1.1c-0.9,0-1.9-0.2-3.3,0.7
		c2.6,0.6,4.6,0.5,6.5,0.3c2.8-0.3,3.8,2.4,3.6,3.2c-0.7,3.6,1.6,4.7,4.2,6c1.3,0.6,1.1,1.6-0.1,2c-1.9,0.7-3.4,1.9-5.2,2.8
		c-4-0.3-8-0.2-11.9,0c-0.6,0-1.5-0.1-1.5,0.6c0,0.9,1,0.8,1.7,0.8c0.5,0,1.1-0.1,1.6-0.1c3.3-0.3,6.7-0.5,10-0.1
		c-0.1,1.2-1.2,2.5,0.7,3.3c0.1,0.7,0.2,1.4-0.9,1.3c-1.2-0.1-2.5-0.2-3.7-0.2c-0.8,0-2-0.1-2,1c0,1.1,1.3,1.2,2,1.1
		c2.3-0.2,4.8-0.1,6.9-1.1c0.3,0,0.5,0,0.8,0c0.6,0.4,1.4,0.2,2.1,0.2c31.6-0.3,63.2-0.5,94.7-0.8c0.6,0,1.2,0.1,1.8-0.3
		c7.3-0.1,14.6-0.1,21.8-0.2c0.8,0.1,1.6,0.2,2.4,0.2c29.1-0.2,58.2-0.5,87.3-0.8c0.5,0,1-0.1,1.6-0.2c4.6,0,9.2-0.1,13.8-0.1
		c0.5,0.1,1,0.2,1.6,0.2c18.9-0.1,37.8-0.3,56.7-0.4c0.6,0,1.3,0.1,1.8-0.3c3.8,0,7.6,0,11.4-0.1c0.6,0.4,1.4,0.2,2.1,0.2
		c31.3-0.2,62.6-0.5,93.9-0.8c0.7,0,1.4,0.2,2.1-0.2c6.7-0.1,13.5-0.1,20.2-0.2c0.9,0.1,1.7,0.2,2.6,0.2c22.1-0.2,44.2-0.4,66.3-0.6
		c8.1-0.1,16.3-0.2,24.4-0.4c3.9,0,7.8-0.1,11.7-0.1c0.6,0.1,1.2,0.2,1.8,0.2c19-0.1,38-0.3,57-0.5c0.6,0,1.3,0.1,1.8-0.3
		c4.2,0,8.3-0.1,12.5-0.1c0.7,0.1,1.4,0.2,2.1,0.2c30.2-0.2,60.3-0.5,90.5-0.8c0.6,0,1.2-0.2,1.8-0.2c6.7-0.1,13.5-0.1,20.2-0.2
		c0.9,0.4,1.9,0.2,2.9,0.2c24.8-0.2,49.7-0.4,74.5-0.7c5.5-0.1,11,0.2,16.5-0.3c3.5,0,7.1,0,10.6-0.1c0.4,0.1,0.9,0.2,1.3,0.2
		c19.3-0.1,38.5-0.3,57.8-0.5c0.5,0,1.1,0.1,1.5-0.3c5.2,0,10.5-0.1,15.7-0.1c4.7,0.5,9.4,0.1,14,0.1c5.9,0,11.9,0,17.8-0.1
		c0.7,0,1.6,0.1,1.7-0.8c0.1-1.1-1-0.7-1.6-0.7c-0.7-0.1-1.4-0.2-2.1-0.1c-2.3,0.3-2.4-0.5-1.4-2.2c0.5-0.9,1-1.3,2-1.2
		c1.5,0.1,3,0,4.4-0.6c0.6-0.3,1.7-0.4,1.4-1.2c-0.4-1-1.2-0.2-2-0.1c-1,0.2-2.5,1.4-2.9-0.8c0.2,0,0.3-0.1,0.2-0.3
		C1127.8,343.3,1127.8,342,1125.5,339.8L1125.5,339.8z M470.2,276.9c-1.3,0-3-0.3-3.3,1.5c-0.3,1.8,0.7,3.2,2.6,3.9
		c0.2,0.1,0.3,0.1,0.5,0.1c1.2,0.1,1.9,0.4,1.8,1.8c-0.1,1.7,1.5,2.8,2.9,3.6c1.4,0.8,2.9-0.1,4.1-1.1c0.5-0.4,0.8-0.9,1.1-1.3
		c1.4-1.9,2.9-0.2,4.3-0.2c1.1,0,1.6,0.8,1.4,1.9c-0.2,0.9,0.2,2.2,1.1,1.9c2.2-0.6,5,0.3,6.7-2c1.6-2.2,2.2-4.8,3.8-7.1
		c2.1-3,1.5-3.9-1.9-5.7c-4-2.1-8.7-3.1-11.5-7c-0.6-0.9-2-1.3-3.1-1.9c-1-0.5-1.9-0.4-2.5,0.6c-1,1.7-2.6,2.9-3.9,4.4
		c-1,1.1-1.9,2.4-1.3,3.9C473.9,276.9,472.4,277.2,470.2,276.9z M517.5,302.9c5.3,0.7,8.2,3.8,11,7c0.8,1,1.9,1.5,3.3,1.3
		c0.7-0.1,1.3-0.3,1.3-1c-0.1-1.3,0.7-2,1.5-2.9c2.2-2.4,2-6.4-0.2-8.8c-0.7-0.8-1.2-1.6-1.3-2.6c0-1.1,0-2.3-1.6-2.4
		c-1.3-0.1-2,0.7-2.5,1.8c-0.6,1.5-1.4,3.1-3.4,3c-1.9-0.1-3.7-0.6-4.8-2.5c-0.9-1.7-2.5-3-4.1-4.2c-1.4-1.1-2.7-2.2-3.6-3.8
		c-1.2-2-2.9-3.7-3.7-5.9c-0.4-1.2-1.7-2.3-3.1-1.7c-1.7,0.7-0.2,2,0.2,2.7c2.3,4.1,4.9,8.1,7.1,12.3c1.1,2.2,3.2,4,5,5.8
		C519.8,302,518.9,302.2,517.5,302.9z M425.2,316.3c-1.8,0.1-3-0.4-3.8,0.5c-1.3,1.6-3,2.9-4.6,4.2c-0.6,0.5-0.9,1-0.6,1.8
		c0.8,2,5.1,4.4,7.5,4.4c1.8,0,4.1-0.6,4.5,2.2c0.1,0.7,1.1,1,1.8,1.3c3.5,1.4,6.7,0,9.7-1.2c2.3-0.9,0.5-3.2,1.1-4.8
		c0-0.1,0-0.2,0-0.2c0.5-2.6-0.5-3.8-3.4-3.7c-1,0-1.9,0.4-2.8,0.6c-0.8,0.2-1.6,0.4-2-0.6C431.3,316.9,427.6,317.1,425.2,316.3z
		 M640.2,425.1c6.9,2.1,12.2-3.8,18.8-3.4c0.5,0,1.2-0.4,1.3-1c0.1-0.7-0.6-1-1.1-1.2c-2.1-0.9-4.3-1.5-6.7-1.1
		c-4.4,0.8-8.8,0.4-13.2-0.4c-5.4-1-10.8-0.4-16.2,0.1c-0.9,0.1-1.7,0.6-2,1.4c-0.3,1,0.5,1.5,1.2,2c1.6,1.1,3.5,1.6,5.5,1.5
		c1.3-0.1,2.8-0.2,3.5,0.8c1,1.8,2.6,1.5,4.1,1.4C637,425.2,638.6,425.1,640.2,425.1z M462.7,317.5c-1.3,0.8-2.5,0.3-3.7,0.2
		c-0.5,0-0.9-0.1-1.2,0.3c-0.3,0.5,0,1,0.5,1.3c0.6,0.3,1.3,0.5,2,0.7c1.3,0.4,2.4,1.3,2.4,2.4c-0.1,1.7,0.7,1.9,2.2,2.4
		c3.4,1,3.8,2.4,1.7,4.3c-0.9,0.9-3.2,1.5-2.2,2.8c0.9,1.2,2.7-0.4,4-0.9c0.1,0,0.2-0.1,0.2-0.1c1.3-1.1,3.1-2.1,1.5-4.2
		c-0.6-0.8,0.1-1.6,0.7-2.2c1-1,2.4-1.4,3.8-1.5c1.2-0.1,1.9-0.8,0.9-1.5c-3.3-2.3-5.8-5.3-9.2-7.5c-3.7-2.4-8.2-3.6-11.1-7.3
		c-2-2.5-5.1-3.8-8.6-3.5c-1.8,0.2-3.5,0.6-3.9,2.7c-0.2,1.5,1.7,3.9,3.3,3.6c3.4-0.6,5.8,0.9,8.5,2.4
		C457.3,313.5,459.4,316.2,462.7,317.5z M548.4,256.8c-0.6,0.1-1.5-0.5-2,0.4c-0.2,0.4-0.1,0.9,0.4,1.1c2.9,0.7,4.1,3.6,6.9,4.4
		c2,0.6,2.7,2.2,2,4c-0.6,1.7,0.3,2.5,1.7,3.1c1.8,0.8,3.7,1.4,5-0.8c0.4-0.7,1.4-1,2.1-1.5c1.9-1.3,3.2-3,2.8-5.3
		c-0.4-2.3-0.7-4.6-3.7-5.5c-2.2-0.7-3.8-2.3-4.6-4.5c-0.3-0.8-0.7-1.3-1.7-1.3c-0.9,0-1.2,0.6-1.4,1.3
		C554.9,255.2,552,256.9,548.4,256.8z M559.1,429c0,1.2,1.6,2.2,3.7,2.4c2,0.2,4,0.3,5.8,1.6c1.1,0.8,2.2,0.5,3.2-0.2
		c1.7-1.2,3.4-2.9,3-4.7c-0.4-1.8-1.1-4-3.8-4.8c-1.8-0.5-3.5-0.9-5.3-1C562.4,422.1,559,424.8,559.1,429z M579.9,271.7
		c-0.1,1-0.4,2.1,0.9,2.4c1.9,0.4,4.5,1.5,5.5-0.2c1.4-2.4,2.8-1.5,4.2-0.6c1.7,1,3.3,0.1,3.3-1.1c0.1-1.8,1.2-2.1,2.4-2.8
		c0.6-0.4,1.6-0.7,1.2-1.6c-0.3-0.7-1.1-0.6-1.9-0.4c-2,0.5-3.6,0-4.8-1.6c-0.7-0.9-1.8-1.3-3-1.2
		C584.5,264.7,579.5,268.1,579.9,271.7z M461.2,270.4c0.1,1.1-0.3,2.1,0.6,3.3c2.1,2.6,4.3,0.9,6.4,0.5c1.7-0.4,4.7-5.1,4.4-6.4
		c-0.8-3.2-5-4.9-8-3.4C462.1,265.8,460.9,267.7,461.2,270.4z M429.7,277.5c-0.1-2.4-1.8-4.7-3.9-5.4c-2.6-0.9-4.2,0.8-5.7,2.3
		c-1.6,1.7-2.9,3.7-2.1,6.1c0.1,0.4,0.7,0.8,1.1,1c2.7,1.6,5.2,0.4,7.6-0.7C428.3,280.1,430,279.4,429.7,277.5z M429.2,303.1
		c1.7,0,6.2-2.2,6.3-3.1c0.2-2.3-3.3-5.6-6.1-5.7c-2.1-0.1-5.3,1.7-5.3,2.9C424.1,299.7,426.9,303,429.2,303.1z M388.8,244.5
		c-1.5-0.2-4.2,1.6-4.4,2.8c-0.5,4.1,1,5.8,5.7,6.5c0.8,0.1,3.8-2.7,3.9-3.7C394.3,247.5,391.8,244.8,388.8,244.5z M453.9,294
		c0.6-2.4-0.6-3-2.9-3.2c-2.2-0.2-4.2,0.4-6.3,0.2c-1-0.1-2.1,0.1-2.3,1.2c-0.2,1.1,0.3,2,1.3,2.5c1.4,0.8,3,1,4.6,0.2
		c0.5-0.2,1.1-0.4,1.5,0.1c0.4,0.4,0.1,0.9-0.1,1.4c-0.3,0.5-0.6,1-0.8,1.6c-0.2,0.8-0.2,1.7,0.8,2.2c0.9,0.5,1.6-0.1,2.1-0.6
		C453.1,298,454.4,296.3,453.9,294z M723,435.5c0.7-2.3,3.4-1.2,4.6-2.6c2-2.5,1.8-3.5-0.6-4.8c-1.1-0.6-8.7,1.1-9.3,2.1
		c-0.7,1.2-0.2,2.2,1,2.6c1.2,0.3,2.1,0.7,2.7,1.7C721.7,434.9,722.3,435.1,723,435.5z M535.6,438.5c0,1,0.1,2.1,0.6,3.1
		c0.9,1.8,2.7,2,4.5,1.8c1.9-0.2,3.5-1.1,4.1-2.7c0.5-1.4-0.9-2.4-1.9-3.3c-0.8-0.7-1.9-0.9-3-0.5c-0.9,0.4-1.8,0.5-2.8,0.1
		C535.7,436.4,535.3,437.1,535.6,438.5z M483.4,310.9c0-0.6-0.2-1-0.6-1.1c-1.6-0.5-3.1-1.2-4.8-0.4c-2.3,1-4.4,2.4-7,2.8
		c-1.1,0.2-1.2,0.9-0.6,1.7c1.3,1.6,2.6,3.1,4.4,4.3c0.9,0.6,2,0.5,1.8-0.7c-0.7-3.3,1.6-4,4.1-4.6
		C481.9,312.6,483.1,312.2,483.4,310.9z M396.5,262.4c-2,0-3.2,1-3.2,2.6c0.1,2.2,2.7,4.3,5.4,4.1c1.8-0.1,3.6-0.6,3.7-2.8
		C402.5,264.5,399.2,262.4,396.5,262.4z M634.7,108.8c-1.3,0-2.8-0.2-3,1c-0.2,1.3,1.4,1.2,2.3,1.5c1.7,0.5,2.7,1.2,3.3,3
		c0.7,2.2,2.3,4.1,3.6,6.1c0.3,0.4,0.8,1.1,1.5,0.6c0.6-0.4,0.1-0.9-0.2-1.3c-1.5-2.5-2.2-5.2-2.3-8.1c0-1.3-0.8-2-2-2.2
		C636.7,109.2,635.6,109,634.7,108.8z M584.8,287.9c0.7-0.1,1.5-0.1,2.3-0.3c1.8-0.5,2.6-2,3.1-3.5c0.4-1.1-0.6-2.1-1.5-2.7
		c-1.4-0.9-2.8-0.2-4,0.5c-1.3,0.8-2.5,1.6-3.5,2.6c-1.3,1.4-0.8,2.7,1.2,3.1C583.1,287.8,583.9,287.8,584.8,287.9z M851.8,388.9
		c0.8-0.1,1.8-0.3,2.9-0.4c1.1-0.2,2.1-0.6,2.3-1.7c0.2-1-0.7-1.6-1.6-2.1c-2-1.3-7.8-0.8-9.5,0.8c-1.1,1-0.3,1.7,0.5,2.2
		C848,388.8,849.8,388.8,851.8,388.9z M559.2,459.9c2.8,0,4.4-1.2,5.1-3.5c0.4-1.2-0.1-1.7-1.2-2c-1.6-0.4-6.7,1-7.5,2.2
		c-0.8,1.3-0.3,2.4,1.2,2.9C557.7,459.8,558.6,459.8,559.2,459.9z M410.6,331.8c1.1,0.2,2.2-0.3,3.1-0.9c1-0.7,1.9-1.8,1.3-3
		c-0.6-1.2-1.9-1.3-3.2-1c-1.1,0.2-2.1,0.9-3.3,0.9c-1,0-1.3,0.7-1.3,1.6C407.3,331.4,408.8,331.7,410.6,331.8z M558,288.2
		c1.1-0.1,2.4-0.2,2.4-1.8c0-1.8-2.2-4.1-3.8-4.1c-1.9,0-2.7,0.9-2.7,2.6C554.1,286.9,555.7,288.3,558,288.2z M623.9,327.9
		c2.2,0,3.5-0.7,3.5-1.9c0.1-1.1-3.2-3.9-4.6-3.9c-1.3,0-2.2,0.6-2.4,1.8C620.1,325.1,622.7,327.9,623.9,327.9z M706.1,424.7
		c-0.7-0.1-1.6-0.6-1.8,0.4c-0.2,0.9,0.7,1.2,1.5,1.5c1.6,0.6,3.2,0.8,4.7,1.7c0.7,0.4,1.5,0.3,2.3,0.1c1.2-0.4,1.8-1.1,0.5-1.8
		c-2-1-3.3-4.2-6.4-1.8C706.7,424.9,706.3,424.8,706.1,424.7z M761.6,439.1c0.7-3.2,2-5.7,3.4-8.1c0.5-0.9,0.4-1.6-0.7-1.9
		c-1.1-0.3-1.9,0-2.2,1.1c-0.3,1-0.8,2-1,3C760.5,435,760.2,436.8,761.6,439.1z M456.8,329.5c1.5-0.4,3.1-0.6,3.4-2.4
		c0.3-1.5-0.9-2.2-2.2-2.3c-1.6-0.1-3.4,0.7-3.7,2.1C454.1,327.9,455.6,328.9,456.8,329.5z M784.1,433.3c1.4-0.2,2.7-0.7,2.8-2.2
		c0.1-1-0.7-1.7-1.7-1.4c-1.4,0.3-3.2,0.8-3.5,2.2C781.4,433.1,783.1,433,784.1,433.3z M571.6,446.2c1.1-0.2,2.5-0.3,2.4-1.6
		c-0.1-1.2-1.4-1.9-2.7-1.9c-1.2,0.1-2.3,0.8-2.3,1.9C569.1,445.9,570.4,446.1,571.6,446.2z M649.1,129c0.9,0,1.6-0.3,1.2-1
		c-0.7-1.4-1.7-2.8-3.6-3.1c-0.9-0.1-1.9,0.5-1.4,1.3C646.3,127.4,647.8,128.3,649.1,129z M468.1,310.8c1.2,0,1.1-0.8,1.1-1.6
		c0-1.3-1-1.7-2.1-1.7c-1,0-2.2,0.3-2.1,1.4C465.2,310.5,466.9,310.3,468.1,310.8z M839,388c0.9-0.3,2.6,0,2.9-1.6
		c0.1-0.9-0.9-1.2-1.7-1c-1.2,0.2-3-0.3-3.3,1.4C836.6,387.7,837.7,388,839,388z M605.8,263.4c-0.2-1.1-1-1.7-2.3-1.6
		c-1.1,0.1-1.9,0.5-1.7,1.7c0.2,1.2,1.1,1.7,2.2,1.7C605.1,265.2,605.9,264.8,605.8,263.4z M527.8,459.9c0.4,1.3,1.6,1.1,2.6,1.1
		c1,0,2.1-0.1,2-1.4c-0.1-1.2-1.2-1.6-2.3-1.5C528.9,458.1,528.1,458.7,527.8,459.9z M493,267.7c-0.3-1.1-1.3-1.9-2.4-2.3
		c-1-0.3-1.7,0.7-1.7,1.4c0,1.4,1.3,2,2.6,2.3C492.3,269.3,492.8,268.5,493,267.7z M553.5,421.5c-2.3-0.4-3.9-0.8-5.2,0.6
		c-0.7,0.8,0.1,1.4,0.8,1.7C551.5,424.9,551.6,422.5,553.5,421.5z M668.7,417.8c-1,0.1-2.5,0.3-2.4,1.3c0.1,1.3,1.8,1.2,3,1.4
		c0.9,0.1,1.5-0.5,1.5-1.3C670.8,418,669.8,417.8,668.7,417.8z M795.5,438.4c0.4,0.9,1.3,1,2.2,1.1c1,0,1.8-0.2,2-1.3
		c0.1-0.9-0.5-1.4-1.5-1.3C797.2,437.1,796.1,437.2,795.5,438.4z M660.8,425.4c-0.9,0.2-2.4,0.1-2.5,1.3c-0.1,1.1,1.2,1.3,2.2,1.3
		c1.2,0.1,1.8-0.6,1.8-1.6C662.4,425.5,661.6,425.4,660.8,425.4z M548.1,288.3c0.9,0,1.4-0.4,1.4-1.2c0-1.1-0.7-1.4-1.7-1.3
		c-0.7,0-1.5-0.1-1.5,0.9C546.3,287.7,547.3,288.1,548.1,288.3z M712,432c-0.9,0.1-1.5,0.7-1.4,1.5c0.1,0.8,0.8,1.3,1.7,1.3
		c0.9-0.1,1.6-0.6,1.5-1.5C713.7,432.5,713,432,712,432z M552.2,288c-1,0-1.5,0.6-1.6,1.4c-0.1,1,0.6,1.3,1.5,1.3
		c0.9,0,1.7-0.2,1.8-1.1C553.9,288.8,553.2,288.2,552.2,288z M594.5,290.4c0.1-0.7-0.2-1.1-1-1.1c-1.4-0.1-1.5,1-1.8,1.7
		c-0.3,0.8,0.4,0.9,1.1,0.9C593.9,291.9,594.4,291.4,594.5,290.4z"/>
	<path class="st1" d="M1111.1,358.6c0.5,0,1-0.1,1.6-0.1c1.5,0.8,2.7,0.3,3.7-0.8c0.9-0.2,1.7-0.2,2.6,0c1.8,1.4,3.6,1.2,5.4,0
		c1.1-0.4,1.9-0.1,2.6,0.8c-0.2,2.5-2.2,1.7-3.8,1.9c-0.9,0.1-2.2-0.5-2.5,0.7c-0.3,1,0.9,1.3,1.5,1.8c2,1.5,1.9,4.7,0,6.2
		c-2,1.6-0.8,2.3,1,2.7c1.1,0.5,1.5,1.3,1.2,2.5c-0.9,0.5-0.8,1.5-1.3,2.2c-0.9,0.1-1.8,0.1-2.6,0.2c-1.7,0-2.9,0.6-3.2,2.3
		c-0.4,0-0.7,0.1-1.1,0.1c-2,0-3.8,0.7-5.8,0.7c-21.5,0-42.9,0-64.4,0.1c-1,0-2.2-0.6-2.8,0.7c-3.9,0-7.8,0-11.7,0.1
		c-0.9-0.7-2-0.4-3.1-0.4c-28.3,0.2-56.6-0.3-84.9,0.5c-3.8,0.1-7.6,0-11.5,0.1c-0.8,0-1.8-0.4-2.4,0.6c-5.9,0.3-11.7,0.3-17.6,0.1
		c-2.7-0.7-5.5-0.6-8.1-0.2c-3.2,0.5-6.6,0.7-9.5,2.5c-0.3,0.1-0.7,0.1-1,0.2c-0.2-0.1-0.5-0.3-0.7-0.3c-3.7-0.1-7.5,0.4-11.1-0.9
		c-0.7-0.3-1.7-0.4-2.5,0.3c-0.3,0-0.7-0.1-1-0.1c-1-1.5-2.5-1.8-4.3-1.8c-13,0.1-26.1,0.2-39.1,0.4c-24,0.4-48.1,0-72.2,0.6
		c-0.5,0-1.1,0-1.6,0c-1.3,0.1-1.5,0.9-0.9,1.8c1.6,2.3,8.6,4.1,11.3,3.1c2.2-0.8,4.5-1.8,6.6,0.4c0.4,0.4,1,0.4,1.4-0.1
		c0.3,0,0.7,0.1,1,0.1c4.5,1.7,8.7,0.8,12.9-0.9c0.4,0,0.7-0.1,1.1-0.1c0.9,0.6,1.9,0.4,2.8,0.2c5.1-0.8,10,0,14.6,2
		c1.1,0.5,2.4,0.4,3.6,0.4c2.8-0.1,5.6-0.6,8.4,0.7c1.7,0.8,4.3,1.6,5.7-1l0,0c1.4-0.1,3.3-0.7,4.1-0.1c1.7,1.5,3.6,1.1,5.5,1.4
		c4.4,0.7,8.6,1.6,13.1,0.8c2.6-0.5,5.3,0.1,7.9-0.1c4.4-0.3,8.4-2.4,13-1.8c0.7,0,1.4,0.1,2.1,0.1c1.2,0.9,2.7,1.4,4.1,0.9
		c1.8-0.7,3.6-0.7,5.5-0.7c5.3,0.2,10.6-0.2,15.9-0.7c2.8-0.3,5.8-0.4,8.3-2c0.5,0,1.1-0.1,1.6-0.1c3.3,0.7,6.2,0.1,9.1-1.5
		c0.3,0,0.7-0.1,1-0.1c1,0.8,2.4,0.1,3.5,0.7c2.8,1.7,5.9,1.3,9,0.7c1.3-0.2,2.5-0.1,3.5,0.7c3.2,2.7,7.3,1.2,10.9,1.9
		c0.7,0.1,2.1-0.4,2.5-1.5c0.3,0,0.6,0,1,0c1.2,1.6,3.1,1.9,4.7,1.7c4.1-0.7,8.4,0.1,12.4-1c2.5-0.7,5.4,0.4,7.6-1.6
		c0.4,0,0.7-0.1,1.1-0.1c3.2,0.4,6.2,0.1,9.1-1.5c0.3,0,0.7-0.1,1-0.1c2.6,0.7,5.1,0.5,7.5-0.8c2.8-0.4,5.6-0.4,8.4,0
		c3.3,1.8,7.1,1.3,10.6,2.2c2.7,0.7,5.7,1.2,8.6,1.1c1.4,0,2.8,0.1,4.2,0.1c2.5,1.9,5.4,0.4,7.9,0.3c3.5-0.2,7-1.2,10.7-0.5
		c3.6,0.7,7.3,0,10.8,0.7c4.5,1,9,1.5,13.6,1.1c0.3,0.1,0.5,0.1,0.8,0.2c1.3,1.7,2.8,1.1,4.3,0.4c1.7-0.3,3.1,0.9,4.7,1
		c0.5,0.7,0.9,0.6,1.1-0.2c0.3-0.1,0.7-0.2,1-0.3c0.6,0.7,0.9,0.5,1.1-0.3c1.8-0.3,3.5-0.1,5.2,0c1.6,1.2,3.2,1,4.9,0.2
		c1.8,0,3.5,0,5.3,0.1c0.6,0.7,0.9,0.5,1.1-0.3c0.5-0.1,1-0.2,1.5-0.3c1.3,0.8,2.5,0.8,3.8,0c0.7,0,1.4,0,2.1,0
		c1.4,0.7,2.7,1.3,3.8-0.4c1-0.4,2.1-0.6,3.2-0.5c1.8,0.8,3.6,0.8,5.4,0c2,0.1,3.9,0,5.8,0.6c-0.3,0.7-0.7,1.3-1,2l-0.1,0.1l-0.2,0
		c-0.8-0.2-1.2,0.1-1.2,0.8c0,0.7,0.4,1,1.2,0.9c1.4,1.5,0.7,3.4-1.5,4.2c-0.6,0.2-1.6-0.2-1.7,0.7c-0.1,1.2,1.4,0.7,1.9,1.3
		c0.4,1.5,1.7,0.8,2.6,0.9c0.9,0.1,2.1-0.3,2.2,1.1c-0.4,0.5-1,0.6-1.7,0.6c-32.6-0.5-65.2,0.1-97.8,0c-0.4,0-0.9-0.1-1.3-0.1
		c-3.2-1.2-6.4-0.5-9.7-0.3c-0.2,0-0.3,0.5-0.5,0.8c-0.2,0.5-0.4,1-0.6,1.5c-0.8,0.1-1.2,0.3-0.5,1c0,0.3,0.1,0.7,0.1,1
		c1,1.8,2.1,1.2,3.2,0.1c1.6-0.3,3.2-0.4,4.8,0c0.5,1.3,1.2,1.2,2.1,0.4c0.7,0.1,1.4,0.2,2.1,0.3c1.1,1,2.3,1.5,3.8,0.6
		c2.1-0.2,4.1-0.3,5.9,1.1c-0.2,1.6-1.5,1.1-2.5,1.1c-6.7,0-13.4,0-20.1,0c-0.9,0-2.3-0.6-2.4,1.1c-4,5.2-9.6,8.3-16,10.1
		c-2.5,0.7-3.1,1.7-3.3,4.2c-0.9,12.5,0.6,24.9,1,37.4c0.1,2.1-0.1,4.2-0.4,6.2c-0.8,5.1-5.1,8.7-10.5,8.9c-5.1,0.2-8.5-2.4-10-7.8
		c-0.4-1.6-0.5-3.1-0.6-4.7c-0.2-7.7-0.6-15.5-0.6-23.2c0-3.1-2-2.1-3.7-2.3c-2.2-0.3-2.4,0.9-2.3,2.5c0.7,21.1,1.3,42.1,1.9,63.2
		c0.1,2.2-0.1,4.5,0,6.7c0.2,7.4-3.3,12.3-10.9,14.6c-1.2,0-2.5,0-3.7,0c-2.1-1.5-4.8-2.1-7-3.4l0,0c-0.1-0.3,0-0.7-0.2-0.9
		c-4.1-4.1-4.1-9.4-4.5-14.5c-0.4-6.7-0.2-13.5-0.4-20.2c-0.2-12-0.7-23.8-3.8-35.5c-1.8-6.8-4.5-13.1-9.4-18.4
		c-0.9-0.9-1.3-2.5-3.1-2.5c-0.2,0-0.3-0.1-0.4-0.3c-2.1-2.9-9-5.3-12.8-4.4c-0.7,0-1.5,0-2.2,0c-3.1-0.8-3.7-0.4-3.7,2.4
		c0,2.1,0.3,4.3-0.1,6.4c-0.8,4.6-2.2,9-6.9,11.6c-1.5,0.9-3.5,0.5-4.8,1.8c-1.4,0.3-2.7,0.3-4.1,0c-0.5-0.9-1.5-0.9-2.3-1
		c-6.1-0.8-9.5-4.3-11.2-9.6c-0.2-0.7-0.3-1.5-1.4-1.6c-0.4-0.1-0.8-0.1-1.1-0.2c-1-1.3-2.6-0.9-3.9-1.1
		c-9.4-1.3-13.4-5.1-14.3-13.7c-0.1-1.2-0.6-1.9-1.9-1.9c-2.4,0-4.8-0.2-7.2,0.1c-1.3,0.1-3.1,0.1-3.8,1.8l-0.1,0.1
		c-0.4,0.2-0.8,0.3-1.1,0.6c-3.6,4-3.6,4.1-8.6,1.4c-0.6-0.3-1.2-0.7-1.8-1c-3.8-2.3-7.7-2.8-11.7-0.4c-0.8,0.5-1.5,0.6-2.4,0.1
		c-2.1-1-2.8-0.6-2.9,1.7c0,0.6-0.1,1.2-0.1,2.1c-1.7-2.6-4.2-3.4-6.7-4.1c-4-1.1-5.4-0.1-6.8,3.7c-0.5,1.4,0.3,3.1-1.2,4.9
		c0.2-2.5-0.8-4.2-1.4-6c-1-3-3.8-4.2-7.1-3.5c-1.7,0.4-3,1.5-4.6,2c-0.9,0.3-1.9,1-2.2-0.8c-0.2-1.3-1.6-1.7-3-1.4
		c-1.5,0.4-3.2,0.3-4.5,1.4c-0.5,0.5-1,0.5-1.5-0.2c-0.9-1.4-2.1-1.4-3.7-0.9c-2.1,0.6-3.9,0.8-4.7-2c-0.7-2.5-2.6-2.8-4.9-1.6
		c-0.5,0-1.1,0.1-1.6,0.1c-1.3-0.7-2.6-0.2-3.9-0.3c-0.1-0.1-0.1-0.3-0.1-0.4c0-0.1,0.1-0.1,0.1-0.2c0.3-1.5-0.2-2-1.8-1.5
		c-1.3,0-2.5,0-3.8,0c-0.9-0.7-0.9,0.3-1.3,0.6c-1.7,1.3-3.3,2.8-5.2,3.8c-2.6,1.3-4.9,3.7-8.4,3c-0.4-0.1-1,0.6-1.4,1
		c-1.6,1.7-3.6,1.6-5.6,0.9c-1.1-0.4-2-0.7-2.9,0.1c-2,1.8-3.9,1.4-6,0.2c-1.2-0.7-2.5-1.3-3.7-1.9c-3.7-2.1-7.2-4.5-12-4
		c-0.9,0.1-1.9-0.5-2.6-1.2c-1.5-1.5-3.2-1.9-5.3-1.3c-2.7,0.9-5.5,1.2-8.3,1c-0.6,0-1.3-0.2-1.8,0.3c-0.3,0-0.7,0-1-0.1
		c-0.8-1.1-2.1-1.2-3.3-1.1c-2.9,0.1-5.6-0.5-8.2-1.7c-1.7-0.8-3.3-1.5-5.3-1.5c-12.6,0.1-25.2,0-37.8,0c-1,0-2.1-0.2-2.8,0.5
		c-2.3,2.2-5.3,1.7-8,2.1c-2,0.2-3.2,0.9-3.4,2.8c-0.4,3.3-0.6,6.6-1,9.9c-0.1,1.2,0.8,3.1-0.7,3.6c-1.2,0.3-2.1-1.5-3-2.5
		c-1-1.2-1.9-2.4-3.8-1.9c-0.6,0-1.1,0-1.7,0c-3.5-0.4-6.8-0.9-10.1,1.2c-1.6,1-1.3,2.8-2.7,3.7c-0.3,0-0.6,0-0.9,0
		c-1-1.4-0.7-3.1-0.7-4.6c0.1-3.3-0.6-4.3-4.3-5.5l0,0c-0.7-1.9-1.2-4.2-3.3-5c-3.4-1.3-7.1-1.6-10.8-1.4c-0.2,0-0.5,0-0.7,0
		c-1.3-1.1-2.9-0.7-4.3-0.5c-2.2,0.3-4.4,0.4-6.6,0.3c-3-0.1-5.6,0.6-8,2.1c-0.7,0.5-1.6,1.1-2.4,0.4c-1.9-1.8-3.3,0.2-4.9,0.3
		c-1.6,0.2-2.4-2.7-4.7-2.3c-0.2,0-0.4,0-0.5,0c-2,0.6-4.1,1-6,1.7c-3.2,1.3-5.8,3.5-8.2,5.8c-2.3,2.3-4.8,2.6-8,2.2
		c-2.6-0.3-5-1.5-7.7-1c-0.3-0.1-0.7-0.1-1-0.2c-2.9-1.5-6.2-1.8-9.4-2.4c-0.4-0.1-0.7-0.2-0.8-0.6c0.1-0.7-0.3-1.1-1-1.1l0,0
		c-1.1-2.8-2-3.3-4.3-2.4c-0.5,0.2-1,0.2-1.6,0c-1.7-1.9-6.3-2.4-9.1-0.9c-0.4,0-0.7,0.1-1.1,0.1c-1.9-0.3-3.8-0.4-5.2,1.3
		c-0.3,0.3-0.7,0.6-1,1c-1.2,0.2-2.3,0.6-2.8,1.8c-0.3,0.2-0.5,0.4-0.8,0.6c-1,0.1-1.1,0.9-1.6,1.5c-0.8,1-1.9,2-3.2,1.9
		c-4.3-0.3-8.7,1.3-13,0.1c-0.2,0-0.2-0.1-0.2-0.2c0.1-1.2,0.8-2.1,1.9-2.8c0.6-0.3,1.1-1.1,0.6-1.7c-0.4-0.5-1.1-0.4-1.7-0.1
		c-1.5,0.6-2.6,0.2-3.8-0.8c-2.5-2-5.3-2.2-8.1-0.2c-0.5,0.2-1,0.3-1.5,0.1c0.3-3.3,0-3.7-2.6-3.1c-2.2,0.5-4.3,0.4-6.5-0.1l0,0
		c0.1-0.9-0.1-1.7-1.3-1.7c-1.8,0-1.4,1.6-2,2.4c-0.4,0.6-1,0.9-1.8,0.9c-0.7-0.3-1.4-0.3-2.1,0c-0.3,0-0.5-0.1-0.8-0.1
		c-2-1.5-4-2.4-6.5-1c-0.3,0-0.6,0-0.9,0c-0.6-0.9-1.5-0.7-2.3-0.5c-0.8,0-1.6,0-2.4,0c-2.1-0.5-4.2,0.1-6.3-0.6
		c-0.9-0.3-1.9,0.1-2.5,1c-0.3,0-0.6,0-0.9,0c-2.1-1.1-4.2-1.6-6.5-0.6c-1.8,0.2-3.6,0.3-5.4,0c-3.8-1.6-8.1-1.8-12-1.9
		c-14.3-0.3-28.7-0.1-43.1-0.2c-1,0-2.1,0.3-3-0.5c0.9,0,1.7,0,2.6,0c0.8,0.1,1.6,0.2,2.4,0.2c42.5,0,85.1-0.1,127.6-0.2
		c0.8,0,1.8,0.4,2.4-0.5c10.4-0.1,20.9-0.2,31.3-0.2c11.4,0,22.8,0,34.2,0c0.6,0.5,1.3,0.3,2,0.3c9.5,0,19,0,28.4,0
		c0.4,0,0.9,0,1.3,0c1,0,1.3-0.6,0.7-1.3c-1.2-1.5-2.3-3.2-4.8-2.4c-1.4,0-2.8-0.1-4.2-0.1c-0.8-1.3-2.4-1.3-3.5-1.1
		c-5.4,0.6-10.7-1.1-16.1-0.7c-1.6,0.1-3.1-0.3-4.7-0.6c-3.1-0.7-6-1.9-9.5-1.9c-27.2,0.3-54.3-0.1-81.5,0.6
		c-3.7,0.1-7.5,0.8-11,0.7c-4.9-0.1-9.9,0.2-14.8-0.5c-1.2-0.2-2.5-0.6-3.5,0.4c-0.5,0-1,0-1.5,0c-0.5-0.7-1.2-0.5-1.9-0.5
		c-6.7,0-13.5,0-20.2,0c-0.7,0-1.4-0.1-1.9,0.5c-1.2,0-2.3,0-3.5,0c-1.2-0.4-2.5-0.2-3.7-0.2c-55.7,0-111.4,0.1-167,0.1
		c-0.8,0-1.8,0.3-2.4-0.1c-1.9-1.3-3.5-1-5.1,0.6c0.8-1.8,0.1-2.2-1.6-2.6c-1.9-0.4-4.5-0.5-4.4-3.4c1.2-0.8,2.5-0.6,3.7-0.5
		c2.5,0.9,4.9,0.4,7.4-0.1c0.5-0.1,1.1-0.2,1-0.9c-0.1-0.6-0.7-0.6-1.3-0.6c-1.4,0-2.8,0.1-4.2,0.1c-5.1,0.1-10.2,0.2-15.2,0.3
		c-0.5-0.7-1-0.7-1.6,0c-0.5-0.1-1-0.1-1.6-0.2c0.5-1.2,1.7-0.7,2.5-0.7c1.8,0,3.6,0,5.2-0.8c1.6-0.8,3.2-0.8,4.9-0.8
		c2.6,0,5.3,0.7,7.6-1c0.3,0,0.5-0.1,0.8-0.1c3.7,0,7.4,0.4,10.8,2c0.3,0.1,0.7,0.1,1,0.1c4.4,0.1,8.8,0.4,13.2,0.5
		c11.3,0.3,22.5,0.1,33.8,0c0.8,0,1.9,0.4,2.3-0.8c7.1,0,14.2-0.1,21.3-0.1c0.9,0.8,2,0.4,3.1,0.4c22.9-0.2,45.8,0.3,68.7-0.4
		c10.4-0.3,20.8-0.1,31.2-0.2c0.9,0,2,0.5,2.6-0.6c12.3-0.1,24.5-0.1,36.8-0.2c0.5,0.5,1.1,0.4,1.7,0.4c26.3-0.2,52.6,0.4,78.9-0.5
		c0.8,0,1.9,0.3,2-1c0-0.7,0-1.3,0-2c0.5-1.6-0.6-1.8-1.8-1.9c-0.7-0.5-1.3-1-2-1.5c0-0.8-0.4-1.1-1.2-1c-0.9-0.5-1.8-1.2-1.8-2
		c0-2.2-1.3-2-2.9-2c-6.2,0-12.4,0-18.5,0c-0.4-0.6-1.1-0.5-1.7-0.5c-8.1,0-16.2,0-24.3,0c-0.7,0-1.4-0.1-1.8,0.7
		c-8,0.3-16,0.4-24,0.2c-0.4-0.6-1.1-0.5-1.7-0.5c-8.7,0-17.3,0.1-26,0.1c-0.7,0-1.5-0.2-1.8,0.7c-15.3,0.1-30.5,0.2-45.8,0.3
		c-0.4-0.6-1.1-0.5-1.7-0.5c-13,0-26.1,0-39.1,0.1c-0.7,0-1.7-0.2-1.9,0.9c-5.1,0-10.3,0.1-15.4,0.1c-3.4-0.8-6.8-0.8-10.2,0.1
		c-17.2,0.1-34.5,0.2-51.7,0.4c-0.8-0.9-1.8-0.5-2.7-0.5c-9.4,0-18.8,0-28.2,0c-2.2,0-4.7,0.7-5.7-2.1c-0.1-0.5-0.2-1.1-0.4-1.6
		c0.1-1.5,1.3-3.2-0.8-4.3c0,0,0,0,0,0c-0.1-0.9-0.6-1.1-1.4-0.8c-0.2-0.1-0.5-0.2-0.7-0.3c-0.1-0.8-0.6-1-1.4-0.7
		c-0.3-0.2-0.5-0.5-0.8-0.7c-0.2-1.3-0.5-2.6-0.7-3.9c0-0.1,0-0.2,0.2-0.2c1.3-0.1,2-1.1,1.9-2c-0.1-1.2-1.5-0.9-2.4-0.9
		c-1,0-2,0-2.9,0c-1,0-1.8-0.1-1.9-1.2c17.3-0.2,34.5-0.3,51.8-0.5c0.2,0.6,0.8,0.6,1.3,0.6c5.5,0,11.1,0,16.6,0
		c0.6,0,1.2-0.1,1.4-0.8c15.2-0.2,30.4-0.3,45.5-0.5c11.5-0.1,22.9-0.2,34.4-0.3c3.5,1.4,7.1,0.3,10.6,0.5c0.2,0,0.5-0.4,0.7-0.6
		c16-0.1,31.9-0.3,47.9-0.4c0.3,0.6,1,0.6,1.6,0.6c5.9,0,11.8,0,17.7,0c0.7,0,1.5,0.1,1.6-0.9c14.4-0.2,28.8-0.4,43.2-0.5
		c10.8-0.1,21.7-0.1,32.5-0.2c0.2,0.6,0.8,0.6,1.3,0.6c5.5,0,11,0,16.5,0c0.6,0,1.3,0,1.4-0.8c13.5-0.1,27-0.2,40.4-0.3
		c1.6,0.9,3.3,1,4.9,0c12.1-0.4,24.1-0.5,36.2-0.4c3.1,1,6.1,1.1,9.2-0.1c16.5-0.1,33-0.3,49.5-0.4c0.3,0.7,1,0.6,1.6,0.6
		c6.1,0,12.1,0,18.2,0c0.7,0,1.5,0.1,1.6-0.9c6.3-0.1,12.6-0.1,18.9-0.2c0.4,0,1,0.2,1.3,0c1.8-1.6,3.7-2.3,6.2-1.5
		c0.6,0.2,1.1-0.3,1.3-1c0.5-0.3,1-0.3,1.5-0.1c2.7,0.3,5.3-0.7,8-0.1c0.4,0,0.8,0,1.2,0c5.5,1.9,11.4,2.5,17,2.6
		c13.3,0.2,26.6,0,39.9-0.2c25.9-0.5,51.8-0.5,77.7-0.7c2.7,0,5.3,0,8-0.1c0.8,0,1.8,0.4,2.3-0.7c5.1,0,10.3-0.1,15.4-0.1
		c0.8,0.7,1.9,0.4,2.8,0.4c24-0.1,48,0.1,72-0.6c0.8,0,1.8,0.3,2.5-0.6c6.1-0.1,12.1-0.1,18.2-0.2c0.4,0.1,0.8,0.3,1.2,0.3
		c16.9,0,33.7-0.1,50.6-0.1c0.7,0,1.7,0.3,2-0.8c0.5,0,1.1,0,1.6,0c0.9,0.8,2,0.4,3,0.4c22.5-0.1,45,0.1,67.5-0.5
		c2.9-0.1,5.8,0,8.8-0.1C1109.6,359.3,1110.6,359.7,1111.1,358.6z M577.8,390.4c2.4,1.8,5,3,8.2,2.9c1.5-0.1,3-0.1,4.5,0.4
		c4.8,1.5,9.8,2,14.9,1.9c13-0.3,26.1-0.5,39.1-0.6c3.1,0,5.9-0.3,8.4-2.2c1.7-1.3,3.9-1.5,6-1.8c3.6-0.6,7.2-1.2,10.7-1.9
		c2.7-0.5,5.3-1.5,7.6-2.8c0.5-0.3,1.2-0.6,1.1-1.3c-0.1-0.8-0.9-1-1.5-1.1c-0.8-0.1-1.6-0.1-2.4-0.1c-5.4-0.3-10.8,0.7-16.1,1.2
		c-2.8,0.3-5.3,0.9-7.9,2c-5.5,2.5-11.2,3.6-17.1,0.9c-4.2-1.9-8.1-0.2-12.1,0.8c-0.3,0.1-0.6,0.4-0.7,0.7c-0.6,1.7-2.1,2-3.6,2.1
		c-3.5,0.3-7,0.2-10.3-0.7c-2-0.6-3.8-0.6-5.7-0.1c-4.6,1.2-9.2,1.4-13.9,0C584.1,389.5,581,389.4,577.8,390.4z"/>
	<path class="st2" d="M945.1,522.9c2.3,1.3,4.9,1.9,7,3.4c-0.9,0-1.8,0-2.7,0C948.4,524.8,945.9,524.8,945.1,522.9z"/>
	<path class="st1" d="M873.7,194.6c-0.8,0.3-1.7,0.3-2.5,0c-1.3-1.3-2.9-1.3-4.6-1.2c-1.9,0.2-3,0.9-1.9,2.9
		c0.8,1.5,1.6,3.1,2.1,4.8c2.8,8.1,5.4,16.2,8.2,24.2c0.4,1,0.5,2.6,1.9,2.8c2.2,0.3,4.5,0.3,6.5-1c0.5,0,1.1-0.1,1.6-0.1
		c3.4,0.7,6.8,0.5,10.1,0.1c2.5-0.3,5.1,0.5,7.4-0.8c1.5,0,3-0.1,4.5-0.1c3.9,0.4,7.9,0.4,11.8,0c0.6,0,1.2,0.1,1.8,0.1
		c1.7,0.9,3.4,1.6,5.3,0.8c1.8,0,3.6,0,5.4,0c1.3,0.7,2.6,0.4,3.9,0.1c8.1-1.6,16-4,24.3-4.9c1.5-0.2,2.1-0.9,1.2-2.2
		c-0.9-1.3-1.8-2.6-2.7-4c-2.9-4.6-3.7-9.9-6.1-14.7c-1.2-2.4-0.3-3.7,1.2-5.2c1.9-1.9,4.2-3.3,6.8-4.2c1.1-0.4,2.2-0.7,2.4-2
		c0.1-0.2,0.2-0.2,0.4-0.2c3.6-1.4,7.2-2.7,10.8-4.1c0.2,0,0.5-0.1,0.7-0.1c5.2-0.2,9.9,1,14.3,3.6c0.7,0.4,1.7,0.9,2.4,0
		c2.2-2.7,5.6-2.6,8.6-3.4c2.5-0.7,4.7,0,6.7,1.4c2.4,1.7,2.8,4.2,3.6,6.7c0.7,2.1,0.6,4.6,3.2,5.8c0,0,0,0,0,0
		c0.8,1.9,2.3,2.6,4.4,2.5c0.4,0,0.8,0,1.1,0c1.8,0.4,1-1.3,1.6-1.9c2.2,1.2,3.8,2.8,3.4,5.3c-0.4,2.7-1.9,4.5-4.8,5.3
		c-0.6,0.2-1.4,0.3-1.7,1c-1.4,0.3-2.7,0.3-4.1,0c-3.1-1.2-6.2-2.4-9.3-3.5c-0.2,0-0.3-0.1-0.3-0.3c-0.1-0.9-0.7-1.4-1.6-1.3
		c-0.9,0.1-1.2,1-1.4,1.6c-0.5,1.8-0.9,3.7-1.4,5.5c-0.8,3-0.5,3.6,2.9,4.7c0.3,0.2,0.6,0.5,0.9,0.7c0.7,1.4,1.6,2.5,3.3,2.8
		c0,0,0,0,0,0c-0.1,1.1,0.9,1.6,1.5,2.2c2,1.9,3.8,3.9,5.5,6.1c8.2,10.3,12.5,21.8,11.7,34.8c-0.3,5.7,1.6,10.8,3.8,16
		c2,4.8,5.6,8.8,7.7,13.6c2.5,5.6,3.6,11.3,0.4,17c-0.7,1.3-2.2,2.2-2.5,3.8l-0.1,0.1c-0.5,0.2-1.1,0.2-1.5,0.5
		c-5.6,4-11.8,4.9-18.5,3.3c-2.8-0.7-5.6-1.2-8.5-1.7c-0.9-0.2-1.9,0-2.2,1c-0.2,0.8,0.2,1.4,1.2,1.6c0.2,0,0.3,0.1,0.3,0.3
		c0.7,2.1,2.2,3.4,4.3,4c0.7,0.3,1.2,0.8,1.5,1.4c0.7,1.8,1.9,3.3,3.4,4.7c0.1,0.1,0.2,0.3,0.3,0.4c0,0.9,0.7,1,1.4,1
		c3.5,0,7,0,10.5,0c0.6,0,1.2-0.1,1.4-0.8c6.6-0.1,13.1-0.1,19.7-0.2c1.8,0.8,3.6,0.8,5.4,0c13-0.1,25.9-0.2,38.9-0.4
		c0.3,0.5,0.9,0.5,1.4,0.5c8.7,0,17.5-0.1,26.2-0.1c0.7,0,1.5,0.1,1.7-0.8c3.7-0.2,7.4-0.3,11.1,0c0.1,0.5,0.2,1.1,0.3,1.6
		c-0.6,0.8-1.5,1.4-2.5,1.6c-1.3-0.2-2.6-1-3.6,0.5c-0.2,0-0.3,0.1-0.5,0.1c-1.7,1.1-1.6,2.9-2,4.5c-0.1,0.6,0.8,1,1.6,0.9
		c0,0,0,0,0,0c0.7,1.9,0.6,3.9,0,5.8c0,0.2-0.1,0.3-0.2,0.3c-2.6,0.8-3.8,2.7-4.3,5c-0.4,1.6-1.1,2.1-2.8,2.1
		c-7.2-0.1-14.3,0-21.5,0.1c-0.9,0-2-0.3-2.7,0.5c-5.2,0-10.5,0.1-15.7,0.1c-0.6-0.1-1.2-0.3-1.8-0.3c-18.9,0-37.8,0.1-56.8,0.1
		c-0.7,0-1.7-0.3-2,0.7c-3.5,0-7.1,0-10.6,0.1c-0.9-0.7-2-0.4-3.1-0.4c-21.8,0.2-43.7-0.2-65.5,0.4c-7.5,0.2-15.1,0.1-22.6,0.2
		c-0.9,0-2-0.4-2.7,0.6c-6.7,0.1-13.5,0.1-20.2,0.2c-0.9-0.7-1.9-0.4-2.8-0.3c-20.8,0.2-41.6-0.3-62.5,0.4
		c-8.8,0.3-17.6,0.1-26.3,0.2c-0.9,0-2-0.3-2.7,0.5c-4.2,0-8.3,0.1-12.5,0.1c-0.6-0.1-1.2-0.3-1.8-0.3c-18.9,0-37.8,0.1-56.7,0.1
		c-0.7,0-1.7-0.3-2,0.7c-3.9,0-7.8,0.1-11.7,0.1c-0.9-0.8-2-0.4-3.1-0.4c-21.4,0.2-42.8-0.3-64.2,0.4c-7.8,0.3-15.6,0.1-23.4,0.2
		c-0.9,0-2-0.4-2.7,0.6c-6.7,0.1-13.5,0.1-20.2,0.2c-0.9-0.7-1.9-0.3-2.8-0.3c-21,0.2-42-0.3-63,0.4c-9.7,0.3-19.5,0.1-29.3,0.2
		c-1,0-2.2-0.4-3,0.5c-3.8,0-7.6,0-11.4,0.1c-0.6-0.1-1.2-0.3-1.8-0.3c-18.7,0-37.5,0.1-56.2,0.2c-0.7,0-1.7-0.3-2,0.7
		c-4.6,0-9.2,0.1-13.8,0.1c-0.9-0.7-2-0.4-3.1-0.4c-21.6,0.2-43.3-0.3-64.9,0.4c-6.8,0.2-13.7,0.1-20.5,0.1c-0.9,0-2-0.4-2.7,0.6
		c-7.3,0.1-14.6,0.1-21.8,0.2c-0.9-0.6-1.9-0.3-2.8-0.3c-21.3,0.2-42.5-0.3-63.8,0.4c-9.7,0.3-19.5,0.1-29.3,0.2
		c-0.9,0-2-0.3-2.7,0.5c-0.3,0-0.5,0-0.8,0c-1.6,0.1-0.8-2.2-2.4-2.1c-1.9-0.8-0.8-2.1-0.7-3.3c0.1-0.4,0.1-0.8,0.2-1.2
		c1.8-0.9,3.3-2.1,5.2-2.8c1.1-0.4,1.3-1.4,0.1-2c-2.6-1.3-4.9-2.4-4.2-6c0.2-0.9-0.8-3.5-3.6-3.2c-1.9,0.2-3.9,0.3-6.5-0.3
		c1.5-0.8,2.4-0.7,3.3-0.7c37.9-0.4,75.9-0.7,113.8-1.1c25.9-0.2,51.7-0.5,77.6-0.7c2.7,0,5.1-0.5,6.9-2.5c0.8-0.9,1.8-1.3,3-0.6
		c3,1.5,5.8,2,9.4,1c5.5-1.5,11.3-1.2,17.1-1.3c3.8,0,7.5,0.3,11.3,0.4c0.4,0,1,0,1.3-0.2c2.4-2.3,5.2-0.8,7.7-0.4
		c1.3,0.2,2.1,0.1,3.1-0.7c2-1.7,4.6-1.8,6.8-1c2.4,0.9,4.9,0.9,7.3,1c2.3,0.2,4.6-0.3,6.6,1.2c0.5,0.3,1.1,0.2,1.5,0
		c2.2-1.2,4.5-2.4,6.6-3.7c1.2-0.7,1.3-1.4-0.3-2.1c-2.5-1-2.5-1.6-0.7-3.3c1.5-1.4,2.7-3,5.2-3.1c1.2,0,1.2-1.1,0.7-1.9
		c-0.3-0.7-0.9-1.2-1.2-1.9c-1-2.6,0-3.9,2.9-3.7c0.9,0.1,1.8,0.1,2.6-0.4c0.8,0.1,1.5-0.2,2.1-0.4c1.2,0.7,2.1,2.1,4,1.4
		c1.3-0.5,3.1-0.3,1.8-2.4c-0.3-0.4-0.1-1,0.5-1.3c0.6-0.3,1,0,1.4,0.3c1,1,2,1.9,3.3,2.5c2.2,0.9,4.4-0.3,4-2.5
		c-0.4-2.4,1.4-4,1.9-6.1c0.1-0.6,0.9-0.9,1.7-1c2.4-0.1,4.9,2.8,4.4,5c-0.4,1.7-0.7,3.4-2.3,4.8c-1.2,1,0,2.2,1.1,2.7
		c1.1,0.4,2.5,1.6,3.3-0.4c0.4-0.9,0.8-1.8,1.8-2c1.4-0.2,0.9,1.1,1.4,1.7c0.7,1,1.8,1.6,3,2c1.8,0.6,2-0.7,2.3-1.9
		c0.1-0.6,0.8-0.6,1.3-0.5c2.9,0.1,5.8,0.5,8.7,1.2c1.2,0.3,1.8,0.8,1.4,2.1c-0.3,0.9-0.5,2.1,0.7,2.6c1.4,0.6,2.9,0.9,4.4,0.8
		c0.5,0,0.7-0.7,0.5-1.2c-0.4-1.1-0.9-2.2,0.7-2.6c1.8-0.5,3.6,0,4.7,1.4c0.7,0.9,1.2,2,0.9,3.3c-0.2,1.3,0.4,1.6,1.5,0.8
		c1.1-0.8,2.4-1,3.7-1.1c1.4-0.2,2.4-0.9,3.3-1.9c0.7-0.8,0.7-1.3-0.3-2c-2.1-1.5-2-2.3,0.2-3.3c1.3-0.6,1.9-1.3,0.8-2.5
		c-1.1-1.3-0.4-1.7,0.9-1.9c1.2-0.2,2.1-0.8,2.5-2c0.3-0.8,0.6-1.7,0-2.4c-0.7-0.8-1.6-0.3-2.4,0.2c-1.1,0.8-2.2,0.2-3.3,0
		c-1.1-0.1-2.7-0.5-1.5,1.5c0.6,1-0.1,1.1-0.8,1.4c-3.1,1.5-3.4,2.2-2,5.1c0.3,0.6,0.9,1.2,0.3,1.8c-0.5,0.5-1.4,0.4-2,0.1
		c-1.4-0.7-2.9-0.6-4.4-0.4c-2.7,0.4-5.1-1.2-7.7-1.3c-1,0-0.5-1.3,0.2-1.7c1.2-0.7,2.5-1.2,3.8-1.8c1.5-0.7,2.3-1.6,0.2-2.6
		c-0.5-0.3-1.2-0.5-0.9-1.3c0.3-0.8,1.1-0.8,1.8-0.6c0.6,0.2,1.1,0.6,1.7,0.7c1.2,0.2,2.2-0.2,2.7-1.2c0.4-0.9,0-1.9-1-2.3
		c-1.9-0.8-1.6-1.8-0.9-3.2c1.5-2.8,0.1-6.7-2.8-8.3c-1.3-0.7-1.6-1.9-1.3-3c0.7-3.2-0.4-5.7-2.7-8c-0.5-0.5-1.3-1.1-0.7-1.9
		c0.3-0.4,1-0.9,1.5-0.9c1.1-0.1,1.4,0.9,1.6,1.7c0.3,1.1,1,1.7,2.1,2c0.3,0.1,0.9,0.2,1,0.3c0.6,2.8,3.8,3,5.5,4.6
		c1.9,1.8,4.5,3.1,6.7,3.6c1.9,0.5,4.9-0.5,7.3-1.5c2.6-1.1,4.4-2.4,4.9-5.3c0.2-1.2,0.1-1.8-0.9-2.5c-1.6-1-3.2-2.1-4.8-3.1
		c-2.3-1.5-2.2-5.6,0.2-7c0.5-0.3,1-0.1,1.5,0.1c3,1.1,4.8,0.6,6.6-2c0.5-0.7,1-1.4,1.5-2.1c1.3-1.9,2.9-2,4.2-0.1
		c1,1.4,1.9,2.8,1.8,4.6c-0.1,1.1,0.4,1.6,1.6,1.3c1.3-0.3,2,0.4,2.6,1.3c0.6,0.9,1.1,1.9,2.4,2.2c1.1,0.2,1.5,1.2,1.4,2.1
		c-0.1,0.9-1.1,1.1-1.8,1.1c-2.1,0-2.7,0.9-2.2,2.7c0.1,0.4,0,0.8-0.1,1.2c-0.9,3.9,0.1,5.9,4,8c1.2,0.6,2,0.8,2.1-0.8
		c0-0.7,0-1.4,0.8-1.7c1-0.3,1.1,0.6,1.3,1.2c0.2,0.6,0.8,0.8,1.4,1c1.9,0.4,2.6,1.2,1.6,3c-0.6,1,0.1,1.5,1.1,1.2
		c1.9-0.5,3.9-0.8,4.8-2.9c0.4-1.1,1.4-2.2,2.5-0.2c0.2,0.3,0.6,0.8,0.9,0.8c3.4,0.4,1.8,1.8,0.7,3.1c-1.5,1.7-3.5,3-3.2,5.7
		c0.1,1.1-1.1,2-2.1,2.8c-1,0.7-1,1.5,0,2.2c0.8,0.6,1.5,1.2,2.3-0.1c0.8-1.4,2.1-0.8,3.2-0.3c4,1.9,7.8,1.1,10.1-2.3
		c0.3-0.4,0.7-0.9,1.2-0.6c0.9,0.5,2.3,0.8,2.2,2.2c-0.1,1.1,0.1,2.3-0.4,3.2c-2,4.1,1.3,6.4,3.4,8.9c1.2,1.5,2.5,2.4,1,4.4
		c-0.8,1,0,1.8,1,2.4c3,1.7,4.5,4.1,4.5,7.4c0,0.7,0,1.3,0.8,1.3c2.1,0,4.4,0.6,6.3-0.4c3-1.6,5.7-3.6,8.2-5.9
		c1.6-1.5,1.4-2.5-0.2-3.9c-8.9-7.8-17.7-15.7-26-24c-5.6-5.5-4.3-9.7,3.7-11.4c17.3-3.7,34.7-3.5,52.1-0.3c0.5,0.1,1,0.2,1.8,0.3
		c-1.1-2.4-2.8-4.2-4.2-6.2c-4.2-5.8-8.1-11.7-12.3-17.5c-3.7-5.2-3.8-10.3-1.7-15.9c1.8-4.8,1.9-5-3.1-7.3
		c-5.3-2.4-7.6-6.5-9.1-11.3c-1.7-5.3-4.1-10.3-7-15c-0.8-1.2-1.4-1.6-2.9-0.8c-12.9,6.5-25.7,6.3-37.8-1.4
		c-12.4-7.9-17.5-19.4-15.7-33.3c2-16.1,16.4-28.4,34-29.6c16.4-1.1,32.1,9.8,36.5,25.2c0.7,2.3,1.6,3,4.3,2.9
		c23.9-1,47.8-1.8,71.6-2.6c2.1-0.1,3-0.6,3.5-2.7c3.5-14.2,16-25.2,31.2-26.7c13.4-1.4,23.9,3.9,31.7,13.9
		c12.9,16.6,9.8,41-6.5,53.6c-13.2,10.2-31,10.1-43.9-0.4c-1.8-1.5-2.8-1.5-4.5,0c-4.3,4-7.7,8.5-9.6,13.9
		c-2.6,7.3-6.8,13.7-12.1,19.5c-0.9,1-1.4,2-1.5,3.3c-0.4,3.6-1.1,7.1-2.4,10.5c-0.6,1.7-0.6,3.2,0.5,4.9c2.6,4.3,4.2,9,6.2,13.5
		c1,2.3,2.4,4.4,4.5,6.1c3.7,3.1,7.2,6.4,10.8,9.6c2.7,2.4,4.1,5.3,4.2,8.6c0.3,7.9-1.1,13.8-9.6,17.2c-0.6,0.3-1.5,0.5-1.2,1.4
		c1.2,3.2,1.3,6.7,2.9,9.8c0.6,1.1,1.4,1.4,2.5,1.4c4.9-0.1,9.8-0.1,14.7-0.1c1.4,0,2.2-0.4,2-1.9c-0.4-2.7,0.9-4.7,3-6.4
		c9.9-8.3,14.4-19.1,16.8-31c0.8-4,1.5-8,2.2-12.1c1.2-6.7,5.1-12,10.2-16.6c1.1-1,1.5-2.2,2.2-3.3c2.9-4.7,3.1-9.9,3.5-15.1
		c1.1-14,6.9-26.6,13.9-38.7c2.9-5,5.8-9.9,8.8-14.8c0.8-1.3,0.9-2.1-0.4-3.1c-3.7-3-3.6-3.1-1.7-7.1c3.1-6.3,6-12.6,8.2-19.2
		c0.6-1.8,0.7-3.4,0-5.1c-3.2-8.2-6.1-16.5-9.7-24.6c-4.5-10-4.8-20-1.2-30.2c1.3-3.8,1.5-7.4-0.2-11.1c-2.2-4.8-1.7-9.8-0.8-14.8
		c0.6-3.3,1.2-6.6,2.1-9.8c0.4-1.5,0-2.1-1.4-2.7c-3-1.2-5.7-2.7-8-4.8c-5.8-5.4-5.7-12.3,0.2-17.5c1.1-1,1.1-1.6,0.3-2.7
		c-1.4-2-2.5-4.2-3.1-6.6c-1.1-4,0.5-6.8,4.7-7.9c1.2-0.3,2.3-0.7,3.2-1.6c1.1-1.1,2.6-1.6,4.1-1.7c4.5-0.3,9.3-1.6,12.9,2.3
		c0.3,0.3,0.9,0.4,1.4,0.6c4,1.1,5.4,2.7,5.5,6.6c0.1,2.8-0.7,5.4-1.8,8c-0.4,0.9-0.5,1.4,0.5,2.1c8.3,5.5,7.9,15.2-0.7,20.4
		c-1.5,0.9-4.1,0.9-4.4,2.8c-0.3,1.5,0.7,3.2,1,4.8c1.4,6,2.8,12,4.1,18.1c0.3,1.4,0.3,2.9-0.4,4.2c-2.8,5.4-1.3,10.7,0.1,16.1
		c0.5,2,1.8,3.8,2.8,5.7c0.4,0.7,0.7,1.6,1.9,1.4c1-0.2,1.9-0.6,2.3-1.5c1.4-3.1,2.3-6.2-0.4-9.1c-2.1-2.3-2-4.7-0.8-7.4
		c1.6-3.5,3.3-7,5.3-10.3c1.5-2.6,3.9-3.8,6.8-4.9c5.7-2.3,10.3-0.4,14.9,2.5c4.1,2.6,7.6,5.7,10.9,9.1c2.2,2.3,2.7,4.6,1.1,7.3
		c-1.5,2.4-2,4.9-1.8,7.7c0.3,2.9-0.5,5.4-3.4,7c-1.8,1-1.7,2,0.1,3.1c2.7,1.6,5.4,3,8.8,3.2c4,0.3,7.3,2.5,10.3,4.8
		c4.4,3.4,8.2,7.4,12,11.4c5.5,5.8,10.6,11.9,16.5,17.3c4,3.6,3.8,6.4,0.2,10.8c-2.7,3.4-6.2,6.2-9.7,8.8c-0.8-0.1-1.2,0.2-1.2,1
		c-1,1.2-2.2,2.2-3.6,3c-0.8-0.1-1.2,0.2-1.2,1c-1,1.2-2.3,2.2-3.6,3c-0.8-0.1-1.2,0.2-1.2,1c-0.4,0.6-1,1.1-1.7,1.4
		c-2,0.8-3.8,1.9-4.8,3.9c-0.3,0.2-0.6,0.5-0.9,0.7C877.6,192.2,875.6,193.4,873.7,194.6z M891.6,332.8c-1.8-2.1-1.3-3.4,0.1-5.2
		c2-2.4,3.2-5.3,4.4-8.2c0.4-1.1,0.4-1.8-1.1-1.8c-5.5,0.1-10.7-1.3-16.1-1.9c-2.5-0.2-4.6,0.4-6.9,1.3c-6.9,2.6-13.8,3.7-20.4-0.9
		c-5.3-3.7-10.8-7.3-17-9.7c-1.5-0.6-2.8-1.5-3.7-2.8c-1-1.4-1.6-3.3,0.2-4.2c3.6-1.8,7.4-3.9,11.6-3c6.9,1.6,14,2.3,20.7,4.5
		c7.6,2.5,14.9,1.4,22.3,0.2c1.2-0.2,1.8-0.6,0.7-1.8c-1.7-1.8-3.1-3.9-4.8-5.6c-6.6-6.8-9.9-14.9-10.3-24c-0.1-1.5-1-2.2-2-3
		c-5.7-4.2-11.1-8.6-15.1-14.3c-6.6-9.5-12.6-19.3-15.6-30.4c-0.6-2.1-1.6-4.1-3.6-5.4c-1.2-0.7-2.3-1-3,0.6
		c-3.6,8.4-8.7,16-13.5,23.7c-3.8,6.2-6,13.1-9.7,19.4c-4.1,7.1-9.3,13.5-13.6,20.5c-1,1.7-2.1,3.3-2.6,5.2c-1.4,4.7-3.3,9.1-6.5,13
		c-4.8,5.8-8.9,12-13.4,18c-2.1,2.7-2.6,5.6-2,8.8c0.3,1.7,1.1,3.3,1.5,5c0.5,2.2,1.7,2.9,4.2,2.9c36.1-0.4,72.1-0.7,108.2-1
		C886.9,332.7,889.2,332.8,891.6,332.8z M962.2,279.2c9.7,0.4,17.1,0.6,24.6,1c2,0.1,1.9-0.5,1.3-1.8c-0.7-1.4-1.2-2.8-1.8-4.1
		c-3.4-7-8.4-12.5-16.6-14.7c-2.1-0.6-3.1-2.2-3.9-3.9c-1-2-1.9-4.2-2-6.4c-0.1-1.9-1-2.3-2.8-2.5c-4.8-0.5-9.5-1.2-14.2-2
		c-10.1-1.6-20-3.7-30.4-2.4c-5,0.6-10.1,0.5-15.2,0.1c-5.9-0.4-11.9-0.8-17.7-1.9c-1.9-0.4-2.4,0.1-1.9,1.9
		c0.4,1.4,0.6,2.9,0.8,4.4c1,6.3,3,12.2,7.4,17.3c4.8,5.6,9.3,11.4,12,18.2c1.7,4.4,3.6,8.7,5.2,13.1c0.5,1.4,1.2,2,2.9,1.8
		c4.4-0.5,8.8-1,13.2-1.3c3.5-0.2,6.6-1.3,9.6-2.6c1.4-0.6,1.7-1,0.5-2.3c-3.6-3.8-2.6-7.9,2.3-10.1c2.6-1.2,5.4-1.7,8.3-1.7
		C950.5,279.2,957.5,279.2,962.2,279.2z M674.9,190.7c5.6,0.1,9.4,0.7,13.1,2c5.1,1.8,9.4,4.2,10.5,9.9c0.7,3.4,0,6.6-0.2,9.9
		c-0.2,3.3-1.8,5.8-4.1,8.2c-1.5,1.6-5,2-4.7,4.5c0.3,2.2,3.5,2.8,4.9,4.7c0.9,1.2,1.7,0.8,2.6,0c2.6-2.5,5.1-5,7.2-8
		c1.8-2.6,3-5.9,5.7-7.8c5.9-4.1,9.9-9.7,15-14.4c0.7-0.7,1.1-1.4,0.7-2.4c-1.3-3.3-1.9-6.8-2-10.3c0-1.7-0.6-2.2-2.4-2.1
		c-5.1,0.3-10.1,0.5-15.2,0.7c-18.8,0.8-37.6,1.7-56.4,2.5c-1.4,0.1-2.8-0.1-3,1.9c-0.4,4.6-2,8.9-4.5,12.9
		c-0.8,1.3-0.3,1.9,0.5,2.8c2.6,3,5,6,7.6,9c0.6,0.7,1,2.3,2,2.1c1.3-0.2,1.1-1.8,1.1-2.8c0-3.9,2-7.7,1.3-11.7
		c-0.1-0.3,0.2-0.6,0.3-0.9c1.2-3.9,3.1-7,8-7.5c0.6-0.1,1.2-0.4,1.7-0.6C668.6,191.8,672.4,190.6,674.9,190.7z M980.1,323.6
		c-13.1-11.3-40.2-15.8-60.7-7.7c0.7,0.4,1.3,0.7,1.9,0.9c2.3,0.7,3.2,2.2,2.7,4.2c-0.8,3.1,0.9,5,3.1,6.9c1.2,1,2.4,2,3.5,3.1
		c0.9,0.9,2,1.2,3.3,1.2c8.7-0.1,17.4-0.2,26.1-0.2c1.2,0,2.1-0.2,2.8-1.3c1.7-2.7,4.4-4.2,7.5-5.3
		C973.4,324.3,976.7,324,980.1,323.6z M855.8,165.8c0.1,0.3,0.1,0.6,0.2,0.9c1.4,4.2,3,8.3,3.8,12.7c0.2,1,1,1.2,1.9,1.5
		c3.2,1,6.4,1.9,9.5,3.2c1.9,0.7,2.8,0.4,3.9-1.1c4.8-6.2,9.5-12.4,15.8-17.4c0.5-0.4,1.1-0.8,0.5-1.7c-1.4-1.8-2.5-4-4.5-5.2
		c-6.5-3.7-12.3-8.3-18.3-12.8c-1.4-1-2.1-0.8-2.8,0.6c-1.8,3-3.8,6-5.5,9.1C858.4,158.9,856.8,162.2,855.8,165.8z M697.1,334.3
		c-2.1-2.5-4.8-4.3-9.1-6.1c-2.3-1-4.8-2.1-5.9-4.1c-2.9-5.3-7.9-6.3-13.5-6.8c-4.7-0.4-9.4-1.5-14.1-2.2c-0.3,1,0.6,1.3,1,1.8
		c5.4,5.8,11.9,10.7,16.9,16.9c0.8,1,1.8,0.9,2.9,0.9c5,0,9.9-0.1,14.9-0.2C692.5,334.5,694.8,334.8,697.1,334.3z M811.4,38.2
		c-0.2,1-0.3,2,0.9,2.4c0.7,0.3,1.4,0.8,2.2,0.3c1.8-1.1,2.6-7.1,1.1-8.6c-1.2-1.2-2.3-1.1-3,0.6C811.8,34.6,811.4,36.4,811.4,38.2z
		 M796.5,32.9c-0.1,3,0.8,5.2,1.9,7.4c0.3,0.5,0.6,1.1,1.4,0.9c0.9-0.2,1.1-0.8,0.9-1.5C800.3,37,799,34.9,796.5,32.9z"/>
	<path class="st1" d="M470.2,276.9c2.3,0.3,3.7,0,2.8-2.6c-0.5-1.5,0.3-2.7,1.3-3.9c1.3-1.5,2.9-2.6,3.9-4.4c0.5-1,1.5-1.2,2.5-0.6
		c1.1,0.6,2.5,1,3.1,1.9c2.8,3.9,7.5,4.9,11.5,7c3.4,1.8,4,2.7,1.9,5.7c-1.6,2.2-2.1,4.9-3.8,7.1c-1.7,2.3-4.5,1.4-6.7,2
		c-0.9,0.2-1.2-1-1.1-1.9c0.3-1.2-0.2-1.9-1.4-1.9c-1.4,0-3-1.7-4.3,0.2c-0.3,0.5-0.7,1-1.1,1.3c-1.2,0.9-2.7,1.8-4.1,1.1
		c-1.4-0.7-3-1.8-2.9-3.6c0-1.4-0.6-1.7-1.8-1.8c-0.2,0-0.4,0-0.5-0.1c-1.9-0.7-2.9-2.1-2.6-3.9
		C467.2,276.6,468.9,276.9,470.2,276.9z"/>
	<path class="st2" d="M332.6,413.8c0.9,0.8,2,0.5,3,0.5c14.4,0,28.7-0.2,43.1,0.2c4,0.1,8.2,0.3,12,1.9c-29.9-2.9-59.9-0.8-89.9-1.1
		c-20.6-0.2-41.2,0.2-61.8,0.1c-7.3,0-14.7-0.1-22,0c-10,0.1-20.1-0.2-30.1,0.5c-1.9,0.1-3.8-0.1-5.8-0.5c0.7-1.2,1.8-1.3,2.9-1.3
		c1.7,0,3.4-0.1,5.1-0.1c4.4,0.2,8.9-0.4,13.3-0.2c12.5,0.4,24.9,0,37.4,0c30.2,0,60.4-0.1,90.6-0.1
		C331,413.6,331.8,413.7,332.6,413.8z"/>
	<path class="st2" d="M1011.4,410.5c0.1-1.7,1.5-1.1,2.4-1.1c6.7,0,13.4,0,20.1,0c0.9,0,2.3,0.5,2.5-1.1c0.9,0.1,1.8,0.1,2.6,0.2
		c1.1,0.1,2.1,0.3,2-1.4c-0.1-1.8,1.4-2.7,2.9-3.3c3.3-1.2,6.5-0.7,9.4,1c1.5,0.9,1.1,1.7-1.8,3.1c5.9,0.4,11.3,0.8,16.4-1.7
		c1.1-0.5,2.2-0.6,3.3-0.6c7.6-0.1,15.3,0.4,22.9-0.2c2.5-0.2,1.6,1,1.2,1.8c8.5,0.6,17.1,1,25.8,1.1c0.7,0,2-0.3,2.1,0.6
		c0.1,1.2-1.3,0.7-2.1,0.8c-3.4,0.7-6.9,0.5-10.4,0.5c-32,0-64,0-96,0C1013.7,410.4,1012.6,410.5,1011.4,410.5z"/>
	<path class="st1" d="M517.5,302.9c1.3-0.7,2.3-0.9,1.1-2c-1.8-1.8-3.9-3.6-5-5.8c-2.2-4.2-4.7-8.2-7.1-12.3c-0.4-0.8-1.9-2-0.2-2.7
		c1.4-0.6,2.7,0.5,3.1,1.7c0.8,2.3,2.5,4,3.7,5.9c1,1.6,2.2,2.7,3.6,3.8c1.6,1.2,3.2,2.5,4.1,4.2c1.1,1.9,2.9,2.4,4.8,2.5
		c2,0.1,2.8-1.5,3.4-3c0.5-1.1,1.2-1.9,2.5-1.8c1.6,0.1,1.6,1.4,1.6,2.4c0,1.1,0.5,1.8,1.3,2.6c2.2,2.5,2.3,6.4,0.2,8.8
		c-0.8,0.9-1.7,1.6-1.5,2.9c0.1,0.7-0.6,0.9-1.3,1c-1.4,0.2-2.4-0.3-3.3-1.3C525.8,306.6,522.8,303.6,517.5,302.9z"/>
	<path class="st1" d="M425.2,316.3c2.4,0.8,6.1,0.7,7.6,4.4c0.4,1,1.2,0.8,2,0.6c0.9-0.2,1.9-0.6,2.8-0.6c2.9-0.1,3.9,1.1,3.4,3.7
		c0,0.1,0,0.2,0,0.2c-0.6,1.6,1.2,3.8-1.1,4.8c-3.1,1.2-6.2,2.6-9.7,1.2c-0.8-0.3-1.7-0.6-1.8-1.3c-0.4-2.8-2.7-2.2-4.5-2.2
		c-2.4,0-6.7-2.4-7.5-4.4c-0.3-0.7,0.1-1.3,0.6-1.8c1.6-1.3,3.2-2.6,4.6-4.2C422.1,315.9,423.4,316.3,425.2,316.3z"/>
	<path class="st1" d="M640.2,425.1c-1.6,0.1-3.2,0.2-4.8,0.2c-1.6,0-3.1,0.3-4.1-1.4c-0.6-1-2.2-0.9-3.5-0.8c-2,0.1-3.9-0.4-5.5-1.5
		c-0.7-0.5-1.5-1-1.2-2c0.3-0.9,1.1-1.3,2-1.4c5.4-0.5,10.8-1.2,16.2-0.1c4.4,0.8,8.8,1.2,13.2,0.4c2.4-0.4,4.6,0.2,6.7,1.1
		c0.5,0.2,1.2,0.5,1.1,1.2c-0.1,0.7-0.8,1.1-1.3,1C652.3,421.3,647,427.1,640.2,425.1z"/>
	<path class="st2" d="M198.8,400.9c-0.1,2.9,2.5,2.9,4.4,3.4c1.7,0.4,2.4,0.9,1.6,2.6c1.6-1.6,3.1-1.9,5.1-0.6
		c0.5,0.4,1.6,0.1,2.4,0.1c55.7,0,111.4-0.1,167-0.1c1.2,0,2.5-0.2,3.7,0.2c-0.7,0.6-1.5,0.3-2.3,0.3c-48,0.2-96.1,0.3-144.1,0.5
		c-8.2,0-16.3,0-24.5,0c-1.3,0-2.7,0.3-3.8-0.7c-0.2-0.2-0.7-0.3-1-0.2c-4.3,2.5-8.8,0.8-13.2,0.8c-2.6,0-5.1,0.8-7.7,0.3
		c-0.7-0.1-1.9,0.2-1.8-0.9c0.1-1.1,1.2-0.7,2-0.7c5.2,0.5,10.3-1,15.9,0.2c-0.8-1.7-1.9-1.8-2.8-2.2
		C198.2,403.2,197.3,402.3,198.8,400.9z"/>
	<path class="st1" d="M462.7,317.5c-3.3-1.3-5.4-3.9-8.4-5.6c-2.7-1.5-5.1-3-8.5-2.4c-1.6,0.3-3.5-2.1-3.3-3.6
		c0.3-2.1,2.1-2.5,3.9-2.7c3.5-0.3,6.6,0.9,8.6,3.5c2.9,3.6,7.4,4.9,11.1,7.3c3.4,2.2,5.9,5.2,9.2,7.5c1.1,0.7,0.3,1.5-0.9,1.5
		c-1.5,0.1-2.8,0.4-3.8,1.5c-0.6,0.6-1.3,1.4-0.7,2.2c1.6,2.1-0.2,3.1-1.5,4.2c-0.1,0.1-0.1,0.1-0.2,0.1c-1.3,0.5-3,2.1-4,0.9
		c-1-1.2,1.3-1.9,2.2-2.8c2.1-1.9,1.7-3.3-1.7-4.3c-1.5-0.4-2.2-0.7-2.2-2.4c0.1-1.2-1-2.1-2.4-2.4c-0.7-0.2-1.4-0.4-2-0.7
		c-0.5-0.2-0.8-0.7-0.5-1.3c0.2-0.4,0.7-0.4,1.2-0.3C460.1,317.8,461.3,318.2,462.7,317.5z"/>
	<path class="st1" d="M548.4,256.8c3.6,0.1,6.5-1.7,7.6-4.7c0.2-0.7,0.5-1.3,1.4-1.3c0.9,0,1.4,0.5,1.7,1.3c0.8,2.1,2.4,3.8,4.6,4.5
		c3,0.9,3.4,3.3,3.7,5.5c0.4,2.2-1,3.9-2.8,5.3c-0.7,0.5-1.7,0.8-2.1,1.5c-1.4,2.3-3.2,1.6-5,0.8c-1.4-0.6-2.3-1.4-1.7-3.1
		c0.7-1.8,0-3.4-2-4c-2.8-0.8-4-3.8-6.9-4.4c-0.5-0.1-0.6-0.7-0.4-1.1C546.9,256.3,547.8,256.9,548.4,256.8z"/>
	<path class="st2" d="M760.7,417.1c2.3-1.2,4.2-0.9,4.9,1.6c0.8,2.9,2.6,2.7,4.7,2c1.5-0.5,2.8-0.5,3.7,0.9c0.4,0.7,0.9,0.7,1.5,0.2
		c1.3-1.1,3-1,4.5-1.4c1.3-0.4,2.7,0,3,1.4c0.3,1.8,1.3,1.1,2.2,0.8c1.6-0.5,2.9-1.6,4.6-2c3.3-0.7,6.1,0.6,7.1,3.5
		c0.6,1.8,1.6,3.4,1.4,6c1.6-1.8,0.7-3.5,1.2-4.9c1.4-3.7,2.8-4.7,6.8-3.7c2.4,0.7,5,1.5,6.7,4.1c0.1-0.9,0.1-1.5,0.1-2.1
		c0.1-2.3,0.8-2.7,2.9-1.7c1,0.5,1.7,0.4,2.4-0.1c4-2.4,7.9-1.8,11.7,0.4c0.6,0.4,1.2,0.7,1.8,1c5,2.7,5,2.7,8.6-1.4
		c0.3-0.3,0.7-0.4,1.1-0.6c-0.5,1.6-1.8,2.6-2.7,4c-0.8,1.3-2.1,1.1-3.3,0.6c-2.5-1.1-4.9-2.3-7.3-3.6c-3.4-1.9-6.6-1.5-9.8,0.4
		c-0.9,0.5-1.6,1-2.6,0.3c-1.9-1.4-2.3-0.4-2.2,1.2c0.3,5.8,1.5,11.4,3.1,16.9c1.3,4.4,4.2,8,6.1,12.2c-2.8-1.7-4.2-4.4-5.9-6.9
		c-3.9-5.9-4.7-12.6-5.4-19.3c-0.3-3.2-6.9-6.1-9.9-4.6c-0.8,0.4-1,1.1-1.1,1.9c-0.3,1.5-0.3,3-0.2,4.5c0.1,1.2-0.7,1.6-1.8,1.7
		c-1.1,0.1-1.4-0.6-1.4-1.4c0-2.1-1.3-3.8-1.8-5.7c-0.5-2.1-4.1-2.8-6.9-1.6c-1.4,0.6-2.8,1.4-4.3,1.9c-0.9,0.3-2.3,0.5-2.4-0.8
		c-0.1-2.1-1.5-1.6-2.8-1.6c-1,0.1-1.9,0.3-2.7,0.9c-1.5,1-2.7,2-3.7-0.6c-0.4-1.1-1.8-0.4-2.6-0.1c-2.6,1-4.3,0.6-5-2.2
		C764.5,417.1,762.5,417.2,760.7,417.1z"/>
	<path class="st2" d="M412,406.5c1.1-1,2.3-0.6,3.5-0.4c4.9,0.8,9.9,0.4,14.8,0.5c3.5,0.1,7.3-0.6,11-0.7
		c27.2-0.7,54.3-0.4,81.5-0.6c3.4,0,6.3,1.2,9.5,1.9c1.6,0.3,3.1,0.7,4.7,0.6c5.4-0.4,10.6,1.3,16.1,0.7c1.1-0.1,2.7-0.1,3.5,1.1
		c-6.5-0.5-12.9-0.7-19.4-1.1c-3.4-0.2-6.5-1.1-9.7-2c-0.8-0.2-1.7-0.3-2.6-0.3c-22.5,0-44.9,0.1-67.4,0.2c-3.6,0-7.2,0.3-10.8,0.7
		c-1.5,0.1-2.9-0.4-4.5-0.4c-8,0.3-16,0.4-24,0.4C416.2,407.2,414.1,406.7,412,406.5z"/>
	<path class="st2" d="M779.4,387.5c-0.4,0.5-1,0.5-1.4,0.1c-2.1-2.2-4.4-1.2-6.6-0.4c-2.8,1-9.8-0.8-11.3-3.1
		c-0.6-0.9-0.4-1.6,0.9-1.8c0.5-0.1,1.1,0,1.6,0c24.1-0.5,48.1-0.1,72.2-0.6c13-0.2,26.1-0.3,39.1-0.4c1.8,0,3.3,0.3,4.3,1.8
		c-2.9-1.2-6-0.9-9.1-0.8c-34.8,0.3-69.6,0.6-104.4,0.8c-1.1,0-2.2,0-3.6,0c2.6,3,6.9,4.6,10.2,3.3
		C774.2,385.2,776.9,385.2,779.4,387.5z"/>
	<path class="st2" d="M863.2,361.1c-0.5,1.1-1.5,0.7-2.3,0.7c-2.7,0.1-5.3,0-8,0.1c-25.9,0.2-51.8,0.1-77.7,0.7
		c-13.3,0.3-26.6,0.5-39.9,0.2c-5.7-0.1-11.5-0.8-17-2.6c4.5-0.1,8.9,0.9,13.3,1.5c1.5,0.2,2.9,0.5,4.5,0.5
		c41.5-0.4,83.1-0.8,124.6-1.2C861.4,360.9,862.3,361,863.2,361.1z"/>
	<path class="st1" d="M559.1,429c-0.1-4.2,3.3-6.9,6.6-6.7c1.9,0.1,3.6,0.5,5.3,1c2.7,0.8,3.4,2.9,3.8,4.8c0.4,1.8-1.3,3.5-3,4.7
		c-1,0.7-2.1,1-3.2,0.2c-1.7-1.3-3.7-1.4-5.8-1.6C560.7,431.1,559.1,430.2,559.1,429z"/>
	<path class="st2" d="M467.6,413.3c-0.6,0.9-1.6,0.5-2.4,0.5c-42.5,0.1-85.1,0.1-127.6,0.2c-0.8,0-1.6-0.1-2.4-0.2
		c0.6-0.6,1.3-0.4,2-0.4c42.7-0.1,85.4-0.3,128-0.4C466,413.1,466.8,412.9,467.6,413.3z"/>
	<path class="st1" d="M579.9,271.7c-0.4-3.6,4.6-7,7.7-7.2c1.3-0.1,2.3,0.3,3,1.2c1.2,1.7,2.8,2.2,4.8,1.6c0.8-0.2,1.6-0.2,1.9,0.4
		c0.4,0.9-0.6,1.3-1.2,1.6c-1.2,0.7-2.3,1-2.4,2.8c-0.1,1.2-1.6,2-3.3,1.1c-1.4-0.8-2.7-1.8-4.2,0.6c-1,1.7-3.6,0.6-5.5,0.2
		C579.4,273.8,579.8,272.6,579.9,271.7z"/>
	<path class="st2" d="M1034.2,315.7c0.3-1.6,1.8-2.4,2.5-3.8c3.2-5.7,2.1-11.4-0.4-17c-2.1-4.7-5.7-8.7-7.7-13.6
		c-2.2-5.2-4.2-10.3-3.8-16c0.8-13-3.5-24.5-11.7-34.8c-1.7-2.1-3.5-4.2-5.5-6.1c-0.7-0.6-1.6-1.1-1.5-2.2
		c6.8,5.4,11.5,12.3,15.2,19.9c3.5,7.3,5,15,4.7,22.9c-0.4,9,3.1,16.8,8,24.1c3.8,5.7,6.4,11.6,5.3,18.4
		C1038.6,310.8,1037.2,313.7,1034.2,315.7z"/>
	<path class="st2" d="M929.7,381.5c0.6-0.9,1.6-0.6,2.4-0.6c3.8-0.1,7.6,0,11.5-0.1c28.3-0.8,56.6-0.3,84.9-0.5c1,0,2.1-0.4,3.1,0.4
		c-4.2,0.5-8.5,0.2-12.7,0.3c-28.7,0.3-57.3,0.5-86,0.7C931.8,381.7,930.7,381.6,929.7,381.5z"/>
	<path class="st2" d="M923.8,430.9c1.8,0,2.2,1.5,3.1,2.5c4.9,5.3,7.6,11.6,9.4,18.4c3.1,11.7,3.6,23.6,3.8,35.5
		c0.1,6.7-0.1,13.5,0.4,20.2c0.3,5.1,0.4,10.3,4.5,14.5c0.2,0.2,0.1,0.6,0.2,0.9c-3.9-3-5.1-7.2-5.3-11.5
		c-0.5-11.3-0.5-22.6-0.9-33.9c-0.5-11.3-1.8-22.5-6.1-33.3C930.8,439.2,927.4,435,923.8,430.9z"/>
	<path class="st2" d="M396.1,396.6c-0.6,1.1-1.7,0.6-2.6,0.6c-10.4,0.1-20.8-0.1-31.2,0.2c-22.9,0.6-45.8,0.2-68.7,0.4
		c-1,0-2.1,0.4-3.1-0.4c8.2-0.1,16.3-0.3,24.5-0.4c26.1-0.2,52.2-0.4,78.3-0.6C394.2,396.4,395.2,396.6,396.1,396.6z"/>
	<path class="st1" d="M461.2,270.4c-0.3-2.7,0.9-4.7,3.4-6c3-1.6,7.2,0.2,8,3.4c0.3,1.3-2.8,6-4.4,6.4c-2.1,0.5-4.3,2.1-6.4-0.5
		C460.9,272.6,461.3,271.6,461.2,270.4z"/>
	<path class="st2" d="M606.7,427.1c1.9-0.5,2.8,0.7,3.8,1.9c0.9,1,1.8,2.8,3,2.5c1.5-0.4,0.5-2.3,0.7-3.6c0.4-3.3,0.6-6.6,1-9.9
		c0.2-1.9,1.5-2.5,3.4-2.8c2.7-0.3,5.8,0.2,8-2.1c0.7-0.7,1.8-0.5,2.8-0.5c12.6,0,25.2,0,37.8,0c2,0,3.6,0.7,5.3,1.5
		c2.6,1.2,5.3,1.8,8.2,1.7c1.2-0.1,2.5,0,3.3,1.1c-4.2,0-8.3-0.4-12.1-2.3c-2-1-4.1-1.4-6.4-1.4c-11.8,0.1-23.6,0.1-35.4,0.1
		c-1.7,0-3.2,0.3-4.6,1.4c-1.9,1.4-4.5,1.1-6.7,1.3c-2.2,0.3-3.2,1-3,2.9c0.4,3.7-1.1,7.2-0.7,10.9c0.1,1,0.2,2.3-1.2,2.8
		c-1.3,0.4-1.9-0.7-2.5-1.5C610.1,429.7,608.8,428,606.7,427.1z"/>
	<path class="st2" d="M502.1,358.5c0.8-0.9,2-0.5,3-0.5c9.8-0.1,19.5,0.2,29.3-0.2c21-0.7,42-0.2,63-0.4c0.9,0,2-0.3,2.8,0.3
		c-0.6,0.4-1.4,0.2-2.1,0.2c-31.3,0.3-62.6,0.5-93.9,0.8C503.5,358.7,502.8,358.9,502.1,358.5z"/>
	<path class="st2" d="M620.5,357.5c0.7-1,1.8-0.6,2.7-0.6c7.8-0.1,15.6,0.1,23.4-0.2c21.4-0.7,42.8-0.2,64.2-0.4
		c1,0,2.1-0.4,3.1,0.4c-8.1,0.1-16.3,0.3-24.4,0.4c-22.1,0.2-44.2,0.4-66.3,0.6C622.2,357.7,621.3,357.6,620.5,357.5z"/>
	<path class="st2" d="M913.2,355c0.7-1,1.8-0.6,2.7-0.6c7.5-0.1,15.1,0.1,22.6-0.2c21.8-0.7,43.7-0.3,65.5-0.4c1,0,2.1-0.4,3.1,0.4
		c-5.5,0.5-11,0.2-16.5,0.3c-24.8,0.3-49.7,0.5-74.5,0.7C915.1,355.2,914.1,355.4,913.2,355z"/>
	<path class="st2" d="M205.2,361c0.8-0.9,1.8-0.5,2.7-0.5c9.8-0.1,19.5,0.2,29.3-0.2c21.3-0.7,42.5-0.2,63.8-0.4
		c0.9,0,2-0.3,2.8,0.3c-0.5,0.4-1.2,0.3-1.8,0.3c-31.6,0.3-63.2,0.5-94.7,0.8C206.6,361.2,205.8,361.4,205.2,361z"/>
	<path class="st2" d="M325.6,360c0.7-1,1.8-0.6,2.7-0.6c6.8-0.1,13.7,0.1,20.5-0.1c21.6-0.8,43.3-0.2,64.9-0.4c1,0,2.1-0.4,3.1,0.4
		c-0.5,0.1-1,0.2-1.6,0.2c-29.1,0.3-58.2,0.5-87.3,0.8C327.2,360.2,326.4,360.1,325.6,360z"/>
	<path class="st2" d="M798.6,356c0.8-0.9,1.8-0.5,2.7-0.5c8.8-0.1,17.6,0.2,26.3-0.2c20.8-0.8,41.6-0.2,62.5-0.4
		c0.9,0,2-0.3,2.8,0.3c-0.6,0.1-1.2,0.2-1.8,0.2c-30.2,0.3-60.3,0.5-90.5,0.8C800,356.2,799.3,356,798.6,356z"/>
	<path class="st1" d="M429.7,277.5c0.2,1.9-1.5,2.6-2.9,3.3c-2.4,1.1-4.9,2.3-7.6,0.7c-0.4-0.3-1-0.6-1.1-1
		c-0.8-2.4,0.4-4.4,2.1-6.1c1.5-1.5,3-3.2,5.7-2.3C428,272.8,429.7,275.1,429.7,277.5z"/>
	<path class="st2" d="M1111.1,358.6c-0.5,1.1-1.5,0.7-2.3,0.7c-2.9,0.1-5.8,0-8.8,0.1c-22.5,0.6-45,0.4-67.5,0.5c-1,0-2.1,0.4-3-0.4
		c0.4-0.1,0.9-0.2,1.3-0.2c26.3-0.3,52.7-0.5,79-0.8C1110.2,358.5,1110.6,358.5,1111.1,358.6z"/>
	<path class="st2" d="M955.9,360.2c-0.7,0.8-1.6,0.5-2.5,0.6c-24,0.7-48,0.5-72,0.6c-0.9,0-2,0.3-2.8-0.4c0.5-0.1,1-0.2,1.5-0.2
		c24.6-0.3,49.3-0.5,73.9-0.7C954.7,360,955.3,360.2,955.9,360.2z"/>
	<path class="st2" d="M515.5,395.3c-0.1,1.3-1.2,1-2,1c-26.3,0.9-52.6,0.3-78.9,0.5c-0.6,0-1.3,0.1-1.7-0.4c0.8-0.5,1.7-0.2,2.6-0.3
		c25.6-0.2,51.2-0.4,76.9-0.5C513.4,395.7,514.5,395.8,515.5,395.3z"/>
	<path class="st1" d="M429.2,303.1c-2.3,0-5.1-3.4-5.1-5.9c0-1.2,3.2-3,5.3-2.9c2.8,0.1,6.3,3.4,6.1,5.7
		C435.4,300.9,430.9,303.1,429.2,303.1z"/>
	<path class="st2" d="M510.2,424.6c2.7-0.5,5.2,0.7,7.7,1c3.2,0.4,5.6,0.1,8-2.2c2.4-2.3,5-4.5,8.2-5.8c1.9-0.8,4-1.2,6-1.7
		c0.2,0,0.4,0,0.5,0c2.3-0.4,3.1,2.4,4.7,2.3c1.6-0.2,3-2.1,4.9-0.3c0.8,0.7,1.6,0.1,2.4-0.4c2.4-1.6,5.1-2.3,8-2.1
		c2.2,0.1,4.4,0,6.6-0.3c1.4-0.2,3-0.6,4.3,0.5c-3.2,0.2-6.3,0.5-9.5,0.5c-3.5,0-6.7,0.3-9.5,2.4c-1,0.7-2,0.6-2.9-0.1
		c-1-0.7-2-1-2.7,0.1c-0.5,0.8-2.7,1.1-1,2.8c0.8,0.8,0,1.6-0.7,2.1c-0.8,0.5-1.5-0.1-2-0.7c-0.6-0.6-0.6-1.2-0.1-2
		c0.4-0.6,2.6-0.3,1.2-1.7c-1.2-1.2-2.2-2.8-4.6-2.2c-5,1.2-9.3,3.6-12.8,7c-2.5,2.4-5.2,3.2-8.6,2.7
		C515.5,425.9,512.7,425.7,510.2,424.6z"/>
	<path class="st1" d="M388.8,244.5c3,0.3,5.5,3.1,5.2,5.7c-0.1,1-3.1,3.8-3.9,3.7c-4.7-0.7-6.2-2.5-5.7-6.5
		C384.6,246.1,387.3,244.3,388.8,244.5z"/>
	<path class="st2" d="M453.9,294c0.5,2.3-0.8,4-2.2,5.6c-0.5,0.6-1.2,1.1-2.1,0.6c-1-0.5-1-1.3-0.8-2.2c0.2-0.6,0.5-1.1,0.8-1.6
		c0.2-0.5,0.5-1,0.1-1.4c-0.4-0.5-1-0.3-1.5-0.1c-1.6,0.8-3.1,0.5-4.6-0.2c-1-0.5-1.5-1.5-1.3-2.5c0.3-1.1,1.3-1.3,2.3-1.2
		c2.1,0.3,4.2-0.3,6.3-0.2C453.3,291,454.5,291.6,453.9,294z"/>
	<path class="st2" d="M685.1,417.2c0.5-0.5,1.2-0.4,1.8-0.3c2.9,0.2,5.6-0.1,8.3-1c2.1-0.7,3.8-0.2,5.3,1.3c0.7,0.7,1.6,1.3,2.6,1.2
		c4.7-0.5,8.3,1.9,12,4c1.2,0.7,2.5,1.2,3.7,1.9c2.1,1.2,4,1.6,6-0.2c0.9-0.8,1.8-0.5,2.9-0.1c2,0.8,3.9,0.8,5.6-0.9
		c0.4-0.4,1.1-1.1,1.4-1c3.5,0.7,5.8-1.7,8.4-3c1.9-0.9,3.5-2.5,5.2-3.8c0.4-0.3,0.5-1.3,1.3-0.6c-1.7,2.6-4.4,3.9-7.1,5.2
		c-0.6,0.3-1,0.5-1.4,1.1c-0.3,0.5-0.9,1.2-1.2,1.2c-4.7-0.8-8.2,4.7-13.2,2.4c-0.8-0.4-1.8,0.2-2.4,0.7c-1.4,1.3-2.8,1.2-4.3,0.3
		c-1.5-0.9-3.2-1.4-4.7-2.4c-3.8-2.4-7.8-4.3-12.5-4.3c-1,0-1.9-0.4-2.6-1.1c-1.7-1.8-3.6-1.6-5.8-0.9
		C691.2,417.8,688.1,417.9,685.1,417.2z"/>
	<path class="st2" d="M962.3,190c-0.2,1.3-1.3,1.6-2.4,2c-2.6,0.9-4.9,2.3-6.8,4.2c-1.5,1.5-2.4,2.9-1.2,5.2
		c2.4,4.7,3.2,10.1,6.1,14.7c0.8,1.4,1.8,2.7,2.7,4c0.9,1.3,0.4,2-1.2,2.2c-8.3,0.8-16.2,3.2-24.3,4.9c-1.3,0.3-2.6,0.5-3.9-0.1
		c8.7-1.8,17.5-3.7,26.2-5.4c2.2-0.4,2.6-0.9,1.2-2.7c-4.2-5.6-5.6-12.3-8.2-18.6c-0.7-1.7,0.3-3,1.5-4.3
		C954.9,193.2,958.7,191.7,962.3,190z"/>
	<path class="st2" d="M1043.3,380.7c0.6-1.3,1.9-0.7,2.8-0.7c21.5-0.1,42.9-0.2,64.4-0.1c2,0,3.8-0.8,5.8-0.7
		c-0.9,0.9-2,1.3-3.3,1.3c-22.9,0.1-45.8,0.3-68.7,0.5C1044,380.8,1043.6,380.7,1043.3,380.7z"/>
	<path class="st2" d="M203.7,384.3c1,2.8,3.6,2.1,5.7,2.1c9.4,0,18.8,0,28.2,0c0.9,0,2-0.4,2.7,0.5c-0.6,0.6-1.3,0.3-2,0.3
		c-17.5,0.1-35.1,0.2-52.6,0.4c-1.9,0-3.6-0.4-5.3-1.2c0.1-0.9,0.8-0.7,1.2-0.6c6.4,0.6,12.9-0.4,19.3,0.2
		C202.3,386,203.6,386,203.7,384.3z"/>
	<path class="st1" d="M723,435.5c-0.8-0.5-1.3-0.7-1.6-1c-0.7-1-1.5-1.4-2.7-1.7c-1.3-0.3-1.8-1.3-1-2.6c0.6-1,8.3-2.7,9.3-2.1
		c2.5,1.3,2.7,2.4,0.6,4.8C726.4,434.4,723.7,433.3,723,435.5z"/>
	<path class="st2" d="M269.2,397.5c-0.4,1.1-1.5,0.8-2.3,0.8c-11.3,0.1-22.5,0.3-33.8,0c-4.4-0.1-8.8-0.4-13.2-0.5
		c-0.4,0-0.7,0-1-0.1c-3.4-1.6-7-2-10.8-2c2.2-1.2,4.7-1.2,6.9-0.2c2.3,1,4.6,1.1,7,1.3c15.5,1.3,31,0.5,46.5,0.6
		C268.7,397.3,269,397.4,269.2,397.5z"/>
	<path class="st2" d="M1093.9,353.5c0.8-0.9,1.8-0.5,2.7-0.5c7.2-0.1,14.3-0.1,21.5-0.1c1.8,0,2.4-0.5,2.8-2.1
		c0.5-2.3,1.7-4.2,4.3-5c0.3,2.2,1.9,0.9,2.9,0.8c0.7-0.1,1.6-0.9,2,0.1c0.3,0.8-0.8,0.9-1.4,1.2c-1.4,0.6-2.9,0.8-4.4,0.6
		c-1-0.1-1.5,0.3-2,1.2c-0.9,1.7-0.8,2.5,1.4,2.2c0.7-0.1,1.4,0,2.1,0.1c0.6,0.1,1.7-0.3,1.6,0.7c0,0.9-1,0.8-1.7,0.8
		c-5.9,0-11.9,0.1-17.8,0.1C1103.3,353.5,1098.6,353.9,1093.9,353.5z"/>
	<path class="st1" d="M535.6,438.5c-0.4-1.4,0-2.1,1.6-1.4c1,0.4,1.9,0.3,2.8-0.1c1.1-0.4,2.1-0.3,3,0.5c1,0.9,2.5,1.8,1.9,3.3
		c-0.6,1.6-2.2,2.6-4.1,2.7c-1.8,0.2-3.6,0-4.5-1.8C535.7,440.6,535.6,439.5,535.6,438.5z"/>
	<path class="st2" d="M725.5,356.6c0.4-1,1.3-0.7,2-0.7c18.9-0.1,37.8-0.1,56.7-0.1c0.6,0,1.2,0.2,1.8,0.3c-0.5,0.5-1.2,0.3-1.8,0.3
		c-19,0.2-38,0.3-57,0.5C726.7,356.8,726.1,356.7,725.5,356.6z"/>
	<path class="st2" d="M1017.7,354.2c0.3-1,1.3-0.7,2-0.7c18.9-0.1,37.8-0.1,56.8-0.1c0.6,0,1.2,0.2,1.8,0.3c-0.4,0.4-1,0.3-1.5,0.3
		c-19.3,0.2-38.5,0.3-57.8,0.5C1018.5,354.3,1018.1,354.2,1017.7,354.2z"/>
	<path class="st2" d="M430.7,359.1c0.4-1,1.3-0.7,2-0.7c18.7-0.1,37.5-0.1,56.2-0.2c0.6,0,1.2,0.2,1.8,0.3c-0.5,0.5-1.2,0.3-1.8,0.3
		c-18.9,0.2-37.8,0.3-56.7,0.4C431.7,359.3,431.2,359.2,430.7,359.1z"/>
	<path class="st2" d="M883.4,227.1c-2,1.3-4.3,1.4-6.5,1c-1.4-0.2-1.6-1.7-1.9-2.8c-2.8-8.1-5.5-16.2-8.2-24.2
		c-0.6-1.6-1.3-3.2-2.1-4.8c-1.1-2,0-2.8,1.9-2.9c1.6-0.1,3.3-0.1,4.6,1.2c-1.4-0.1-2.8-0.2-4.2-0.3c-1.4,0-1.9,0.6-1.3,1.9
		c4.2,9.5,6.9,19.6,10.4,29.3c0.6,1.7,1.3,2.3,3.2,1.8C880.6,227.1,882,226.8,883.4,227.1z"/>
	<path class="st1" d="M483.4,310.9c-0.3,1.2-1.5,1.6-2.7,1.9c-2.6,0.6-4.8,1.3-4.1,4.6c0.2,1.2-0.9,1.3-1.8,0.7
		c-1.8-1.1-3.1-2.7-4.4-4.3c-0.6-0.8-0.5-1.5,0.6-1.7c2.6-0.4,4.7-1.8,7-2.8c1.8-0.8,3.3-0.1,4.8,0.4
		C483.2,310,483.5,310.4,483.4,310.9z"/>
	<path class="st1" d="M396.5,262.4c2.8-0.1,6.1,2.1,5.9,3.9c-0.1,2.1-1.9,2.6-3.7,2.8c-2.7,0.2-5.3-1.9-5.4-4.1
		C393.3,263.4,394.5,262.5,396.5,262.4z"/>
	<path class="st2" d="M634.7,108.8c0.9,0.2,2,0.4,3.1,0.6c1.3,0.2,2,0.9,2,2.2c0.1,2.9,0.8,5.6,2.3,8.1c0.3,0.4,0.8,0.9,0.2,1.3
		c-0.7,0.5-1.2-0.2-1.5-0.6c-1.3-2-2.9-3.9-3.6-6.1c-0.6-1.8-1.6-2.5-3.3-3c-0.9-0.3-2.5-0.2-2.3-1.5
		C631.9,108.6,633.4,108.8,634.7,108.8z"/>
	<path class="st2" d="M1027.9,359.5c-0.3,1-1.2,0.8-2,0.8c-16.9,0.1-33.7,0.1-50.6,0.1c-0.4,0-0.8-0.2-1.2-0.3
		c0.5-0.1,1-0.3,1.5-0.3c16.9-0.2,33.8-0.3,50.7-0.5C1026.8,359.3,1027.4,359.4,1027.9,359.5z"/>
	<path class="st2" d="M584.8,287.9c-0.9-0.1-1.7-0.1-2.5-0.2c-1.9-0.4-2.5-1.7-1.2-3.1c1-1,2.3-1.9,3.5-2.6c1.2-0.7,2.6-1.4,4-0.5
		c0.9,0.6,2,1.6,1.5,2.7c-0.6,1.4-1.3,2.9-3.1,3.5C586.3,287.8,585.5,287.8,584.8,287.9z"/>
	<path class="st2" d="M851.8,388.9c-2-0.2-3.8-0.1-5.3-1.2c-0.7-0.6-1.6-1.2-0.5-2.2c1.7-1.6,7.5-2.1,9.5-0.8
		c0.8,0.5,1.7,1.1,1.6,2.1c-0.2,1.1-1.2,1.5-2.3,1.7C853.7,388.7,852.6,388.8,851.8,388.9z"/>
	<path class="st2" d="M1013,199.8c-2.6-1.2-2.6-3.7-3.2-5.8c-0.8-2.5-1.3-5-3.6-6.7c-2-1.4-4.2-2.1-6.7-1.4c-3,0.8-6.4,0.6-8.6,3.4
		c-0.7,0.9-1.7,0.4-2.4,0c-4.4-2.6-9.1-3.8-14.3-3.6c3.1-1.3,6.1-0.7,9,0.4c1.3,0.5,2.6,1.1,3.8,1.8c1.9,1.1,3.1,0.7,5.1-0.4
		c6.7-3.6,15.8-4.9,18.3,5.6c0.1,0.5,0.3,0.9,0.4,1.4C1011.3,196.4,1012.1,198.1,1013,199.8z"/>
	<path class="st1" d="M559.2,459.9c-0.6-0.1-1.5,0-2.3-0.3c-1.6-0.5-2.1-1.6-1.2-2.9c0.8-1.2,5.9-2.6,7.5-2.2c1.2,0.3,1.6,0.8,1.2,2
		C563.6,458.7,562,459.9,559.2,459.9z"/>
	<path class="st2" d="M873.2,389c-4.5-0.6-8.6,1.5-13,1.8c-2.6,0.2-5.4-0.4-7.9,0.1c-4.5,0.8-8.8,0-13.1-0.8c-1.9-0.3-3.7,0-5.5-1.4
		c-0.7-0.6-2.7,0.1-4.1,0.1c1.9-1.1,3.8-2,5.7,0c0.4,0.5,1,1,1.5,0.7c1.8-1.1,3.6-0.3,5.1,0.3c4.7,1.8,9.3-0.5,13.9,0.2
		c3.8,0.5,7.3-0.2,10.9-1.6C868.8,387.6,871.1,388.4,873.2,389z"/>
	<path class="st2" d="M1069.1,389.2c-4.6,0.4-9.1-0.1-13.6-1.1c-3.5-0.8-7.2-0.1-10.8-0.7c-3.6-0.7-7.1,0.4-10.7,0.5
		c-2.5,0.1-5.4,1.6-7.9-0.3c5.1-0.8,10.2-0.4,15.3-1.5c1.4-0.3,2.8,0.4,4.2,0.5c5.5,0.5,11.1,0.2,16.4,1.9c0.8,0.3,1.6,0,2.4,0
		C1066,388.5,1067.8,387.8,1069.1,389.2z"/>
	<path class="st2" d="M841.7,421.2c0.7-1.6,2.4-1.6,3.8-1.8c2.4-0.3,4.8-0.1,7.2-0.1c1.3,0,1.8,0.7,1.9,1.9
		c0.9,8.6,5,12.4,14.3,13.7c1.3,0.2,2.9-0.1,3.9,1.1c-5.7-0.1-10.8-1.6-15.2-5.1c-2.8-2.3-3.9-5.5-4.1-8.9c-0.1-1-0.2-1.8-1.5-1.8
		C848.5,420.3,845,420,841.7,421.2z"/>
	<path class="st2" d="M317.7,386.3c0.2-1.1,1.1-0.9,1.9-0.9c13,0,26.1,0,39.1-0.1c0.6,0,1.3-0.1,1.7,0.5c-0.5,0.1-1,0.3-1.5,0.3
		c-13.2,0.1-26.4,0.2-39.6,0.3C318.7,386.5,318.2,386.4,317.7,386.3z"/>
	<path class="st2" d="M829.6,388.9c-1.5,2.5-4.1,1.7-5.7,1c-2.8-1.3-5.6-0.8-8.4-0.7c-1.3,0.1-2.5,0.2-3.6-0.4
		c-4.7-2.1-9.5-2.9-14.6-2c-0.9,0.1-1.9,0.4-2.8-0.2c5.2-1.2,10.3-1.6,15.3,0.7c3.2,1.5,6.4,0.8,9.6,0.9c0.9,0,1.9-0.2,2.6,0.2
		C824.4,389.7,827,389.4,829.6,388.9z"/>
	<path class="st2" d="M560.8,409.7c2.5-0.8,3.6,0.9,4.8,2.4c0.6,0.7,0.3,1.2-0.7,1.3c-0.4,0-0.9,0-1.3,0c-9.5,0-19,0-28.4,0
		c-0.7,0-1.4,0.2-2-0.3c4.7-0.5,9.5-0.2,14.2-0.3c4.9-0.1,9.7,0,14.6-0.1c0.8,0,2,0.5,2.3-0.5c0.3-1.1-1-1.4-1.8-1.8
		C562,410.1,561.4,409.9,560.8,409.7z"/>
	<path class="st2" d="M909,386.7c-2.5,1.6-5.5,1.7-8.3,2c-5.3,0.5-10.6,0.9-15.9,0.7c-1.8-0.1-3.7,0-5.5,0.7
		c-1.4,0.5-2.9,0.1-4.1-0.9c5.3-0.3,10.6-0.6,15.9-0.8c5.3-0.2,10.6-0.2,15.8-1.7C907.6,386.5,908.3,386.4,909,386.7z"/>
	<path class="st2" d="M892.9,448.5c1.3-1.4,3.3-1,4.8-1.8c4.7-2.6,6.1-7,6.9-11.6c0.4-2.1,0.1-4.3,0.1-6.4c0-2.8,0.6-3.2,3.7-2.4
		c-2.2,0.1-2.8,1-2.7,3.2c0.4,5.1-0.5,10.1-3.7,14.5C899.9,446.8,896.9,448.5,892.9,448.5z"/>
	<path class="st2" d="M410.6,331.8c-1.8-0.1-3.4-0.4-3.4-2.5c0-0.8,0.3-1.6,1.3-1.6c1.2,0,2.2-0.7,3.3-0.9c1.3-0.3,2.7-0.2,3.2,1
		c0.5,1.2-0.4,2.3-1.3,3C412.9,331.5,411.8,332,410.6,331.8z"/>
	<path class="st2" d="M558,288.2c-2.4,0.1-3.9-1.3-4-3.3c-0.1-1.7,0.8-2.6,2.7-2.6c1.6,0,3.8,2.3,3.8,4.1
		C560.4,288,559.1,288.1,558,288.2z"/>
	<path class="st2" d="M950.1,387.5c-0.4,1.2-1.7,1.7-2.5,1.5c-3.6-0.7-7.7,0.8-10.9-1.9c-1-0.8-2.2-1-3.5-0.7
		c-3.1,0.6-6.1,0.9-9-0.7c-1.1-0.7-2.5,0.1-3.5-0.7c1.2-0.5,2.6-0.5,3.6,0c2.5,1.3,5.1,1,7.8,0.8c2.2-0.2,4.1,0.5,6.2,1.3
		C941.9,388.5,946.1,388.7,950.1,387.5z"/>
	<path class="st2" d="M623.9,327.9c-1.1,0-3.7-2.8-3.5-4c0.2-1.2,1.1-1.8,2.4-1.8c1.5,0,4.7,2.8,4.6,3.9
		C627.3,327.2,626,327.9,623.9,327.9z"/>
	<path class="st2" d="M1004.7,320.4c-1-0.1-1.4-0.7-1.2-1.6c0.3-1,1.3-1.1,2.2-1c2.8,0.5,5.7,1,8.5,1.7c6.7,1.6,12.9,0.8,18.5-3.3
		c0.4-0.3,1-0.3,1.5-0.5c-4.7,4.8-10.8,5.7-17.3,5c-3.4-0.4-6.7-1.4-10.1-2C1005.4,318.5,1004,318.5,1004.7,320.4z"/>
	<path class="st2" d="M207.4,395.8c-2.3,1.7-5.1,1-7.6,1c-1.7,0-3.3,0-4.9,0.8c-1.6,0.8-3.4,0.8-5.2,0.8c-0.9,0-2-0.5-2.5,0.7
		c-2,0.6-4,0.1-6.1,0.3c-0.6,0.1-1.4,0-1.5-0.7c-0.1-1,0.9-1,1.5-1c2.9,0.4,5.8,0.2,8.7,0c2.2-0.2,4.4-0.1,6.3-1.5
		c0.4-0.3,1.1-0.6,1.4-0.4C200.9,396.9,204.1,395.5,207.4,395.8z"/>
	<path class="st2" d="M706.1,424.7c0.3,0,0.6,0.2,0.8,0.1c3-2.4,4.4,0.8,6.4,1.8c1.4,0.7,0.7,1.4-0.5,1.8c-0.8,0.3-1.6,0.3-2.3-0.1
		c-1.4-0.9-3.1-1.1-4.7-1.7c-0.7-0.3-1.7-0.5-1.5-1.5C704.5,424.2,705.4,424.6,706.1,424.7z"/>
	<path class="st2" d="M761.6,439.1c-1.3-2.3-1-4.1-0.6-5.9c0.3-1,0.8-2,1-3c0.3-1.2,1.1-1.4,2.2-1.1c1.1,0.3,1.2,1.1,0.7,1.9
		C763.6,433.4,762.3,435.9,761.6,439.1z"/>
	<path class="st2" d="M1121.2,330.5c-0.3,0.9-1,0.8-1.7,0.8c-8.7,0-17.5,0.1-26.2,0.1c-0.5,0-1.1,0-1.4-0.5c0.2-0.1,0.5-0.3,0.7-0.3
		C1102.1,330.6,1111.6,330.2,1121.2,330.5z"/>
	<path class="st2" d="M406.1,385.6c0.3-0.9,1.1-0.7,1.8-0.7c8.7,0,17.3-0.1,26-0.1c0.6,0,1.3-0.1,1.7,0.5c-0.5,0.5-1.2,0.3-1.8,0.3
		C424.6,385.6,415.4,386,406.1,385.6z"/>
	<path class="st2" d="M459.5,385.1c0.4-0.8,1.1-0.7,1.8-0.7c8.1,0,16.2,0,24.3,0c0.6,0,1.2,0,1.7,0.5c-6.9,0.6-13.8,0.3-20.7,0.4
		C464.2,385.4,461.8,385.7,459.5,385.1z"/>
	<path class="st2" d="M975.7,386.7c-2.2,1.9-5.1,0.9-7.6,1.6c-4,1.1-8.3,0.3-12.4,1c-1.6,0.3-3.5-0.1-4.7-1.7
		c6.9,1.5,13.7,0.3,20.5-0.6C972.9,386.8,974.2,386.4,975.7,386.7z"/>
	<path class="st2" d="M1123.3,371.8c-1.8-0.4-3-1.1-1-2.7c1.9-1.5,1.9-4.7,0-6.2c-0.7-0.5-1.8-0.8-1.5-1.8c0.3-1.2,1.6-0.7,2.5-0.7
		c1.6-0.1,3.6,0.6,3.8-1.9c1.3,0.3,0.9,1.1,0.4,1.7c-0.6,0.7-1.3,1.7-2.6,1.3c-0.9-0.3-1.8-0.8-2.9,0.1c2.4,0.9,2,3.2,3,4.9
		c0.6,0.9,0,2.1-1,2.6C1122,369.8,1122.4,370.7,1123.3,371.8z"/>
	<path class="st2" d="M1117.3,378.9c0.4-1.7,1.5-2.3,3.2-2.3c-0.9,0.8-1.3,1.6,0.5,1.6c2.6,0,5.1-0.1,7.7-0.1c0.9,0,1.9-0.2,2.7,0.8
		C1126.8,379.4,1122.1,379.3,1117.3,378.9z"/>
	<path class="st2" d="M456.8,329.5c-1.2-0.6-2.7-1.6-2.5-2.5c0.3-1.4,2.1-2.1,3.7-2.1c1.3,0,2.4,0.7,2.2,2.3
		C459.9,328.9,458.3,329.1,456.8,329.5z"/>
	<path class="st2" d="M1017.1,212c0.3-0.7,1.1-0.9,1.7-1c2.8-0.8,4.4-2.6,4.8-5.3c0.3-2.6-1.2-4.1-3.4-5.3c-0.6,0.6,0.2,2.3-1.6,1.9
		c1-1,0.6-2.1,0-3.3c3.8,0.8,6.2,3.7,5.9,6.8C1024.1,209.1,1021,211.8,1017.1,212z"/>
	<path class="st2" d="M192.3,367.7c0.1,1.1,1,1.3,1.9,1.2c1,0,2-0.1,2.9,0c0.9,0,2.3-0.3,2.4,0.9c0.1,0.9-0.6,1.9-1.9,2
		c0.8-1.4,1-2.3-1.3-2c-1.7,0.2-3.2-0.2-4.9-0.6c-1.8-0.4-3.9,0.2-5.8,0.4c-0.9,0.1-2.1,1-2.3-0.5c-0.2-1.2,0.9-1.7,2.1-1.7
		C187.8,367.5,190,367.6,192.3,367.7z"/>
	<path class="st2" d="M386.4,406.5c0.5-0.7,1.2-0.5,1.9-0.5c6.7,0,13.5,0,20.2,0c0.7,0,1.4-0.1,1.9,0.5c-4.9,0.6-9.9,0.2-14.8,0.2
		C392.6,406.7,389.5,407,386.4,406.5z"/>
	<path class="st2" d="M873.9,436.3c1,0.1,1.1,1,1.4,1.6c1.7,5.3,5.1,8.7,11.2,9.6c0.8,0.1,1.8,0.1,2.3,1
		C880.9,448.6,875.1,443,873.9,436.3z"/>
	<path class="st2" d="M679.7,362.9c-0.1,0.9-0.9,0.9-1.6,0.9c-6.1,0-12.1,0-18.2,0c-0.6,0-1.3,0-1.6-0.6c3.5-0.7,7-0.3,10.5-0.4
		C672.5,362.7,676.1,362.4,679.7,362.9z"/>
	<path class="st2" d="M1022,387.5c-2.9,0.1-5.9-0.4-8.6-1.1c-3.5-0.9-7.4-0.4-10.6-2.2c2.3-0.4,4.6,0.1,6.7,0.7
		C1013.6,386.1,1018,385.7,1022,387.5z"/>
	<path class="st2" d="M423.3,365.4c-0.1,0.9-0.9,0.9-1.6,0.9c-5.9,0-11.8,0-17.7,0c-0.6,0-1.3,0-1.6-0.6c3.7-0.7,7.4-0.3,11.1-0.4
		C416.8,365.2,420,364.9,423.3,365.4z"/>
	<path class="st2" d="M442.9,419.5c2.8-1.9,5.5-1.8,8.1,0.2c1.2,1,2.3,1.5,3.8,0.8c0.6-0.2,1.3-0.4,1.7,0.1c0.5,0.6,0,1.4-0.6,1.7
		c-1.2,0.7-1.8,1.5-1.9,2.8c-0.2-0.3-0.5-0.5-0.6-0.8c-0.4-1.3-1.8-3.6-3.1-4.3c-1.7-0.9-3.4-1.9-5.4-0.7
		C444.4,419.7,443.6,419.8,442.9,419.5z"/>
	<path class="st2" d="M902.6,226.3c-2.3,1.3-5,0.5-7.4,0.8c-3.3,0.4-6.8,0.7-10.1-0.1C890.8,226,896.7,226.1,902.6,226.3z"/>
	<path class="st2" d="M202,358.8c1.5,0,0.7,2.3,2.4,2.1c-2.2,1-4.6,1-6.9,1.1c-0.8,0.1-2,0-2-1.1c0-1.2,1.2-1,2-1
		c1.2,0,2.5,0.1,3.7,0.2C202.2,360.2,202.1,359.5,202,358.8z"/>
	<path class="st2" d="M454.2,425.3c4.3,1.2,8.7-0.5,13-0.1c1.4,0.1,2.4-0.9,3.2-1.9c0.5-0.6,0.6-1.4,1.6-1.5c-0.5,2.7-2.6,4-5.2,4.2
		c-3.1,0.2-6.1,0.4-9.2,0.6C456.4,426.6,455,426.7,454.2,425.3z"/>
	<path class="st2" d="M263.3,367c-0.1,0.7-0.8,0.8-1.4,0.8c-5.5,0-11.1,0-16.6,0c-0.5,0-1.1-0.1-1.3-0.6
		C250.5,366.6,256.9,366.7,263.3,367z"/>
	<path class="st2" d="M518.2,364.5c-0.2,0.8-0.8,0.8-1.4,0.8c-5.5,0-11,0-16.5,0c-0.5,0-1.1-0.1-1.3-0.6
		C505.3,364.1,511.8,364.2,518.2,364.5z"/>
	<path class="st2" d="M894.5,384c2.9-1.8,6.3-2,9.5-2.5c2.6-0.4,5.4-0.6,8.1,0.2C906.1,381.5,900.3,383.1,894.5,384z"/>
	<path class="st2" d="M572.3,415.5c3.7-0.1,7.4,0.1,10.8,1.4c2.1,0.8,2.6,3.1,3.3,5c-0.2-0.1-0.6-0.2-0.6-0.4
		c-1.6-4.8-6.1-4.7-10.2-5.2C574.4,416.2,573.2,416.2,572.3,415.5z"/>
	<path class="st2" d="M1001.8,218.8c-3.4-1.1-3.7-1.7-2.9-4.7c0.5-1.8,0.9-3.7,1.4-5.5c0.2-0.7,0.4-1.5,1.4-1.6
		c0.9-0.1,1.5,0.4,1.6,1.3c-1.2-0.4-2-0.4-2.2,1.1c-0.1,1-0.4,2.1-0.9,3.1C999,214.9,999.1,217.1,1001.8,218.8z"/>
	<path class="st2" d="M784.1,433.3c-1-0.3-2.7-0.2-2.4-1.4c0.3-1.4,2.1-1.9,3.5-2.2c1-0.2,1.8,0.4,1.7,1.4
		C786.8,432.6,785.5,433,784.1,433.3z"/>
	<path class="st2" d="M571.6,446.2c-1.2-0.1-2.6-0.2-2.6-1.6c0-1.2,1.1-1.9,2.3-1.9c1.3-0.1,2.5,0.7,2.7,1.9
		C574.2,445.9,572.7,445.9,571.6,446.2z"/>
	<path class="st2" d="M649.1,129c-1.4-0.7-2.8-1.5-3.7-2.8c-0.5-0.8,0.5-1.4,1.4-1.3c1.8,0.3,2.8,1.7,3.6,3.1
		C650.7,128.7,650,128.9,649.1,129z"/>
	<path class="st2" d="M592.2,432c1.4-0.9,1.2-2.7,2.7-3.7c3.2-2.1,6.6-1.6,10.1-1.2c-1.4,0.8-2.9,0.6-4.3,0.4
		c-3.1-0.3-5.4,0.7-6.6,3.6C593.7,432,593.1,432.3,592.2,432z"/>
	<path class="st2" d="M586.3,421.9c3.7,1.3,4.4,2.2,4.3,5.5c-0.1,1.6-0.3,3.2,0.7,4.6c-2.7-0.7-2.2-3.1-1.8-4.4
		c0.9-2.6-0.3-3.8-2.4-4.9C586.8,422.7,586.6,422.2,586.3,421.9z"/>
	<path class="st2" d="M468.1,310.8c-1.2-0.5-2.9-0.3-3.1-1.9c-0.1-1.1,1.1-1.5,2.1-1.4c1.1,0,2.1,0.4,2.1,1.7
		C469.2,309.9,469.3,310.8,468.1,310.8z"/>
	<path class="st2" d="M839,388c-1.3,0-2.4-0.2-2.2-1.3c0.3-1.7,2.1-1.1,3.3-1.4c0.8-0.2,1.9,0.1,1.7,1
		C841.6,388,839.9,387.7,839,388z"/>
	<path class="st2" d="M605.8,263.4c0.1,1.4-0.7,1.8-1.8,1.7c-1.2,0-2.1-0.5-2.2-1.7c-0.2-1.2,0.6-1.6,1.7-1.7
		C604.9,261.7,605.6,262.4,605.8,263.4z"/>
	<path class="st2" d="M527.8,459.9c0.3-1.1,1.1-1.7,2.2-1.8c1.1-0.1,2.2,0.3,2.3,1.5c0.2,1.3-1,1.4-2,1.4
		C529.4,460.9,528.2,461.2,527.8,459.9z"/>
	<path class="st2" d="M493,267.7c-0.2,0.9-0.7,1.7-1.6,1.5c-1.2-0.3-2.6-0.9-2.6-2.3c0-0.7,0.7-1.8,1.7-1.4
		C491.7,265.8,492.7,266.5,493,267.7z"/>
	<path class="st2" d="M201.5,354.4c-0.1,0.4-0.1,0.8-0.2,1.2c-3.4-0.4-6.7-0.2-10,0.1c-0.5,0.1-1.1,0.2-1.6,0.1
		c-0.7,0-1.7,0.1-1.7-0.8c0-0.8,0.9-0.6,1.5-0.6C193.5,354.2,197.5,354.1,201.5,354.4z"/>
	<path class="st2" d="M879.1,383.2c0.7-0.7,1.8-0.5,2.5-0.3c3.6,1.3,7.4,0.9,11.1,0.9c0.2,0,0.5,0.2,0.7,0.3
		c-2.8,1.1-5.6,0.8-8.5,0.3C883,384.1,881.1,383.6,879.1,383.2z"/>
	<path class="st2" d="M553.5,421.5c-1.9,1-2,3.4-4.4,2.3c-0.7-0.3-1.5-1-0.8-1.7C549.5,420.7,551.1,421.1,553.5,421.5z"/>
	<path class="st2" d="M910.6,426.2c3.8-0.9,10.8,1.5,12.8,4.4C919.5,428.1,915.2,426.8,910.6,426.2z"/>
	<path class="st2" d="M793.3,386.7c-4.2,1.6-8.5,2.6-12.9,0.9C784.8,388,789,387,793.3,386.7z"/>
	<path class="st2" d="M1027.9,331.5c-0.1,0.8-0.7,0.8-1.4,0.8c-3.5,0-7,0-10.5,0c-0.7,0-1.4-0.1-1.4-1
		C1019,331.5,1023.4,331,1027.9,331.5z"/>
	<path class="st2" d="M668.7,417.8c1.1,0,2,0.2,2.1,1.4c0,0.8-0.5,1.5-1.5,1.3c-1.2-0.2-2.8-0.1-3-1.4
		C666.2,418.1,667.7,418,668.7,417.8z"/>
	<path class="st2" d="M205.5,399c1.4-0.1,2.8-0.1,4.2-0.1c0.5,0,1.1,0,1.3,0.6c0.1,0.6-0.5,0.8-1,0.9c-2.5,0.5-4.9,1-7.4,0.1
		c0.6-0.6,1.5-0.3,2.2-0.3C205.6,400,205.8,399.7,205.5,399z"/>
	<path class="st2" d="M795.5,438.4c0.6-1.1,1.7-1.3,2.7-1.5c1-0.2,1.6,0.3,1.5,1.3c-0.1,1-1,1.3-2,1.3
		C796.8,439.4,796,439.3,795.5,438.4z"/>
	<path class="st2" d="M432.3,416.3c2.2,0.4,4.3,0.6,6.5,0.1c2.6-0.6,2.9-0.1,2.6,3.1c-0.7,0.2-1.2-0.3-1-0.7
		c0.9-2.6-1.1-1.7-2.3-1.6C436.1,417.4,434,418.1,432.3,416.3z"/>
	<path class="st2" d="M973.5,185.7c-3.6,1.4-7.2,2.7-10.8,4.1C965.8,187.2,969.4,186,973.5,185.7z"/>
	<path class="st2" d="M660.8,425.4c0.8,0,1.6,0.1,1.5,1c-0.1,1-0.7,1.7-1.8,1.6c-1-0.1-2.2-0.3-2.2-1.3
		C658.5,425.5,659.9,425.6,660.8,425.4z"/>
	<path class="st2" d="M354.5,366c-0.2,0.2-0.5,0.6-0.7,0.6c-3.5-0.2-7.1,0.9-10.6-0.5C347,365.7,350.8,365.8,354.5,366z"/>
	<path class="st2" d="M918.8,226.1c-3.9,0.4-7.9,0.4-11.8,0C911,225.4,914.9,225.3,918.8,226.1z"/>
	<path class="st2" d="M1003.7,208.4c3.1,1.2,6.2,2.4,9.3,3.5C1009.4,211.9,1006.4,210.6,1003.7,208.4z"/>
	<path class="st2" d="M707.4,360.3c-0.2,0.6-0.8,1.2-1.3,1c-2.5-0.9-4.4-0.1-6.2,1.5c-0.2,0.2-0.8,0-1.3,0
		C701,360.1,704.1,359.8,707.4,360.3z"/>
	<path class="st2" d="M292.1,386.5c3.4-0.9,6.8-0.9,10.2-0.1C298.9,386.8,295.5,386.8,292.1,386.5z"/>
	<path class="st2" d="M1015.6,402.4c0.2-0.3,0.3-0.8,0.5-0.8c3.2-0.1,6.5-0.8,9.7,0.3C1022.4,402.7,1019,401.9,1015.6,402.4z"/>
	<path class="st2" d="M548.1,288.3c-0.9-0.2-1.8-0.5-1.8-1.6c0-0.9,0.8-0.9,1.5-0.9c1,0,1.7,0.2,1.7,1.3
		C549.5,287.9,549.1,288.3,548.1,288.3z"/>
	<path class="st2" d="M985.8,385.1c-2.8,1.5-5.9,1.9-9.1,1.5C979.7,385.7,982.7,385.2,985.8,385.1z"/>
	<path class="st2" d="M499.8,422c3.2,0.7,6.5,0.9,9.4,2.4C505.9,424.2,502.7,423.6,499.8,422z"/>
	<path class="st2" d="M712,432c1,0,1.7,0.5,1.8,1.3c0.1,0.8-0.5,1.4-1.5,1.5c-0.9,0.1-1.6-0.5-1.7-1.3
		C710.6,432.7,711.2,432.1,712,432z"/>
	<path class="st2" d="M482.9,417c2.8-1.5,7.5-1,9.1,0.9C489.2,416.2,485.9,417.4,482.9,417z"/>
	<path class="st2" d="M919.7,385.1c-2.8,1.6-5.8,2.2-9.1,1.5C913.6,386.1,916.6,385.6,919.7,385.1z"/>
	<path class="st2" d="M994.3,384.2c-2.4,1.3-4.9,1.4-7.5,0.8C989.3,384.2,991.8,384,994.3,384.2z"/>
	<path class="st2" d="M608.8,363.6c-3,1.2-6.1,1.1-9.2,0.1C602.7,363.2,605.8,363.3,608.8,363.6z"/>
	<path class="st2" d="M403.5,416.9c0.5-0.9,1.6-1.3,2.5-1c2.1,0.7,4.2,0.1,6.3,0.6c-1.4,1-3.1,0.8-4.5,0.4
		C406.2,416.4,404.9,416.5,403.5,416.9z"/>
	<path class="st2" d="M552.2,288c1,0.1,1.7,0.7,1.7,1.6c0,0.9-0.9,1.1-1.8,1.1c-0.9,0-1.6-0.4-1.5-1.3
		C550.7,288.6,551.2,288.1,552.2,288z"/>
	<path class="st2" d="M717,360.1c-2.7-0.6-5.3,0.5-8,0.1C711.6,359.5,714.3,357.9,717,360.1z"/>
	<path class="st2" d="M1125.5,345.5c0.5-1.9,0.6-3.9,0-5.8C1127.8,342,1127.8,343.3,1125.5,345.5z"/>
	<path class="st2" d="M1126.5,401.4c-0.2-1.4-1.3-1-2.2-1.1c-0.9-0.1-2.2,0.6-2.6-0.9c2.4,0.1,4.8-0.2,7.4,0.7
		C1128.2,400.9,1127.4,401.2,1126.5,401.4z"/>
	<path class="st2" d="M1125.5,339.8c-0.8,0.1-1.7-0.3-1.6-0.9c0.4-1.6,0.3-3.4,2-4.5C1126.3,336.2,1123.9,337.8,1125.5,339.8z"/>
	<path class="st2" d="M873.7,194.6c1.9-1.2,3.9-2.3,6-3.2C878.2,193.2,876.2,194.3,873.7,194.6z"/>
	<path class="st2" d="M487.2,313.9c-0.7,0.3-1.4,0.6-2.1,0.4c0-0.5,0.1-1,0.1-1.5c-0.1-1.2,0.5-1.8,1.7-1.6c1.6,0.3,0.7,1.2,0.4,1.9
		C487.3,313.4,487.2,313.6,487.2,313.9z"/>
	<path class="st2" d="M1014.2,330.9c-1.5-1.4-2.7-2.9-3.4-4.7C1012.6,327.4,1013.8,328.9,1014.2,330.9z"/>
	<path class="st2" d="M880.6,190.7c1-1.9,2.8-3,4.8-3.9C884.2,188.5,882.6,189.7,880.6,190.7z"/>
	<path class="st2" d="M1124.4,357.7c-1.8,1.2-3.6,1.4-5.4,0C1120.8,357.7,1122.6,357.7,1124.4,357.7z"/>
	<path class="st2" d="M417.9,416.9c2.5-1.4,4.5-0.5,6.5,1C422.2,417.4,420.1,416.6,417.9,416.9z"/>
	<path class="st2" d="M396.1,416.3c2.3-1,4.4-0.4,6.5,0.6C400.4,416.7,398.2,416.5,396.1,416.3z"/>
	<path class="st2" d="M1009.3,324.8c-2.2-0.7-3.6-2-4.3-4C1006.6,321.9,1008.2,323.1,1009.3,324.8z"/>
	<path class="st2" d="M594.5,290.4c-0.1,1-0.6,1.5-1.7,1.5c-0.7,0-1.4-0.1-1.1-0.9c0.3-0.8,0.4-1.8,1.8-1.7
		C594.3,289.4,594.5,289.7,594.5,290.4z"/>
	<path class="st2" d="M926,227c-1.9,0.8-3.6,0.1-5.3-0.8C922.5,225.9,924.3,226.4,926,227z"/>
	<path class="st2" d="M476.6,418.4c1.4-1.7,3.3-1.5,5.2-1.3C480.3,418.2,478.3,417.7,476.6,418.4z"/>
	<path class="st2" d="M1052.9,331.3c-1.8,0.8-3.6,0.8-5.4,0C1049.3,330.9,1051.1,330.9,1052.9,331.3z"/>
	<path class="st2" d="M1118.5,388.8c-1.8,0.8-3.6,0.8-5.4,0C1114.9,388,1116.7,388,1118.5,388.8z"/>
	<path class="st2" d="M1123.3,391.4c0.3-0.7,0.7-1.3,1-2c0.4,0.1,0.9,0.1,1.2,0.2c0.5,0.2,1.4,0.1,1.3,0.9c-0.1,0.6-0.8,0.8-1.5,0.8
		C1124.7,391.4,1124,391.4,1123.3,391.4z"/>
	<path class="st2" d="M493.6,417.9c2.2-0.9,3.2-0.3,4.3,2.4C496.5,419.5,495.7,417.7,493.6,417.9z"/>
	<path class="st2" d="M563.5,364.1c-1.6,1.1-3.2,1-4.9,0C560.3,363.7,561.9,363.6,563.5,364.1z"/>
	<path class="st2" d="M1092.4,390.3c-1.7,0.8-3.3,1-4.9-0.2C1089.1,389.8,1090.8,389.6,1092.4,390.3z"/>
	<path class="st2" d="M429,417.1c0.6-0.9,0.2-2.4,2-2.4c1.2,0,1.4,0.7,1.3,1.7C430.6,414.2,430.1,416.9,429,417.1z"/>
	<path class="st2" d="M1017.4,202.2c-2.1,0.2-3.6-0.6-4.4-2.5C1014.5,200.6,1015.9,201.4,1017.4,202.2z"/>
	<path class="st2" d="M755.2,416.8c1.3,0.1,2.7-0.3,3.9,0.3C757.8,417.4,756.3,418.4,755.2,416.8z"/>
	<path class="st2" d="M1116.4,357.7c-1.1,1.1-2.3,1.5-3.7,0.8C1113.8,358,1115,357.4,1116.4,357.7z"/>
	<path class="st2" d="M1006.1,222.3c-1.7-0.3-2.7-1.4-3.3-2.8C1004.2,220.1,1005.3,221.1,1006.1,222.3z"/>
	<path class="st2" d="M202.5,378.4c2.1,1.1,1,2.8,0.8,4.3C202,381.4,202.9,379.8,202.5,378.4z"/>
	<path class="st2" d="M1074.3,389.8c-1.5,0.7-3,1.3-4.3-0.4C1071.4,389.2,1072.9,389,1074.3,389.8z"/>
	<path class="st2" d="M1104.1,389.8c-1.3,0.8-2.5,0.8-3.8,0C1101.6,388.9,1102.8,389,1104.1,389.8z"/>
	<path class="st2" d="M1109.9,389.3c-1.1,1.7-2.4,1.1-3.8,0.4C1107.4,389.1,1108.7,389.3,1109.9,389.3z"/>
	<path class="st2" d="M1030.5,407.2c-1.5,0.9-2.7,0.4-3.8-0.6C1028.1,406.3,1029.3,406.6,1030.5,407.2z"/>
	<path class="st2" d="M1017.7,405.9c-1.1,1.1-2.2,1.8-3.2-0.1C1015.6,405.9,1016.7,405.9,1017.7,405.9z"/>
	<path class="st2" d="M1126.4,334.2c1-1.6,2.3-0.8,3.6-0.5C1129,334.6,1127.7,334.5,1126.4,334.2z"/>
	<path class="st2" d="M197.5,372c0.2,1.3,0.5,2.6,0.7,3.9C197.2,374.8,196,373.6,197.5,372z"/>
	<path class="st2" d="M1123.2,376.5c0.4-0.7,0.4-1.7,1.3-2.2C1124.6,375.3,1125,376.5,1123.2,376.5z"/>
	<path class="st2" d="M472.8,421.2c0.5-1.2,1.6-1.6,2.8-1.8C475,420.5,473.9,420.8,472.8,421.2z"/>
	<path class="st2" d="M513.7,391.5c1.2,0.1,2.3,0.3,1.8,1.9C514.8,392.8,514.1,392.3,513.7,391.5z"/>
	<path class="st2" d="M753.3,414.7c1.6-0.5,2.1,0,1.8,1.5C754.5,415.7,753.9,415.2,753.3,414.7z"/>
	<path class="st2" d="M1024.7,406.3c-0.9,0.7-1.7,0.8-2.1-0.4C1023.3,405.6,1024.1,405.7,1024.7,406.3z"/>
	<path class="st2" d="M414.6,416.4c0.9-0.2,1.7-0.4,2.3,0.5C416.1,417.2,415.3,417,414.6,416.4z"/>
	<path class="st2" d="M1123,393.2c-0.8,0.2-1.2-0.1-1.2-0.9c0-0.7,0.5-1,1.2-0.8C1122.8,392.1,1122.8,392.6,1123,393.2z"/>
	<path class="st2" d="M188.7,399.3c0.5-0.7,1-0.7,1.6,0C189.7,399.8,189.2,399.8,188.7,399.3z"/>
	<path class="st2" d="M425.1,418c0.7-0.3,1.4-0.3,2.1,0C426.5,418.6,425.8,418.6,425.1,418z"/>
	<path class="st2" d="M1132.6,332.1c-0.1-0.5-0.2-1.1-0.3-1.6c0.6-0.2,1-0.1,1.2,0.5C1133.6,331.7,1133.4,332.1,1132.6,332.1z"/>
	<path class="st2" d="M1014.5,404.8c-0.6-0.7-0.2-0.9,0.5-1C1015.2,404.4,1015,404.7,1014.5,404.8z"/>
	<path class="st2" d="M510.5,388.9c0.8-0.1,1.2,0.2,1.2,1C511,389.9,510.6,389.6,510.5,388.9z"/>
	<path class="st2" d="M896.7,177.4c0-0.8,0.4-1.1,1.2-1C897.8,177.1,897.4,177.4,896.7,177.4z"/>
	<path class="st2" d="M201.1,377.6c0.8-0.3,1.3-0.1,1.4,0.8C201.9,378.4,201.4,378.2,201.1,377.6z"/>
	<path class="st2" d="M199,376.7c0.8-0.3,1.3-0.1,1.4,0.7C199.7,377.5,199.3,377.2,199,376.7z"/>
	<path class="st2" d="M1082.3,390c-0.2,0.7-0.5,1-1.1,0.3C1081.4,389.8,1081.8,389.8,1082.3,390z"/>
	<path class="st2" d="M892,181.4c0-0.8,0.4-1.1,1.2-1C893,181.1,892.6,181.4,892,181.4z"/>
	<path class="st2" d="M1098.8,390c-0.2,0.7-0.5,1-1.1,0.3C1098,389.9,1098.4,389.9,1098.8,390z"/>
	<path class="st2" d="M1080.1,390.6c-0.3,0.7-0.7,0.8-1.1,0.2C1079.3,390.4,1079.7,390.3,1080.1,390.6z"/>
	<path class="st2" d="M887.1,185.4c0-0.8,0.4-1.1,1.2-1C888.2,185,887.8,185.4,887.1,185.4z"/>
	<path class="st2" d="M497.9,420.4c0.8,0,1.1,0.3,1,1.1C498.3,421.3,497.9,421,497.9,420.4z"/>
	<path class="st0" d="M577.8,390.4c3.2-1,6.3-0.9,9.2,0c4.7,1.4,9.3,1.2,13.9,0c1.9-0.5,3.7-0.4,5.7,0.1c3.3,0.9,6.8,1,10.3,0.7
		c1.5-0.1,3-0.4,3.6-2.1c0.1-0.3,0.4-0.6,0.7-0.7c4-1,8-2.7,12.1-0.8c5.9,2.7,11.6,1.6,17.1-0.9c2.5-1.1,5.1-1.7,7.9-2
		c5.4-0.6,10.7-1.5,16.1-1.2c0.8,0,1.6,0,2.4,0.1c0.7,0.1,1.5,0.3,1.5,1.1c0.1,0.7-0.6,1-1.1,1.3c-2.4,1.4-4.9,2.3-7.6,2.8
		c-3.6,0.6-7.2,1.3-10.7,1.9c-2.1,0.4-4.4,0.5-6,1.8c-2.5,2-5.4,2.2-8.4,2.2c-13,0.1-26.1,0.4-39.1,0.6c-5.1,0.1-10.1-0.4-14.9-1.9
		c-1.5-0.4-3-0.4-4.5-0.4C582.9,393.4,580.3,392.1,577.8,390.4z"/>
	<path class="st0" d="M891.6,332.8c-2.4,0-4.7,0-7.1,0c-36.1,0.3-72.1,0.6-108.2,1c-2.5,0-3.7-0.7-4.2-2.9c-0.4-1.7-1.2-3.3-1.5-5
		c-0.6-3.1-0.1-6,2-8.8c4.5-6,8.6-12.2,13.4-18c3.2-3.9,5.1-8.3,6.5-13c0.6-1.9,1.6-3.5,2.6-5.2c4.3-6.9,9.5-13.4,13.6-20.5
		c3.6-6.3,5.9-13.2,9.7-19.4c4.7-7.8,9.9-15.4,13.5-23.7c0.7-1.6,1.9-1.3,3-0.6c2,1.3,3,3.2,3.6,5.4c3,11.1,9,20.9,15.6,30.4
		c4,5.7,9.4,10.1,15.1,14.3c1.1,0.8,2,1.4,2,3c0.3,9.1,3.7,17.2,10.3,24c1.7,1.8,3.2,3.8,4.8,5.6c1.1,1.2,0.5,1.6-0.7,1.8
		c-7.4,1.2-14.8,2.2-22.3-0.2c-6.7-2.2-13.8-2.9-20.7-4.5c-4.2-1-8,1.1-11.6,3c-1.8,0.9-1.3,2.8-0.2,4.2c0.9,1.3,2.2,2.2,3.7,2.8
		c6.2,2.4,11.7,6,17,9.7c6.6,4.6,13.6,3.5,20.4,0.9c2.3-0.9,4.4-1.5,6.9-1.3c5.4,0.5,10.6,1.9,16.1,1.9c1.5,0,1.5,0.7,1.1,1.8
		c-1.2,2.9-2.4,5.8-4.4,8.2C890.3,329.3,889.8,330.7,891.6,332.8z"/>
	<path class="st0" d="M962.2,279.2c-4.7,0-11.6,0-18.5,0c-2.9,0-5.7,0.5-8.3,1.7c-4.9,2.3-5.9,6.4-2.3,10.1c1.2,1.3,0.9,1.7-0.5,2.3
		c-3.1,1.3-6.2,2.4-9.6,2.6c-4.4,0.3-8.8,0.7-13.2,1.3c-1.7,0.2-2.3-0.3-2.9-1.8c-1.6-4.4-3.5-8.7-5.2-13.1
		c-2.7-6.8-7.2-12.6-12-18.2c-4.4-5.1-6.4-11-7.4-17.3c-0.2-1.5-0.4-3-0.8-4.4c-0.5-1.8,0-2.2,1.9-1.9c5.8,1.1,11.8,1.5,17.7,1.9
		c5.1,0.3,10.1,0.5,15.2-0.1c10.3-1.3,20.3,0.9,30.4,2.4c4.7,0.7,9.5,1.4,14.2,2c1.8,0.2,2.7,0.6,2.8,2.5c0.1,2.3,1,4.4,2,6.4
		c0.9,1.7,1.8,3.3,3.9,3.9c8.3,2.2,13.2,7.8,16.6,14.7c0.7,1.4,1.2,2.8,1.8,4.1c0.6,1.3,0.7,1.9-1.3,1.8
		C979.3,279.8,971.8,279.5,962.2,279.2z"/>
	<path class="st0" d="M674.9,190.7c-2.5-0.1-6.4,1.1-10.2,2.6c-0.6,0.2-1.1,0.5-1.7,0.6c-4.8,0.5-6.8,3.6-8,7.5
		c-0.1,0.3-0.3,0.7-0.3,0.9c0.7,4-1.2,7.7-1.3,11.7c0,1,0.2,2.6-1.1,2.8c-1,0.2-1.4-1.3-2-2.1c-2.6-3-5-6-7.6-9
		c-0.8-0.9-1.3-1.5-0.5-2.8c2.5-4,4.2-8.3,4.5-12.9c0.2-2,1.5-1.9,3-1.9c18.8-0.8,37.6-1.7,56.4-2.5c5.1-0.2,10.1-0.4,15.2-0.7
		c1.7-0.1,2.4,0.4,2.4,2.1c0.1,3.5,0.7,7,2,10.3c0.4,1.1,0,1.8-0.7,2.4c-5.1,4.7-9.2,10.4-15,14.4c-2.7,1.9-3.9,5.1-5.7,7.8
		c-2,3-4.5,5.5-7.2,8c-0.9,0.9-1.7,1.2-2.6,0c-1.4-1.9-4.7-2.5-4.9-4.7c-0.3-2.5,3.2-2.9,4.7-4.5c2.3-2.4,3.8-4.9,4.1-8.2
		c0.2-3.3,0.9-6.6,0.2-9.9c-1.1-5.6-5.5-8.1-10.5-9.9C684.4,191.4,680.5,190.8,674.9,190.7z"/>
	<path class="st0" d="M980.1,323.6c-3.4,0.3-6.6,0.7-9.7,1.8c-3.1,1.1-5.8,2.6-7.5,5.3c-0.7,1.1-1.6,1.3-2.8,1.3
		c-8.7,0.1-17.4,0.1-26.1,0.2c-1.3,0-2.4-0.3-3.3-1.2c-1.1-1.1-2.3-2.1-3.5-3.1c-2.2-1.9-3.8-3.8-3.1-6.9c0.5-2-0.5-3.5-2.7-4.2
		c-0.6-0.2-1.2-0.6-1.9-0.9C939.9,307.8,966.9,312.3,980.1,323.6z"/>
	<path class="st0" d="M855.8,165.8c1-3.6,2.6-6.9,4.4-10.2c1.8-3.1,3.7-6,5.5-9.1c0.8-1.3,1.5-1.6,2.8-0.6c6,4.4,11.8,9.1,18.3,12.8
		c2.1,1.2,3.2,3.3,4.5,5.2c0.6,0.8,0.1,1.2-0.5,1.7c-6.3,5-11,11.2-15.8,17.4c-1.1,1.5-2,1.8-3.9,1.1c-3.1-1.2-6.3-2.1-9.5-3.2
		c-0.9-0.3-1.7-0.5-1.9-1.5c-0.8-4.3-2.5-8.5-3.8-12.7C855.9,166.4,855.9,166.1,855.8,165.8z"/>
	<path class="st0" d="M697.1,334.3c-2.3,0.5-4.6,0.2-6.9,0.3c-5,0.1-9.9,0.1-14.9,0.2c-1.1,0-2.1,0.1-2.9-0.9
		c-5-6.2-11.5-11.1-16.9-16.9c-0.4-0.5-1.3-0.7-1-1.8c4.7,0.8,9.3,1.8,14.1,2.2c5.6,0.5,10.6,1.4,13.5,6.8c1.1,2,3.6,3.1,5.9,4.1
		C692.3,329.9,694.9,331.8,697.1,334.3z"/>
	<path class="st0" d="M811.4,38.2c0-1.8,0.4-3.5,1.2-5.2c0.7-1.6,1.7-1.8,3-0.6c1.6,1.5,0.8,7.5-1.1,8.6c-0.8,0.5-1.5-0.1-2.2-0.3
		C811.1,40.1,811.2,39.2,811.4,38.2z"/>
	<path class="st0" d="M796.5,32.9c2.5,2,3.8,4.1,4.2,6.7c0.1,0.8-0.1,1.3-0.9,1.5c-0.8,0.2-1.1-0.3-1.4-0.9
		C797.3,38.1,796.5,35.9,796.5,32.9z"/>
</g>
</svg>
