<?xml version="1.0" encoding="utf-8"?>
<!-- Generator: Adobe Illustrator 19.2.0, SVG Export Plug-In . SVG Version: 6.00 Build 0)  -->
<svg version="1.1" id="Layer_1" xmlns="http://www.w3.org/2000/svg" xmlns:xlink="http://www.w3.org/1999/xlink" x="0px" y="0px"
	 viewBox="0 0 1280 800" style="enable-background:new 0 0 1280 800;" xml:space="preserve">
<style type="text/css">
	.st0{fill:#CDCDCD;}
	.st1{fill:#E3E3E3;}
	.st2{fill:#727272;}
	.st3{fill:#1C1C1C;}
	.st4{fill:#010101;}
</style>
<g>
	<path class="st0" d="M478.6,131.4c-0.5,0-1.1,0-1.6,0c-3.7-0.3-7.3,0.4-10.8,1.6c-4.5,1.4-9.1,2.3-13.8,2.7
		c-2.8,0.3-4.7-2.8-3.5-5.4c0.6-1.3,1.4-2.6,2.6-3.6c5.7-4.6,11.9-8.3,17.5-13.2c3.7-3.3,8.1-5.4,11.4-9.5c1.7-2.1,1.8-3.6-0.1-5.5
		c-6.3-6.4-11.8-13.6-17.7-20.4c-3.2-3.7-6.6-7.1-9.2-11.3c-3.3-5.4-8-6.6-13.1-5.6c-9.4,1.8-18.7,3.9-28,6
		c-0.9,0.2-1.9,0.8-2.5-0.3c-0.6-1.2,0.5-1.8,1.1-2.6c0.4-0.5,0.8-0.9,1.3-1.2c9-6.7,18.2-13.1,26.9-20.3c3.2-2.7,6.5-5.2,9.9-7.4
		c5.8-3.7,11.4-7.7,16.9-11.7c5.4-3.9,10.8-8,16.3-11.8c2.8-1.9,4.3-1.3,6.3,1.8c3.1,4.6,6.2,9.2,9.3,13.7c4.6,6.6,9.4,13,13.9,19.6
		c4.6,6.7,9,13.7,13.6,20.4c8.8,12.8,17.8,25.5,26.6,38.4c3.4,4.9,6.2,5.8,11.2,3.2c1.7-0.9,3.4-1.7,5-2.6
		c13.9-7.3,28.2-13.8,42.6-19.7c10.5-4.3,21.2-8.2,32.1-10.7c4.2-1,8.2-3.1,12.5-3.4c8.4-0.6,16.5-3.9,24.9-4.8
		c3.9-0.4,4.6-0.2,4.6,4.4c0,22.6,0,45.3,0,67.9c0,2,0,4,0.4,6c0.5,2.2-0.1,4.6-2,5.4c-3.5,1.4-6.7,4.2-10.6,4
		c-1.3-0.1-2.1,0.6-2.7,1.8c-1.3,2.8-2.4,5.6-2.3,9c0.1,7.1-0.1,14.2,0.1,21.4c0.1,4.9-2,7.8-5.4,9.8c-1.6,0.9-3.4,1.4-5.2,2
		c-1.1,0.4-2.2,0.6-2.7,1.9c0,0,0,0,0,0c-0.5-0.1-1-0.2-1.5-0.4c0.4-2.3,2.2-2.3,3.6-2.9c6.8-2.7,9.3-6.1,9.5-12.6
		c0.3-9.5-0.4-18.9,0.5-28.4c0.8-8.1,0.2-16.3,0.1-24.5c0-4.4-3-7.3-6.8-6.5c-3.4,0.7-6.9,1.2-10.3,1.9c-15,3.2-29.8,6.9-44.2,13.1
		c-7,3-14.2,5.1-20.8,9.2c-3.4,2.1-6.8,4.1-10.4,5.8c-4.4,2.2-6.6,1.6-9-2c-4.3-6.6-9.3-12.4-13.6-19c-6.4-9.9-13.5-19.3-20.2-29.1
		c-4.3-6.4-8.6-12.9-13-19.2c-2.9-4.1-5.7-4.6-9.5-1.5c-3.4,2.7-6.8,5.3-10.4,7.7c-4.6,3-9,6.2-13.3,9.7c-1,0.8-1.8,1.6-1.3,3.2
		c-2.1,1.6-4.1,3.1-6.2,4.7c-0.1-0.4-0.3-0.9-0.7-0.5c-0.5,0.4-0.2,0.8,0.1,1.2c-0.1,0.1-0.2,0.3-0.4,0.3c-1.1-1.3-2.1-0.3-2.9,0.4
		c-6.8,5.3-13.8,10-20.4,15.8c-1.4,1.2-3.9,2.1-3.1,4.6c0.9,2.8,3.6,1.9,5.4,1.5c8.1-1.7,16.2-3.6,24.4-4.7c3-0.4,5.2,0,7.5,2.5
		c9.4,10.2,17.6,21.7,26.6,32.4c4.5,5.3,8.7,10.9,13.2,16.2c1.7,2,1.7,4-0.1,5.8c-1.6,1.6-3.2,3.1-4.9,4.7
		c-9.2,8.7-18.9,16.8-27.3,26.7c-4.6,5.4-8.9,11-13.4,16.5c-7.4,9.2-14.4,18.8-20.4,29.2c-7.7,13.3-14.2,27.5-20,42
		c-3.5,8.6-6.4,17.6-9,26.6c-6.3,22.2-9.2,45-9.6,68.4c-0.2,9.9,0.6,19.7,0.7,29.6c0,3,0.2,6.1,0.6,9.2c1.4,11.1,3.4,22.1,5.9,32.9
		c1.8,7.9,4.3,15.5,6.8,23.1c3,9,6.8,17.6,10.5,26.2c2.8,6.8,6.8,12.9,9.7,19.6c1.1,2.6,2.2,5.1,3.8,7.3
		c6.5,9.1,13.1,18.3,19.7,27.4c8.6,11.7,18,22.5,28.1,32.3c9.4,9.1,19.2,17.4,29.5,25c4.3,3.1,8.8,5.9,12.8,9.2
		c5.6,4.6,11.6,8.3,17.7,11.5c7.2,3.7,14.3,7.9,21.8,10.8c0.2,0.1,0.3,0.7,0.5,1c-3.2,0.1-5.8-1.9-8.5-3.2c-6-2.8-12.1-5.5-17.9-8.9
		c-5-3-9.8-6.6-14.6-10c-8.4-5.8-17-11.4-24.9-18.1c-7.9-6.7-15.8-13.5-22.8-21.5c-2.2-2.5-4.2-5.2-6.5-7.4
		c-5.6-5.1-10-11.5-14.8-17.5c-5.7-7.2-10.6-15.2-16.9-21.8c-0.8-0.8-1.5-1.9-2.6-1.1c-1,0.8-0.6,2.1-0.3,3.2
		c0.4,1.9,1.5,3.4,2.1,5.1c1.5,3.9,1.5,8.3,2.8,12.2c2.3,7,3.9,14.2,6.2,21.2c2.8,8.6,5.9,17,9.2,25.3c3.2,7.9,6.1,16,9.8,23.7
		c2.9,6,5.6,12.1,9,17.8c5.1,8.5,10.4,16.9,15.6,25.3c7.1,11.7,15.4,22.1,23.7,32.5c6.3,7.9,13.2,15.3,20.1,22.6
		c5.5,5.8,11.5,11.2,17.3,16.6c4.1,3.8,8.5,7.4,12.7,11.1c0.9,0.8,2.1,1.7,1.5,3c-0.6,1.3-2,0.8-3,0.3c-6.1-2.7-12-5.8-18-8.8
		c-5.6-2.8-11.3-5.5-16.8-8.7c-4.8-2.8-9.6-5.8-14.2-9c-3-2-5.8-4.4-8.8-6.4c-4.3-2.9-8.7-5.9-12.8-9.1
		c-10.1-7.9-20.2-15.7-29.7-24.7c-9.1-8.7-17.9-17.9-26.5-27.2c-5.4-5.8-10.4-11.9-15.2-18.3c-6.7-8.9-13-18.3-19.2-27.7
		c-1.8-2.7-3.2-5.7-5.1-8.3c-3.9-5.2-6.9-11.2-10.2-16.9c-3-5.2-5.4-11.1-7.9-16.8c-3.4-7.8-6.4-15.8-10-23.6
		c-1.1-2.5-2.5-4.9-3.1-7.8c-1.1-4.8-3-9.3-4.5-13.9c-2.4-7.6-5.5-14.9-6.7-22.9c-0.6-3.7-2.9-6.7-3.1-10.4
		c-0.5-9.6-3.5-18.7-4.2-28.4c-0.6-7.4-2.7-14.6-2.4-22c0.3-11.2-1.4-22.3-0.7-33.6c0.6-10.3,0.3-20.8,1.3-31.1
		c0.7-7.4,1.9-14.8,2.7-22.2c0.6-6.1,2.9-11.8,3.2-18c0.1-2.2,0.2-4.5,1-6.5c1.3-3.1,2.1-6.4,2.9-9.8c1.5-6.4,3.6-12.5,5.5-18.8
		c2.1-6.9,4.3-13.8,7.1-20.2c3.6-8.3,6.8-16.9,10.5-25.1c5.2-11.3,10.7-22.4,17.1-32.8c4.6-7.4,9.2-14.7,14.2-21.8
		c5-7.1,9.6-14.7,15.3-21.2c9.7-11.3,19.7-22.3,30-32.8c5.3-5.4,10.6-10.7,16.5-15.2c4.8-3.6,4.9-5.3,0.9-10.4
		c-2.6-3.3-5.5-6.3-8.2-9.5c-0.6-0.7-1.2-1.3-1.7-2.1C485,129.6,483,129.1,478.6,131.4z"/>
	<path class="st1" d="M478.6,131.4c4.4-2.3,6.3-1.8,9.2,2.4c0.5,0.7,1.1,1.4,1.7,2.1c2.7,3.2,5.6,6.2,8.2,9.5
		c4,5.1,3.9,6.7-0.9,10.4c-5.9,4.5-11.2,9.8-16.5,15.2c-10.4,10.5-20.3,21.5-30,32.8c-5.6,6.6-10.2,14.1-15.3,21.2
		c-5,7-9.6,14.4-14.2,21.8c-6.4,10.4-11.9,21.5-17.1,32.8c-3.8,8.2-6.9,16.8-10.5,25.1c-2.8,6.4-5,13.4-7.1,20.2
		c-1.9,6.2-4,12.4-5.5,18.8c-0.8,3.4-1.6,6.6-2.9,9.8c-0.8,2-0.9,4.3-1,6.5c-0.2,6.2-2.5,11.9-3.2,18c-0.8,7.4-2,14.8-2.7,22.2
		c-1,10.3-0.7,20.7-1.3,31.1c-0.6,11.3,1.1,22.4,0.7,33.6c-0.2,7.5,1.9,14.7,2.4,22c0.7,9.6,3.7,18.7,4.2,28.4
		c0.2,3.7,2.5,6.7,3.1,10.4c1.2,8,4.3,15.3,6.7,22.9c1.5,4.6,3.4,9.1,4.5,13.9c0.7,2.8,2,5.2,3.1,7.8c3.5,7.8,6.5,15.8,10,23.6
		c2.5,5.7,4.9,11.6,7.9,16.8c3.3,5.7,6.3,11.7,10.2,16.9c1.9,2.5,3.3,5.6,5.1,8.3c6.2,9.5,12.4,18.8,19.2,27.7
		c4.8,6.4,9.9,12.6,15.2,18.3c8.7,9.3,17.4,18.5,26.5,27.2c9.4,9,19.6,16.8,29.7,24.7c4.1,3.2,8.5,6.2,12.8,9.1c3,2,5.8,4.4,8.8,6.4
		c4.7,3.2,9.4,6.2,14.2,9c5.5,3.2,11.2,5.9,16.8,8.7c6,3,11.9,6.1,18,8.8c1,0.4,2.4,0.9,3-0.3c0.6-1.3-0.6-2.2-1.5-3
		c-4.3-3.7-8.6-7.3-12.7-11.1c-5.9-5.4-11.8-10.8-17.3-16.6c-6.9-7.3-13.8-14.6-20.1-22.6c-8.3-10.4-16.6-20.9-23.7-32.5
		c-5.2-8.5-10.5-16.8-15.6-25.3c-3.4-5.7-6.1-11.8-9-17.8c-3.7-7.7-6.6-15.8-9.8-23.7c-3.3-8.3-6.5-16.7-9.2-25.3
		c-2.3-7-3.9-14.3-6.2-21.2c-1.3-4-1.2-8.3-2.8-12.2c-0.7-1.7-1.7-3.2-2.1-5.1c-0.2-1.1-0.6-2.5,0.3-3.2c1-0.8,1.8,0.3,2.6,1.1
		c6.3,6.6,11.2,14.6,16.9,21.8c4.8,6,9.2,12.4,14.8,17.5c2.4,2.2,4.4,4.9,6.5,7.4c7,8,14.8,14.8,22.8,21.5
		c7.9,6.7,16.5,12.3,24.9,18.1c4.9,3.3,9.6,7,14.6,10c5.7,3.5,11.8,6.2,17.9,8.9c2.8,1.3,5.4,3.3,8.5,3.2c1.8,0.1,3.4,0.9,4.9,2
		c2.6,3.1,6.1,2.6,9.3,3c2.2,0.3,2.9-1.2,1.8-3.6c-1.7-3.8-4.6-5.7-8-7c-0.3-0.2-0.6-0.5-1-0.7c0-1.4-0.6-2-1.8-1.8
		c-0.1,0-0.3,0-0.4-0.1c-0.9-2.3-2.7-3.1-4.6-3.8c-0.1,0-0.3,0-0.4-0.1c0-0.9-0.5-1.3-1.2-1.2c-0.2,0-0.3,0-0.4-0.1
		c-0.1-1.3-0.6-1.9-1.8-1.8c-0.4,0-0.8-0.2-1-0.7c-0.1-1.4-0.7-2-1.9-1.8c-0.1,0-0.3,0-0.4-0.1c0-1-0.4-1.3-1.2-1.2
		c-0.3-0.2-0.7-0.5-1-0.7c0-1-0.4-1.4-1.2-1.2c-1.1-0.1-1.5-1.2-2.1-2c-0.1-1.6-0.9-2.6-2.4-2.5c-0.7-0.1-1.3-0.5-1.5-1.3
		c0-1-0.4-1.4-1.2-1.2c-1.3-0.3-2-1.4-2.6-2.6c-1.8-4.4-5.5-6.8-8.1-10.3c-0.6-0.8-1.2-1.9-2.4-1.8c-3.4-3.3-6.5-7-9.3-11
		c0-1.4-0.3-2.4-1.8-2.4c-1.1-0.9-2.1-1.9-2.7-3.3c0-1-0.1-1.9-1.2-1.8c-0.3-0.5-0.7-0.9-1-1.4c0.1-1.4-0.2-2.4-1.7-2.5
		c-0.2-0.4-0.4-0.7-0.6-1.1c0.1-1-0.2-1.5-1.1-1.4c-0.4-0.2-0.6-0.6-0.6-1.1c0.1-0.9-0.2-1.4-1-1.4l0,0c-0.2-2.1-0.8-3.8-2.7-4.5
		c-0.1-0.1-0.1-0.3-0.1-0.5c0.1-0.9-0.2-1.4-1-1.4c-0.1-0.1-0.1-0.3-0.1-0.5c0.2-1.4-0.4-2-1.6-2.1c-0.1-0.1-0.1-0.3-0.1-0.4
		c0.1-0.9-0.2-1.4-1-1.5c-0.1-0.1-0.1-0.3-0.1-0.5c0.1-0.9-0.2-1.4-1-1.5c-0.1-0.1-0.1-0.3-0.1-0.5c-1-3.3-2-6.6-4.9-8.4
		c-0.1-0.1-0.1-0.3-0.1-0.5c0.1-0.9-0.2-1.4-1-1.4c-0.6-1.4-1.2-2.8-1.8-4.2c0-1.7-0.7-2.8-2.1-3.4c-1.1-2.3-1.9-4.8-3.4-6.9
		c0.1-0.8-0.1-1.3-0.8-1.5c-0.3-0.8-0.6-1.6-0.9-2.4c-0.2-2.2-1.3-3.8-2.7-5.2c-0.4-1.2-0.8-2.5-1.2-3.7c-0.6-3-2-5.6-3.2-8.3
		c-0.4-2.2-1-4.3-1.9-6.3c-0.3-2-0.4-4-1-5.9c-2.3-6.9-3.4-14.1-5-21.1c-3.1-14.2-5.2-28.5-5.5-43.2c-0.3-14.2-0.5-28.5,1.3-42.6
		c1.8-14.5,4.5-28.9,8.5-42.9c0.2-0.8,1.2-1.9,0-2.8c0.1-0.4,0.2-0.8,0.2-1.2c0.5-0.3,0.5-0.9,0.4-1.4c0.2-0.8,0.5-1.6,0.7-2.4
		c0.6-0.3,0.5-0.8,0.4-1.4c1.8-5,3.2-10.3,5.5-15.1c2.4-4.9,3.9-10.3,6.3-15.3c3.3-7.1,7.2-13.6,10.9-20.4
		c3.7-6.8,7.6-13.4,11.9-19.7c4.2-6.2,8.8-12,13.6-17.4c1.3,0.2,2-0.8,2.8-1.6c3.2-3.7,6.4-7.4,9.6-11.1c0.6-0.7,1.5-1.3,1.4-2.6
		c2.6-3.1,5-6.4,8-8.9c2.4-2,4.3-5.6,8.1-3.4c0,0.3-0.1,0.7,0.1,0.9c3.4,5.1,7.4,9.5,11.4,14c0.5,0.6,1.2,0.5,1.8,0.5
		c3.7,4.1,7.4,8.1,11,12.3c1.5,1.8,1.9,3.8-0.2,5.7c-0.9,0.8-1.6,1.8-2.5,2.4c-7.1,5-13.9,10.6-19.9,17.3c-1.8,0.4-2.8,1.8-3.4,3.7
		l0,0c-1.5,0.2-2.4,1.4-3.4,2.5c-3.3,3.5-5.8,7.9-9,11.6c-5.9,6.9-10.6,14.8-14.9,23.1c-3,5.6-5.2,11.6-7.7,17.5
		c-2,4.6-3.4,9.3-5.4,13.9c-0.3,0.7-0.7,1.5,0,2.3c0,0.4-0.1,0.8-0.1,1.3c-0.6,0.2-1.1,0.6-0.4,1.3c-0.1,0.4-0.1,0.8-0.2,1.3
		c-1,0.3-1.1,1.3-1.4,2.2c-1.4,3.6-2.1,7.4-2.5,11.3c-0.8,7.4-2.4,14.7-2.6,22.2c-0.2,10.7,1,21.3,2.3,31.9
		c0.9,7.4,3.4,14.3,5.3,21.2c1.5,5.3,3.9,10.4,6,15.6c3.1,8,6.8,15.5,11,22.7c0.8,1.4,1.4,3.3,3.1,3.8l0.1,0.1
		c0.3,2.7,1.6,4.6,3.8,5.7l0.1,0.1c0.2,2.3,1.6,3.5,3.2,4.4l0.1,0.1c0.1,1.6,0.7,2.7,2.1,3.1c2.9,2.7,5.5,5.7,7.9,9
		c2,3.8,4.8,6.6,7.7,9.2c2.1,1.9,3.7,4.6,6.6,5.3l0.1,0.1c1,2,2.4,3.3,4.3,3.8l0.1,0.1c0.2,1.4,1.1,1.8,2.2,1.8l0.1,0.1
		c0.1,1.1,0.8,1.2,1.6,1.2l0.1,0.1c0.2,1.4,1.1,1.8,2.2,1.8l0.1,0.1c0.4,1.6,1.5,1.7,2.7,1.9l0.1,0.1c0.2,1.4,1,1.8,2.1,1.8
		c0.2,0.2,0.4,0.5,0.7,0.7c0.7,1.9,2.3,2.2,3.8,2.5l0.1,0.1c0,1.9,1.4,2.3,2.4,3.1c1.2,0.9,2.7,1.5,3.9,2.4
		c6.2,4.9,13,8.1,19.7,11.7c3.9,2.1,6.3,1.4,7.5-0.9c1.1-2.3-0.2-5.4-3.4-8.1c-2.8-2.3-5.7-4.3-8.3-6.7c-5.3-5-10-10.9-14.9-16.5
		c-0.7-0.9-1.4-1.7-1.3-3l0.1-0.1c1,0.1,1.6,1,2.2,1.7c5.7,6.9,11.8,13.4,18.1,19.6c1.9,1.8,4.2,2.9,6.1,4.8
		c1.9,1.8,3.4,3.7,3.7,6.7c0.4,3.5-2.3,6.7-5.4,5.9c-4.1-1.2-8.2-2.3-11.5-5.7c-1.3-1.4-3.1-1.8-4.7-2.6
		c-8.1-4.1-15.1-10.2-22.5-15.7c-6-4.4-11.8-8.9-17.3-14.1c-3.4-3.2-6.9-6.3-9.6-10.5c-0.9-1.4-2.3-2.3-3.5-3.6
		c-6.2-7-11.5-14.8-16.8-22.7c-3.6-5.5-7.1-11.2-9.2-17.4c-1.7-5-4.4-9.5-5.4-14.8c-0.2-1.1-0.7-2.1-1.3-3.1
		c-1.2-2.2-2.4-4.4-2.6-7.2c-0.1-2.2-0.8-4.5-1.9-6.5c-2.2-4.1-1.8-9-2.8-13.4c-2.1-9.3-2.3-18.8-2.4-28.3
		c-0.1-8.3,1.3-16.4,2.4-24.5c0.9-6.3,2.7-12.1,4.4-18.2c1.7-6.5,4.4-12.4,6.8-18.5c1.8-4.4,3.2-8.9,5.2-13.2
		c3.8-8,8.1-15.5,13.5-22.2c3.9-4.9,7.7-10,11.8-14.7c4.8-5.5,9.6-11.2,15-15.9c4.1-3.6,7.9-7.9,13-9.9c2.4-0.9,2.6-2.8,0.8-4.8
		c-4-4.3-8.1-8.5-12.1-12.8c-3.4-3.6-6.3-7.7-9.3-11.7c-1.9-2.6-2.6-2.7-4.8-0.3c-4.1,4.5-8.4,8.8-12.5,13.3
		c-10.8,11.9-21.8,23.6-29.7,38.5c-3.2,6-7.4,11.3-10.5,17.4c-3.8,7.4-7.8,14.7-11.2,22.5c-1.8,4.1-3.1,8.5-5.1,12.6
		c-1.7,3.5-1.8,7.7-3,11.4c-3.3,9.9-5.6,20.3-7,30.8c-1,6.9-3.4,13.4-3.8,20.4c-0.1,0.7-0.3,1.5-0.3,2.2c0.1,11-1.1,22.1-0.5,33.1
		c0.7,11.7,0.3,23.4,3.7,34.8c2,6.9,2.7,14.4,4,21.6c0.9,5.2,2.8,10.1,4.4,15c0.8,2.4,1.6,4.7,1.7,7.3c0,1.3,0.3,2.6,1,3.6
		c1.4,2.2,1.4,5.2,2.6,7.2c2.5,4.4,2.9,10,6.3,13.8c1.1,1.2,1.2,3,2.1,4.5c3.9,6.8,7.5,13.8,11.5,20.5c6.8,11.3,13.7,22.6,22.4,32.1
		c2.7,3,5.1,6.4,7.8,9.5c7.6,8.8,15.6,17,24.5,24.1c5.7,4.5,11.1,9.4,17.1,13.2c1.9,1.2,3.1,3.6,4.1,5.9c1.1,2.6,0,5.1-2.4,5.6
		c-1.8,0.3-3.9,0.7-5.5-0.1c-2.9-1.6-6.1-2.3-9.1-3.4c-8.9-3.5-17.1-8.5-25.8-12.7c-4.2-2-7.9-5.3-11.9-7.8c-6-3.6-11.5-8.2-17.3-12
		c-4.9-3.2-9.8-6.6-14.4-10.4c-7-5.8-13.2-12.8-20.2-18.6c-0.5-0.4-1-0.9-1.5-1.5c-5.1-6-10.7-11.4-15.8-17.2c-2.8-3.2-5.3-7-8-10.5
		c-2.9-3.7-5.6-7.6-8.1-11.6c-0.5-0.8-1.1-2.2-2.4-1.4c-1.2,0.7-0.9,1.9-0.6,3c1.8,6.1,3.9,12.1,5.3,18.3c1.4,6,3.5,11.7,5,17.7
		c1.1,4.5,3.2,8.6,4.9,12.7c5.5,13.6,11.5,26.9,18.3,39.8c4.8,9.1,9.7,18.2,15.2,26.8c3.9,6,8.1,11.7,12.3,17.5
		c3.6,5,7.3,9.8,10.9,14.7c5.3,7.2,11.5,13.4,17.5,19.7c3.1,3.2,6.1,6.5,9.1,9.7c7.4,7.8,15.2,15,23.4,21.6c4.9,4,10.3,7.3,14.8,12
		c1.2,1.2,3.2,1.2,4.1,3c0.5,1,1.1,2,0.7,3.3c-0.5,1.4-1.6,1.1-2.6,1.2c-5.7,0.6-10.5-2.7-15.5-4.9c-9.8-4.1-19.4-9-28.9-14.1
		c-3.2-1.7-6.4-3.6-9.6-5.6c-8.9-5.7-17.8-11.3-26.6-17.2c-9.4-6.4-18.7-13.1-27.2-21c-7.6-7-15.3-13.8-22.8-20.9
		c-8.3-7.8-16-16.2-23.1-25.5c-3.6-4.7-7.4-9.1-11.2-13.6c-7.7-9.2-14.3-19.3-20.6-29.8c-3.5-5.9-7.2-11.8-10.4-17.9
		c-3.5-6.5-7.1-13-10.3-19.8c-3.2-7.1-6.6-14.1-9.5-21.4c-2.5-6.4-4.2-13.4-6.9-19.7c-2.5-5.8-3.7-12.1-5.3-18.1
		c-2.1-7.7-5.1-15.1-5.6-23.4c-0.2-3.8-2.4-7-2.9-10.8c-1.9-13.2-4.6-26.3-4.3-39.8c0.1-6.2-1-12.4-1.7-18.6
		c-0.6-5.1-0.2-10.1-0.1-15.2c0.2-5.3,1-10.5,1.3-15.8c0.7-12.2,1.2-24.4,3.3-36.5c1.5-8.8,4.2-17.3,5-26.2c0-0.2,0.1-0.4,0.2-0.6
		c2.8-6.1,3.4-13,5.6-19.4c1.8-5.2,3.4-10.6,4.8-16c1.2-5,3-9.8,4.9-14.5c5.2-12.7,10.4-25.5,17.1-37.3c4.1-7.3,8.6-14.5,12.7-21.9
		c4.6-8.2,9.7-15.9,15-23.5c2.7-3.9,5.4-7.8,8.4-11.3c5.5-6.5,10.7-13.5,16.3-19.9c5.9-6.8,11.9-13.5,18.7-19.2
		c5.2-4.5,10.1-9.4,15.1-14.3c1.4-1.4,3.8-1.5,4.1-4.3c0.3-2.8-2-3.3-3.1-4.9c-2.6-3.9-6.2-7-8.8-11c-0.7-1.1-1.8-1.3-2.9-1.4
		C481.3,131.8,479.9,132.4,478.6,131.4z"/>
	<path class="st1" d="M653.1,201.1c0.5,0.1,1,0.2,1.5,0.4c-0.2,1.9-1.5,2.6-2.8,3.1c-7.1,2.2-13,7.3-19.6,10.8
		c-4.4,2.3-8.6,5.5-13,8.1c-2.3,1.3-2,3.1-0.8,4.9c5,6.9,9.5,14.2,15,20.7c2.3,2.7,4.3,5.7,6.4,8.7c1.4,1.9,2.8,2.3,4.9,1.3
		c7.6-3.6,15.3-7.2,23.2-9.9c1.2-0.4,2.6-0.3,3.8-0.7c9.1-2.7,18.3-4.7,27.6-6.5c2.4-0.5,4.9-0.7,7.4-0.8
		c13.2-0.1,26.3-1.2,39.5-0.6c9,0.4,18.1-0.4,26.9,1.4c8,1.7,16.4,1.7,24.1,5.7c2.6,1.3,5.7,1.2,8.6,1.8c6.5,1.4,12.1,5.5,18.4,7.4
		c6.7,2,12.4,6.3,18.5,9.6c7.4,4.1,13.9,10.1,21.1,14.5c5.7,3.4,10.5,8.1,15.9,11.9c0.5,0.3,0.9,0.8,1.3,1.2
		c5.2,5.7,10.6,11.2,15.4,17.3c6,7.6,12.7,14.7,17.4,23.6c2.5,4.7,5.5,9.1,7.1,14.2c2.8,8.6,7,16.4,9.5,25.2
		c1.6,5.6,3,11.3,4.8,16.8c0.7,2.1,1.3,4.5,1.3,6.8c0,10.5,1.4,21,0.5,31.5c-0.6,6.8,0.5,13.9-1.6,20.5c-1.4,4.4-1.2,9.5-3,13.4
		c-2.3,5-2.5,10.8-5.5,15.3c-0.7,1.1-1.1,2.5-1.5,3.7c-4,12.6-9.8,23.9-17.1,34.4c-3.4,4.8-6.9,9.4-10.7,13.7
		c-7.7,8.9-15.1,18.5-24.7,25.1c-3.6,2.5-7.2,4.9-10.3,8.4c-1.7,1.9-4.2,2.5-6.2,4c-5.1,3.6-9.8,7.8-15.2,10.6
		c-2.2,1.2-4.7,2-7.1,2.5c-2,0.4-4.1-3.1-3.5-5.6c1.3-5.3,4.8-8.5,8.4-11.3c7.8-6.1,13.8-13.9,19.2-22.8c5.4-8.8,10.2-18,14.9-27.3
		c1.5-3,2.4-6.4,3.4-9.7c1.4-4.9,4.5-9.2,4.9-14.4c0.4-5.1,2.3-9.5,3.2-14.3c0.7-3.8,0.8-7.7,1-11.6c0.3-4.6,0.5-9.4,0.3-13.9
		c-0.3-6.6-0.2-13.3-0.6-20c-0.3-5.3-1.3-10.2-2.9-15c-0.6-1.6-0.6-3.5-0.7-5.3c-0.1-3.2-1.5-5.9-2.7-8.8c-2.1-4.7-3.4-9.7-5-14.7
		c-0.4-1.4-1.2-2.6-1.9-3.9c-4.4-8.3-8-17.1-13-25c-6.9-10.8-15.5-19.5-24.2-28.1c-2.2-2.2-4.4-4.4-6.8-6.4c-6.2-5.3-13.1-9-20-12.8
		c-6.1-3.3-12.5-6.2-18.8-8.9c-6.4-2.8-13.1-5.3-20.1-5.9c-4.2-0.3-8.1-2.8-12.3-3.4c-0.9-0.1-1.8-0.4-2.7-0.4
		c-10.1,0-20.3-0.1-30.4,0c-3.2,0-6.4,0.9-9.4,2.1c-3.5,1.3-7,2.4-10.8,2.4c-0.6,0-1.3,0.2-1.9,0.4c-8.5,2.6-16.7,6-24.9,9.8
		c-2.2,1-2.7,2.8-1.1,5c5.8,7.9,10.7,16.6,16.8,24.2c4.9,6.1,9.1,13,13.6,19.5c7.9,11.5,15.9,22.9,23.7,34.5
		c6,8.8,12.5,17.1,18.2,26.2c7.5,11.9,15.2,23.5,23.9,34.4c4.4,5.6,8.5,11.6,12,18c3.7,6.8,8.7,12.6,13,18.9c1.2,1.8,2,3.7,1.9,6.1
		c-0.2,3.5-2.5,5.3-5,3.3c-2-1.6-3.8-3.7-5.5-5.7c-2.3-2.6-4.4-5.3-6.7-7.9c-6.8-7.7-13.9-15.1-20.3-23.3
		c-6.8-8.6-13.4-17.5-21-25.2c-7.4-7.6-14.1-16.1-20.7-24.7c-4.6-6-9.6-11.7-14.9-17c-3.5-3.5-6.6-7.4-9.8-11.3
		c-7.5-9.1-14.4-18.9-22.5-27.3c-6.6-6.8-13-13.8-18.3-22c-1.5-2.3-3.6-3.9-5-6.3c-0.8-1.3-1.9-0.9-2.9,0.1
		c-9.4,9.9-18.8,19.7-27.4,30.5c-3.1,3.9-5.3,8.8-7.3,13.6c-3.1,7.1-6.5,14-9.2,21.3c-3.4,9-6.7,18.2-7.8,27.8
		c-1.2,10.5-3.8,20.9-3.3,31.7c0.3,5.9,1.3,11.7,1.9,17.6c0.5,4.2,0.5,8.5,1.3,12.5c3.2,14.7,8,28.6,14.4,41.9
		c2.7,5.6,5.8,10.7,8.5,16.3c0.3,0.7,0.5,1.4,0.5,2.1c0,0-0.1,0.1-0.1,0.1c-1.9-0.3-2.4-2.2-3.2-3.7c-4.6-9.5-9.7-18.6-13.2-28.8
		c-2.9-8.5-6.6-16.6-8.2-25.5c-1.4-7.8-2.6-15.8-3.2-23.8c-0.6-7.2-0.6-14.3,0-21.5c0.3-4.1,1.5-8.1,1.7-12.2
		c0.4-9.3,2.9-18.2,5.5-26.8c3.6-11.9,8.4-23.2,14.4-33.9c1.1-1.9,2.6-3.6,2.9-6c0.2-0.3,0.4-0.6,0.7-0.9c0.7-0.1,1-0.6,0.9-1.3
		c0-0.2,0.1-0.4,0.2-0.6c0.9-0.1,1-0.9,1-1.7c0.5-1.3,1.2-2.2,2.3-2.7c1.2-0.4,1.9-1.1,2-2.6c0.1-1,0.5-1.6,1.3-1.9
		c0.7-0.1,1.1-0.6,1.6-1.2c3.8-4.2,7.4-8.8,11.5-12.7c1.5-1.4,3.2-2.8,3.9-5.1c0.2-0.1,0.3-0.2,0.5-0.3c1,0,1.5-0.5,1.7-1.6
		c0.2-0.1,0.4-0.2,0.5-0.3c2.2-0.8,3.4-3.7,6-3.6c1.4-0.1,2,1,2.3,2.4c0,0.8,0.4,1.4,0.9,1.9c7.1,8.4,14.3,16.9,21.4,25.3
		c0.6,0.7,1.1,1.5,2.1,1.4c1.3,0.3,2,1.1,2.2,2.6c2.2,4.2,5.3,7.4,8.7,10.2c1.8,1.4,3.4,3.1,4.5,5.3c-0.1,1.3,0.7,2.1,1.4,2.9
		c6.4,7.4,12.9,14.8,19.3,22.3c0.5,0.6,1,1.3,1.8,1.4c2.3,1.8,4.2,4,5.7,6.6c0,1,0.5,1.8,1.1,2.5c7.5,8.8,14.9,17.6,22.4,26.4
		c0.7,0.8,1.3,1.5,2.3,1.5c1.2,0.6,2.2,1.5,2.5,3.1c0,1,0.5,1.5,1,2.1c3.1,3.7,6.1,7.3,9.1,11.1c7.3,9,14.9,17.7,22.3,26.5
		c0.9,1.1,1.6,2.3,2.5,3.3c3.1,3.7,6.1,7.6,10.3,9.8c0.7,0.4,1.5,1,2.3,0.2c0.9-0.9,0.1-1.8-0.2-2.6c-1.7-4.7-5-8.2-7.5-12.4
		c-5.4-8.9-11-17.7-17-26.1c-8.1-11.4-16.6-22.5-24-34.6c-5.4-8.8-12-16.7-17.6-25.4c-5.6-8.7-12-16.8-17.7-25.4
		c-7.6-11.3-15.2-22.8-23.4-33.6c-4.7-6.2-8.7-13-13.2-19.5c-2.8-4.1-2.2-5.9,2-7.7c2.9-1.3,5.8-2.5,8.7-3.8
		c7.2-3.2,14.9-4.6,22.2-7.1c14-4.7,28.2-3.3,42.3-3.6c9.7-0.2,19,3.3,28.4,5.6c10.7,2.6,20.9,7.4,30.8,12.8
		c1.6,0.9,3.1,1.9,4.9,1.9c4,1.5,7.3,4.6,10.8,7.1c2.9,2,5.7,4.1,8,6.9c0.1,1.6,0.8,2.6,2.3,2.5l0,0c0.5,1.5,1.3,2.7,2.8,2.6
		c1.6,1.7,3.2,3.4,4.8,5.1c1.7,2.9,4.1,5.1,6.2,7.5c1.1,1.3,1.9,3.2,3.8,3.4c4.4,5.2,8.5,10.7,11.7,17c0,0.3-0.1,0.7,0,0.9
		c2,3.9,4.2,7.5,5.7,11.8c0.3,0.8,0.9,1,1.6,0.8c0.2,0.4,0.4,0.9,0.6,1.3c-0.4,0.2-0.7,0.5-0.4,0.9c0.2,0.2,0.6,0.2,1,0.3
		c0.4,0.2,0.5,0.7,0.5,1.2c1.1,3.6,1.7,7.6,4.4,10.4c0.7,1.1,1,2.3,1.2,3.6c0.1,5.2,2.8,9.2,4.7,13.6c0.1,0.6,0.1,1.2,0.2,1.9
		c-0.5,3.9,0.5,7.3,2.6,10.2c0,0.4,0.1,0.8,0.1,1.2c-0.9,0.8-0.4,1.1,0.3,1.3c0.1,1,0.1,2.1,0.2,3.1c-0.9,1.2-1.2,2.4,0.4,3.2
		c0.1,1,0.1,2.1,0.2,3.1c-0.7,2-1.5,4,0.5,5.8c0,0.4,0,0.8,0,1.3c-1.3,4.3-0.2,8.5,0.6,12.8c0,0.4,0,0.8,0,1.3
		c-2.1,2.4-1.1,5-0.5,7.7c0,0.4,0,0.8-0.1,1.3c-1.8,1.5-1.3,3.3-0.5,5.1c-0.1,1.3-0.1,2.5-0.2,3.8c-1.5,0.8-1.3,2-0.4,3.2
		c-0.1,0.8-0.1,1.7-0.2,2.5c-1.2,0.4-1.3,1-0.4,2c0,0.4-0.1,0.8-0.1,1.2c-2.2,2.9-3.2,6.3-2.7,10.2c0,0.4-0.1,0.8-0.1,1.2
		c-1.2,0.3-1,1.3-0.8,2.3c-0.1,0.7-0.1,1.5-0.2,2.2c-1.6,0.4-1.7,2.1-2.1,3.4c-3.9,13.1-9.2,25.3-16.1,36.6c-1,1.6-2.3,3.1-2.2,5.3
		l0,0c-1.2,0-1.8,0.7-1.6,2.1c0,0.2,0,0.3-0.1,0.4c-0.9,0-1.2,0.5-1,1.5c0,0.5-0.2,0.9-0.6,1.1c-1.5,0.1-2.2,1-2.2,2.7
		c-0.7,1.8-2,3.1-3.3,4.3c-0.9-0.1-1.2,0.4-1.1,1.4c-1.7,3.1-3.8,5.7-6.5,7.6c-0.9-0.2-1.3,0.2-1.3,1.2c-0.4,0.4-0.7,0.8-1.1,1.2
		c-2.4,0.4-8.6,7.4-8.9,9.9c-0.2,2.3,1,3.8,3.2,3.4c4.2-0.9,7.8-3.4,11.4-5.8c0.2-0.1,0.2-0.8,0.3-1.2c0.3-0.8,1-0.9,1.5-1.3
		c1.7,0.1,3.3-0.3,4-2.5l0,0c0.8,0.1,1.6,0.1,1.7-1.2c8.7-6.4,17.2-13.2,25.2-20.7c2.6-0.3,3.7-2.5,4.7-4.8
		c8.4-9.5,17-18.8,23.6-30.1c0.5,0.1,0.9,0,1.2-0.5c2.5-4.6,5.1-9.1,7.6-13.7c0.2-0.4-0.1-0.8-0.4-1c3.9-9.2,8.2-18.1,10.6-28
		c1.2-0.1,1.4-1.2,1.7-2.2c2.2-8.9,4.3-17.9,4.9-27.1c0.1-2.1,0.7-4.4-0.5-6.4c0.1-1.7,0.1-3.4,0.2-5c1.2-0.4,1.2-1.1,0.3-2
		c0-1.1,0-2.1,0-3.2c0.8-1,1-1.9-0.3-2.6c-0.1-1.7-0.1-3.4-0.2-5.1c0.9-0.8,0.6-1.9,0.6-2.9c0-12.1-2.7-23.5-6.5-34.6
		c-0.3-0.7-0.4-1.4-1.2-1.4c0-0.4-0.1-0.8-0.1-1.2c1.2-1.5,0.2-2.1-0.9-2.6c-0.1-0.4-0.1-0.7-0.2-1.1c-1-3-1.9-6.1-2.9-9.1
		c-0.2-0.7-0.6-1.3-1.4-1.3c-0.1-0.1-0.1-0.3-0.1-0.5c0.2-0.8-0.2-1.4-0.4-2.1c-2.7-7.7-6.5-14.6-10.4-21.4
		c-1.4-2.4-2.5-5.4-5.1-6.7c-0.1-0.1-0.1-0.3-0.1-0.4c0-2-1.1-3-2.6-3.4c-0.2-0.2-0.4-0.5-0.6-0.7c-0.1-2.4-1.4-3.7-3.3-4.4
		c-0.7-0.4-0.9-1.1-1.2-1.8c-0.1-2-1.1-3-2.7-3.3c-2.1-1.9-3.9-4-5.5-6.4c-0.5-2.2-1.7-3.6-3.8-3.9c-0.4-0.4-0.8-0.8-1.2-1.2
		c-2.5-4.3-5.5-8-10-9.6l0,0c-0.8-1.7-1.7-3-3.5-3.1c-0.1,0-0.3,0-0.4-0.1c-0.4-2.2-1.9-2.7-3.5-3.1c-0.1,0-0.3,0-0.4-0.1
		c0-1.7-1.3-1.9-2.2-2.5c-3.3-2.3-6.8-4.3-9.9-6.8c-7.9-6.2-16.5-11.1-25.2-15.5c-13.5-6.8-27.7-11.1-42.1-14.7
		c-8.3-2.1-16.8-3.3-25.2-4.4c-3.2-0.4-6.6-0.7-9.8,0.3c-0.4,0-0.8,0-1.1,0c-0.3-1.3-1.2-1-2-1c-8.4,0-16.9,0-25.3,0
		c-0.8,0-1.7-0.3-2,1c-0.4,0-0.8,0-1.1,0c-5.5-1.1-11-0.5-16.4,0.3c-10.9,1.7-21.6,4.5-32.3,7.2c-9.3,2.3-18.1,6.3-26.9,10.2
		c-4,1.7-5.8,1.2-8.4-2.6c-3.4-5.1-7.1-10-10.7-14.9c-3.7-5-7-10.4-10.3-15.6c-1.2-1.9-0.8-3.7,1.1-4.7c6.5-3.5,12.4-8.2,19-11.4
		c0.9-0.4,2.1-0.6,2-2.2c3.6-1.9,7.3-3.8,10.9-5.7c0.6,0.2,1.1,0,1.3-0.8l0.2,0l0.1,0.1c0.9,0.2,1.4-0.2,1.3-1.3
		C652.5,201.3,652.8,201.2,653.1,201.1z"/>
	<path class="st1" d="M654.6,201.5c0.5-1.3,1.6-1.6,2.7-1.9c1.8-0.6,3.6-1.1,5.2-2c3.4-2,5.6-4.9,5.4-9.8c-0.2-7.1,0-14.2-0.1-21.4
		c-0.1-3.4,1-6.2,2.3-9c0.6-1.2,1.4-1.9,2.7-1.8c4,0.2,7.1-2.6,10.6-4c1.9-0.8,2.5-3.2,2-5.4c-0.5-2-0.4-4-0.4-6
		c0-22.6,0-45.3,0-67.9c0-4.7-0.8-4.8-4.6-4.4c-8.4,0.9-16.4,4.2-24.9,4.8c-4.4,0.3-8.3,2.4-12.5,3.4c-11,2.5-21.6,6.4-32.1,10.7
		c-14.4,6-28.7,12.4-42.6,19.7c-1.7,0.9-3.4,1.7-5,2.6c-5,2.6-7.8,1.7-11.2-3.2c-8.8-12.8-17.8-25.5-26.6-38.4
		c-4.6-6.7-9-13.7-13.6-20.4c-4.6-6.6-9.3-13-13.9-19.6c-3.2-4.5-6.3-9.1-9.3-13.7c-2-3-3.5-3.7-6.3-1.8
		c-5.5,3.8-10.9,7.9-16.3,11.8c-5.6,4-11.2,8.1-16.9,11.7c-3.4,2.1-6.7,4.7-9.9,7.4c-8.7,7.3-17.9,13.6-26.9,20.3
		c-0.5,0.3-0.9,0.8-1.3,1.2c-0.6,0.7-1.7,1.4-1.1,2.6c0.6,1.1,1.6,0.5,2.5,0.3c9.3-2,18.7-4.1,28-6c5.2-1,9.8,0.2,13.1,5.6
		c2.6,4.2,6.1,7.7,9.2,11.3c5.9,6.8,11.4,14.1,17.7,20.4c1.9,1.9,1.8,3.4,0.1,5.5c-3.3,4-7.7,6.2-11.4,9.5
		c-5.5,4.9-11.8,8.6-17.5,13.2c-1.2,1-2,2.3-2.6,3.6c-1.3,2.6,0.6,5.7,3.5,5.4c4.6-0.4,9.3-1.3,13.8-2.7c3.6-1.1,7.1-1.9,10.8-1.6
		c-0.1,0.3-0.3,0.8-0.4,0.8c-5.9,0.4-11.1,4.2-17.1,4.2c-2.7,0-5.5,0.7-8.1,1.4c-2.1,0.6-4.1,0.9-5-1.6c-0.9-2.3-1-5.1,0.8-7.2
		c1.7-2,3.5-4.2,5.7-5.5c6.5-3.8,12.2-8.8,18.3-13.3c2.1-1.6,4.3-2.8,6-5c1.5-1.8,1.7-3.3-0.1-5c-6.2-5.6-11.1-12.7-16.4-19.3
		c-3.7-4.6-7.8-9-11.5-13.5c-2.2-2.7-5-2.4-7.5-1.8c-11.5,2.7-23,5.1-34.5,7.1c-2.6,0.5-5.3-0.1-7.9-0.4c-1.2-0.1-1.5-1.3-1.2-2.4
		c0.6-1.9,1.3-3.7,3-4.7c10-5.7,19.1-13.2,28.6-19.8c9.9-6.9,19.3-14.6,29.1-21.7c6.7-4.9,13.2-10,20.2-14.2c2.3-1.4,4.1-4,7.1-3.4
		c1.3,0.3,2.5,0.7,3.4,1.9c7.2,10.6,14.7,21.1,21.6,32.1c4.4,7,9.5,13.4,14.3,20.1c5,6.9,9.5,14.2,14.3,21.3
		c4.9,7.3,10.1,14.5,15.3,21.6c2.3,3.2,3.8,3.2,7.3,1.3c12.5-6.5,25-12.7,38.1-17.6c5.6-2.1,11.2-4.5,16.7-6.7
		c0.4-0.2,0.8-0.4,1.3-0.6c9.5-3.2,18.8-7.1,28.5-9.2c7-1.5,13.8-4.2,20.9-5.2c4.7-0.6,9.2-2,13.8-2.8c4.2-0.8,6.3,1.2,6.3,6.2
		c0,26.8,0,53.6,0,80.4c0,2.6-1.1,4.2-2.9,5.6c-3.6,3-8,3.7-12,5.5c-2.7,1.2-4,3.1-3.9,6.4c0.1,7.4-0.2,14.9,0.1,22.3
		c0.2,5.3-3.2,9.1-6.4,10.3C660,200.3,657.2,200.8,654.6,201.5z"/>
	<path class="st2" d="M689.9,532.8c-14.4-0.2-26.4-7.2-35.4-20.7c-3.3-4.9-5.3-10.6-5-17.1c0.2-3.4-0.4-6.9,0.3-10.2
		c2.6-11.9,8.8-20.6,18-26.3c10.8-6.8,22.3-7.5,34.2-4.9c7.5,1.6,13.7,5.8,19.1,11.9c5.2,5.8,10.3,11.8,11.2,20.6
		c1.2,10.4-0.2,20-6.7,28c-4.9,6-10.5,10.5-16.9,14.5C702.6,532.3,696.5,532.1,689.9,532.8z M727.7,492.1c-0.1-3.4,0.3-6.8-0.9-10
		c-4.2-11.1-11.9-18.1-21.5-21.4c-11.9-4.1-24.1-3.8-35.6,3.1c-10.6,6.4-17.2,15.9-17.1,30.4c0,4.3,1.8,7.7,3.2,11.4
		c2.7,7.1,7.5,12.2,13.2,15.6c8.4,4.9,17.2,7.4,26.9,6c7-1,13.7-3.5,19.3-7.8C723.4,513.2,728.6,504.2,727.7,492.1z"/>
	<path class="st1" d="M619.2,542.7c1.8,0.4,2.3,2.1,2.8,3.8c0,0-0.1,0.1-0.1,0.1C620.4,545.8,619.6,544.5,619.2,542.7L619.2,542.7z"
		/>
	<path class="st1" d="M618.1,540.8c1,0.1,1.1,1,1.1,1.9c0,0-0.1,0.1-0.1,0.1C618.4,542.4,618,541.8,618.1,540.8L618.1,540.8z"/>
	<path class="st3" d="M478.1,110.5c2.1-1.6,4.1-3.1,6.2-4.7c1.3-0.6,2.4-1.4,3.5-2.4c7.1-6,14.9-10.6,22.5-15.8
		c3.2-2.2,5.2-1.6,7.4,1.8c6.2,9.6,12.6,18.9,19.1,28.2c4.8,6.9,9.6,13.8,14.5,20.7c4.5,6.3,8.8,12.7,13.1,19.2
		c2.2,3.4,5.2,4.1,8.5,2c3.2-2,6.4-4.2,9.9-5.5c5.5-2,10.7-5,16.2-7c6.4-2.3,12.6-5.4,19.1-7.4c10.7-3.3,21.6-6,32.4-8.8
		c2.9-0.8,6-1.2,9-1.4c4-0.3,5.2,1.1,5,5.7c-0.2,9.1,0.2,18.2-0.4,27.4c-0.5,7.8-0.3,15.7,0,23.6c0.2,4.2-1.4,6.5-4.4,8.2
		c-3.6,2.1-7.3,3.9-11,5.8c-11.3,5.7-22.4,11.8-33.1,18.9c-4.3,2.8-5.2,5.9-1.6,11.6c1.6,2.5,3.8,4.2,5.4,6.7
		c5.2,8,10.5,16,15.9,23.8c3.8,5.5,5.8,5.9,11.5,3.3c3.6-1.7,7.2-3.2,10.8-4.7c12.7-5.3,25.8-8.6,39-11.3c9.3-1.9,18.7-3.4,28.2-3.5
		c8.5-0.1,17-0.1,25.4,0c4,0.1,8.1,0.2,12.1,1c10.6,2,21.2,3.7,31.7,6.6c15.1,4.1,29.7,9.7,43.8,17.1c12,6.3,23.1,14.5,33.7,23.5
		c6.6,5.6,13,11.5,18.9,18.1c9,10,16.5,21.6,23.1,33.9c3.6,6.7,7.1,13.6,9.5,21.1c1.8,5.4,3.1,11.1,4.8,16.5
		c3.7,11.8,4.1,24.1,4.9,36.2c0.8,11.2-1.2,22.4-3,33.4c-1.6,9.8-4.3,19.3-8.1,28.2c-4.1,9.5-9,18.4-14.1,27.2
		c-8.4,14.5-19.3,26.1-30.7,37.2c-8.7,8.4-17.8,16.3-28.2,21.8c-0.9,0.5-2,1.6-2.7,0.4c-0.6-0.9,0.4-1.9,1.1-2.7
		c3.7-4.7,7.4-9.5,11.1-14.1c8.4-10.3,14.9-22,20-34.9c2.4-6.1,4.8-12.2,6.5-18.6c2.6-9.6,4.3-19.5,5.7-29.4
		c1.3-9.1,1.9-18.2,1-27.3c-1.2-11.5-2.5-23-5.5-34.3c-3.5-13.2-7.8-25.8-14-37.6c-4.3-8.3-9.3-16-15-23.1
		c-5.8-7.3-11.7-14.4-18.6-20.4c-4.4-3.8-8.8-7.5-13.5-10.9c-5.8-4.2-11.5-8.5-17.7-11.6c-9.8-4.9-19.8-9.1-30.3-11.7
		c-7.6-1.9-15.1-4-22.8-4.3c-11.8-0.4-23.7-0.8-35.6,0.9c-16.3,2.3-31.8,7.4-46.8,15c-1.8,0.9-3.2,2.3-2.9,4.5
		c0.2,2.3,0.8,4.8,3.2,5.7c0.2,0.2,0.3,0.5,0.5,0.7c-0.3,1,0.4,1.5,0.9,2.2c6.2,9,12.3,17.9,18.5,26.9c5.4,7.9,10.7,15.9,16.2,23.7
		c8.2,11.8,16.9,23.2,24.8,35.3c8.1,12.6,17.4,24.1,25.3,36.9c2.9,4.7,5.7,9.5,8.5,14.3c0.4,0.6,0.8,1.3,0.2,1.9
		c-0.4,0.4-0.8-0.1-1.2-0.5c-5-4.3-9-9.9-13.5-14.8c-3.6-3.9-6.7-8.7-10.2-12.8c-9.7-11.7-19.8-23-29.7-34.6
		c-3.6-4.2-6.9-8.8-10.4-13.1c-4.6-5.5-9.1-11.1-14.7-15.2c-0.1-0.2-0.2-0.3-0.3-0.4c0.1-0.8-0.3-1.4-0.7-1.9
		c-2.7-3.1-5.3-6.2-7.7-9.5c-6.4-8.4-13.3-16.1-20.2-24c-1.7-1.9-3.7-3.5-5.2-5.6c-2.3-2.9-4-3.5-7.1-2.3c-2.1,0.8-3.2,2.7-4.8,4.1
		c-11.9,10-21.6,22.5-30.1,36.3c-4.4,7.1-8.1,14.7-11.3,22.7c-6.5,16.1-10.8,33-11.8,50.7c-1.1,19-1,38.2,4.1,56.8
		c2.3,8.4,4.7,16.7,7.8,24.8c2.8,7.3,6.1,14.2,9.9,20.8c6.6,11.5,15.7,20.3,23.5,30.5c0.9,1.2,2.7,2.5,1.7,4.2
		c-0.9,1.4-2.6,0.1-3.8-0.6c-5.8-3.5-11.5-7-17-11.1c-10.4-7.9-20-17-29.2-26.8c-8.3-8.8-15.2-18.9-21.4-29.7
		c-5.8-9.9-10.5-20.5-14.3-31.8c-2.8-8.2-4.5-16.6-5.7-25.1c-1.8-12-2.5-24.2-1.2-36.4c0.7-6.9,1.1-13.9,2.9-20.6
		c1.4-5.3,2.6-10.7,4.4-15.9c2.1-5.9,4.2-11.9,7.1-17.3c3.4-6.4,6.4-13.1,10.1-19.4c4.4-7.5,9.9-14,14.3-21.5
		c1.6-2.8,4.3-4.7,6.4-6.9c7.8-8.2,16.1-15.7,25.1-22.2c2.9-2.1,3.5-4.9,1.6-8.1c-0.6-1-1.3-2.1-2.1-3c-7.3-8.5-14.7-17-22.1-25.5
		c-3.3-3.8-5.6-4.1-9.2-0.8c-4.1,3.9-8.3,7.7-12.1,12c-11.4,13.1-22.6,26.5-32.2,41.4c-9.5,14.6-17,30.4-23.8,46.8
		c-4.5,10.7-8,21.8-10.9,33.2c-4.4,17.3-7,34.9-7.7,52.8c-0.7,18.1-0.1,36.3,2.6,54.2c1.9,12.5,4.6,24.9,8.3,36.8
		c3.1,9.9,6.7,19.7,11,29.1c3.2,7,6.2,14.2,9.8,21c9,17.3,20,33,32.1,47.6c10.7,12.9,22.5,24.4,35,34.9c1.3,1.1,2.6,2.2,3.3,4.4
		c-2.4,0-4.5,0.3-6.5-0.9c-3-1.7-6-3.4-9-4.8c-12.8-5.9-24.7-13.5-36.4-21.6c-4.5-3.1-8.8-6.8-12.9-10.6
		c-6.6-6.1-13.6-11.5-20.2-17.5c-4.4-4-8.3-8.6-12.5-12.9c-5.7-5.8-10.3-12.8-15.5-19.2c-4.7-5.8-8.8-12.2-12.8-18.5
		c-4.5-7-8.6-14.2-12.4-21.7c-3.8-7.5-7.8-14.8-11-22.7c-6.2-15.4-11.1-31.3-14.4-47.9c-4.2-21.1-6.2-42.4-5.7-64
		c0.1-4.5,1-9.1,1-13.6c-0.2-13,2.7-25.4,5-37.9c2.3-12.1,5.6-23.9,9.7-35.4c2.9-8,5.9-16,9.7-23.5c4.6-8.9,8.9-18,14.1-26.6
		c4.5-7.5,9.1-14.9,14.2-21.8c6.9-9.4,14.6-18,22.4-26.4c3.7-4.1,7.3-8.3,11.5-11.8c5.6-4.7,10.8-9.9,16.5-14.4
		c3.5-2.8,3.4-5.8,0.4-9.3c-4.4-5.1-8.9-10.1-13.3-15.4c-8.9-10.7-17.3-22.1-27.2-31.9c-2.3-2.3-4-6.8-8-5.4
		c-4.4,1.6-8.9,1.6-13.3,2.2c-3.4,0.5-6.6,2-10.1,1.6c-0.6-0.1-1.4,0.2-1.6-0.8c-0.2-0.7,0.2-1.2,0.7-1.6c1.7-1.8,3.2-4.2,5.2-5.1
		c5.5-2.5,9.1-7.9,14.1-11c0.1-0.1,0.3-0.2,0.4-0.3C477.8,111.1,478.1,111,478.1,110.5z M582.5,653.2c-0.1-1.1-0.9-1.7-1.6-2.4
		c-5.3-5.8-11.3-10.7-16.7-16.5c-5.4-5.8-10.7-11.6-15.3-18.3c-5.1-7.3-10.5-14.4-15.5-21.8c-5.5-8.2-10.7-16.6-14.5-26
		c-1.6-4-3.1-8.1-4.9-12c-1.6-3.6-3.2-7.3-5-10.8c-2.1-4.1-3.5-8.6-5.1-12.9c-2.8-7.4-4.4-15.3-6.6-23c-0.5-1.7-1.3-3.3-1.6-5
		c-1.2-8.4-3.1-16.7-3.6-25.3c-0.5-9.4-2.3-18.6-2-28.1c0.2-6.8-0.4-13.6,0.5-20.3c0.8-5.7,1.2-11.5,1.7-17.3
		c0.8-10.3,2.5-20.4,5.5-30.3c0.4-1.3,1-2.4,1.2-3.8c1-6.3,3-12.4,5.1-18.3c1.3-3.6,3.4-6.8,3.9-10.7c0.1-0.5,0.4-1,0.6-1.4
		c2.4-3.6,3.8-7.9,5.4-12c3.2-8.1,7.1-15.6,10.9-23.2c5.5-11,12.4-20.6,19.9-29.8c4.2-5.2,8.5-10.3,12.3-15.8
		c2.6-3.8,5.6-7.3,8.7-10.6c4.1-4.3,8.4-8.1,12.6-12.2c3-2.9,7.7-4.2,9.9-1.9c5.4,5.8,10.6,11.8,15.7,17.8c3.4,4,6.4,8.6,10.1,12.1
		c3,2.8,3.2,6,3,9.6c-0.2,2.9-2.1,3.9-4.3,4.5c-0.6,0.2-1.1,0.7-1.6,1.2c-6.7,6.7-14.3,12.2-20.9,19.1c-3.1,3.3-6.9,5.6-9.5,9.6
		c-4.9,7.4-10.2,14.3-14.5,22.2c-4.3,8.1-9.7,15.5-12.3,24.8c-0.1,0.4-0.4,0.7-0.6,1.1c-3.5,4.9-3.9,11.2-5.8,16.8
		c-0.8,2.2-0.4,4.8-1,7.1c-1.8,7.2-2.5,14.5-2.9,21.9c-0.7,16.1,0.5,32.1,3.4,47.9c0.7,3.6,2.6,6.7,2.9,10.1
		c0.5,5.9,3.6,10.4,5.7,15.3c3.5,8.3,8.2,16,12.9,23.6c7.3,11.9,16.2,22.1,25.9,31.5c8.8,8.5,17.5,17,27.8,23
		c1.1,0.6,2.5,2.1,3.4,0.9c0.9-1.3-0.5-2.6-1.4-3.7c-0.2-0.2-0.4-0.5-0.6-0.7c-4.5-5-8.7-10.4-12.4-16.2
		c-3.7-5.7-7.4-11.3-10.2-17.6c-1.8-3.9-3.3-7.9-5.3-11.7c-2.3-4.5-3.2-9.6-4.8-14.4c-1.8-5.6-2.6-11.4-4-17.1
		c-1.2-4.6-1.9-9.3-1.9-14c-0.1-13-0.1-25.9,0-38.9c0-2.9,0.1-6,0.7-8.8c1.9-8.7,3.5-17.5,6.3-25.9c3.9-11.8,8.7-23.2,15.7-33.2
		c1.7-2.4,3.5-4.6,4.9-7.2c3.7-6.6,8.1-12.6,12.5-18.5c5-6.6,11.5-11.2,17.3-16.6c3.1-2.9,8.1-2.4,10.1,0.6
		c3.1,4.6,7.2,7.9,10.7,11.8c3.5,3.9,7,7.8,10.2,12c5.7,7.6,11.2,15.4,17.8,22c6.3,6.2,12.3,12.9,17.6,20.2
		c5.5,7.5,11.3,14.7,17.7,21.3c2.2,2.3,4.2,5,6.5,7.3c4.4,4.4,8.1,9.5,12,14.4c2.7,3.4,5.4,6.7,8,10c0.4,0.4,0.8,1.1,1.4,0.7
		c0.6-0.4,0.2-1.2,0-1.7c-0.2-0.5-0.4-1-0.7-1.3c-3-3.4-5.6-7.3-8.4-10.9c-7.1-9-13.3-18.8-19.9-28.3c-2.9-4.2-5.5-8.8-8.5-12.8
		c-4.4-5.8-8.7-11.7-12.8-17.9c-3.7-5.6-7.8-11-11.7-16.4c-6.9-9.7-12.8-20.3-20.1-29.8c-2.2-2.9-4.5-5.9-6.6-8.9
		c-2.3-3.4-1.4-8.8,1.7-10.4c4.4-2.2,9-4.2,13.4-6.6c7.5-4.2,15.9-5,23.7-7.9c6.8-2.5,14.3-2.8,21.4-3.1c11-0.5,22-1.6,33,0.9
		c3.9,0.9,8.2,0.4,12,1.7c6.2,2.1,12.4,3.8,18.6,5.6c5.1,1.5,9.7,4.5,14.5,6.8c2.6,1.2,5.3,2,7.7,4c5.2,4.5,11.1,8.1,16.5,12.3
		c7,5.6,14.2,10.9,20.4,17.7c4.3,4.7,7.9,10,11.7,15.2c7.6,10.5,15,21.1,19.7,33.8c2.2,6,4.9,11.7,6.1,18.1c0.5,2.7,0.3,5.5,1.6,8
		c1.5,2.8,1.7,6,1.9,9.1c0.1,1.4,0.2,2.7,0.4,4.1c0.7,5.1,3.1,9.8,2.9,15.1c-0.4,13.7,0.8,27.3-2.4,41c-2,8.5-3.4,17.5-5.3,26.1
		c-1.2,5.3-3.9,10.2-5.7,15.4c-2.7,7.9-7,14.7-11.1,21.7c-3.9,6.6-8.7,12.3-13.7,17.8c-0.6,0.6-1.5,1.3-0.5,2.3
		c0.8,0.9,1.6,0.4,2.1-0.4c1.6-2.5,4.2-3.4,6.2-5.2c8.2-7.3,16.3-14.7,23.8-23c3.5-3.9,7-7.8,10.2-12c4.4-5.5,7.5-12.2,11.6-18.1
		c2.1-3.1,2.9-7.2,5.3-9.9c3.3-3.7,4.5-8.8,6.3-13.1c2-4.7,4.6-9.6,4.5-15.4c-0.1-4.1,2.1-7.6,2.5-11.6c0.7-6.7,1.1-13.4,2.2-20.1
		c0.6-3.8,0.8-7.7,0.7-11.6c-0.1-6.1-1.6-11.9-1.9-17.9c-0.2-5.2-0.9-10.4-2.5-15.5c-1.7-5.3-2.4-10.8-4.2-16.2
		c-1.8-5.4-3.8-10.7-6.3-15.5c-2.9-5.6-6.2-10.9-9.4-16.3c-4.7-7.7-9.5-15.3-15.3-22c-7.5-8.7-16-16.1-24.5-23.5
		c-2.8-2.5-6.1-4.4-8.8-7c-2.9-2.8-6.1-5.1-9.5-6.8c-6-3-12-6.1-18-9c-7.3-3.5-14.7-6.2-22.1-9.3c-8.1-3.4-16.6-5.2-25.1-7.1
		c-4-0.9-7.9-2.6-12.1-2.8c-2.3-0.1-4.8-0.5-7.1-0.7c-6-0.3-11.7-2.3-17.7-2.4c-11.7-0.1-23.3,0.3-34.9,2c-4.7,0.7-9.4,1.3-14.2,1.9
		c-3.8,0.4-7.1,2.9-10.9,3.2c-7.3,0.7-14.1,3.5-21,6.1c-6.9,2.6-13.8,5-20.4,8.6c-2.6,1.4-5.7,1.6-8-1.7
		c-3.9-5.7-8.2-11.1-11.8-17.1c-3.9-6.5-7.4-13.2-12.5-18.7c-4.6-4.9-3.8-11.2,1.6-14.5c0.7-0.4,1.4-1,2.1-1.5
		c7.7-6.3,16.5-10.1,24.8-14.9c0.5-0.3,1.1-0.4,1.6-0.4c2.4,0.3,4.6-0.6,6.2-2.2c1.8-1.9,3.8-2.9,6.1-3.4c1.8-0.4,3.3-1.4,4.8-2.3
		c1.6-0.9,3-2.4,2.5-4.8c-0.3-1.6-0.3-3.2-0.3-4.7c0-12.7,0-25.4,0-38.1c0-2.8-0.1-5.5,0.1-8.3c0.3-3.6-0.9-5-4-4.3
		c-5.7,1.2-11.3,3.4-17,4.8c-7.8,1.8-15.8,3.5-23.3,7c-5.2,2.4-10.5,4.4-15.9,6.1c-4.7,1.5-8.8,4.7-13.6,5.7
		c-4.7,1-8.8,3.4-12.7,6.4c-3.5,2.7-8.6,2.3-11.4-1.2c-4.4-5.5-8.4-11.4-12.1-17.5c-3.3-5.3-7.1-10.2-10.8-15.2
		c-1.8-2.4-2.9-5.4-4.7-7.7c-2.2-2.9-4.5-5.8-6.9-8.6c-5.3-6.1-8.8-13.8-13.4-20.4c-1.3-1.9-2.3-1.9-3.9-0.9
		c-3.7,2.3-6.9,5.6-10.4,8.2c-6.7,4.9-13.4,9.6-19.8,14.9c-0.4,0.3-0.7,0.7-1.1,0.9c-5,2.3-9.5,5.7-14.1,8.9
		c-0.5,0.4-1.3,0.7-1.1,1.6c0.2,0.9,0.9,1.2,1.5,1c4.6-1,9.3-0.6,13.8-2.5c2.7-1.1,5.5-1.3,7.8,1c3.3,3.3,6.6,6.7,9.8,10.2
		c7.8,8.5,13.9,18.9,21.7,27.5c4.9,5.3,9.9,10.5,14.7,15.8c2.9,3.1,2.5,9-0.8,11.6c-4.1,3.3-8.3,6.3-12.4,9.4
		c-6.2,4.7-11.3,10.8-16.4,16.8c-3.3,3.9-6.7,7.8-10.2,11.6c-6,6.7-12.2,13-16.9,21.1c-5.2,9-10.9,17.5-16,26.6
		c-2.8,4.9-5.2,10.1-7.8,15.1c-1.7,3.3-3.7,6.6-4.8,10.2c-2.6,8.4-6.4,16.2-8.2,25c-1.8,8.9-5.2,17.3-6.3,26.5
		c-0.8,6.3-2.8,12.2-3.1,18.7c-0.2,5.1-1,10.3-1.4,15.4c-0.6,6.8-2.1,13.5-1.9,20.5c0.2,5.5,1.3,10.9,1.6,16.3
		c0.5,10.2,1.7,20.2,3.5,30.1c1.2,6.9,2.1,13.9,4,20.7c1.3,4.6,2.9,9.1,4,13.8c2.3,9.7,5.5,19.1,9.6,28c1.8,4,3.3,8.3,5.6,11.8
		c4.4,6.5,7.1,14.2,11.7,20.6c2.4,3.3,4,7.3,6.4,10.6c4.6,6.5,9.4,13,14.2,19.4c6.9,9.2,14.5,17.4,22.6,25.1
		c6.6,6.3,13.6,12.2,20.6,18c8.2,6.9,16.3,14,25.5,19.1c7.7,4.3,15.5,8.5,23.2,12.8C581.2,653.5,581.7,654,582.5,653.2z"/>
	<path class="st2" d="M477.1,111.5c-5,3.1-8.6,8.5-14.1,11c-2,0.9-3.5,3.3-5.2,5.1c-0.4,0.4-0.8,1-0.7,1.6c0.2,0.9,1,0.7,1.6,0.8
		c3.5,0.4,6.7-1.1,10.1-1.6c4.4-0.6,8.9-0.6,13.3-2.2c4-1.4,5.7,3.1,8,5.4c9.8,9.7,18.2,21.1,27.2,31.9c4.3,5.2,8.9,10.2,13.3,15.4
		c3,3.5,3,6.5-0.4,9.3c-5.7,4.5-10.9,9.7-16.5,14.4c-4.2,3.5-7.8,7.8-11.5,11.8c-7.8,8.5-15.5,17.1-22.4,26.4
		c-5.1,6.9-9.7,14.4-14.2,21.8c-5.2,8.5-9.5,17.6-14.1,26.6c-3.8,7.5-6.9,15.5-9.7,23.5c-4.1,11.5-7.4,23.3-9.7,35.4
		c-2.3,12.5-5.2,24.9-5,37.9c0.1,4.5-0.9,9.1-1,13.6c-0.5,21.6,1.4,42.9,5.7,64c3.3,16.6,8.2,32.5,14.4,47.9
		c3.2,7.9,7.2,15.2,11,22.7c3.8,7.6,8,14.7,12.4,21.7c4.1,6.4,8.1,12.7,12.8,18.5c5.2,6.4,9.9,13.5,15.5,19.2
		c4.2,4.3,8.1,8.9,12.5,12.9c6.6,6,13.7,11.4,20.2,17.5c4.1,3.9,8.4,7.5,12.9,10.6c11.7,8.1,23.7,15.8,36.4,21.6
		c3.1,1.4,6.1,3,9,4.8c2,1.2,4.1,0.9,6.5,0.9c-0.7-2.2-2-3.4-3.3-4.4c-12.5-10.5-24.3-22-35-34.9c-12.2-14.6-23.1-30.3-32.1-47.6
		c-3.5-6.8-6.6-14-9.8-21c-4.3-9.4-7.9-19.1-11-29.1c-3.8-12-6.4-24.3-8.3-36.8c-2.7-17.9-3.3-36.1-2.6-54.2
		c0.7-17.9,3.3-35.5,7.7-52.8c2.9-11.4,6.4-22.5,10.9-33.2c6.9-16.3,14.4-32.2,23.8-46.8c9.7-14.9,20.8-28.3,32.2-41.4
		c3.8-4.3,8-8.1,12.1-12c3.5-3.3,5.9-3,9.2,0.8c7.4,8.5,14.7,17,22.1,25.5c0.8,0.9,1.5,1.9,2.1,3c1.9,3.2,1.3,6-1.6,8.1
		c-9,6.5-17.3,14-25.1,22.2c-2.2,2.3-4.8,4.2-6.4,6.9c-4.4,7.5-9.9,14-14.3,21.5c-3.7,6.3-6.7,13-10.1,19.4
		c-2.9,5.4-5,11.4-7.1,17.3c-1.9,5.2-3,10.6-4.4,15.9c-1.8,6.8-2.2,13.7-2.9,20.6c-1.3,12.2-0.6,24.4,1.2,36.4
		c1.3,8.5,2.9,16.9,5.7,25.1c3.8,11.2,8.6,21.8,14.3,31.8c6.2,10.7,13.1,20.9,21.4,29.7c9.2,9.7,18.8,18.8,29.2,26.8
		c5.5,4.2,11.2,7.6,17,11.1c1.1,0.7,2.9,2.1,3.8,0.6c1-1.6-0.7-2.9-1.7-4.2c-7.9-10.1-17-19-23.5-30.5c-3.8-6.6-7.1-13.5-9.9-20.8
		c-3.1-8.1-5.5-16.4-7.8-24.8c-5.1-18.6-5.2-37.7-4.1-56.8c1-17.6,5.4-34.5,11.8-50.7c3.2-8,7-15.5,11.3-22.7
		c8.4-13.8,18.2-26.3,30.1-36.3c1.6-1.4,2.7-3.3,4.8-4.1c3.1-1.2,4.9-0.7,7.1,2.3c1.6,2,3.6,3.7,5.2,5.6c6.9,7.8,13.8,15.6,20.2,24
		c2.5,3.3,5.1,6.4,7.7,9.5c0.5,0.5,0.9,1.1,0.7,1.9c-1.8,0.3-2.7-1.2-3.9-2.3c-1.6-1.6-2.6-4-4.8-4.7c-0.2-1.5-1-2.3-2.2-2.6
		c0.1-0.9-0.4-1.4-0.8-1.9c-7.2-8.5-14.3-16.9-21.5-25.4c-0.6-0.7-1-1.5-2-1.4c-0.3-1.4-0.8-2.4-2.3-2.4c-2.4-1.4-4.5-0.1-6,3.6
		c-0.2,0.1-0.4,0.2-0.5,0.3c-1.2-0.3-1.6,0.4-1.7,1.6c-0.2,0.1-0.3,0.2-0.5,0.2c-0.5-0.2-0.9,0-1.2,0.4
		c-5.1,5.5-10.3,10.8-15.1,16.7c-0.4,0.5-1,1-0.6,1.9c-0.8,0.3-1.3,0.9-1.3,1.9c-1.3,0.2-2.1,1-2,2.6c-1.1,0.5-1.9,1.4-2.3,2.7
		c-0.9,0.1-1.2,0.7-1,1.7c-0.1,0.2-0.2,0.4-0.2,0.6c-0.7,0.1-1.1,0.4-0.9,1.3c-0.2,0.3-0.4,0.6-0.7,0.9c-0.9,0-1.3,0.8-1.7,1.4
		c-3.4,5.6-6.8,11.4-9.4,17.6c-5.4,12.9-10.1,26-12,40.2c-1,7.5-2.5,14.9-2.9,22.4c-0.9,18.1,1.6,35.8,5.8,53.1
		c3.3,13.7,8.6,26.5,15.3,38.5c4.1,7.4,8.7,14.4,14,20.7c3.8,4.5,7.4,9.1,11.8,12.9c3.2,2.8,6.1,6.3,9.3,9.2c1.1,1,1.7,2.4,0.9,3.9
		c-0.8,1.4-2.1,0.9-3.3,0.7c-0.4-0.1-0.7-0.3-1-0.5c-6.3-3.6-12.9-6.2-18.8-10.7c-2-1.5-4.4-2.5-6.6-3.7c0,0-0.1-0.1-0.1-0.1
		c-0.8-1.7-2.3-2.2-3.8-2.5c-0.2-0.2-0.4-0.5-0.7-0.7c-0.3-1.2-1-1.9-2.1-1.8c0,0-0.1-0.1-0.1-0.1c-0.5-1.4-1.5-1.8-2.7-1.9
		c0,0-0.1-0.1-0.1-0.1c-0.4-1.2-1-1.9-2.2-1.8c0,0-0.1-0.1-0.1-0.1c-0.2-1-0.7-1.4-1.6-1.2c0,0-0.1-0.1-0.1-0.1
		c-0.4-1.2-1-1.9-2.2-1.8c0,0-0.1-0.1-0.1-0.1c-0.9-2.1-2.4-3.2-4.3-3.8c0,0-0.1-0.1-0.1-0.1c-0.3-0.5-0.5-1.1-0.9-1.5
		c-4.1-4.2-8.5-8-12.2-12.7c-0.3-0.4-0.8-0.5-1.3-0.4c-2.3-3.3-4.9-6.4-7.9-9c0.1-1.7-1-2.5-2.1-3.1c0,0-0.1-0.1-0.1-0.1
		c-0.2-2.3-1.7-3.3-3.2-4.4c0,0-0.1-0.1-0.1-0.1c-0.7-2.4-1.8-4.4-3.8-5.7c0,0-0.1-0.1-0.1-0.1c0.1-1.4-0.7-2.3-1.3-3.3
		c-6.2-9.4-10.6-20-14.7-30.7c-2.3-6.1-4-12.4-5.7-18.8c-2.6-9.8-3.7-19.8-4.6-29.8c-1-12,0.8-23.9,2.4-35.7
		c0.6-4.3,2.4-8.2,2.8-12.5c0.1-0.4,0.1-0.8,0.2-1.3c0.6-0.3,0.6-0.7,0.4-1.3c0-0.4,0.1-0.8,0.1-1.3c0.9-0.5,0.8-1.6,1.1-2.4
		c2.7-6.9,5.1-14,8.1-20.7c7.7-17.2,17.9-32.1,30-45.4c0.6-0.6,1.4-1.1,1.2-2.3c0,0,0,0,0,0c1.8-0.4,2.9-1.7,3.4-3.7
		c6-6.7,12.8-12.3,19.9-17.3c0.9-0.6,1.7-1.6,2.5-2.4c2.1-1.8,1.7-3.9,0.2-5.7c-3.6-4.2-7.3-8.2-11-12.3c-3.6-4.5-7.2-9-10.9-13.4
		c-0.7-0.8-1.2-2-2.4-2c-3.7-2.2-5.7,1.4-8.1,3.4c-3.1,2.5-5.4,5.8-8,8.9c-0.3,0-0.6-0.1-0.8,0.1c-4.4,5-9.1,9.7-13,15.2
		c-4.9,5.5-9.5,11.3-13.6,17.4c-4.3,6.3-8.2,12.9-11.9,19.7c-3.7,6.7-7.6,13.3-10.9,20.4c-2.3,5-3.9,10.4-6.3,15.3
		c-2.3,4.8-3.7,10-5.5,15.1c-0.6,0.3-1.4,0.5-0.4,1.4c-0.2,0.8-0.5,1.6-0.7,2.4c-0.6,0.3-1.4,0.6-0.4,1.4c-0.1,0.4-0.2,0.8-0.2,1.2
		c-1.1,0.2-1,1.4-1.3,2.2c-1,3.5-1.9,7.1-2.7,10.7c-3.6,15.5-6.4,31.1-6.8,47.2c-0.6,23.6-0.5,47.1,4.8,70.1
		c1.9,8.3,3.5,16.7,6,24.8c0.4,1.2,0.3,2.8,1.8,3.4c0.9,2,1.4,4.1,1.8,6.3c-0.3,3.5,1.3,6,3.2,8.3c0.4,1.2,0.8,2.5,1.2,3.7
		c0,2.3,1.2,3.9,2.7,5.2c0.3,0.8,0.6,1.6,0.9,2.4c-0.3,0.9,0.1,1.3,0.8,1.5c1.5,2.1,2.3,4.6,3.4,6.9c0.1,1.6,0.6,2.9,2.1,3.4
		c0.6,1.4,1.2,2.8,1.8,4.2c-0.1,0.9,0.3,1.3,1,1.4c0,0.2,0,0.3,0.1,0.5c1.2,3.1,2.4,6.3,4.9,8.4c0,0.2,0,0.3,0.1,0.5
		c-0.1,0.9,0.3,1.3,1,1.5c0,0.2,0,0.3,0.1,0.5c-0.1,0.9,0.3,1.3,1,1.5c0,0.2,0,0.3,0.1,0.4c-0.1,1.3,0.6,1.9,1.6,2.1
		c0,0.2,0,0.3,0.1,0.5c-0.1,0.9,0.3,1.3,1,1.4c0,0.2,0,0.3,0.1,0.5c0.4,1.9,1.2,3.5,2.7,4.5c0,0,0,0,0,0c-0.1,0.9,0.3,1.3,1,1.4
		c0,0.5,0.1,0.9,0.6,1.1c-0.1,0.9,0.3,1.3,1.1,1.4c0.2,0.4,0.4,0.7,0.6,1.1c0,1.3,0.7,2.1,1.7,2.5c0.3,0.5,0.7,0.9,1,1.4
		c0,0.9,0.3,1.6,1.2,1.8c0.6,1.4,1.6,2.4,2.7,3.3c0.1,1.3,0.7,2.1,1.8,2.4c2.9,3.9,5.9,7.7,9.3,11c1.5,3.8,4.7,6,7,8.9
		c1,1.2,1.8,3,3.5,3.2c0.6,1.2,1.4,2.3,2.6,2.6c0.1,0.8,0.5,1.3,1.2,1.2c0.3,0.8,0.8,1.2,1.5,1.3c0.3,1.4,1,2.4,2.4,2.5
		c0.6,0.7,1,1.9,2.1,2c0.1,0.8,0.5,1.3,1.2,1.2c0.3,0.2,0.7,0.5,1,0.7c0.1,0.9,0.5,1.3,1.2,1.2c0.1,0.1,0.2,0.2,0.4,0.1
		c0.2,1.1,0.8,1.8,1.9,1.8c0.2,0.5,0.5,0.7,1,0.7c0.2,1.2,0.7,1.9,1.8,1.8c0.1,0.1,0.3,0.2,0.4,0.1c0.1,0.8,0.5,1.3,1.2,1.2
		c0.1,0.1,0.2,0.2,0.4,0.1c0.9,2.3,2.6,3.2,4.6,3.8c0.1,0.1,0.2,0.1,0.4,0.1c0.2,1.1,0.7,1.9,1.8,1.8c0.3,0.2,0.6,0.5,1,0.7
		c0.1,1.3,0.9,1.8,1.7,2.2c0.9,0.5,1.7,1.3,2.4,2.1c0.8,0.9,1.2,1.9,0.8,3.1c-0.4,1.2-1.4,0.8-2.2,0.8c-2-0.1-4-0.3-6-0.5
		c-1.5-1.2-3.1-1.9-4.9-2c-0.2-0.4-0.3-0.9-0.5-1c-7.5-2.9-14.6-7.1-21.8-10.8c-6.1-3.2-12.1-6.9-17.7-11.5
		c-4.1-3.3-8.6-6.1-12.8-9.2c-10.3-7.6-20.2-16-29.5-25c-10.2-9.8-19.6-20.6-28.1-32.3c-6.6-9.1-13.2-18.2-19.7-27.4
		c-1.6-2.2-2.7-4.7-3.8-7.3c-2.9-6.7-6.8-12.8-9.7-19.6c-3.6-8.7-7.5-17.2-10.5-26.2c-2.5-7.6-5-15.2-6.8-23.1
		c-2.5-10.8-4.5-21.8-5.9-32.9c-0.4-3-0.6-6.1-0.6-9.2c-0.1-9.9-0.9-19.7-0.7-29.6c0.4-23.3,3.3-46.1,9.6-68.4
		c2.6-9.1,5.5-18,9-26.6c5.8-14.5,12.3-28.7,20-42c6-10.4,13-20,20.4-29.2c4.4-5.5,8.8-11.1,13.4-16.5c8.4-9.9,18.1-17.9,27.3-26.7
		c1.6-1.5,3.3-3,4.9-4.7c1.8-1.8,1.7-3.8,0.1-5.8c-4.5-5.3-8.8-10.9-13.2-16.2c-9-10.7-17.2-22.2-26.6-32.4
		c-2.3-2.5-4.5-2.9-7.5-2.5c-8.2,1.1-16.3,3.1-24.4,4.7c-1.8,0.4-4.5,1.3-5.4-1.5c-0.8-2.5,1.7-3.4,3.1-4.6
		c6.5-5.7,13.6-10.5,20.4-15.8C475,111.2,476,110.2,477.1,111.5z"/>
	<path class="st2" d="M671.7,312.4c-2.4-0.9-2.9-3.4-3.2-5.7c-0.2-2.2,1.2-3.6,2.9-4.5c15-7.5,30.5-12.6,46.8-15
		c11.9-1.7,23.7-1.3,35.6-0.9c7.6,0.3,15.2,2.4,22.8,4.3c10.5,2.6,20.5,6.8,30.3,11.7c6.2,3.1,12,7.4,17.7,11.6
		c4.7,3.4,9.1,7.1,13.5,10.9c6.8,6,12.8,13.1,18.6,20.4c5.7,7.1,10.6,14.9,15,23.1c6.2,11.8,10.5,24.4,14,37.6
		c3,11.3,4.3,22.8,5.5,34.3c0.9,9,0.3,18.2-1,27.3c-1.4,9.9-3,19.8-5.7,29.4c-1.7,6.3-4.1,12.5-6.5,18.6c-5,12.8-11.5,24.6-20,34.9
		c-3.8,4.6-7.4,9.4-11.1,14.1c-0.6,0.8-1.6,1.8-1.1,2.7c0.7,1.1,1.8,0,2.7-0.4c10.4-5.5,19.6-13.4,28.2-21.8
		c11.4-11.1,22.3-22.6,30.7-37.2c5.1-8.8,10-17.7,14.1-27.2c3.8-8.9,6.6-18.4,8.1-28.2c1.8-11,3.8-22.2,3-33.4
		c-0.8-12.2-1.3-24.5-4.9-36.2c-1.7-5.4-3-11.1-4.8-16.5c-2.5-7.4-5.9-14.4-9.5-21.1c-6.6-12.3-14.1-23.9-23.1-33.9
		c-5.9-6.5-12.2-12.5-18.9-18.1c-10.6-9-21.7-17.2-33.7-23.5c-14.1-7.4-28.7-13-43.8-17.1c-10.5-2.9-21.1-4.6-31.7-6.6
		c-4-0.8-8.1-0.9-12.1-1c-8.5-0.1-17-0.1-25.4,0c-9.5,0.1-18.9,1.6-28.2,3.5c-13.2,2.7-26.3,6-39,11.3c-3.6,1.5-7.2,3.1-10.8,4.7
		c-5.7,2.6-7.7,2.2-11.5-3.3c-5.4-7.8-10.7-15.8-15.9-23.8c-1.6-2.5-3.9-4.1-5.4-6.7c-3.5-5.7-2.7-8.8,1.6-11.6
		c10.7-7,21.8-13.2,33.1-18.9c3.7-1.9,7.4-3.7,11-5.8c3-1.7,4.6-4,4.4-8.2c-0.3-7.9-0.5-15.8,0-23.6c0.6-9.1,0.2-18.3,0.4-27.4
		c0.1-4.6-1-6-5-5.7c-3,0.2-6,0.7-9,1.4c-10.8,2.8-21.7,5.5-32.4,8.8c-6.5,2-12.7,5.1-19.1,7.4c-5.5,2-10.7,5-16.2,7
		c-3.4,1.3-6.7,3.4-9.9,5.5c-3.3,2.1-6.3,1.4-8.5-2c-4.3-6.5-8.6-12.9-13.1-19.2c-4.9-6.8-9.7-13.8-14.5-20.7
		c-6.5-9.3-12.9-18.7-19.1-28.2c-2.2-3.4-4.2-4-7.4-1.8c-7.6,5.1-15.4,9.8-22.5,15.8c-1.1,0.9-2.3,1.8-3.5,2.4
		c-0.5-1.5,0.3-2.4,1.3-3.2c4.3-3.4,8.7-6.7,13.3-9.7c3.6-2.3,7-4.9,10.4-7.7c3.8-3,6.6-2.6,9.5,1.5c4.4,6.3,8.6,12.8,13,19.2
		c6.6,9.8,13.7,19.2,20.2,29.1c4.3,6.6,9.3,12.5,13.6,19c2.4,3.6,4.6,4.2,9,2c3.5-1.7,7-3.7,10.4-5.8c6.6-4,13.8-6.2,20.8-9.2
		c14.3-6.1,29.2-9.9,44.2-13.1c3.4-0.7,6.9-1.2,10.3-1.9c3.8-0.8,6.8,2.1,6.8,6.5c0,8.2,0.6,16.4-0.1,24.5
		c-0.9,9.5-0.1,18.9-0.5,28.4c-0.2,6.4-2.7,9.8-9.5,12.6c-1.4,0.6-3.2,0.6-3.6,2.9c-0.3,0.1-0.5,0.1-0.8,0.2c-0.7,0-1.2,0.4-1.3,1.3
		l-0.1-0.1c0,0-0.2,0-0.2,0c-0.9-0.8-1.1,0-1.3,0.8c-3.6,1.9-7.3,3.8-10.9,5.7c-1-0.1-1.8,0.3-2.6,0.7c-5.9,2.4-11.1,6.5-16.7,9.7
		c-7.5,4.2-6.6,5.8-2,12.3c6.3,8.8,12.2,17.9,18.5,26.6c3.5,4.8,4.1,7,11.2,3.3c4.6-2.4,9.6-4,14.5-5.8c10.6-3.9,21.4-6.6,32.3-8.7
		c8.5-1.7,16.9-3.9,25.6-3.5c0.8,0,1.7,0.3,2.2-0.8c0.4,0,0.8,0,1.1,0c2,0.6,4,0.3,6,0.2c7.8-0.1,15.6,0.4,23.4-0.2
		c0.4,0,0.8,0,1.1,0c0.8,1.3,2,0.8,3,0.8c4.6-0.3,9.2,0.7,13.7,1.6c10.1,1.9,20.1,3.9,30,6.9c13.4,4,26.4,9.2,39,16
		c7.5,4.1,14.5,9,21.4,14.2c2.2,1.7,4.4,3.8,7.3,4.1c0.1,0.1,0.2,0.2,0.4,0.1c0.5,2,1.8,2.8,3.5,3.1c0.1,0.1,0.2,0.2,0.4,0.1
		c0.6,1.9,1.8,2.8,3.5,3.1l0,0c0.8,2,2.6,3,4,4.2c2,1.7,3.3,4.5,5.9,5.4c0.4,0.4,0.8,0.8,1.2,1.2c0.9,1.8,1.9,3.4,3.8,3.9
		c1.6,2.4,3.4,4.5,5.5,6.4c0.3,1.8,1.3,2.8,2.7,3.3c0.3,0.7,0.5,1.4,1.2,1.8c0.4,2.2,1.8,3.3,3.3,4.4c0.2,0.2,0.4,0.5,0.6,0.7
		c0.2,1.9,1.2,2.8,2.6,3.4c0,0.2,0,0.3,0.1,0.4c-0.1,0.7,0.2,1.2,0.5,1.7c5.4,8.5,10.5,17.3,14.1,27c0.3,0.7,0.6,1.3,1.3,1.4
		c0,0.2,0,0.3,0.1,0.5c0.7,2.2,1.4,4.5,2.2,6.7c0.5,1.4,0.6,3.1,2.2,3.7c0.1,0.4,0.1,0.7,0.2,1.1c-0.2,1.1,0.2,1.9,0.9,2.6
		c0,0.4,0.1,0.8,0.1,1.2c-0.2,1.9,0.6,3.5,1.2,5.2c2.6,7.8,4.2,15.8,5,24.2c0.3,3.2-0.4,6.5,1,9.6c0.1,1.7,0.1,3.4,0.2,5.1
		c-0.3,0.9-0.5,1.9,0.3,2.6c0,1.1,0,2.1,0,3.2c-0.7,0.5-0.6,1.2-0.3,2c-0.1,1.7-0.1,3.4-0.2,5c-0.9,0.7-0.6,1.7-0.6,2.6
		c0,5.6-1,11.1-1.9,16.6c-0.9,5.6-2.5,11-3.6,16.5c-2.4,9.9-6.7,18.9-10.6,28c-3.4,4.6-6,9.8-8.4,15.2
		c-6.6,11.4-15.2,20.6-23.6,30.1c-2.4,0.6-3.5,2.8-4.7,4.8c-8,7.5-16.5,14.3-25.2,20.7c-0.9-0.3-1.4,0.2-1.7,1.2c0,0,0,0,0,0
		c-1.6,0.3-3,1-4,2.5c-0.5,0.4-1.3,0.5-1.5,1.3c-2.7,1.2-5.4,2.5-8.1,3.6c-1,0.4-2.5,0.9-3.2-0.5c-0.6-1.2,0.3-2.4,1-3.4
		c1.4-2,2.9-4,4.4-6c0.4-0.4,0.7-0.8,1.1-1.2c0.7,0,1.1-0.4,1.3-1.2c2.7-1.9,4.9-4.5,6.5-7.6c0.7-0.1,1.1-0.6,1.1-1.4
		c1.3-1.3,2.6-2.5,3.3-4.3c1.2-0.4,2-1.2,2.2-2.7c0.4-0.2,0.6-0.6,0.6-1.1c0.7-0.2,1.1-0.6,1-1.5c0.1-0.1,0.1-0.3,0.1-0.4
		c1-0.3,1.6-0.9,1.6-2.1c0,0,0,0,0,0c0.8-0.2,1.2-1,1.6-1.7c5.6-9.7,10.8-19.5,14.5-30.4c1.5-4.4,3.3-8.7,4.3-13.3
		c0.1-0.7,0.1-1.5,0.2-2.2c0.9-0.4,1.1-1.2,0.8-2.3c0-0.4,0.1-0.8,0.1-1.2c1-3.4,2.4-6.6,2.7-10.2c0-0.4,0.1-0.8,0.1-1.2
		c0.7-0.5,0.6-1.2,0.4-2c0.1-0.8,0.1-1.7,0.2-2.5c0.9-1,0.6-2.1,0.4-3.2c0.1-1.3,0.1-2.5,0.2-3.8c1-1.6,0.5-3.4,0.5-5.1
		c0-0.4,0-0.8,0.1-1.3c1.2-2.5,0.6-5.1,0.5-7.7c0-0.4,0-0.8,0-1.3c1.1-4.3,0.2-8.5-0.6-12.8c0-0.4,0-0.8,0-1.3
		c0.1-1.9,0.6-3.9-0.5-5.8c-0.1-1-0.1-2.1-0.2-3.1c0.2-1.1,0.5-2.3-0.4-3.2c-0.1-1-0.1-2.1-0.2-3.1c0.2-0.6,0.2-1-0.3-1.3
		c0-0.4-0.1-0.8-0.1-1.2c-0.2-3.6-1.5-6.9-2.6-10.2c-0.1-0.6-0.1-1.2-0.2-1.9c-0.5-5-2.2-9.5-4.7-13.6c-0.2-1.3-0.5-2.5-1.2-3.6
		c-0.8-3.8-1.4-7.8-4.4-10.4c0-0.5,0-0.9-0.5-1.2c0-0.5-0.1-1-0.6-1.2c-0.2-0.4-0.4-0.9-0.6-1.3c-0.6-4-2.8-7-4.5-10.3
		c-0.6-1.3-1.2-2.9-2.8-3.2c-3.2-6.4-7.3-11.8-11.7-17c-0.1-0.5-0.1-1.1-0.4-1.4c-2.5-2.9-5-5.8-7.6-8.7c-0.6-0.6-1.2-0.9-2-0.7
		c-1.6-1.7-3.2-3.4-4.8-5.1c-0.3-1.8-1.3-2.6-2.8-2.6c0,0,0,0,0,0c-0.2-1.5-0.8-2.5-2.3-2.5c-2.3-2.8-5.1-4.9-8-6.9
		c-3.6-2.5-6.8-5.6-10.8-7.1c-1.4-2.7-4.1-3.6-6.3-4.7c-9.8-4.7-19.6-9.7-30.2-11.9c-5.9-1.2-11.6-3.3-17.5-4.4
		c-10.1-1.9-20.2-1.1-30.3-1.1c-4.7,0-9.6,0.6-14.2,1.6c-13.5,2.7-26.7,6.6-39.5,12.5c-5.3,2.5-5.9,3.7-4.1,9.9
		C671.8,312,671.7,312.2,671.7,312.4z"/>
	<path class="st2" d="M478.1,110.5c0,0.5-0.3,0.6-0.6,0.6c-0.3-0.4-0.6-0.8-0.1-1.2C477.8,109.7,477.9,110.2,478.1,110.5z"/>
	<path class="st0" d="M616.3,564.6c2.2,1.2,4.6,2.2,6.6,3.7c5.9,4.5,12.5,7.1,18.8,10.7c0.3,0.2,0.7,0.4,1,0.5
		c1.2,0.2,2.5,0.8,3.3-0.7c0.8-1.5,0.2-2.9-0.9-3.9c-3.2-2.9-6.1-6.4-9.3-9.2c-4.4-3.8-8-8.5-11.8-12.9c-5.3-6.3-9.9-13.3-14-20.7
		c-6.6-12-11.9-24.8-15.3-38.5c-4.2-17.3-6.7-35-5.8-53.1c0.4-7.6,1.9-15,2.9-22.4c1.9-14.2,6.6-27.4,12-40.2
		c2.6-6.2,5.9-11.9,9.4-17.6c0.4-0.7,0.8-1.5,1.7-1.4c-0.3,2.4-1.8,4.1-2.9,6c-6,10.7-10.8,22-14.4,33.9c-2.6,8.6-5,17.5-5.5,26.8
		c-0.2,4.1-1.4,8-1.7,12.2c-0.6,7.2-0.6,14.3,0,21.5c0.7,8,1.8,15.9,3.2,23.8c1.6,8.9,5.3,17.1,8.2,25.5
		c3.4,10.2,8.6,19.3,13.2,28.8c0.7,1.5,1.3,3.4,3.2,3.7c0,0.9,0.4,1.5,1.1,1.9c0.5,1.7,1.3,3.1,2.8,3.8c-0.1,1.3,0.5,2.2,1.3,3
		c4.9,5.6,9.6,11.4,14.9,16.5c2.6,2.5,5.5,4.5,8.3,6.7c3.3,2.7,4.6,5.8,3.4,8.1c-1.1,2.3-3.5,3-7.5,0.9c-6.7-3.6-13.6-6.9-19.7-11.7
		c-1.2-1-2.6-1.5-3.9-2.4C617.7,566.9,616.3,566.5,616.3,564.6z"/>
	<path class="st0" d="M508.4,529.5c-1.4-0.5-1.4-2.2-1.8-3.4c-2.5-8.1-4-16.5-6-24.8c-5.3-23.1-5.4-46.6-4.8-70.1
		c0.4-16.1,3.2-31.7,6.8-47.2c0.8-3.6,1.8-7.1,2.7-10.7c0.2-0.8,0.1-2,1.3-2.2c1.3,0.9,0.3,2,0,2.8c-4,14-6.6,28.4-8.5,42.9
		c-1.8,14.1-1.6,28.3-1.3,42.6c0.3,14.6,2.4,29,5.5,43.2c1.5,7.1,2.7,14.3,5,21.1C508.1,525.4,508.1,527.5,508.4,529.5z"/>
	<path class="st0" d="M543.7,380.7c-0.4,4.3-2.2,8.2-2.8,12.5c-1.6,11.8-3.4,23.7-2.4,35.7c0.9,10,2,20,4.6,29.8
		c1.7,6.4,3.4,12.7,5.7,18.8c4.1,10.7,8.5,21.3,14.7,30.7c0.7,1,1.5,1.9,1.3,3.3c-1.7-0.5-2.3-2.4-3.1-3.8
		c-4.2-7.2-7.8-14.7-11-22.7c-2-5.2-4.5-10.3-6-15.6c-1.9-7-4.4-13.8-5.3-21.2c-1.3-10.6-2.5-21.1-2.3-31.9
		c0.2-7.6,1.8-14.8,2.6-22.2c0.4-3.9,1.1-7.7,2.5-11.3C542.6,382,542.7,380.9,543.7,380.7z"/>
	<path class="st0" d="M584.8,306c0.2,1.2-0.6,1.7-1.2,2.3c-12.2,13.2-22.4,28.2-30,45.4c-3,6.7-5.4,13.8-8.1,20.7
		c-0.3,0.8-0.2,2-1.1,2.4c-0.7-0.8-0.3-1.6,0-2.3c1.9-4.5,3.4-9.3,5.4-13.9c2.5-5.9,4.8-11.9,7.7-17.5c4.3-8.2,9-16.2,14.9-23.1
		c3.2-3.7,5.7-8,9-11.6C582.3,307.4,583.3,306.3,584.8,306z"/>
	<path class="st0" d="M596.4,667.2c2,0.2,4,0.4,6,0.5c0.8,0,1.8,0.4,2.2-0.8c0.4-1.2,0-2.2-0.8-3.1c-0.7-0.8-1.5-1.6-2.4-2.1
		c-0.8-0.4-1.7-0.9-1.7-2.2c3.3,1.3,6.3,3.2,8,7c1,2.4,0.4,4-1.8,3.6C602.6,669.8,599,670.3,596.4,667.2z"/>
	<path class="st0" d="M582,534c0.5-0.2,0.9-0.1,1.3,0.4c3.7,4.7,8.1,8.5,12.2,12.7c0.4,0.4,0.6,1,0.9,1.5c-2.9-0.7-4.5-3.4-6.6-5.3
		C586.8,540.6,584,537.8,582,534z"/>
	<path class="st0" d="M586.6,249.2c1.2,0,1.7,1.2,2.4,2c3.6,4.5,7.2,9,10.9,13.4c-0.6,0.1-1.3,0.1-1.8-0.5c-4-4.5-8-8.9-11.4-14
		C586.5,249.9,586.6,249.5,586.6,249.2z"/>
	<path class="st0" d="M556.7,276.8c3.9-5.6,8.5-10.3,13-15.2c0.2-0.2,0.5-0.1,0.8-0.1c0.1,1.2-0.7,1.9-1.4,2.6
		c-3.2,3.7-6.4,7.4-9.6,11.1C558.7,276,558,277,556.7,276.8z"/>
	<path class="st0" d="M571.6,634.6c-1.8-0.2-2.5-1.9-3.5-3.2c-2.3-3-5.5-5.1-7-8.9c1.2-0.1,1.8,0.9,2.4,1.8
		C566.1,627.8,569.7,630.2,571.6,634.6z"/>
	<path class="st0" d="M532.2,581.8c-2.5-2.1-3.7-5.3-4.9-8.4C530.2,575.2,531.2,578.5,532.2,581.8z"/>
	<path class="st0" d="M513.4,544.1c-1.9-2.4-3.5-4.9-3.2-8.3C511.4,538.5,512.9,541.1,513.4,544.1z"/>
	<path class="st0" d="M564.8,511.6c2,1.3,3.1,3.3,3.8,5.7C566.5,516.2,565.1,514.4,564.8,511.6z"/>
	<path class="st0" d="M596.5,656.9c-1.9-0.6-3.7-1.4-4.6-3.8C593.8,653.8,595.6,654.6,596.5,656.9z"/>
	<path class="st0" d="M596.4,548.6c1.9,0.6,3.5,1.7,4.3,3.8C598.7,552,597.3,550.7,596.4,548.6z"/>
	<path class="st0" d="M568.7,517.4c1.5,1,3,2.1,3.2,4.4C570.3,520.9,568.9,519.7,568.7,517.4z"/>
	<path class="st0" d="M517.3,553c-1.5-1.3-2.6-2.9-2.7-5.2C516,549.3,517.1,550.8,517.3,553z"/>
	<path class="st0" d="M588.2,302.3c-0.5,2-1.5,3.3-3.4,3.7C585.4,304.1,586.4,302.7,588.2,302.3z"/>
	<path class="st0" d="M540,595c-1.6-0.9-2.3-2.6-2.7-4.5C539.3,591.2,539.9,593,540,595z"/>
	<path class="st0" d="M612.5,562c1.5,0.3,3,0.8,3.8,2.5C614.7,564.2,613.2,563.9,612.5,562z"/>
	<path class="st0" d="M572,521.9c1.2,0.6,2.2,1.3,2.1,3.1C572.7,524.6,572.1,523.5,572,521.9z"/>
	<path class="st0" d="M524.4,567.2c-1.5-0.5-2-1.8-2.1-3.4C523.7,564.4,524.5,565.5,524.4,567.2z"/>
	<path class="st0" d="M579.3,642.3c-1.3-0.1-2-1.1-2.4-2.5C578.4,639.7,579.2,640.7,579.3,642.3z"/>
	<path class="st0" d="M606.9,557.6c1.2,0.1,2.2,0.4,2.7,1.9C608.5,559.3,607.3,559.1,606.9,557.6z"/>
	<path class="st0" d="M604.7,555.7c1.2-0.1,1.8,0.7,2.2,1.8C605.7,557.5,604.9,557.1,604.7,555.7z"/>
	<path class="st0" d="M545,602.6c-1-0.4-1.7-1.2-1.7-2.5C544.8,600.2,545.1,601.3,545,602.6z"/>
	<path class="st0" d="M600.8,552.5c1.2-0.1,1.8,0.7,2.2,1.8C601.9,554.3,601,553.9,600.8,552.5z"/>
	<path class="st0" d="M551.7,611.5c-1.1-0.3-1.7-1.1-1.8-2.4C551.4,609.1,551.7,610.1,551.7,611.5z"/>
	<path class="st0" d="M609.7,559.5c1.2-0.1,1.8,0.6,2.1,1.8C610.7,561.3,609.9,560.9,609.7,559.5z"/>
	<path class="st0" d="M587.1,649.3c-1.1,0.1-1.6-0.7-1.9-1.8C586.4,647.3,587,647.9,587.1,649.3z"/>
	<path class="st0" d="M589.8,651.8c-1.1,0.1-1.6-0.6-1.8-1.8C589.2,649.8,589.8,650.5,589.8,651.8z"/>
	<path class="st0" d="M598.7,658.8c-1.1,0.1-1.6-0.7-1.8-1.8C598,656.8,598.6,657.5,598.7,658.8z"/>
	<path class="st0" d="M536.1,588.2c-1-0.2-1.6-0.8-1.6-2.1C535.7,586.2,536.2,586.8,536.1,588.2z"/>
	<path class="st0" d="M547.3,605.8c-0.9-0.2-1.2-0.8-1.2-1.8C547.2,603.9,547.3,604.8,547.3,605.8z"/>
	<path class="st0" d="M603,554.4c0.8-0.1,1.4,0.2,1.6,1.2C603.9,555.6,603.1,555.5,603,554.4z"/>
	<path class="st0" d="M544.2,378.1c0.3,0.6,0.2,1-0.4,1.3C543.1,378.7,543.5,378.4,544.2,378.1z"/>
	<path class="st0" d="M591.5,653.1c-0.8,0.1-1.1-0.3-1.2-1.2C591,651.8,591.5,652.1,591.5,653.1z"/>
	<path class="st0" d="M584.8,647.4c-0.8,0.1-1.2-0.3-1.2-1.2C584.4,646,584.8,646.4,584.8,647.4z"/>
	<path class="st0" d="M582.6,645.5c-0.8,0.1-1.1-0.4-1.2-1.2C582.2,644.1,582.6,644.5,582.6,645.5z"/>
	<path class="st0" d="M575.4,638.5c-0.8,0-1.1-0.4-1.2-1.2C575,637.1,575.4,637.5,575.4,638.5z"/>
	<path class="st0" d="M506.9,369.8c-1-0.9-0.2-1.1,0.4-1.4C507.4,369,507.5,369.5,506.9,369.8z"/>
	<path class="st0" d="M542.7,599.1c-0.7-0.1-1.1-0.6-1.1-1.4C542.5,597.6,542.8,598.1,542.7,599.1z"/>
	<path class="st0" d="M541.1,596.5c-0.7-0.1-1.1-0.5-1-1.4C540.9,595.1,541.2,595.6,541.1,596.5z"/>
	<path class="st0" d="M518.9,556.9c-0.7-0.2-1.1-0.6-0.8-1.5C518.9,555.6,519.1,556.1,518.9,556.9z"/>
	<path class="st0" d="M537.2,590.1c-0.7-0.1-1.1-0.5-1-1.4C537,588.7,537.3,589.2,537.2,590.1z"/>
	<path class="st0" d="M534.4,585.7c-0.7-0.1-1.1-0.6-1-1.5C534.2,584.2,534.6,584.7,534.4,585.7z"/>
	<path class="st0" d="M533.3,583.7c-0.7-0.1-1.1-0.6-1-1.5C533.2,582.3,533.5,582.8,533.3,583.7z"/>
	<path class="st0" d="M508,366c-0.9-0.9-0.2-1.1,0.4-1.4C508.5,365.2,508.5,365.7,508,366z"/>
	<path class="st0" d="M527.2,572.9c-0.7-0.1-1.1-0.5-1-1.4C527,571.5,527.4,572,527.2,572.9z"/>
	<path class="st0" d="M671.7,312.4c0-0.2,0.1-0.4,0.1-0.6c-1.8-6.2-1.1-7.4,4.1-9.9c12.7-5.9,26-9.9,39.5-12.5
		c4.7-0.9,9.5-1.5,14.2-1.6c10.1,0,20.2-0.7,30.3,1.1c5.9,1.1,11.6,3.1,17.5,4.4c10.6,2.2,20.3,7.2,30.2,11.9
		c2.2,1.1,4.9,1.9,6.3,4.7c-1.8,0-3.4-1-4.9-1.9c-9.9-5.5-20-10.2-30.8-12.8c-9.4-2.3-18.7-5.7-28.4-5.6c-14.1,0.3-28.3-1-42.3,3.6
		c-7.4,2.5-15,3.9-22.2,7.1c-2.9,1.3-5.8,2.5-8.7,3.8c-4.2,1.8-4.8,3.6-2,7.7c4.4,6.4,8.4,13.3,13.2,19.5
		c8.2,10.8,15.7,22.2,23.4,33.6c5.8,8.6,12.1,16.7,17.7,25.4c5.6,8.7,12.2,16.6,17.6,25.4c7.4,12.1,15.9,23.1,24,34.6
		c6,8.4,11.6,17.1,17,26.1c2.5,4.1,5.8,7.6,7.5,12.4c0.3,0.8,1.1,1.7,0.2,2.6c-0.8,0.8-1.6,0.2-2.3-0.2c-4.2-2.2-7.1-6.2-10.3-9.8
		c-0.9-1.1-1.6-2.3-2.5-3.3c-7.4-8.8-15-17.5-22.3-26.5c-3-3.7-6.1-7.4-9.1-11.1c-0.5-0.6-1.1-1.2-1-2.1c1.3-0.1,1.9,1.3,2.6,2.1
		c12.1,13.9,23.3,29,36,42.2c0.7,0.8,1.5,2.5,2.7,1.1c0.9-1.1,0.1-2.5-0.6-3.4c-1.9-2.2-3.2-4.9-4.8-7.3
		c-8.4-13.1-17.4-25.7-26.1-38.6c-9.5-14.2-19.4-27.9-29-42c-4.3-6.3-8.8-12.5-13.2-18.7c-5-7-9.7-14.4-14.6-21.5
		c-8.6-12.4-17.2-24.8-25.8-37.2c-0.6-0.9-1-2.1-2.3-1.8C672,312.9,671.9,312.7,671.7,312.4z"/>
	<path class="st2" d="M672.2,313.1c1.3-0.4,1.7,0.9,2.3,1.8c8.6,12.4,17.3,24.8,25.8,37.2c4.9,7.1,9.6,14.5,14.6,21.5
		c4.4,6.2,8.9,12.4,13.2,18.7c9.6,14,19.5,27.8,29,42c8.6,12.9,17.7,25.4,26.1,38.6c1.6,2.5,3,5.1,4.8,7.3c0.7,0.9,1.5,2.4,0.6,3.4
		c-1.2,1.4-1.9-0.4-2.7-1.1c-12.7-13.2-23.9-28.2-36-42.2c-0.7-0.9-1.3-2.2-2.6-2.1c-0.3-1.6-1.2-2.5-2.5-3.1c0.1-0.6-0.2-1-0.6-1.3
		c-7.9-9.3-15.8-18.7-23.7-28c-0.4-0.5-0.8-1.3-1.6-1.1c-1.5-2.7-3.4-4.8-5.7-6.6c0.4-1.2-0.5-1.7-1-2.4
		c-6.8-7.9-13.5-15.7-20.3-23.6c-0.3-0.4-0.6-0.8-1.2-0.7c-1.1-2.2-2.7-3.9-4.5-5.3c0.1-0.9,0.2-1.8,0.3-2.7
		c5.6,4.1,10.1,9.8,14.7,15.2c3.6,4.3,6.8,8.9,10.4,13.1c9.9,11.6,20,22.9,29.7,34.6c3.5,4.2,6.6,8.9,10.2,12.8
		c4.5,4.9,8.5,10.5,13.5,14.8c0.4,0.3,0.8,0.8,1.2,0.5c0.7-0.6,0.2-1.3-0.2-1.9c-2.8-4.8-5.6-9.5-8.5-14.3
		c-7.9-12.8-17.2-24.3-25.3-36.9c-7.8-12.1-16.5-23.5-24.8-35.3c-5.5-7.8-10.8-15.8-16.2-23.7c-6.1-9-12.3-17.9-18.5-26.9
		C672.7,314.7,671.9,314.2,672.2,313.1z"/>
	<path class="st0" d="M721.4,242.7c-0.5,1.1-1.5,0.8-2.2,0.8c-8.7-0.4-17.1,1.9-25.6,3.5c-10.9,2.1-21.7,4.9-32.3,8.7
		c-4.9,1.8-9.9,3.4-14.5,5.8c-7,3.7-7.6,1.5-11.2-3.3c-6.4-8.7-12.3-17.8-18.5-26.6c-4.7-6.6-5.5-8.1,2-12.3
		c5.6-3.2,10.8-7.3,16.7-9.7c0.9-0.4,1.7-0.8,2.6-0.7c0.1,1.6-1.1,1.8-2,2.2c-6.6,3.3-12.5,7.9-19,11.4c-1.9,1-2.3,2.8-1.1,4.7
		c3.4,5.3,6.6,10.6,10.3,15.6c3.6,4.9,7.3,9.8,10.7,14.9c2.5,3.8,4.4,4.3,8.4,2.6c8.8-3.9,17.6-7.8,26.9-10.2
		c10.7-2.7,21.4-5.4,32.3-7.2C710.4,242.2,715.9,241.6,721.4,242.7z"/>
	<path class="st0" d="M867.5,286.3c-2.9-0.2-5.1-2.4-7.3-4.1c-6.9-5.2-14-10.1-21.4-14.2c-12.5-6.8-25.6-12-39-16
		c-9.9-3-20-5-30-6.9c-4.5-0.8-9-1.8-13.7-1.6c-1,0.1-2.2,0.6-3-0.8c3.2-1,6.6-0.8,9.8-0.3c8.4,1.1,16.9,2.3,25.2,4.4
		c14.3,3.6,28.6,7.8,42.1,14.7c8.7,4.4,17.3,9.3,25.2,15.5c3.2,2.5,6.6,4.5,9.9,6.8C866.3,284.4,867.6,284.6,867.5,286.3z"/>
	<path class="st0" d="M843.3,563.8c-1.5,2-3,4-4.4,6c-0.7,1-1.6,2.2-1,3.4c0.7,1.4,2.2,0.9,3.2,0.5c2.7-1.1,5.4-2.4,8.1-3.6
		c-0.1,0.4,0,1-0.3,1.2c-3.6,2.4-7.2,5-11.4,5.8c-2.3,0.5-3.5-1.1-3.2-3.4C834.6,571.2,840.9,564.3,843.3,563.8z"/>
	<path class="st0" d="M719.2,404.7c0.8-0.2,1.1,0.6,1.6,1.1c7.9,9.3,15.8,18.6,23.7,28c0.3,0.4,0.7,0.7,0.6,1.3
		c-1,0-1.7-0.7-2.3-1.5c-7.5-8.8-14.9-17.6-22.4-26.4C719.7,406.4,719.2,405.7,719.2,404.7z"/>
	<path class="st0" d="M882.4,494.9c-1,4.6-2.8,8.9-4.3,13.3c-3.7,10.8-9,20.7-14.5,30.4c-0.4,0.7-0.8,1.4-1.6,1.7
		c-0.1-2.2,1.2-3.8,2.2-5.3c6.9-11.3,12.2-23.6,16.1-36.6C880.7,497,880.8,495.3,882.4,494.9z"/>
	<path class="st0" d="M651.2,324.7c1-0.1,1.5,0.7,2,1.4c7.2,8.4,14.3,16.9,21.5,25.4c0.4,0.5,0.9,1,0.8,1.9c-1,0-1.5-0.8-2.1-1.4
		c-7.1-8.4-14.3-16.9-21.4-25.3C651.6,326,651.2,325.5,651.2,324.7z"/>
	<path class="st0" d="M935,412.6c-1.4-3-0.7-6.4-1-9.6c-0.8-8.4-2.4-16.4-5-24.2c-0.5-1.6-1.4-3.3-1.2-5.2c0.8,0,1,0.7,1.2,1.4
		c3.8,11.1,6.5,22.5,6.5,34.6C935.6,410.7,935.9,411.9,935,412.6z"/>
	<path class="st0" d="M691,371.4c0.5-0.1,0.8,0.3,1.2,0.7c6.8,7.9,13.6,15.7,20.3,23.6c0.5,0.6,1.4,1.2,1,2.4
		c-0.8-0.2-1.3-0.8-1.8-1.4c-6.4-7.4-12.9-14.8-19.3-22.3C691.7,373.5,690.9,372.7,691,371.4z"/>
	<path class="st0" d="M928.9,466.2c1.1-5.5,2.7-10.9,3.6-16.5c0.9-5.5,1.9-11,1.9-16.6c0-0.9-0.3-2,0.6-2.6c1.3,2,0.7,4.3,0.5,6.4
		c-0.6,9.3-2.7,18.2-4.9,27.1C930.3,465,930.1,466.1,928.9,466.2z"/>
	<path class="st0" d="M751.9,242.7c-7.8,0.6-15.6,0.1-23.4,0.2c-2,0-4,0.3-6-0.2c0.3-1.3,1.2-1,2-1c8.4,0,16.9,0,25.3,0
		C750.7,241.7,751.6,241.4,751.9,242.7z"/>
	<path class="st0" d="M922.2,357.9c-0.7-0.1-1.1-0.8-1.3-1.4c-3.6-9.7-8.7-18.5-14.1-27c-0.3-0.5-0.7-1-0.5-1.7
		c2.6,1.3,3.6,4.3,5.1,6.7c4,6.8,7.8,13.7,10.4,21.4C922,356.5,922.4,357.1,922.2,357.9z"/>
	<path class="st0" d="M623.2,347c-0.3-0.9,0.2-1.4,0.6-1.9c4.8-5.9,10-11.2,15.1-16.7c0.4-0.4,0.8-0.6,1.2-0.4
		c-0.7,2.3-2.4,3.7-3.9,5.1c-4.1,3.9-7.6,8.4-11.5,12.7C624.4,346.4,623.9,346.9,623.2,347z"/>
	<path class="st0" d="M910,509.5c2.3-5.4,5-10.6,8.4-15.2c0.4,0.2,0.6,0.6,0.4,1c-2.5,4.6-5.1,9.2-7.6,13.7
		C910.9,509.5,910.5,509.5,910,509.5z"/>
	<path class="st0" d="M864.3,362c1.6,0.3,2.1,1.9,2.8,3.2c1.6,3.3,3.9,6.4,4.5,10.3c-0.7,0.1-1.3-0.1-1.6-0.8
		c-1.4-4.2-3.7-7.9-5.7-11.8C864.2,362.7,864.3,362.3,864.3,362z"/>
	<path class="st0" d="M686.8,363.4c-0.1,0.9-0.2,1.8-0.3,2.7c-3.4-2.9-6.5-6-8.7-10.2c2.2,0.7,3.2,3.2,4.8,4.7
		c1.2,1.1,2.1,2.7,3.9,2.3C686.6,363.1,686.7,363.2,686.8,363.4z"/>
	<path class="st0" d="M842.6,334.1c0.8-0.2,1.4,0.1,2,0.7c2.5,2.9,5.1,5.8,7.6,8.7c0.3,0.3,0.3,1,0.4,1.4c-1.9-0.2-2.7-2.1-3.8-3.4
		C846.7,339.1,844.3,337,842.6,334.1z"/>
	<path class="st0" d="M885.2,302.2c-2.6-0.8-3.9-3.6-5.9-5.4c-1.4-1.2-3.2-2.1-4-4.2C879.7,294.3,882.7,297.9,885.2,302.2z"/>
	<path class="st0" d="M878.7,393.3c2.5,4.1,4.2,8.6,4.7,13.6C881.5,402.5,878.8,398.5,878.7,393.3z"/>
	<path class="st0" d="M888,438.1c0.7,4.2,1.6,8.4,0.6,12.8C887.8,446.7,886.7,442.5,888,438.1z"/>
	<path class="st0" d="M873.2,379.2c3,2.6,3.6,6.6,4.4,10.4C874.8,386.8,874.3,382.9,873.2,379.2z"/>
	<path class="st0" d="M883.6,408.8c1.1,3.3,2.4,6.6,2.6,10.2C884.1,416,883.1,412.7,883.6,408.8z"/>
	<path class="st0" d="M886.2,478.9c-0.3,3.6-1.7,6.9-2.7,10.2C883,485.2,884,481.9,886.2,478.9z"/>
	<path class="st0" d="M926.6,368.8c-1.5-0.6-1.7-2.3-2.2-3.7c-0.8-2.2-1.4-4.4-2.2-6.7c0.8,0,1.2,0.6,1.4,1.3
		C924.7,362.7,925.7,365.7,926.6,368.8z"/>
	<path class="st0" d="M643,325.9c1.4-3.7,3.6-5,6-3.6C646.4,322.2,645.1,325.1,643,325.9z"/>
	<path class="st0" d="M888.5,452.2c0,2.6,0.7,5.2-0.5,7.7C887.4,457.2,886.5,454.5,888.5,452.2z"/>
	<path class="st0" d="M881.6,544.5c1.2-2.1,2.3-4.3,4.7-4.8C885.3,541.9,884.2,544.1,881.6,544.5z"/>
	<path class="st0" d="M887.5,431.1c1,1.8,0.6,3.8,0.5,5.8C885.9,435.1,886.8,433.1,887.5,431.1z"/>
	<path class="st0" d="M890.2,307.4c-1.9-0.5-2.9-2.1-3.8-3.9C888.5,303.7,889.7,305.1,890.2,307.4z"/>
	<path class="st0" d="M902.9,323.2c-1.5-1.1-3-2.2-3.3-4.4C901.5,319.5,902.8,320.8,902.9,323.2z"/>
	<path class="st0" d="M887.9,461.1c0.1,1.7,0.6,3.5-0.5,5.1C886.6,464.4,886.2,462.6,887.9,461.1z"/>
	<path class="st0" d="M871.4,289.5c-1.7-0.3-3-1.1-3.5-3.1C869.5,286.8,871,287.3,871.4,289.5z"/>
	<path class="st0" d="M875.3,292.7c-1.7-0.2-2.9-1.1-3.5-3.1C873.6,289.7,874.5,291,875.3,292.7z"/>
	<path class="st0" d="M898.4,317.1c-1.5-0.5-2.5-1.5-2.7-3.3C897.3,314.1,898.3,315.1,898.4,317.1z"/>
	<path class="st0" d="M850.8,568.8c1-1.5,2.4-2.2,4-2.5C854.1,568.5,852.5,568.8,850.8,568.8z"/>
	<path class="st0" d="M906.2,327.3c-1.4-0.6-2.5-1.5-2.6-3.4C905.1,324.4,906.1,325.3,906.2,327.3z"/>
	<path class="st0" d="M835,326.4c1.6,0,2.5,0.8,2.8,2.6C836.2,329,835.5,327.8,835,326.4z"/>
	<path class="st0" d="M832.7,323.9c1.5,0,2.1,1,2.3,2.5C833.5,326.5,832.8,325.5,832.7,323.9z"/>
	<path class="st0" d="M619.9,351.5c-0.1-1.7,0.7-2.4,2-2.6C621.8,350.3,621.1,351.1,619.9,351.5z"/>
	<path class="st0" d="M887.3,470c0.2,1.1,0.5,2.3-0.4,3.2C886.1,472,885.8,470.8,887.3,470z"/>
	<path class="st0" d="M886.9,424.7c0.9,1,0.6,2.1,0.4,3.2C885.8,427.1,886.1,425.9,886.9,424.7z"/>
	<path class="st0" d="M858.7,545.3c-0.2,1.5-1,2.3-2.2,2.7C856.5,546.3,857.3,545.4,858.7,545.3z"/>
	<path class="st0" d="M927.7,372.5c-0.7-0.7-1.1-1.5-0.9-2.6C927.9,370.4,928.9,370.9,927.7,372.5z"/>
	<path class="st0" d="M935.5,420.3c-0.8-0.7-0.6-1.7-0.3-2.6C936.5,418.3,936.3,419.3,935.5,420.3z"/>
	<path class="st0" d="M640.7,327.8c0.1-1.2,0.5-1.9,1.7-1.6C642.3,327.3,641.7,327.8,640.7,327.8z"/>
	<path class="st0" d="M862,540.2c0,1.2-0.6,1.9-1.6,2.1C860.3,540.9,860.8,540.2,862,540.2z"/>
	<path class="st0" d="M935.2,425.4c-0.3-0.7-0.4-1.4,0.3-2C936.4,424.3,936.3,425,935.2,425.4z"/>
	<path class="st0" d="M886.7,475.7c0.2,0.7,0.3,1.4-0.4,2C885.5,476.8,885.6,476.1,886.7,475.7z"/>
	<path class="st0" d="M883.4,490.4c0.3,1,0.2,1.8-0.8,2.3C882.4,491.7,882.2,490.7,883.4,490.4z"/>
	<path class="st0" d="M616.5,355.9c-0.2-1,0.1-1.6,1-1.7C617.5,355,617.5,355.8,616.5,355.9z"/>
	<path class="st0" d="M854.8,566.3c0.2-1,0.8-1.4,1.7-1.2C856.4,566.4,855.6,566.4,854.8,566.3z"/>
	<path class="st0" d="M886.4,420.2c0.5,0.3,0.6,0.8,0.3,1.3C885.9,421.4,885.5,421,886.4,420.2z"/>
	<path class="st0" d="M872.1,376.8c0.5,0.2,0.5,0.7,0.6,1.2c-0.3-0.1-0.8,0-1-0.3C871.4,377.4,871.8,377,872.1,376.8z"/>
	<path class="st0" d="M860.4,542.8c0.1,0.9-0.3,1.3-1,1.5C859.2,543.3,859.5,542.7,860.4,542.8z"/>
	<path class="st0" d="M649.4,203.3c0.2-0.8,0.4-1.6,1.3-0.8C650.5,203.3,650,203.4,649.4,203.3z"/>
	<path class="st0" d="M853.2,552.4c0,0.8-0.4,1.3-1.1,1.4C852,552.8,852.4,552.3,853.2,552.4z"/>
	<path class="st0" d="M845.6,561.4c-0.1,0.8-0.5,1.3-1.3,1.2C844.3,561.6,844.7,561.2,845.6,561.4z"/>
	<path class="st0" d="M651,202.6c0.1-0.9,0.6-1.3,1.3-1.3C652.3,202.4,651.9,202.8,651,202.6z"/>
	<path class="st0" d="M615.5,357.8c-0.2-0.9,0.2-1.3,0.9-1.3C616.4,357.2,616.2,357.7,615.5,357.8z"/>
	<path class="st3" d="M727.7,492.1c0.8,12.1-4.3,21.1-12.5,27.3c-5.6,4.2-12.3,6.8-19.3,7.8c-9.6,1.4-18.5-1.1-26.9-6
		c-5.8-3.4-10.5-8.5-13.2-15.6c-1.4-3.7-3.2-7-3.2-11.4c0-14.5,6.6-24,17.1-30.4c11.4-6.9,23.6-7.2,35.6-3.1
		c9.6,3.3,17.3,10.3,21.5,21.4C728.1,485.3,727.6,488.7,727.7,492.1z M725.9,492.1c0.9-10.2-3.5-17.1-10.1-23
		c-2.6-2.3-5.6-3.4-8.4-5.1c-5.5-3.4-11.7-4.2-17.6-3.9c-6.9,0.4-14,1.8-20.2,6.3c-5.6,4-11.1,7.9-12.9,15.9
		c-0.1,0.6-0.4,1.2-0.8,1.7c-1.6,1.9-1.7,4.3-1.9,6.8c-0.3,4.8,1.5,8.9,3,13.3c2.3,6.8,6.8,11.3,11.7,14.6
		c6.3,4.3,13.6,5.8,21.1,6.3c5.5,0.3,10.8-1.3,16-2.8c3.2-0.9,6.8-2.1,9.2-4.4C721.9,511.2,726.9,503.2,725.9,492.1z"/>
	<path class="st4" d="M582.5,653.2c-0.7,0.8-1.3,0.3-1.9,0c-7.8-4.3-15.5-8.4-23.2-12.8c-9.2-5.2-17.2-12.3-25.5-19.1
		c-7-5.8-14-11.7-20.6-18c-8.1-7.7-15.7-15.9-22.6-25.1c-4.8-6.4-9.5-12.9-14.2-19.4c-2.4-3.3-4.1-7.3-6.4-10.6
		c-4.5-6.4-7.2-14.1-11.7-20.6c-2.4-3.5-3.8-7.9-5.6-11.8c-4.1-8.9-7.3-18.3-9.6-28c-1.1-4.7-2.7-9.2-4-13.8
		c-1.9-6.8-2.7-13.8-4-20.7c-1.8-9.9-3-19.9-3.5-30.1c-0.3-5.4-1.4-10.8-1.6-16.3c-0.2-7,1.3-13.6,1.9-20.5
		c0.4-5.1,1.2-10.3,1.4-15.4c0.3-6.4,2.3-12.4,3.1-18.7c1.1-9.2,4.5-17.6,6.3-26.5c1.8-8.8,5.6-16.6,8.2-25
		c1.1-3.6,3.1-6.9,4.8-10.2c2.6-5,5-10.2,7.8-15.1c5.1-9,10.8-17.6,16-26.6c4.7-8.1,10.9-14.4,16.9-21.1c3.4-3.8,6.8-7.7,10.2-11.6
		c5.1-6,10.2-12.2,16.4-16.8c4.2-3.1,8.3-6.2,12.4-9.4c3.3-2.6,3.6-8.5,0.8-11.6c-4.9-5.3-9.9-10.5-14.7-15.8
		c-7.8-8.6-13.8-19-21.7-27.5c-3.2-3.5-6.5-6.9-9.8-10.2c-2.4-2.4-5.1-2.1-7.8-1c-4.5,1.9-9.2,1.5-13.8,2.5c-0.6,0.1-1.3-0.2-1.5-1
		c-0.2-0.9,0.5-1.2,1.1-1.6c4.6-3.2,9.1-6.6,14.1-8.9c0.4-0.2,0.8-0.6,1.1-0.9c6.4-5.3,13.1-10.1,19.8-14.9
		c3.6-2.6,6.7-5.9,10.4-8.2c1.6-1,2.6-1,3.9,0.9c4.6,6.7,8.1,14.3,13.4,20.4c2.4,2.8,4.6,5.7,6.9,8.6c1.8,2.4,2.9,5.3,4.7,7.7
		c3.7,5,7.5,9.9,10.8,15.2c3.8,6.1,7.8,12,12.1,17.5c2.8,3.5,7.9,3.9,11.4,1.2c3.9-3,8-5.4,12.7-6.4c4.8-1,8.9-4.2,13.6-5.7
		c5.4-1.7,10.7-3.7,15.9-6.1c7.5-3.5,15.5-5.2,23.3-7c5.8-1.3,11.3-3.5,17-4.8c3.2-0.7,4.3,0.7,4,4.3c-0.3,2.7-0.1,5.5-0.1,8.3
		c0,12.7,0,25.4,0,38.1c0,1.6,0,3.1,0.3,4.7c0.5,2.4-1,3.8-2.5,4.8c-1.5,0.9-3,1.9-4.8,2.3c-2.3,0.5-4.2,1.5-6.1,3.4
		c-1.6,1.7-3.8,2.5-6.2,2.2c-0.5-0.1-1.1,0.1-1.6,0.4c-8.3,4.8-17.1,8.6-24.8,14.9c-0.7,0.5-1.4,1.1-2.1,1.5
		c-5.4,3.3-6.2,9.5-1.6,14.5c5.1,5.5,8.6,12.2,12.5,18.7c3.6,6,7.9,11.4,11.8,17.1c2.3,3.3,5.4,3.1,8,1.7c6.6-3.6,13.5-6,20.4-8.6
		c6.8-2.6,13.7-5.4,21-6.1c3.8-0.4,7.1-2.8,10.9-3.2c4.7-0.5,9.5-1.2,14.2-1.9c11.6-1.7,23.2-2.1,34.9-2c6,0.1,11.8,2,17.7,2.4
		c2.3,0.1,4.8,0.5,7.1,0.7c4.2,0.2,8.1,1.9,12.1,2.8c8.5,1.9,16.9,3.7,25.1,7.1c7.4,3.1,14.8,5.8,22.1,9.3c6,2.9,12,6.1,18,9
		c3.4,1.7,6.6,4,9.5,6.8c2.7,2.6,5.9,4.5,8.8,7c8.5,7.4,17,14.7,24.5,23.5c5.7,6.7,10.6,14.3,15.3,22c3.2,5.3,6.5,10.7,9.4,16.3
		c2.5,4.8,4.5,10.1,6.3,15.5c1.8,5.4,2.6,11,4.2,16.2c1.6,5.1,2.2,10.3,2.5,15.5c0.3,6,1.8,11.9,1.9,17.9c0.1,3.9,0,7.8-0.7,11.6
		c-1.1,6.6-1.4,13.4-2.2,20.1c-0.4,4-2.6,7.5-2.5,11.6c0.1,5.8-2.5,10.7-4.5,15.4c-1.8,4.3-3,9.4-6.3,13.1c-2.4,2.7-3.2,6.8-5.3,9.9
		c-4,5.9-7.2,12.5-11.6,18.1c-3.3,4.1-6.8,8.1-10.2,12c-7.4,8.3-15.6,15.7-23.8,23c-2,1.8-4.6,2.7-6.2,5.2c-0.5,0.8-1.4,1.3-2.1,0.4
		c-0.9-1,0-1.7,0.5-2.3c5-5.5,9.9-11.2,13.7-17.8c4-7,8.4-13.8,11.1-21.7c1.8-5.2,4.5-10,5.7-15.4c1.9-8.6,3.3-17.6,5.3-26.1
		c3.3-13.7,2-27.3,2.4-41c0.2-5.3-2.3-10-2.9-15.1c-0.2-1.4-0.3-2.7-0.4-4.1c-0.2-3.2-0.4-6.3-1.9-9.1c-1.3-2.4-1.1-5.3-1.6-8
		c-1.2-6.4-3.9-12.2-6.1-18.1c-4.7-12.7-12.1-23.3-19.7-33.8c-3.8-5.2-7.4-10.6-11.7-15.2c-6.2-6.8-13.3-12.2-20.4-17.7
		c-5.4-4.3-11.3-7.8-16.5-12.3c-2.4-2-5.1-2.9-7.7-4c-4.8-2.2-9.4-5.3-14.5-6.8c-6.2-1.8-12.4-3.6-18.6-5.6c-3.8-1.3-8-0.8-12-1.7
		c-11-2.5-22.1-1.4-33-0.9c-7.1,0.3-14.6,0.6-21.4,3.1c-7.9,2.9-16.2,3.7-23.7,7.9c-4.4,2.4-8.9,4.4-13.4,6.6c-3.1,1.6-4,7-1.7,10.4
		c2.1,3.1,4.4,6,6.6,8.9c7.2,9.5,13.2,20.1,20.1,29.8c3.9,5.5,8,10.8,11.7,16.4c4,6.2,8.4,12.1,12.8,17.9c3.1,4.1,5.6,8.6,8.5,12.8
		c6.6,9.5,12.8,19.3,19.9,28.3c2.8,3.6,5.3,7.5,8.4,10.9c0.3,0.4,0.5,0.9,0.7,1.3c0.3,0.6,0.6,1.3,0,1.7c-0.6,0.5-1-0.2-1.4-0.7
		c-2.7-3.3-5.4-6.7-8-10c-3.9-4.9-7.6-10-12-14.4c-2.3-2.3-4.2-5-6.5-7.3c-6.3-6.6-12.1-13.8-17.7-21.3c-5.3-7.3-11.3-14-17.6-20.2
		c-6.7-6.5-12.1-14.4-17.8-22c-3.2-4.2-6.7-8.1-10.2-12c-3.5-4-7.6-7.3-10.7-11.8c-2-3-6.9-3.5-10.1-0.6c-5.8,5.5-12.3,10-17.3,16.6
		c-4.5,5.9-8.8,11.9-12.5,18.5c-1.4,2.6-3.3,4.8-4.9,7.2c-7,10-11.8,21.4-15.7,33.2c-2.7,8.3-4.4,17.2-6.3,25.9
		c-0.6,2.8-0.7,5.9-0.7,8.8c-0.1,13-0.1,25.9,0,38.9c0,4.8,0.7,9.4,1.9,14c1.4,5.7,2.2,11.5,4,17.1c1.6,4.8,2.5,9.9,4.8,14.4
		c1.9,3.8,3.5,7.8,5.3,11.7c2.9,6.3,6.5,11.9,10.2,17.6c3.8,5.8,7.9,11.2,12.4,16.2c0.2,0.2,0.4,0.4,0.6,0.7
		c0.8,1.1,2.3,2.4,1.4,3.7c-0.9,1.2-2.3-0.2-3.4-0.9c-10.3-6-19-14.6-27.8-23c-9.7-9.3-18.6-19.6-25.9-31.5
		c-4.6-7.6-9.3-15.3-12.9-23.6c-2.1-4.9-5.1-9.3-5.7-15.3c-0.3-3.3-2.3-6.5-2.9-10.1c-2.9-15.8-4.1-31.8-3.4-47.9
		c0.3-7.4,1.1-14.7,2.9-21.9c0.6-2.3,0.3-5,1-7.1c1.9-5.6,2.4-11.9,5.8-16.8c0.2-0.3,0.5-0.7,0.6-1.1c2.6-9.3,8-16.7,12.3-24.8
		c4.3-8,9.6-14.9,14.5-22.2c2.6-3.9,6.4-6.3,9.5-9.6c6.5-7,14.1-12.5,20.9-19.1c0.5-0.5,1-1,1.6-1.2c2.2-0.6,4.1-1.6,4.3-4.5
		c0.2-3.6,0.1-6.8-3-9.6c-3.8-3.5-6.7-8.1-10.1-12.1c-5.2-6-10.3-12-15.7-17.8c-2.2-2.3-6.9-1.1-9.9,1.9c-4.2,4.1-8.6,7.9-12.6,12.2
		c-3.1,3.3-6.1,6.8-8.7,10.6c-3.9,5.6-8.1,10.7-12.3,15.8c-7.5,9.2-14.5,18.9-19.9,29.8c-3.8,7.6-7.7,15.1-10.9,23.2
		c-1.6,4-3,8.3-5.4,12c-0.3,0.4-0.6,0.9-0.6,1.4c-0.5,4-2.6,7.2-3.9,10.7c-2.1,5.9-4.1,11.9-5.1,18.3c-0.2,1.4-0.9,2.5-1.2,3.8
		c-3,9.8-4.7,19.9-5.5,30.3c-0.5,5.8-0.9,11.6-1.7,17.3c-0.9,6.8-0.3,13.6-0.5,20.3c-0.3,9.5,1.5,18.7,2,28.1
		c0.5,8.6,2.4,16.9,3.6,25.3c0.2,1.7,1.1,3.3,1.6,5c2.2,7.7,3.8,15.6,6.6,23c1.6,4.3,3,8.8,5.1,12.9c1.8,3.5,3.4,7.2,5,10.8
		c1.8,3.8,3.2,8,4.9,12c3.8,9.4,9,17.8,14.5,26c5,7.5,10.4,14.5,15.5,21.8c4.6,6.6,9.9,12.5,15.3,18.3c5.4,5.8,11.4,10.7,16.7,16.5
		C581.5,651.5,582.4,652.1,582.5,653.2z"/>
	<path class="st4" d="M725.9,492.1c1,11.1-4,19.1-10.9,25.6c-2.5,2.3-6,3.5-9.2,4.4c-5.2,1.4-10.5,3.1-16,2.8
		c-7.4-0.4-14.7-2-21.1-6.3c-4.9-3.3-9.4-7.8-11.7-14.6c-1.5-4.4-3.3-8.4-3-13.3c0.1-2.4,0.2-4.9,1.9-6.8c0.4-0.4,0.6-1.1,0.8-1.7
		c1.8-8,7.3-11.9,12.9-15.9c6.3-4.5,13.3-5.9,20.2-6.3c5.9-0.3,12.1,0.5,17.6,3.9c2.8,1.7,5.8,2.8,8.4,5.1
		C722.4,475,726.8,481.9,725.9,492.1z"/>
</g>
</svg>
